<svg width="14" height="18" viewBox="0 0 14 18" fill="none" xmlns="http://www.w3.org/2000/svg">
<path d="M0.514188 9.024C0.514188 6.256 1.01019 4.088 2.00219 2.52C3.01019 0.951999 4.67419 0.167999 6.99419 0.167999C9.31419 0.167999 10.9702 0.951999 11.9622 2.52C12.9702 4.088 13.4742 6.256 13.4742 9.024C13.4742 11.808 12.9702 13.992 11.9622 15.576C10.9702 17.16 9.31419 17.952 6.99419 17.952C4.67419 17.952 3.01019 17.16 2.00219 15.576C1.01019 13.992 0.514188 11.808 0.514188 9.024ZM10.1622 9.024C10.1622 7.84 10.0822 6.848 9.92219 6.048C9.77819 5.232 9.47419 4.568 9.01019 4.056C8.56219 3.544 7.89019 3.288 6.99419 3.288C6.09819 3.288 5.41819 3.544 4.95419 4.056C4.50619 4.568 4.20219 5.232 4.04219 6.048C3.89819 6.848 3.82619 7.84 3.82619 9.024C3.82619 10.24 3.89819 11.264 4.04219 12.096C4.18619 12.912 4.49019 13.576 4.95419 14.088C5.41819 14.584 6.09819 14.832 6.99419 14.832C7.89019 14.832 8.57019 14.584 9.03419 14.088C9.49819 13.576 9.80219 12.912 9.94619 12.096C10.0902 11.264 10.1622 10.24 10.1622 9.024Z" fill="white"/>
</svg>
