<svg width="13" height="18" viewBox="0 0 13 18" fill="none" xmlns="http://www.w3.org/2000/svg">
<path d="M1.43738 14.208C2.97338 12.928 4.19738 11.864 5.10938 11.016C6.02138 10.152 6.78138 9.256 7.38938 8.328C7.99738 7.4 8.30138 6.488 8.30138 5.592C8.30138 4.776 8.10938 4.136 7.72538 3.672C7.34138 3.208 6.74938 2.976 5.94938 2.976C5.14938 2.976 4.53338 3.248 4.10138 3.792C3.66938 4.32 3.44538 5.048 3.42938 5.976H0.165375C0.229375 4.056 0.797375 2.6 1.86938 1.608C2.95738 0.615999 4.33338 0.119998 5.99738 0.119998C7.82138 0.119998 9.22138 0.607999 10.1974 1.584C11.1734 2.544 11.6614 3.816 11.6614 5.4C11.6614 6.648 11.3254 7.84 10.6534 8.976C9.98138 10.112 9.21338 11.104 8.34938 11.952C7.48538 12.784 6.35738 13.792 4.96538 14.976H12.0454V17.76H0.189375V15.264L1.43738 14.208Z" fill="#F4F3FD"/>
</svg>
