<svg width="13" height="19" viewBox="0 0 13 19" fill="none" xmlns="http://www.w3.org/2000/svg">
<path d="M1.13641 5.112C1.21641 3.512 1.77641 2.28 2.81641 1.416C3.87241 0.535999 5.25641 0.0959988 6.96841 0.0959988C8.13641 0.0959988 9.13641 0.303999 9.96841 0.719999C10.8004 1.12 11.4244 1.672 11.8404 2.376C12.2724 3.064 12.4884 3.848 12.4884 4.728C12.4884 5.736 12.2244 6.592 11.6964 7.296C11.1844 7.984 10.5684 8.448 9.84841 8.688V8.784C10.7764 9.072 11.4964 9.584 12.0084 10.32C12.5364 11.056 12.8004 12 12.8004 13.152C12.8004 14.112 12.5764 14.968 12.1284 15.72C11.6964 16.472 11.0484 17.064 10.1844 17.496C9.33641 17.912 8.31241 18.12 7.11241 18.12C5.30441 18.12 3.83241 17.664 2.69641 16.752C1.56041 15.84 0.960406 14.496 0.896406 12.72H4.16041C4.19241 13.504 4.45641 14.136 4.95241 14.616C5.46441 15.08 6.16041 15.312 7.04041 15.312C7.85641 15.312 8.48041 15.088 8.91241 14.64C9.36041 14.176 9.58441 13.584 9.58441 12.864C9.58441 11.904 9.28041 11.216 8.67241 10.8C8.06441 10.384 7.12041 10.176 5.84041 10.176H5.14441V7.416H5.84041C8.11241 7.416 9.24841 6.656 9.24841 5.136C9.24841 4.448 9.04041 3.912 8.62441 3.528C8.22441 3.144 7.64041 2.952 6.87241 2.952C6.12041 2.952 5.53641 3.16 5.12041 3.576C4.72041 3.976 4.48841 4.488 4.42441 5.112H1.13641Z" fill="#F4F3FD"/>
</svg>
