<svg width="13" height="18" viewBox="0 0 13 18" fill="none" xmlns="http://www.w3.org/2000/svg">
<path d="M11.3093 3.408H3.53334V7.512C3.86934 7.096 4.34934 6.76 4.97334 6.504C5.59734 6.232 6.26134 6.096 6.96534 6.096C8.24534 6.096 9.29334 6.376 10.1093 6.936C10.9253 7.496 11.5173 8.216 11.8853 9.096C12.2533 9.96 12.4373 10.888 12.4373 11.88C12.4373 13.72 11.9093 15.2 10.8533 16.32C9.81334 17.44 8.32534 18 6.38934 18C4.56534 18 3.10934 17.544 2.02134 16.632C0.933344 15.72 0.317344 14.528 0.173344 13.056H3.43734C3.58134 13.696 3.90134 14.208 4.39734 14.592C4.90934 14.976 5.55734 15.168 6.34134 15.168C7.28534 15.168 7.99734 14.872 8.47734 14.28C8.95734 13.688 9.19734 12.904 9.19734 11.928C9.19734 10.936 8.94934 10.184 8.45334 9.672C7.97334 9.144 7.26134 8.88 6.31734 8.88C5.64534 8.88 5.08534 9.048 4.63734 9.384C4.18934 9.72 3.86934 10.168 3.67734 10.728H0.461344V0.456H11.3093V3.408Z" fill="white"/>
</svg>
