<svg width="14" height="19" viewBox="0 0 14 19" fill="none" xmlns="http://www.w3.org/2000/svg">
<path d="M9.66822 4.872C9.50822 4.2 9.22822 3.696 8.82822 3.36C8.44422 3.024 7.88422 2.856 7.14822 2.856C6.04422 2.856 5.22822 3.304 4.70022 4.2C4.18822 5.08 3.92422 6.52 3.90822 8.52C4.29222 7.88 4.85222 7.384 5.58822 7.032C6.32422 6.664 7.12422 6.48 7.98822 6.48C9.02822 6.48 9.94822 6.704 10.7482 7.152C11.5482 7.6 12.1722 8.256 12.6202 9.12C13.0682 9.968 13.2922 10.992 13.2922 12.192C13.2922 13.328 13.0602 14.344 12.5962 15.24C12.1482 16.12 11.4842 16.808 10.6042 17.304C9.72422 17.8 8.67622 18.048 7.46022 18.048C5.79622 18.048 4.48422 17.68 3.52422 16.944C2.58022 16.208 1.91622 15.184 1.53222 13.872C1.16422 12.544 0.980219 10.912 0.980219 8.976C0.980219 6.048 1.48422 3.84 2.49222 2.352C3.50022 0.847999 5.09222 0.0959988 7.26822 0.0959988C8.94822 0.0959988 10.2522 0.551999 11.1802 1.464C12.1082 2.376 12.6442 3.512 12.7882 4.872H9.66822ZM7.22022 9.24C6.37222 9.24 5.66022 9.488 5.08422 9.984C4.50822 10.48 4.22022 11.2 4.22022 12.144C4.22022 13.088 4.48422 13.832 5.01222 14.376C5.55622 14.92 6.31622 15.192 7.29222 15.192C8.15622 15.192 8.83622 14.928 9.33222 14.4C9.84422 13.872 10.1002 13.16 10.1002 12.264C10.1002 11.336 9.85222 10.6 9.35622 10.056C8.87622 9.512 8.16422 9.24 7.22022 9.24Z" fill="white"/>
</svg>
