<svg width="14" height="19" viewBox="0 0 14 19" fill="none" xmlns="http://www.w3.org/2000/svg">
<path d="M3.48906 8.736C1.88906 7.904 1.08906 6.616 1.08906 4.872C1.08906 4.008 1.30506 3.224 1.73706 2.52C2.18506 1.8 2.84906 1.232 3.72906 0.816C4.62506 0.383999 5.71306 0.167999 6.99306 0.167999C8.27306 0.167999 9.35306 0.383999 10.2331 0.816C11.1291 1.232 11.7931 1.8 12.2251 2.52C12.6731 3.224 12.8971 4.008 12.8971 4.872C12.8971 5.752 12.6811 6.528 12.2491 7.2C11.8171 7.856 11.2411 8.368 10.5211 8.736C11.4011 9.12 12.0891 9.68 12.5851 10.416C13.0811 11.152 13.3291 12.024 13.3291 13.032C13.3291 14.12 13.0491 15.072 12.4891 15.888C11.9451 16.688 11.1931 17.304 10.2331 17.736C9.27306 18.168 8.19306 18.384 6.99306 18.384C5.79306 18.384 4.71306 18.168 3.75306 17.736C2.80906 17.304 2.05706 16.688 1.49706 15.888C0.953063 15.072 0.681063 14.12 0.681063 13.032C0.681063 12.024 0.929063 11.152 1.42506 10.416C1.92106 9.664 2.60906 9.104 3.48906 8.736ZM9.63306 5.352C9.63306 4.568 9.39306 3.96 8.91306 3.528C8.44906 3.096 7.80906 2.88 6.99306 2.88C6.19306 2.88 5.55306 3.096 5.07306 3.528C4.60906 3.96 4.37706 4.576 4.37706 5.376C4.37706 6.096 4.61706 6.672 5.09706 7.104C5.59306 7.536 6.22506 7.752 6.99306 7.752C7.76106 7.752 8.39306 7.536 8.88906 7.104C9.38506 6.656 9.63306 6.072 9.63306 5.352ZM6.99306 10.2C6.08106 10.2 5.33706 10.432 4.76106 10.896C4.20106 11.36 3.92106 12.024 3.92106 12.888C3.92106 13.688 4.19306 14.344 4.73706 14.856C5.29706 15.352 6.04906 15.6 6.99306 15.6C7.93706 15.6 8.68106 15.344 9.22506 14.832C9.76906 14.32 10.0411 13.672 10.0411 12.888C10.0411 12.04 9.76106 11.384 9.20106 10.92C8.64106 10.44 7.90506 10.2 6.99306 10.2Z" fill="white"/>
</svg>
