<svg width="13" height="19" viewBox="0 0 13 19" fill="none" xmlns="http://www.w3.org/2000/svg">
<path d="M3.64828 13.08C3.77628 13.784 4.06428 14.328 4.51228 14.712C4.97628 15.08 5.59228 15.264 6.36028 15.264C7.35228 15.264 8.07228 14.856 8.52028 14.04C8.96828 13.208 9.19228 11.816 9.19228 9.864C8.82428 10.376 8.30428 10.776 7.63228 11.064C6.97628 11.352 6.26428 11.496 5.49628 11.496C4.47228 11.496 3.54428 11.288 2.71228 10.872C1.89628 10.44 1.24828 9.808 0.768281 8.976C0.288281 8.128 0.0482814 7.104 0.0482814 5.904C0.0482814 4.128 0.576281 2.72 1.63228 1.68C2.68828 0.623999 4.12828 0.0959988 5.95228 0.0959988C8.22428 0.0959988 9.82428 0.823999 10.7523 2.28C11.6963 3.736 12.1683 5.928 12.1683 8.856C12.1683 10.936 11.9843 12.64 11.6163 13.968C11.2643 15.296 10.6483 16.304 9.76828 16.992C8.90428 17.68 7.72028 18.024 6.21628 18.024C5.03228 18.024 4.02428 17.8 3.19228 17.352C2.36028 16.888 1.72028 16.288 1.27228 15.552C0.840281 14.8 0.592281 13.976 0.528281 13.08H3.64828ZM6.19228 8.76C7.02428 8.76 7.68028 8.504 8.16028 7.992C8.64028 7.48 8.88028 6.792 8.88028 5.928C8.88028 4.984 8.62428 4.256 8.11228 3.744C7.61628 3.216 6.93628 2.952 6.07228 2.952C5.20828 2.952 4.52028 3.224 4.00828 3.768C3.51228 4.296 3.26428 5 3.26428 5.88C3.26428 6.728 3.50428 7.424 3.98428 7.968C4.48028 8.496 5.21628 8.76 6.19228 8.76Z" fill="white"/>
</svg>
