<svg width="22" height="16" viewBox="0 0 22 16" fill="none" xmlns="http://www.w3.org/2000/svg">
<path fill-rule="evenodd" clip-rule="evenodd" d="M10.2071 4.79289L12 6.58579L13.7929 4.79289C14.1834 4.40237 14.8166 4.40237 15.2071 4.79289C15.5976 5.18342 15.5976 5.81658 15.2071 6.20711L13.4142 8L15.2071 9.79289C15.5976 10.1834 15.5976 10.8166 15.2071 11.2071C14.8166 11.5976 14.1834 11.5976 13.7929 11.2071L12 9.41421L10.2071 11.2071C9.81658 11.5976 9.18342 11.5976 8.79289 11.2071C8.40237 10.8166 8.40237 10.1834 8.79289 9.79289L10.5858 8L8.79289 6.20711C8.40237 5.81658 8.40237 5.18342 8.79289 4.79289C9.18342 4.40237 9.81658 4.40237 10.2071 4.79289ZM6 0.5H21C21.5523 0.5 22 0.947715 22 1.5V14.5C22 15.0523 21.5523 15.5 21 15.5H6C5.68953 15.5 5.39667 15.3558 5.20738 15.1097L0.207376 8.60971C-0.0691253 8.25026 -0.0691253 7.74974 0.207376 7.39029L5.20738 0.890289C5.39667 0.644204 5.68953 0.5 6 0.5ZM2.26163 8L6.4924 13.5H20V2.5H6.4924L2.26163 8Z" fill="white"/>
</svg>
