<svg width="16" height="21" viewBox="0 0 16 21" fill="none" xmlns="http://www.w3.org/2000/svg">
<path fill-rule="evenodd" clip-rule="evenodd" d="M3 0.470947H14C15.1046 0.470947 16 1.36638 16 2.47095V15.4609C16 15.6285 15.9623 15.7825 15.8872 15.9326L15.3416 17.0237C15.2009 17.3053 15.2009 17.6366 15.3416 17.9182L15.8854 19.0057C15.9586 19.1447 16 19.303 16 19.4709C16 20.0232 15.5523 20.4709 15 20.4709H3C1.34315 20.4709 0 19.1278 0 17.4709V3.47095C0 1.81409 1.34315 0.470947 3 0.470947ZM13.4076 16.4709C13.1789 17.1177 13.1789 17.8242 13.4076 18.4709H3C2.44772 18.4709 2 18.0232 2 17.4709C2 16.9187 2.44772 16.4709 3 16.4709H13.4076ZM5 6.47095C5 7.02323 5.44772 7.47095 6 7.47095H10C10.5523 7.47095 11 7.02323 11 6.47095C11 5.91866 10.5523 5.47095 10 5.47095H6C5.44772 5.47095 5 5.91866 5 6.47095Z" fill="#F4F3FD"/>
</svg>
