<svg width="19" height="19" viewBox="0 0 19 19" fill="none" xmlns="http://www.w3.org/2000/svg">
<path fill-rule="evenodd" clip-rule="evenodd" d="M8.74992 0.833374C13.1222 0.833374 16.6666 4.3778 16.6666 8.75004C16.6666 10.636 16.0071 12.3679 14.9062 13.7278L17.9671 16.7887C18.2926 17.1142 18.2926 17.6418 17.9671 17.9673C17.6417 18.2927 17.1141 18.2927 16.7886 17.9673L13.7277 14.9063C12.3678 16.0072 10.6359 16.6667 8.74992 16.6667C4.37768 16.6667 0.833252 13.1223 0.833252 8.75004C0.833252 4.3778 4.37768 0.833374 8.74992 0.833374ZM2.49992 8.75004C2.49992 12.2018 5.29816 15 8.74992 15C12.2017 15 14.9999 12.2018 14.9999 8.75004C14.9999 5.29828 12.2017 2.50004 8.74992 2.50004C5.29816 2.50004 2.49992 5.29828 2.49992 8.75004Z" fill="#3D5CFF"/>
</svg>
