<svg width="115" height="135" viewBox="0 0 115 135" fill="none" xmlns="http://www.w3.org/2000/svg">
<g clip-path="url(#clip0_65_8)">
<mask id="mask0_65_8" style="mask-type:luminance" maskUnits="userSpaceOnUse" x="0" y="0" width="120" height="135">
<rect x="0.484619" y="0.050415" width="118.688" height="134.208" fill="white"/>
</mask>
<g mask="url(#mask0_65_8)">
<path opacity="0.4" fill-rule="evenodd" clip-rule="evenodd" d="M1.95916 112.858C1.76554 112.843 1.6315 112.664 1.64639 112.47C1.64639 112.455 1.73575 111.694 1.91448 110.366C1.94427 110.172 2.1081 110.038 2.30171 110.068C2.49533 110.098 2.62937 110.262 2.59959 110.456C2.42086 111.769 2.3315 112.545 2.3315 112.545C2.3315 112.724 2.18256 112.858 2.00384 112.858C1.98895 112.858 1.97405 112.858 1.95916 112.858ZM2.51023 108.665C2.31661 108.635 2.18256 108.456 2.21235 108.277C2.30171 107.635 2.40597 106.949 2.51023 106.188C2.54001 105.994 2.71874 105.859 2.91235 105.889C3.10597 105.919 3.24002 106.098 3.21023 106.292C3.09108 107.038 3.00172 107.74 2.91235 108.366C2.86767 108.545 2.71874 108.665 2.55491 108.665C2.54001 108.665 2.52512 108.665 2.51023 108.665ZM45.9104 107.934C45.2849 107.889 44.6593 107.56 44.0636 106.964C43.9296 106.829 43.9296 106.605 44.0636 106.471C44.1976 106.337 44.421 106.337 44.5551 106.471C45.0317 106.949 45.5083 107.217 45.97 107.247C45.9998 107.247 46.0445 107.247 46.0742 107.247C46.2679 107.232 46.4317 107.381 46.4466 107.56C46.4615 107.754 46.3125 107.919 46.1338 107.934C46.0891 107.934 46.0445 107.934 46.0147 107.934C45.9849 107.934 45.9402 107.934 45.9104 107.934ZM47.3849 106.65C47.2211 106.546 47.1764 106.337 47.2657 106.173C47.5487 105.71 47.8466 105.098 48.1296 104.337C48.204 104.158 48.3977 104.068 48.5764 104.143C48.7551 104.218 48.8445 104.412 48.77 104.591C48.4721 105.382 48.1594 106.038 47.8466 106.531C47.787 106.65 47.6679 106.71 47.5636 106.71C47.504 106.71 47.4445 106.695 47.3849 106.65ZM42.7827 105.203C42.47 104.665 42.1423 104.024 41.8146 103.307C41.7402 103.128 41.8146 102.919 41.9934 102.845C42.1721 102.77 42.3806 102.845 42.4551 103.024C42.7678 103.725 43.0806 104.337 43.3785 104.859C43.4827 105.023 43.4232 105.232 43.2593 105.337C43.1998 105.367 43.1402 105.382 43.0806 105.382C42.9615 105.382 42.8423 105.322 42.7827 105.203ZM3.10597 104.516C2.91236 104.486 2.79321 104.307 2.82299 104.113C2.92725 103.456 3.0464 102.755 3.16555 102.039C3.19533 101.845 3.37406 101.725 3.56768 101.755C3.76129 101.785 3.88044 101.964 3.85066 102.158C3.73151 102.874 3.62725 103.561 3.5081 104.232C3.49321 104.397 3.34427 104.516 3.16555 104.516C3.15065 104.516 3.13576 104.516 3.10597 104.516ZM49.0232 102.815C48.8445 102.755 48.7402 102.561 48.7849 102.382C48.9636 101.77 49.1572 101.099 49.336 100.367C49.3806 100.188 49.5743 100.069 49.753 100.114C49.9317 100.158 50.0509 100.352 50.0062 100.531C49.8126 101.263 49.6338 101.949 49.4402 102.561C49.4104 102.725 49.2764 102.83 49.1274 102.83C49.0977 102.83 49.053 102.83 49.0232 102.815ZM41.0104 101.352C40.787 100.74 40.5338 100.084 40.2955 99.3674C40.2359 99.1883 40.3253 98.9943 40.5189 98.9197C40.6976 98.86 40.8912 98.9495 40.9657 99.1435C41.204 99.845 41.4423 100.502 41.6657 101.099C41.7402 101.278 41.6508 101.487 41.4721 101.546C41.4125 101.561 41.3827 101.576 41.3381 101.576C41.204 101.576 41.07 101.487 41.0104 101.352ZM3.80598 100.367C3.61236 100.337 3.49321 100.158 3.523 99.9643C3.64215 99.2928 3.76129 98.6063 3.89534 97.8899C3.92513 97.6959 4.11874 97.5766 4.29747 97.6064C4.49109 97.6362 4.61023 97.8303 4.58045 98.0093C4.4464 98.7108 4.32725 99.3972 4.20811 100.069C4.17832 100.248 4.02938 100.367 3.86555 100.367C3.85066 100.367 3.82087 100.367 3.80598 100.367ZM50.1104 98.7555C49.9168 98.7108 49.8126 98.5317 49.8423 98.3377C49.9913 97.7109 50.1402 97.0095 50.2892 96.2931C50.3338 96.0991 50.5126 95.9797 50.7062 96.0245C50.8998 96.0693 51.0189 96.2484 50.9743 96.4424C50.8253 97.1736 50.6764 97.8601 50.5275 98.5018C50.4828 98.6511 50.3338 98.7704 50.1849 98.7704C50.1551 98.7704 50.1402 98.7704 50.1104 98.7555ZM39.6402 97.3676C39.4466 96.7408 39.238 96.0842 39.0295 95.3529C38.97 95.1738 39.0742 94.9798 39.2678 94.9201C39.4614 94.8604 39.6402 94.9649 39.6997 95.1589C39.9232 95.8753 40.1168 96.5319 40.3104 97.1587C40.37 97.3378 40.2657 97.5318 40.087 97.5915C40.0423 97.6064 40.0125 97.6064 39.9678 97.6064C39.8189 97.6064 39.6849 97.5169 39.6402 97.3676ZM4.55066 96.2483C4.35704 96.2185 4.23789 96.0245 4.26768 95.8454C4.40172 95.1738 4.53577 94.4874 4.66981 93.7859C4.71449 93.5919 4.89321 93.4725 5.08683 93.5173C5.28045 93.5621 5.3996 93.7412 5.35492 93.9352C5.22088 94.6217 5.08683 95.3082 4.95279 95.9947C4.923 96.129 4.77407 96.2483 4.61023 96.2483C4.59534 96.2483 4.56555 96.2483 4.55066 96.2483ZM50.9743 94.6664C50.7806 94.6366 50.6615 94.4426 50.7062 94.2635C50.8402 93.6069 50.9594 92.9204 51.0934 92.204C51.1232 92.01 51.3168 91.8906 51.4955 91.9205C51.6892 91.9503 51.8083 92.1443 51.7785 92.3234C51.6445 93.0398 51.5104 93.7412 51.3913 94.3829C51.3466 94.547 51.2126 94.6664 51.0487 94.6664C51.0338 94.6664 51.004 94.6664 50.9743 94.6664ZM38.4338 93.3382C38.2402 92.6816 38.0465 92.01 37.8529 91.3235C37.7934 91.1444 37.9125 90.9504 38.0912 90.8908C38.27 90.846 38.4636 90.9504 38.5231 91.1295C38.7168 91.816 38.9104 92.4876 39.104 93.1442C39.1636 93.3233 39.0444 93.5173 38.8657 93.577C38.8359 93.5919 38.8061 93.5919 38.7614 93.5919C38.6125 93.5919 38.4785 93.4875 38.4338 93.3382ZM5.36981 92.1294C5.17619 92.0846 5.05705 91.9056 5.10173 91.7116C5.25066 91.0251 5.3996 90.3386 5.54854 89.667C5.59322 89.473 5.77194 89.3685 5.96556 89.3984C6.15918 89.4432 6.27833 89.6222 6.23365 89.8162C6.08471 90.4878 5.93577 91.1743 5.78684 91.8608C5.75705 92.025 5.60811 92.1443 5.44428 92.1443C5.41449 92.1443 5.3996 92.1443 5.36981 92.1294ZM51.7487 90.5326C51.5551 90.5027 51.436 90.3237 51.4658 90.1296C51.5849 89.4581 51.7041 88.7716 51.8232 88.0702C51.853 87.8762 52.0317 87.7568 52.2253 87.7866C52.4189 87.8165 52.5381 87.9956 52.5083 88.1896C52.3892 88.891 52.27 89.5775 52.1509 90.249C52.1211 90.4132 51.9721 90.5326 51.8083 90.5326C51.7934 90.5326 51.7636 90.5326 51.7487 90.5326ZM37.3019 89.3088L36.7359 87.2942C36.6912 87.1151 36.7955 86.9211 36.9742 86.8614C37.1529 86.8166 37.3465 86.9211 37.4061 87.1001L37.9721 89.1148C38.0168 89.2939 37.9125 89.4879 37.7338 89.5476C37.6891 89.5476 37.6593 89.5625 37.6295 89.5625C37.4806 89.5625 37.3317 89.4581 37.3019 89.3088ZM6.29322 88.0403C6.0996 87.9956 5.99535 87.8016 6.04003 87.6225C6.20386 86.9211 6.36769 86.2346 6.53152 85.5779C6.5762 85.3839 6.76982 85.2795 6.94854 85.3242C7.14216 85.369 7.24642 85.563 7.20173 85.7421C7.0379 86.3987 6.87407 87.0852 6.71024 87.7717C6.66556 87.9359 6.51663 88.0553 6.36769 88.0553C6.3379 88.0553 6.30811 88.0553 6.29322 88.0403ZM52.4636 86.4137C52.27 86.3838 52.1509 86.2047 52.1807 86.0107C52.2998 85.3242 52.4041 84.6377 52.5232 83.9513C52.553 83.7572 52.7317 83.6379 52.9253 83.6677C53.119 83.6975 53.2381 83.8766 53.2083 84.0706C53.0892 84.7721 52.9849 85.4585 52.8658 86.145C52.836 86.2793 52.687 86.4137 52.5232 86.4137C52.5083 86.4137 52.4785 86.4137 52.4636 86.4137ZM36.1699 85.2645C35.9763 84.593 35.7827 83.9214 35.604 83.2498C35.5444 83.0708 35.6636 82.8767 35.8423 82.817C36.021 82.7574 36.2146 82.8767 36.2742 83.0558C36.4678 83.7274 36.6614 84.399 36.8551 85.0705C36.9146 85.2496 36.7955 85.4436 36.6168 85.5033C36.5572 85.5182 36.5274 85.5182 36.4976 85.5182C36.3487 85.5182 36.1997 85.4138 36.1699 85.2645ZM7.2762 83.9662C7.09748 83.9214 6.97833 83.7274 7.02301 83.5334C7.20174 82.8469 7.39535 82.1604 7.57408 81.5038C7.61876 81.3247 7.81238 81.2053 8.00599 81.265C8.18472 81.3098 8.30387 81.5038 8.24429 81.6978C8.06557 82.3544 7.87195 83.0409 7.69323 83.7125C7.66344 83.8766 7.5294 83.9811 7.36557 83.9811C7.33578 83.9811 7.30599 83.9811 7.2762 83.9662ZM53.1487 82.2649C52.9551 82.235 52.836 82.0559 52.8658 81.8619C52.97 81.1755 53.0892 80.489 53.1934 79.7875C53.2232 79.5935 53.4019 79.4742 53.5956 79.504C53.7892 79.5339 53.9083 79.7129 53.8785 79.9069C53.7594 80.6083 53.6551 81.2948 53.5509 81.9813C53.5211 82.1455 53.3721 82.2649 53.2083 82.2649C53.1934 82.2649 53.1785 82.2649 53.1487 82.2649ZM35.0082 81.2351C34.7997 80.5337 34.6061 79.8771 34.4125 79.2354C34.3529 79.0563 34.4572 78.8623 34.6359 78.8026C34.8146 78.7429 35.0082 78.8474 35.0678 79.0264C35.2614 79.6682 35.455 80.3248 35.6636 81.0262C35.7231 81.2053 35.6189 81.3993 35.4253 81.459C35.4104 81.4888 35.3657 81.4889 35.3359 81.4889C35.187 81.4889 35.0529 81.3844 35.0082 81.2351ZM8.39323 79.9219C8.2145 79.8622 8.11025 79.6682 8.15493 79.4891C8.36344 78.8026 8.57195 78.131 8.78047 77.4744C8.84004 77.2953 9.03366 77.1908 9.21238 77.2505C9.39111 77.3102 9.49536 77.5042 9.43579 77.6833C9.22728 78.325 9.01876 78.9966 8.82515 79.6831C8.79536 79.8472 8.64642 79.9368 8.49749 79.9368C8.4677 79.9368 8.43791 79.9368 8.39323 79.9219ZM53.8041 78.131C53.6104 78.1012 53.4913 77.9221 53.5211 77.7281L53.8487 75.6537C53.8785 75.4597 54.0573 75.3254 54.2509 75.3702C54.4445 75.4 54.5636 75.5791 54.5339 75.7731L54.2062 77.8475C54.1913 78.0116 54.0424 78.131 53.8636 78.131C53.8487 78.131 53.8338 78.131 53.8041 78.131ZM33.787 77.2505C33.5636 76.564 33.3401 75.8925 33.1316 75.2657C33.0721 75.0866 33.1614 74.8926 33.355 74.818C33.5338 74.7583 33.7274 74.8478 33.8018 75.0418C34.0104 75.6686 34.2338 76.3402 34.4572 77.0416C34.5167 77.2207 34.4125 77.4147 34.2338 77.4744C34.1891 77.4744 34.1444 77.4893 34.1146 77.4893C33.9657 77.4893 33.8316 77.3998 33.787 77.2505ZM99.8702 76.9819C99.8404 76.7879 99.9745 76.6088 100.168 76.579C100.734 76.4894 101.24 76.2059 101.732 75.6985C101.866 75.5642 102.089 75.5642 102.223 75.6985C102.357 75.8328 102.357 76.0566 102.223 76.191C101.628 76.8028 100.972 77.161 100.272 77.2655C100.243 77.2804 100.228 77.2804 100.213 77.2804C100.049 77.2804 99.9 77.161 99.8702 76.9819ZM98.083 76.6983C97.5915 76.3253 97.1298 75.7731 96.683 75.0269C96.5787 74.8627 96.6383 74.6538 96.8021 74.5493C96.9659 74.4449 97.1745 74.5046 97.2787 74.6687C97.6808 75.3254 98.0979 75.8328 98.5149 76.1611C98.6638 76.2805 98.6936 76.5043 98.5745 76.6536C98.5 76.7282 98.3957 76.773 98.2915 76.773C98.217 76.773 98.1425 76.7431 98.083 76.6983ZM9.65919 75.9372C9.48047 75.8776 9.37621 75.6835 9.45068 75.4895C9.68898 74.818 9.92728 74.1464 10.1656 73.5047C10.24 73.3256 10.4337 73.2361 10.6124 73.2958C10.7911 73.3704 10.8805 73.5644 10.8209 73.7435C10.5826 74.3703 10.3443 75.0418 10.1209 75.7134C10.0613 75.8626 9.92728 75.9522 9.77834 75.9522C9.73366 75.9522 9.70387 75.9522 9.65919 75.9372ZM102.983 74.5493C102.819 74.4598 102.745 74.2509 102.834 74.0867C103.117 73.5495 103.37 72.9227 103.623 72.2063C103.683 72.0272 103.892 71.9228 104.07 71.9974C104.249 72.0571 104.353 72.266 104.279 72.4451C104.026 73.1913 103.743 73.8479 103.445 74.415C103.385 74.5195 103.266 74.5941 103.147 74.5941C103.087 74.5941 103.043 74.5792 102.983 74.5493ZM54.4743 73.9972C54.2807 73.9673 54.1615 73.7882 54.1913 73.5942C54.2956 72.9077 54.4147 72.2213 54.519 71.5198C54.5487 71.3258 54.7275 71.2064 54.9211 71.2363C55.1147 71.2661 55.2339 71.4452 55.2041 71.6392C55.0998 72.3257 54.9807 73.0271 54.8764 73.7136C54.8466 73.8778 54.6977 73.9972 54.5339 73.9972C54.519 73.9972 54.5041 73.9972 54.4743 73.9972ZM32.4316 73.2958C32.1933 72.6242 31.9401 71.9676 31.7018 71.3408C31.6274 71.1617 31.7167 70.9527 31.8955 70.8931C32.0742 70.8184 32.2827 70.908 32.3423 71.0871C32.5806 71.7139 32.8338 72.3705 33.087 73.057C33.1465 73.2361 33.0572 73.445 32.8784 73.5047C32.8487 73.5047 32.804 73.5196 32.7593 73.5196C32.6104 73.5196 32.4763 73.4301 32.4316 73.2958ZM95.7 73.1167C95.4468 72.5347 95.1787 71.8631 94.9255 71.1468C94.8659 70.9677 94.9553 70.7587 95.134 70.699C95.3127 70.6393 95.5213 70.7289 95.5808 70.908C95.834 71.6243 96.0872 72.266 96.3404 72.8331C96.4149 73.0122 96.3404 73.2211 96.1617 73.2958C96.117 73.3256 96.0574 73.3256 96.0128 73.3256C95.8787 73.3256 95.7447 73.251 95.7 73.1167ZM11.1039 71.9974C10.9252 71.9228 10.8358 71.7139 10.9103 71.5497C11.1783 70.8781 11.4613 70.2364 11.7443 69.6096C11.8188 69.4305 12.0273 69.3559 12.206 69.4305C12.3847 69.5051 12.4592 69.7141 12.3847 69.8932C12.1166 70.505 11.8337 71.1467 11.5656 71.8034C11.506 71.9377 11.372 72.0272 11.2379 72.0272C11.1932 72.0272 11.1486 72.0123 11.1039 71.9974ZM104.472 70.6393C104.294 70.5946 104.174 70.4006 104.219 70.2066C104.383 69.5798 104.547 68.9082 104.696 68.1769C104.74 67.9829 104.919 67.8636 105.113 67.9083C105.306 67.9531 105.426 68.1322 105.381 68.3262C105.217 69.0574 105.053 69.7439 104.889 70.3856C104.86 70.5498 104.711 70.6543 104.562 70.6543C104.532 70.6543 104.502 70.6543 104.472 70.6393ZM55.1296 69.8633C54.936 69.8335 54.8168 69.6544 54.8466 69.4604C54.9509 68.7739 55.07 68.0874 55.1892 67.386C55.219 67.192 55.3977 67.0726 55.5913 67.1024C55.7849 67.1323 55.9041 67.3114 55.8743 67.5054C55.7551 68.1919 55.6509 68.8784 55.5317 69.5798C55.5019 69.7439 55.3679 69.8633 55.1892 69.8633C55.1743 69.8633 55.1594 69.8633 55.1296 69.8633ZM30.9125 69.4156C30.6295 68.759 30.3316 68.1173 30.0486 67.5203C29.9593 67.3412 30.0337 67.1323 30.2125 67.0577C30.3912 66.9681 30.5997 67.0427 30.6742 67.2218C30.972 67.8188 31.2699 68.4754 31.5529 69.147C31.6274 69.3261 31.5529 69.535 31.3742 69.6096C31.3146 69.6096 31.2699 69.6245 31.2252 69.6245C31.0912 69.6245 30.9572 69.5499 30.9125 69.4156ZM94.2702 69.1321C94.0766 68.5053 93.883 67.8188 93.6893 67.1024C93.6447 66.9234 93.7489 66.7293 93.9276 66.6697C94.1064 66.6249 94.3 66.7293 94.3596 66.9084C94.5532 67.6248 94.7468 68.2963 94.9404 68.9082C95 69.0873 94.8957 69.2813 94.717 69.341C94.6574 69.3858 94.6276 69.3858 94.5979 69.3858C94.4489 69.3858 94.3149 69.2962 94.2702 69.1321ZM12.8018 68.162C12.6379 68.0725 12.5635 67.8635 12.6528 67.6994C12.9805 67.0427 13.323 66.416 13.6656 65.8489C13.7698 65.6847 13.9784 65.625 14.1422 65.7295C14.306 65.8339 14.3656 66.0429 14.2613 66.207C13.9337 66.7741 13.5911 67.386 13.2635 68.0277C13.2188 68.1471 13.0996 68.2068 12.9656 68.2068C12.906 68.2068 12.8613 68.1919 12.8018 68.162ZM105.396 66.5652C105.202 66.5353 105.083 66.3563 105.113 66.1623C105.232 65.5205 105.336 64.8191 105.455 64.1028C105.485 63.9088 105.664 63.7745 105.857 63.8043C106.051 63.8342 106.17 64.0132 106.155 64.2072C106.036 64.9385 105.932 65.6399 105.813 66.2816C105.768 66.4458 105.619 66.5652 105.455 66.5652C105.44 66.5652 105.411 66.5652 105.396 66.5652ZM29.0806 65.6847C28.7231 65.0579 28.3508 64.461 27.9933 63.9386C27.8891 63.7745 27.9188 63.5655 28.0827 63.4611C28.2465 63.3566 28.455 63.3864 28.5593 63.5506C28.9316 64.1028 29.304 64.6997 29.6763 65.3564C29.7657 65.5205 29.7061 65.7295 29.5423 65.8339C29.4976 65.8489 29.438 65.8638 29.3784 65.8638C29.2593 65.8638 29.1401 65.8041 29.0806 65.6847ZM55.8147 65.7295C55.6211 65.6996 55.5019 65.5205 55.5317 65.3265C55.6509 64.64 55.7551 63.9535 55.8743 63.2521C55.9041 63.0581 56.0828 62.9387 56.2764 62.9686C56.47 62.9984 56.5892 63.1775 56.5594 63.3715C56.4402 64.058 56.3211 64.7445 56.2168 65.4459C56.1871 65.6101 56.0381 65.7295 55.8743 65.7295C55.8594 65.7295 55.8296 65.7295 55.8147 65.7295ZM93.1383 65.0728C92.9744 64.4311 92.8106 63.7446 92.6319 63.0283C92.5872 62.8343 92.7064 62.6552 92.8851 62.6104C93.0787 62.5656 93.2574 62.685 93.3021 62.8641C93.4659 63.5805 93.6447 64.2669 93.8085 64.8937C93.8532 65.0728 93.7489 65.2668 93.5553 65.3116C93.5404 65.3414 93.5106 65.3414 93.4808 65.3414C93.3319 65.3414 93.1829 65.237 93.1383 65.0728ZM14.9018 64.5505C14.7379 64.446 14.7081 64.2222 14.8124 64.058C15.2443 63.4461 15.6762 62.879 16.123 62.3866C16.2571 62.2373 16.4656 62.2224 16.6145 62.3567C16.7635 62.491 16.7784 62.7 16.6443 62.8492C16.2273 63.3268 15.7954 63.8789 15.3784 64.461C15.3188 64.5505 15.1996 64.6102 15.0954 64.6102C15.0209 64.6102 14.9613 64.5953 14.9018 64.5505ZM26.7422 62.3119C26.2508 61.7747 25.7593 61.3121 25.2678 60.9539C25.1188 60.8345 25.0742 60.6256 25.1933 60.4614C25.3124 60.3122 25.521 60.2674 25.6848 60.3868C26.221 60.7748 26.7571 61.2673 27.2635 61.8344C27.3976 61.9836 27.3827 62.1926 27.2337 62.3269C27.1593 62.4015 27.0699 62.4313 26.9954 62.4313C26.9061 62.4313 26.8018 62.3866 26.7422 62.3119ZM106.051 62.4164C105.857 62.3866 105.723 62.2075 105.753 62.0284C105.843 61.3718 105.932 60.7002 106.021 59.954C106.051 59.76 106.215 59.6257 106.409 59.6555C106.602 59.6854 106.736 59.8495 106.706 60.0435C106.617 60.7897 106.528 61.4613 106.438 62.1329C106.409 62.2821 106.26 62.4164 106.096 62.4164C106.081 62.4164 106.066 62.4164 106.051 62.4164ZM56.5147 61.5807C56.3211 61.5508 56.2019 61.3718 56.2317 61.1777C56.3509 60.4913 56.47 59.8048 56.5892 59.1183C56.619 58.9243 56.7977 58.8049 56.9913 58.8347C57.1849 58.8646 57.3041 59.0437 57.2743 59.2377C57.1551 59.9242 57.036 60.6106 56.9168 61.2971C56.8871 61.4613 56.7381 61.5807 56.5743 61.5807C56.5594 61.5807 56.5296 61.5807 56.5147 61.5807ZM17.5975 61.3718C17.4784 61.2225 17.4933 60.9987 17.6422 60.8793C18.238 60.4017 18.8486 60.0137 19.4592 59.7302C19.638 59.6555 19.8465 59.7302 19.9209 59.8943C19.9954 60.0734 19.9209 60.2823 19.7571 60.3569C19.206 60.6107 18.6401 60.9688 18.089 61.4165C18.0294 61.4762 17.9401 61.5061 17.8656 61.5061C17.7614 61.5061 17.6571 61.4613 17.5975 61.3718ZM92.1553 60.9987C92.0064 60.3271 91.8425 59.6406 91.6936 58.9541C91.6489 58.7601 91.7681 58.581 91.9617 58.5363C92.1553 58.4915 92.334 58.6109 92.3787 58.8049C92.5276 59.4914 92.6915 60.1779 92.8404 60.8494C92.8851 61.0434 92.7659 61.2225 92.5723 61.2673C92.5425 61.2673 92.5276 61.2673 92.4978 61.2673C92.334 61.2673 92.2 61.1628 92.1553 60.9987ZM23.5401 60.0585C22.9295 59.8645 22.289 59.7898 21.6486 59.8495C21.455 59.8645 21.2912 59.7302 21.2763 59.5361C21.2614 59.3421 21.3954 59.178 21.589 59.1631C22.3188 59.1034 23.0486 59.178 23.7635 59.4018C23.9422 59.4615 24.0465 59.6555 23.9869 59.8346C23.9273 59.9839 23.7784 60.0734 23.6444 60.0734C23.6146 60.0734 23.5699 60.0734 23.5401 60.0585ZM106.572 58.2527C106.379 58.2378 106.245 58.0587 106.274 57.8647C106.349 57.1782 106.438 56.4768 106.513 55.7903C106.528 55.5963 106.706 55.462 106.9 55.4769C107.094 55.4918 107.228 55.6709 107.213 55.8649C107.138 56.5663 107.064 57.2528 106.975 57.9542C106.945 58.1184 106.796 58.2527 106.617 58.2527C106.602 58.2527 106.587 58.2527 106.572 58.2527ZM57.2296 57.4618C57.036 57.4319 56.9168 57.2528 56.9466 57.0588C57.0658 56.3723 57.1998 55.6858 57.319 54.9994C57.3488 54.8053 57.5424 54.686 57.7211 54.7158C57.9147 54.7456 58.0339 54.9397 58.0041 55.1187C57.87 55.8052 57.7509 56.4917 57.6317 57.1782C57.602 57.3424 57.4679 57.4618 57.2892 57.4618C57.2743 57.4618 57.2445 57.4618 57.2296 57.4618ZM91.2468 56.9096C91.0978 56.238 90.9489 55.5515 90.8 54.865C90.7553 54.671 90.8744 54.4919 91.0681 54.4472C91.2617 54.4024 91.4404 54.5218 91.4851 54.7158C91.634 55.4023 91.7829 56.0888 91.9319 56.7603C91.9766 56.9544 91.8574 57.1334 91.6638 57.1782C91.634 57.1782 91.6042 57.1782 91.5893 57.1782C91.4255 57.1782 91.2915 57.0737 91.2468 56.9096ZM107.034 54.089C106.84 54.0741 106.706 53.895 106.721 53.701L106.736 53.5518C106.811 52.91 106.885 52.2534 106.945 51.6117C106.96 51.4177 107.138 51.2834 107.332 51.2983C107.526 51.3132 107.66 51.4923 107.645 51.6863C107.57 52.328 107.496 52.9697 107.436 53.6264L107.421 53.7756C107.406 53.9547 107.257 54.089 107.079 54.089C107.064 54.089 107.049 54.089 107.034 54.089ZM58.0041 53.3428C57.8105 53.313 57.6913 53.119 57.7211 52.9399C57.8551 52.2534 57.9892 51.5669 58.1232 50.8804C58.1679 50.6864 58.3466 50.567 58.5254 50.6118C58.719 50.6566 58.8381 50.8356 58.7934 51.0147C58.6594 51.7012 58.5254 52.3877 58.3913 53.0742C58.3764 53.2234 58.2275 53.3428 58.0637 53.3428C58.0488 53.3428 58.019 53.3428 58.0041 53.3428ZM90.3532 52.8056C90.2042 52.1191 90.0553 51.4475 89.9063 50.761C89.8617 50.567 89.9808 50.3879 90.1744 50.3432C90.368 50.2984 90.5468 50.4178 90.5915 50.6118C90.7404 51.2983 90.8893 51.9848 91.0383 52.6563C91.0829 52.8503 90.9638 53.0294 90.7702 53.0742C90.7404 53.0742 90.7255 53.0742 90.6957 53.0742C90.5319 53.0742 90.3978 52.9697 90.3532 52.8056ZM107.496 49.9253C107.302 49.9104 107.168 49.7313 107.183 49.5373C107.257 48.8359 107.347 48.1345 107.436 47.448C107.466 47.254 107.63 47.1197 107.823 47.1495C108.017 47.1794 108.151 47.3435 108.121 47.5375C108.032 48.224 107.957 48.9105 107.868 49.6119C107.868 49.791 107.719 49.9253 107.54 49.9253C107.526 49.9253 107.511 49.9253 107.496 49.9253ZM58.7934 49.2388C58.5998 49.194 58.4807 49.015 58.5254 48.821C58.6743 48.1345 58.8083 47.448 58.9573 46.7615C59.002 46.5675 59.1807 46.4481 59.3743 46.4929C59.5679 46.5376 59.6871 46.7167 59.6424 46.9107C59.4935 47.5823 59.3594 48.2688 59.2105 48.9553C59.1807 49.1194 59.0317 49.2388 58.8679 49.2388C58.8381 49.2388 58.8232 49.2388 58.7934 49.2388ZM89.4595 48.7165C89.3106 48.03 89.1617 47.3584 88.9978 46.6719C88.9531 46.4779 89.0723 46.2989 89.2659 46.2541C89.4595 46.2093 89.6383 46.3287 89.6829 46.5227C89.8319 47.2092 89.9957 47.8808 90.1446 48.5673C90.1893 48.7613 90.0702 48.9403 89.8766 48.9851C89.8617 48.9851 89.8319 48.9851 89.8021 48.9851C89.6383 48.9851 89.5042 48.8807 89.4595 48.7165ZM108.017 45.7616C107.823 45.7318 107.689 45.5527 107.719 45.3736C107.823 44.6274 107.928 43.9409 108.032 43.2843C108.062 43.0903 108.24 42.9709 108.434 43.0007C108.628 43.0306 108.747 43.2097 108.717 43.4037C108.613 44.0454 108.509 44.7169 108.419 45.4781C108.389 45.6273 108.24 45.7616 108.062 45.7616C108.047 45.7616 108.032 45.7616 108.017 45.7616ZM59.6722 45.1199C59.4786 45.0751 59.3594 44.896 59.4041 44.702C59.553 44.0006 59.7169 43.3141 59.8658 42.6575C59.9105 42.4635 60.1041 42.359 60.2828 42.4038C60.4764 42.4486 60.5807 42.6426 60.536 42.8216C60.3871 43.4783 60.2232 44.1648 60.0743 44.8662C60.0594 45.0303 59.9105 45.1348 59.7466 45.1348C59.7169 45.1348 59.702 45.1348 59.6722 45.1199ZM88.5361 44.6274C88.3723 43.9409 88.2234 43.2694 88.0595 42.5978C88.0148 42.4038 88.134 42.2247 88.3127 42.1799C88.4914 42.1352 88.6851 42.2545 88.7297 42.4336C88.8936 43.1052 89.0574 43.7917 89.2063 44.4782C89.251 44.6722 89.1319 44.8513 88.9531 44.896C88.9234 44.896 88.9085 44.896 88.8787 44.896C88.7148 44.896 88.5808 44.7916 88.5361 44.6274ZM118.472 44.0454C118.413 43.5828 118.309 42.8515 118.145 41.9859C118.115 41.7919 118.234 41.6128 118.428 41.583C118.621 41.5531 118.8 41.6725 118.83 41.8665C118.994 42.747 119.098 43.4932 119.158 43.9558C119.187 44.1499 119.053 44.3289 118.86 44.3439C118.845 44.3439 118.83 44.3439 118.815 44.3439C118.636 44.3439 118.487 44.2095 118.472 44.0454ZM108.672 41.6128C108.479 41.583 108.36 41.389 108.389 41.2099C108.523 40.4637 108.672 39.7623 108.836 39.1355C108.881 38.9415 109.075 38.837 109.253 38.8818C109.447 38.9266 109.551 39.1206 109.506 39.2997C109.357 39.9115 109.209 40.598 109.075 41.3293C109.03 41.4934 108.896 41.6128 108.732 41.6128C108.717 41.6128 108.687 41.6128 108.672 41.6128ZM60.6105 41.0457C60.4169 41.001 60.3126 40.807 60.3573 40.6279C60.536 39.9265 60.6998 39.24 60.8786 38.5982C60.9232 38.4192 61.1169 38.2998 61.3105 38.3445C61.5041 38.3893 61.6084 38.5833 61.5637 38.7773C61.3998 39.434 61.2211 40.1055 61.0573 40.807C60.9977 40.9562 60.8637 41.0607 60.6998 41.0607C60.67 41.0607 60.6403 41.0607 60.6105 41.0457ZM87.5531 40.5532C87.3744 39.8668 87.1957 39.1803 87.0319 38.5236C86.9872 38.3445 87.0914 38.1505 87.285 38.0908C87.4638 38.0461 87.6574 38.1505 87.717 38.3445C87.8957 39.0012 88.0744 39.6877 88.2383 40.3742C88.2829 40.5533 88.1787 40.7473 87.9851 40.792C87.9404 40.8219 87.9106 40.8219 87.8957 40.8219C87.7468 40.8219 87.5978 40.7174 87.5531 40.5532ZM117.713 39.9563C117.534 39.24 117.355 38.5684 117.147 37.9715C117.087 37.7924 117.192 37.5984 117.37 37.5387C117.549 37.479 117.743 37.5834 117.802 37.7625C118.011 38.3893 118.204 39.0758 118.383 39.8071C118.428 40.0011 118.309 40.1802 118.13 40.2249C118.1 40.2249 118.085 40.2249 118.055 40.2249C117.892 40.2249 117.758 40.1205 117.713 39.9563ZM109.626 37.5387C109.447 37.479 109.343 37.285 109.402 37.091C109.655 36.3149 109.938 35.6434 110.236 35.1061C110.326 34.942 110.534 34.8823 110.713 34.9718C110.877 35.0613 110.936 35.2703 110.847 35.4494C110.564 35.9418 110.311 36.5686 110.057 37.3148C110.013 37.4491 109.879 37.5536 109.73 37.5536C109.7 37.5536 109.655 37.5536 109.626 37.5387ZM61.6679 36.9865C61.4892 36.9417 61.3701 36.7477 61.4296 36.5537C61.6232 35.8672 61.8169 35.1807 62.0105 34.539C62.0701 34.3599 62.2637 34.2555 62.4424 34.3002C62.6211 34.3599 62.7254 34.5539 62.6807 34.733C62.4871 35.3747 62.2935 36.0463 62.0998 36.7477C62.0552 36.897 61.9211 37.0014 61.7573 37.0014C61.7275 37.0014 61.6977 37.0014 61.6679 36.9865ZM86.4808 36.5239C86.2872 35.8374 86.0936 35.1658 85.8999 34.5241C85.8404 34.345 85.9446 34.151 86.1382 34.0913C86.317 34.0316 86.5106 34.1361 86.5702 34.3301C86.7638 34.9718 86.9723 35.6583 87.1659 36.3448C87.2255 36.5239 87.1063 36.7179 86.9276 36.7776C86.868 36.7776 86.8382 36.7776 86.8085 36.7776C86.6595 36.7776 86.5106 36.6731 86.4808 36.5239ZM116.402 36.0612C116.075 35.3598 115.717 34.7927 115.345 34.3749C115.211 34.2256 115.226 34.0167 115.375 33.8824C115.523 33.7481 115.732 33.763 115.866 33.9122C116.283 34.3749 116.67 35.0016 117.028 35.7478C117.117 35.9269 117.043 36.1358 116.864 36.2105C116.819 36.2403 116.76 36.2552 116.715 36.2552C116.581 36.2552 116.462 36.1806 116.402 36.0612ZM111.621 33.9271C111.517 33.763 111.547 33.5541 111.711 33.4496C112.455 32.9273 113.2 32.7034 113.9 32.778C114.094 32.7929 114.228 32.972 114.213 33.166C114.198 33.36 114.019 33.4944 113.826 33.4794C113.304 33.4197 112.723 33.6137 112.113 34.0316C112.038 34.0615 111.964 34.0764 111.904 34.0764C111.8 34.0764 111.681 34.0167 111.621 33.9271ZM62.8594 32.972C62.6807 32.9123 62.5764 32.7183 62.636 32.5392C62.8594 31.8528 63.0828 31.1812 63.3062 30.5395C63.3658 30.3604 63.5743 30.2559 63.753 30.3305C63.9318 30.3902 64.036 30.5992 63.9616 30.7783C63.7381 31.405 63.5147 32.0766 63.2913 32.7631C63.2467 32.8974 63.1126 32.987 62.9637 32.987C62.9339 32.987 62.8892 32.987 62.8594 32.972ZM85.2595 32.5243C85.0361 31.8378 84.8127 31.1812 84.5744 30.5544C84.5148 30.3753 84.6042 30.1664 84.7829 30.1067C84.9616 30.047 85.1702 30.1365 85.2297 30.3156C85.4531 30.9424 85.6914 31.614 85.9148 32.3005C85.9744 32.4796 85.8702 32.6736 85.6914 32.7482C85.6616 32.7631 85.617 32.7631 85.5872 32.7631C85.4382 32.7631 85.3042 32.6736 85.2595 32.5243ZM64.2296 29.0023C64.0509 28.9277 63.9616 28.7337 64.036 28.5546C64.3041 27.8831 64.5722 27.2264 64.8403 26.5996C64.9147 26.4205 65.1233 26.3459 65.302 26.4205C65.4807 26.4952 65.5552 26.7041 65.4807 26.8832C65.2126 27.495 64.9445 28.1368 64.6913 28.8083C64.6169 28.9426 64.4828 29.0322 64.3488 29.0322C64.3041 29.0322 64.2594 29.0173 64.2296 29.0023ZM83.8297 28.5994C83.5616 27.9278 83.2935 27.2861 83.0106 26.6892C82.9361 26.5101 83.0106 26.3012 83.1893 26.2265C83.368 26.1519 83.5765 26.2265 83.651 26.4056C83.934 27.0175 84.2021 27.6741 84.4702 28.3457C84.5446 28.5248 84.4553 28.7337 84.2765 28.7934C84.2467 28.8233 84.2021 28.8233 84.1574 28.8233C84.0233 28.8233 83.8893 28.7337 83.8297 28.5994ZM65.8828 25.167C65.7041 25.0774 65.6445 24.8685 65.7339 24.7043C66.0616 24.0477 66.4041 23.4209 66.7467 22.8389C66.8509 22.6747 67.0594 22.615 67.2233 22.7195C67.3871 22.8239 67.4467 23.0329 67.3424 23.197C67.0148 23.7492 66.6871 24.3611 66.3594 25.0177C66.2701 25.1222 66.1509 25.1968 66.0318 25.1968C65.9722 25.1968 65.9275 25.1819 65.8828 25.167ZM82.1169 24.8386C81.7744 24.1969 81.4318 23.6 81.0893 23.0478C80.985 22.8836 81.0297 22.6747 81.1935 22.5702C81.3574 22.4658 81.5659 22.5105 81.6701 22.6747C82.0276 23.2418 82.385 23.8537 82.7276 24.5103C82.817 24.6745 82.7574 24.8983 82.5787 24.9879C82.534 25.0028 82.4744 25.0177 82.4297 25.0177C82.3106 25.0177 82.1765 24.9431 82.1169 24.8386ZM67.9679 21.5405C67.819 21.4211 67.7743 21.2122 67.8935 21.048C68.3403 20.4362 68.8169 19.8989 69.2786 19.4363C69.4126 19.302 69.636 19.302 69.7701 19.4363C69.9041 19.5706 69.9041 19.7944 69.7701 19.9288C69.3233 20.3615 68.8914 20.8839 68.4594 21.4659C68.385 21.5704 68.2807 21.6151 68.1765 21.6151C68.102 21.6151 68.0275 21.6002 67.9679 21.5405ZM79.9127 21.3614C79.4659 20.7943 79.0042 20.3018 78.5276 19.884C78.3786 19.7497 78.3786 19.5407 78.4978 19.3915C78.6318 19.2423 78.8403 19.2423 78.9893 19.3617C79.4808 19.8094 79.9723 20.3317 80.4489 20.9286C80.568 21.0779 80.5382 21.3017 80.3893 21.4211C80.3297 21.4808 80.2552 21.4957 80.1808 21.4957C80.0765 21.4957 79.9723 21.451 79.9127 21.3614ZM70.8424 18.6155C70.7531 18.4513 70.7977 18.2424 70.9765 18.1379C71.6318 17.7648 72.302 17.5111 72.9871 17.4067H73.0318C73.2254 17.3768 73.4041 17.5111 73.4339 17.7051C73.4637 17.8991 73.3297 18.0782 73.1361 18.1081H73.1063C72.5105 18.1976 71.9148 18.4215 71.3339 18.7647C71.2595 18.7796 71.1999 18.7946 71.1403 18.7946C71.0212 18.7946 70.902 18.7349 70.8424 18.6155ZM76.9042 18.7349C76.3084 18.4215 75.6978 18.1976 75.0722 18.0931C74.8786 18.0633 74.7595 17.8842 74.7893 17.6902C74.819 17.4962 74.9978 17.3768 75.1914 17.4067C75.8914 17.526 76.5765 17.7648 77.2318 18.123C77.3956 18.2125 77.4701 18.4215 77.3808 18.6005C77.3212 18.7199 77.1871 18.7796 77.068 18.7796C77.0084 18.7796 76.9637 18.7647 76.9042 18.7349Z" fill="#3D5CFF"/>
<path d="M24.8954 54.477C17.7464 41.0755 19.1464 28.5098 19.1464 28.5098C19.1464 28.5098 17.3294 15.8695 12.4294 15.6008C7.52935 15.3322 6.54637 16.8694 4.44636 23.5999C2.34635 30.3305 5.42934 53.0742 10.1953 64.7295C14.9613 76.3849 26.2805 85.757 26.2805 85.757L41.0103 67.5352C41.0103 67.5352 29.289 62.6999 24.8954 54.477Z" fill="#DA5742"/>
<path d="M4.93782 43.6126C5.92081 41.195 8.16975 35.6732 9.77827 32.4646C11.8783 28.2562 12.0123 27.4055 12.0123 27.4055L3.85059 32.8228C3.99952 36.0762 4.37186 39.7922 4.93782 43.6126Z" fill="#C43D28"/>
<path d="M17.7612 76.9819C22.0953 82.2947 26.2655 85.757 26.2655 85.757L41.0103 67.5352C41.0103 67.5352 37.9273 66.1622 34.2932 63.7147L17.7612 76.9819Z" fill="#C43D28"/>
<path d="M37.0934 64.7296C37.0934 64.7296 49.7083 70.0275 56.7083 69.7588C63.7084 69.4902 71.9744 70.7587 79.8233 73.7136C87.6723 76.6685 93.6893 86.6226 95.9383 91.2638C98.1723 95.8902 100.004 105.023 100.004 105.023H78.2744L82.4744 128.051H27.9784L35.9614 93.2337L22.6614 82.9812L37.0934 64.7296Z" fill="#3D5CFF"/>
<path d="M56.7084 32.0318C51.2573 32.7332 49.9764 39.7474 49.9764 39.7474C49.9764 39.7474 42.0977 38.8967 38.7764 42.8366C34.9934 47.3286 41.0253 50.5521 41.0253 50.5521C41.0253 50.5521 34.9487 48.9851 34.4423 52.9399C33.8764 57.2976 37.5253 59.1183 53.0743 62.4761C68.6233 65.8339 87.9553 71.3109 91.0383 66.8189C94.8064 61.327 83.4723 58.9541 83.4723 58.9541C83.4723 58.9541 89.2213 59.5212 89.2213 54.5964C89.2213 49.6865 77.5893 44.2095 77.5893 44.2095C77.5893 44.2095 77.5893 34.1062 69.8744 32.9869C64.4382 32.2109 63.7084 34.1361 63.7084 34.1361C63.7084 34.1361 62.1594 31.3304 56.7084 32.0318Z" fill="#F99A3D"/>
<path d="M78.3786 105.023H83.4425L75.5488 90.6967L78.3786 105.023Z" fill="#224BF4"/>
<path d="M30.0187 73.6837L28.9613 75.0119L28.291 87.309L35.9762 93.2337L27.9783 128.036H29.0357L32.3272 124.529L52.0762 123.275L64.4976 128.036H70.1721L48.4273 92.2935L30.0187 73.6837Z" fill="#224BF4"/>
<path d="M52.4932 57.0141C53.3273 60.6704 57.3933 62.491 57.3933 62.491L56.1273 71.0572C56.1273 71.0572 58.0933 74.5643 62.1444 74.2807C66.2103 73.9972 68.0274 71.8929 68.0274 71.8929L69.2933 59.4018C69.2933 59.4018 74.3423 59.2675 75.8763 55.1934C76.9487 52.3579 75.3104 49.8656 72.7933 49.7164C70.2763 49.5821 69.1444 51.8206 69.1444 51.8206C69.1444 51.8206 66.4784 50.9849 66.0614 47.6121C65.6444 44.2394 65.7784 41.583 63.9614 41.0159C62.1444 40.4488 60.8784 41.8516 60.8784 41.8516C60.8784 41.8516 60.7443 40.0309 58.9124 40.3145C57.0954 40.598 56.5294 43.538 55.8294 44.6722C55.1294 45.8064 53.3422 47.3286 52.4932 47.6121C52.4932 47.6121 51.6592 53.3727 52.4932 57.0141Z" fill="#DA5742"/>
<path opacity="0.55" fill-rule="evenodd" clip-rule="evenodd" d="M45.4783 128.08C41.3081 126.29 38.6272 122.245 38.1208 117.007C37.5847 111.5 39.5804 106.187 43.0804 103.77C45.4783 102.113 48.1294 100.89 50.706 99.6957C55.0401 97.681 59.1805 95.7558 61.1316 92.1294C59.6571 91.8309 58.0039 91.0698 56.4252 89.7416C54.4443 88.0552 53.4911 86.0107 53.8932 84.2945C54.5337 81.5187 56.8124 80.6382 58.6592 80.9963C61.1763 81.4888 63.5146 84.2646 62.7103 89.1745C62.5614 90.0998 62.3082 90.9206 61.9805 91.6966C62.9188 91.801 63.7678 91.7115 64.4082 91.4429C65.8082 90.8758 66.5976 89.5625 66.7912 87.5627C67.1486 83.6677 66.0763 80.5934 63.6784 78.6533C60.7145 76.2506 55.6954 75.6835 50.8996 77.1908C48.9039 77.8176 47.0422 77.9221 45.5081 77.4893C44.0783 77.0863 43.0506 76.2506 42.6187 75.1313C41.9336 73.3256 42.8421 70.4155 47.7273 68.1918L47.9656 68.6992C43.4528 70.7587 42.5443 73.3405 43.1549 74.9224C43.8549 76.7431 46.6847 77.9221 50.7358 76.6386C55.7103 75.0716 60.9231 75.6835 64.0358 78.2056C66.5827 80.2651 67.7295 83.5184 67.3571 87.6075C67.1039 90.3833 65.7337 91.5026 64.6316 91.9652C63.8869 92.2637 62.8741 92.3831 61.7422 92.2338C59.7465 96.114 55.4571 98.1138 50.9592 100.203C48.4124 101.382 45.7762 102.606 43.423 104.232C40.1315 106.486 38.1953 111.724 38.7017 116.947C39.1932 121.977 41.7549 125.842 45.7315 127.558C47.0868 128.14 48.6209 128.483 50.289 128.573L50.2294 129.14C48.5017 129.05 46.9081 128.707 45.4783 128.08ZM54.4443 84.4288C54.1018 85.9361 54.9805 87.7717 56.7975 89.3237C58.3018 90.6072 59.9401 91.3384 61.3997 91.622C61.7571 90.8609 62.0103 90.0251 62.1592 89.0999C62.9039 84.5631 60.8039 82.0111 58.555 81.5634C58.2869 81.5037 58.0486 81.4888 57.8103 81.4888C55.9784 81.4888 54.8018 82.9364 54.4443 84.4288Z" fill="#EAEAFF"/>
<path opacity="0.55" fill-rule="evenodd" clip-rule="evenodd" d="M54.3403 124.335C52.7764 123.588 52.0168 121.723 52.1956 119.067C52.4339 115.515 54.2509 111.023 57.036 107.053C60.2233 102.531 64.2446 99.3226 68.385 97.9794C70.8574 97.1885 72.9872 97.0393 74.7297 97.2034C78.9893 94.9052 83.8595 91.801 86.9872 85.0854C87.7617 83.4438 87.8362 81.459 87.2106 79.3547L87.7468 79.1906C88.4021 81.4142 88.3276 83.5333 87.4936 85.3093C84.4553 91.8458 79.8382 95.0096 75.6829 97.3079C76.5765 97.4571 77.351 97.681 77.9765 97.9197C80.4936 98.8599 82.4 100.561 83.1744 102.591C84.0681 104.919 83.5021 108.098 79.2425 110.038C74.2829 112.291 69.7403 111.202 67.4467 109.127C65.9127 107.74 65.3765 105.949 65.9573 104.203C66.9254 101.307 69.8446 99.7703 73.2403 97.9944C73.4191 97.9048 73.5978 97.8153 73.7765 97.7108C72.2871 97.681 70.5297 97.8899 68.5637 98.5167C59.5531 101.427 53.1934 112.649 52.7615 119.096C52.6424 120.798 52.8807 122.992 54.5935 123.812C58.8084 125.827 63.7829 125.275 68.5786 124.752L69.4127 124.663L69.4722 125.215L68.6382 125.305C66.4041 125.588 64.1403 125.827 61.936 125.827C59.285 125.827 56.7084 125.469 54.3403 124.335ZM73.4935 98.5018C70.0829 100.293 67.3722 101.71 66.4935 104.397C65.9871 105.919 66.4637 107.501 67.8339 108.724C69.9935 110.679 74.2978 111.679 79.0191 109.545C82.2957 108.053 83.6957 105.486 82.668 102.815C81.9383 100.934 80.1659 99.3524 77.7978 98.4719C76.9935 98.1735 76.0106 97.9048 74.834 97.7854C74.3723 98.0242 73.9255 98.263 73.4935 98.5018Z" fill="#EAEAFF"/>
<path opacity="0.55" d="M81.2233 83.3543C78.7807 82.1156 76.7701 80.1457 75.7275 77.9221C74.685 75.7134 74.7892 73.639 75.9807 72.6391L76.3382 73.0719C75.3403 73.8927 75.2956 75.6984 76.2339 77.6833C77.7233 80.8471 82.6531 85.7271 91.6787 83.9811L91.7829 84.5332C90.5021 84.772 89.251 84.8914 88.0446 84.8914C85.5574 84.8914 83.2488 84.3691 81.2233 83.3543Z" fill="#EAEAFF"/>
<path fill-rule="evenodd" clip-rule="evenodd" d="M99.4381 100.949V101.516H77.4402V100.949H99.4381Z" fill="#EAEAFF"/>
<path d="M62.1594 46.7615C62.1594 46.7615 62.2935 46.0601 63.1424 46.0601C63.9764 46.0601 64.1254 46.7615 64.1254 46.7615" fill="white"/>
<path d="M55.1594 46.4779C55.1594 46.4779 55.5764 45.6422 56.2765 45.7765C56.9765 45.9108 57.1105 46.6122 57.1105 46.6122" fill="white"/>
<path d="M58.8827 48.4329C58.7338 48.8359 58.57 49.2537 58.4508 49.6716C58.3912 49.8656 58.3466 50.0895 58.3615 50.2685C58.3912 50.4327 58.5253 50.5819 58.704 50.6864C59.0615 50.9103 59.4934 51.0297 59.9104 51.1341C59.687 51.1341 59.4636 51.1192 59.2402 51.0744C59.0168 51.0297 58.7934 50.97 58.5849 50.8655C58.5402 50.8356 58.4806 50.8058 58.4359 50.776C58.3912 50.7461 58.3317 50.7013 58.287 50.6566C58.1976 50.567 58.1232 50.4476 58.0934 50.3133C58.0487 50.0447 58.1232 49.8208 58.1678 49.597C58.287 49.1642 58.4657 48.7463 58.6742 48.3434C58.8827 47.9405 59.1061 47.5524 59.3593 47.1943C59.2104 47.6121 59.0466 48.0151 58.8827 48.4329Z" fill="#1F1F39"/>
<path d="M58.6594 53.2234C58.6594 53.2234 59.7764 54.0591 60.8935 53.7905C62.0105 53.507 62.1594 52.8055 62.1594 52.8055" fill="white"/>
<path fill-rule="evenodd" clip-rule="evenodd" d="M55.7252 49.9999C55.2645 49.9999 54.8911 49.5255 54.8911 48.9403C54.8911 48.3551 55.2645 47.8807 55.7252 47.8807C56.1858 47.8807 56.5592 48.3551 56.5592 48.9403C56.5592 49.5255 56.1858 49.9999 55.7252 49.9999Z" fill="#1F1F39"/>
<path fill-rule="evenodd" clip-rule="evenodd" d="M63.1424 49.9999C62.6818 49.9999 62.3083 49.5255 62.3083 48.9403C62.3083 48.3551 62.6818 47.8807 63.1424 47.8807C63.603 47.8807 63.9764 48.3551 63.9764 48.9403C63.9764 49.5255 63.603 49.9999 63.1424 49.9999Z" fill="#1F1F39"/>
<path fill-rule="evenodd" clip-rule="evenodd" d="M68.8434 53.0747C68.756 54.1013 67.343 54.8191 65.6874 54.6781C64.0318 54.5372 62.7606 53.5907 62.848 52.5641C62.9354 51.5376 64.3484 50.8197 66.004 50.9607C67.6596 51.1017 68.9308 52.0482 68.8434 53.0747Z" fill="#C43D28"/>
<path d="M0.992408 31.8243C0.322192 31.1528 0.322192 30.0783 0.992408 29.4067L29.7819 0.559276C30.4521 -0.112288 31.5245 -0.112288 32.1947 0.559276L34.533 2.90229C35.2032 3.57386 35.2032 4.64836 34.533 5.31992L5.74349 34.1674C5.07328 34.8389 4.00093 34.8389 3.33072 34.1674L0.992408 31.8243Z" fill="#EAEAFF"/>
<path d="M27.8292 2.49792L26.7419 3.58735L29.7356 6.60193C30.0334 6.9004 30.5249 6.9004 30.8228 6.60193C31.1207 6.30346 31.1207 5.81098 30.8228 5.5125L27.8292 2.49792Z" fill="#FFFFFE"/>
<path d="M24.0613 6.27363L27.0549 9.28821C27.3528 9.58668 27.8443 9.58668 28.1421 9.28821C28.44 8.98974 28.44 8.49726 28.1421 8.19878L25.1485 5.1842L24.0613 6.27363Z" fill="#FFFFFE"/>
<path d="M21.6782 8.66139L24.6719 11.676C24.9697 11.9744 25.4612 11.9744 25.7591 11.676C26.057 11.3775 26.057 10.885 25.7591 10.5865L22.7655 7.57196L21.6782 8.66139Z" fill="#FFFFFE"/>
<path d="M18.8484 11.4969L21.842 14.5115C22.1399 14.81 22.6314 14.81 22.9293 14.5115C23.2271 14.213 23.2271 13.7205 22.9293 13.422L19.9356 10.4075L18.8484 11.4969Z" fill="#FFFFFE"/>
<path d="M16.1675 14.1832L19.1611 17.1978C19.459 17.4962 19.9505 17.4962 20.2484 17.1978C20.5462 16.8993 20.5462 16.4068 20.2484 16.1083L17.2547 13.0938L16.1675 14.1832Z" fill="#FFFFFE"/>
<path d="M13.7844 16.5709L16.7781 19.5855C17.0759 19.884 17.5674 19.884 17.8653 19.5855C18.1632 19.287 18.1632 18.7946 17.8653 18.4961L14.8717 15.4815L13.7844 16.5709Z" fill="#FFFFFE"/>
<path d="M10.5825 19.7796L13.5761 22.7941C13.874 23.0926 14.3655 23.0926 14.6634 22.7941C14.9613 22.4957 14.9613 22.0032 14.6634 21.7047L11.6698 18.6901L10.5825 19.7796Z" fill="#FFFFFE"/>
<path d="M7.90161 22.4658L10.8952 25.4803C11.1931 25.7788 11.6846 25.7788 11.9825 25.4803C12.2804 25.1819 12.2804 24.6894 11.9825 24.3909L8.98885 21.3763L7.90161 22.4658Z" fill="#FFFFFE"/>
<path d="M5.51855 24.8536L8.51218 27.8682C8.81006 28.1666 9.30155 28.1666 9.59942 27.8682C9.89729 27.5697 9.89729 27.0772 9.59942 26.7787L6.60579 23.7642L5.51855 24.8536Z" fill="#FFFFFE"/>
<path d="M11.9975 28.6591C11.9975 28.6591 12.2805 25.7042 13.5316 23.7492C14.7826 21.7942 16.0486 21.3614 16.0486 21.3614C16.0486 21.3614 12.1316 18.6901 11.9975 16.168C11.8635 13.6459 13.6805 13.4966 14.5145 14.0637C15.3486 14.6308 17.8805 17.5708 19.2805 18.4214C20.6805 19.2721 22.3635 19.4064 22.9295 22.4956C23.4954 25.5848 18.3124 30.6439 18.3124 30.6439" fill="#DA5742"/>
<path d="M2.21229 21.7793C1.37824 23.8835 4.02932 26.9727 5.29528 27.5398C6.56124 28.1069 7.67827 27.6741 8.37827 27.1219C9.07828 26.5698 9.07828 25.4356 9.07828 25.4356C9.07828 25.4356 10.4783 25.5699 11.4613 24.7342C12.4442 23.8984 12.1613 22.4956 12.1613 22.4956C12.1613 22.4956 13.4272 22.6299 14.1272 21.6599C14.8272 20.6749 14.2613 18.0036 12.2208 16.3471C10.9251 15.2875 9.22721 14.7502 8.22934 15.6009C6.38252 17.1828 2.74846 20.4063 2.21229 21.7793Z" fill="#DA5742"/>
<path d="M12.191 22.5702L8.27391 18.3617C8.21434 18.302 8.22923 18.2125 8.27391 18.1677C8.33349 18.108 8.42285 18.123 8.46753 18.1677L12.3995 22.3911C12.459 22.4508 12.4441 22.5404 12.3995 22.5851C12.3697 22.615 12.325 22.615 12.2952 22.615C12.2505 22.615 12.2207 22.6001 12.191 22.5702Z" fill="#1F1F39"/>
<path d="M8.97402 25.5251L5.32506 21.451C5.28038 21.3913 5.28038 21.3017 5.33996 21.257C5.39953 21.2122 5.48889 21.2122 5.53357 21.2719L9.18253 25.346C9.22721 25.4057 9.22721 25.4953 9.16763 25.54C9.13785 25.555 9.10806 25.5699 9.07827 25.5699C9.03359 25.5699 9.0038 25.555 8.97402 25.5251Z" fill="#1F1F39"/>
<path d="M12.2953 28.7934C12.2059 28.7784 12.1463 28.7187 12.1612 28.6441C12.1761 28.5247 12.4591 25.6445 13.7251 23.6745C14.6782 22.1822 15.6314 21.5703 16.0783 21.3465C16.0336 21.3166 15.9889 21.2868 15.9442 21.2718C14.857 20.6003 12.325 19.0034 12.1612 16.1829C12.1612 16.1082 12.2208 16.0336 12.2953 16.0336C12.3697 16.0336 12.4442 16.0933 12.4442 16.1679C12.5931 18.8393 14.9612 20.3167 16.0931 21.0331C16.2272 21.1226 16.3463 21.1972 16.4506 21.2569L16.6889 21.4211L16.4208 21.5106C16.4059 21.5106 15.1846 21.9434 13.9782 23.8387C12.757 25.7489 12.4591 28.659 12.4591 28.6889C12.4293 28.7486 12.3697 28.7934 12.2953 28.7934C12.2953 28.7934 12.2804 28.7934 12.2953 28.7934Z" fill="#1F1F39"/>
<path fill-rule="evenodd" clip-rule="evenodd" d="M41.5093 66.2945L41.9646 66.6313L25.2702 89.1927L24.8149 88.8558L41.5093 66.2945Z" fill="#EAEAFF"/>
<path d="M59.9253 62.9088C58.7487 62.6701 57.9742 62.6253 57.4083 62.491L56.7231 67.1024C57.8104 67.0128 59.1955 66.7591 60.4763 66.1473C63.1423 64.8788 64.2742 62.7745 64.2742 62.7745C64.2742 62.7745 62.7402 63.4759 59.9253 62.9088Z" fill="#C43D28"/>
<path d="M60.9083 63.1924C58.8083 63.058 57.3934 62.6253 57.3785 62.6253C57.304 62.6103 57.2593 62.5208 57.2891 62.4462C57.304 62.3716 57.3934 62.3268 57.4678 62.3566C57.4827 62.3566 58.8827 62.7745 60.9381 62.9088C62.9785 63.0431 64.0955 62.6402 64.0955 62.6402C64.17 62.6103 64.2445 62.6551 64.2743 62.7297C64.304 62.8043 64.2594 62.879 64.1849 62.9088C64.1402 62.9088 63.3062 63.2222 61.7572 63.2222C61.4891 63.2222 61.2062 63.2073 60.9083 63.1924Z" fill="#1F1F39"/>
<path d="M71.1254 56.1634C71.4084 54.3427 72.5254 52.7906 72.5254 52.7906C72.5254 52.7906 70.9318 52.7907 69.9041 55.7455C69.2637 57.5811 69.2488 58.7601 69.3232 59.4018C69.4424 59.3869 70.1871 59.3571 71.1552 59.0884C71.0509 58.4467 70.9467 57.3274 71.1254 56.1634Z" fill="#C43D28"/>
<path d="M69.4574 57.9989C69.368 57.984 69.3084 57.9243 69.3233 57.8497C69.3233 57.79 69.4723 56.2678 70.1723 54.7157C70.8872 53.1488 72.6744 52.1638 72.7489 52.119C72.8233 52.0892 72.8978 52.1041 72.9425 52.1787C72.9872 52.2533 72.9574 52.328 72.8829 52.3727C72.868 52.3877 71.0957 53.3577 70.4255 54.8351C69.7403 56.3424 69.5914 57.8646 69.5914 57.8796C69.5765 57.9393 69.5169 57.9989 69.4574 57.9989C69.4425 57.9989 69.4425 57.9989 69.4574 57.9989Z" fill="#1F1F39"/>
<path fill-rule="evenodd" clip-rule="evenodd" d="M26.6974 127.513L67.2976 121.484L17.7017 66.6846L26.6974 127.513ZM53.238 115.47L31.7613 118.664L26.9953 86.4883L53.238 115.47Z" fill="#EAEAFF"/>
<path d="M27.0847 106.725L23.7932 107.217L24.0166 108.739L27.3081 108.247C27.74 108.202 28.0379 107.799 27.9634 107.381C27.9039 106.964 27.5017 106.665 27.0847 106.725Z" fill="#FFFFFE"/>
<path d="M25.9976 99.3226L22.6912 99.8151L22.9146 101.337L26.221 100.845C26.638 100.785 26.9359 100.397 26.8763 99.9792C26.8167 99.5614 26.4146 99.2629 25.9976 99.3226Z" fill="#FFFFFE"/>
<path d="M26.5486 103.024L23.2571 103.516L23.4805 105.038L26.772 104.546C27.189 104.486 27.4869 104.098 27.4273 103.68C27.3677 103.263 26.9656 102.964 26.5486 103.024Z" fill="#FFFFFE"/>
<path d="M28.1868 114.127L24.9102 114.619L25.1336 116.142L28.4102 115.649C28.8421 115.604 29.1251 115.201 29.0655 114.784C29.0059 114.366 28.6038 114.067 28.1868 114.127Z" fill="#FFFFFE"/>
<path d="M25.4465 95.6216L22.1401 96.114L22.3635 97.6363L25.6699 97.1438C26.1019 97.0841 26.3848 96.6961 26.3253 96.2782C26.2657 95.8603 25.8636 95.5619 25.4465 95.6216Z" fill="#FFFFFE"/>
<path d="M27.6357 110.426L24.3442 110.918L24.5676 112.441L27.8443 111.948C28.2911 111.903 28.574 111.5 28.5145 111.082C28.4549 110.665 28.0528 110.366 27.6357 110.426Z" fill="#FFFFFE"/>
<path d="M23.8081 84.5035L20.4868 84.9959L20.7102 86.5181L24.0315 86.0257C24.4485 85.9809 24.7464 85.578 24.6868 85.1601C24.6273 84.7422 24.2251 84.4438 23.8081 84.5035Z" fill="#FFFFFE"/>
<path d="M28.7378 117.828L25.4612 118.32L25.6846 119.843L28.9612 119.35C29.3782 119.305 29.6761 118.902 29.6165 118.485C29.5569 118.067 29.1548 117.768 28.7378 117.828Z" fill="#FFFFFE"/>
<path d="M24.3442 88.2045L21.0229 88.697L21.2464 90.2192L24.5676 89.7267C24.9996 89.682 25.2974 89.2939 25.223 88.8611C25.1634 88.4433 24.7613 88.1448 24.3442 88.2045Z" fill="#FFFFFE"/>
<path d="M24.8953 91.9205L21.5889 92.413L21.8123 93.9352L25.1187 93.4427C25.5506 93.383 25.8336 92.995 25.774 92.5772C25.7144 92.1593 25.3123 91.8608 24.8953 91.9205Z" fill="#FFFFFE"/>
<path d="M99.1405 119.067C98.4405 126.931 96.1915 133.528 86.3915 134.229C76.5914 134.93 62.7105 127.066 55.8594 119.768C49.0083 112.47 40.7275 104.322 40.7275 104.322C40.7275 104.322 37.9274 104.322 35.5445 105.158C33.1615 105.993 31.1955 105.859 30.6444 105.292C30.0785 104.725 30.2274 104.307 30.2274 104.307C30.2274 104.307 28.5444 104.173 28.1274 103.039C27.7104 101.919 28.1274 101.352 28.1274 101.352C28.1274 101.352 26.1614 101.218 25.8934 99.1137C25.6104 97.0094 30.5104 94.4873 32.4764 93.6367C34.4423 92.8009 37.3764 92.3682 37.3764 92.3682C37.3764 92.3682 34.2934 91.6667 32.3274 92.3682C30.3615 93.0696 29.2444 92.2339 29.2444 90.9653C29.2444 89.6968 31.7615 87.5926 35.8274 87.5926C39.8934 87.5926 46.4764 90.3982 49.9764 93.4874C53.4764 96.5766 78.8404 108.366 78.8404 108.366L78.2744 104.994H99.0064V105.023C99.0064 105.023 99.8405 111.202 99.1405 119.067Z" fill="#DA5742"/>
<path d="M28.023 101.457C27.9784 101.397 27.9933 101.307 28.0528 101.263C28.0826 101.248 30.4656 99.4122 32.6848 98.0243C34.9188 96.6214 36.4529 96.3379 36.5124 96.323C36.5869 96.308 36.6614 96.3528 36.6763 96.4424C36.6912 96.517 36.6465 96.5916 36.5571 96.6065C36.5422 96.6065 35.0082 96.905 32.8188 98.278C30.6146 99.6659 28.2316 101.487 28.2018 101.501C28.1869 101.501 28.1571 101.516 28.1273 101.516C28.0826 101.516 28.0379 101.501 28.023 101.457Z" fill="#1F1F39"/>
<path d="M30.1083 104.397C30.0636 104.337 30.0785 104.247 30.138 104.203C30.1678 104.188 32.8338 102.218 35.2168 101.233C37.5998 100.248 38.3296 100.233 38.3594 100.233C38.4338 100.233 38.4934 100.293 38.4934 100.367C38.4934 100.442 38.4338 100.502 38.3594 100.502C38.3594 100.502 37.6296 100.516 35.3359 101.472C32.9976 102.442 30.3466 104.382 30.3168 104.397C30.287 104.456 30.2572 104.456 30.2274 104.456C30.1827 104.456 30.138 104.441 30.1083 104.397Z" fill="#1F1F39"/>
<path d="M78.2744 105.023L78.8404 108.396L99.1852 106.62C99.0809 105.591 99.0064 105.023 99.0064 105.023H78.2744Z" fill="#C43D28"/>
<path fill-rule="evenodd" clip-rule="evenodd" d="M83.1746 110.217L75.5491 106.949Z" fill="#1F1F39"/>
<path d="M83.1148 110.336L75.4892 107.068C75.4147 107.038 75.3849 106.949 75.4147 106.889C75.4445 106.814 75.5339 106.784 75.5935 106.814L83.219 110.083C83.2935 110.112 83.3233 110.202 83.2935 110.262C83.2786 110.321 83.2339 110.351 83.1743 110.351C83.1594 110.351 83.1445 110.351 83.1148 110.336Z" fill="#1F1F39"/>
<path fill-rule="evenodd" clip-rule="evenodd" d="M75.3406 89.5778L78.8406 108.382Z" fill="#1F1F39"/>
<path d="M78.7062 108.411L75.2062 89.6073C75.1913 89.5327 75.236 89.4581 75.3253 89.4431C75.3998 89.4282 75.4743 89.473 75.4892 89.5625L78.9892 108.366C79.0041 108.441 78.9594 108.516 78.8701 108.53C78.8552 108.53 78.8403 108.53 78.8403 108.53C78.7807 108.53 78.7211 108.486 78.7062 108.411Z" fill="#1F1F39"/>
<path d="M54.1019 50.5073C53.387 50.4476 52.7317 50.5371 52.1955 50.761C52.136 51.6863 52.1062 52.716 52.136 53.7606C52.5977 53.9994 53.1636 54.1636 53.7892 54.2233C55.4572 54.3576 56.8721 53.6412 56.9466 52.6115C57.036 51.5818 55.7551 50.6416 54.1019 50.5073Z" fill="#C43D28"/>
<circle opacity="0.52" cx="97.019" cy="17.4216" r="2.98535" fill="white"/>
</g>
</g>
<defs>
<clipPath id="clip0_65_8">
<rect width="118.688" height="134.208" fill="white" transform="translate(0.484619 0.050415)"/>
</clipPath>
</defs>
</svg>
