<svg width="164" height="119" viewBox="0 0 164 119" fill="none" xmlns="http://www.w3.org/2000/svg">
<path fill-rule="evenodd" clip-rule="evenodd" d="M105.943 98.4393C105.872 98.2978 105.914 98.1281 106.056 98.0574L107.541 97.2511C107.682 97.1804 107.852 97.2228 107.923 97.3642C107.994 97.5057 107.951 97.6754 107.81 97.7462L106.324 98.5524C106.282 98.5807 106.24 98.5807 106.197 98.5807C106.098 98.5807 105.999 98.5241 105.943 98.4393ZM108.927 96.8126C108.856 96.6711 108.899 96.5014 109.04 96.4307L110.525 95.6244C110.667 95.5537 110.837 95.5961 110.907 95.7376C110.978 95.879 110.936 96.0488 110.794 96.1195L109.309 96.9258C109.267 96.954 109.224 96.954 109.182 96.954C109.083 96.954 108.984 96.8975 108.927 96.8126Z" fill="#EAEAFF"/>
<path fill-rule="evenodd" clip-rule="evenodd" d="M69.0806 91.9892C69.0806 91.8336 69.1937 91.7063 69.3493 91.6922C69.8868 91.678 70.4526 91.6356 71.0184 91.5649C71.174 91.5507 71.3155 91.6639 71.3296 91.8195C71.3438 91.9751 71.2306 92.1165 71.075 92.1307C70.4951 92.1872 69.9293 92.2297 69.3635 92.258C69.3776 92.258 69.3635 92.258 69.3635 92.258C69.2079 92.258 69.0806 92.1448 69.0806 91.9892ZM67.6519 92.2438C67.0578 92.2155 66.4779 92.1448 65.9545 92.0458H65.9404C65.7848 92.0175 65.6858 91.8761 65.7141 91.7205C65.7423 91.5649 65.8838 91.4658 66.0394 91.4941H66.0677C66.5628 91.5931 67.1144 91.6497 67.6944 91.678C67.8499 91.6922 67.9631 91.8195 67.9631 91.9751C67.949 92.1165 67.8217 92.2438 67.6661 92.2438H67.6519ZM72.4612 91.6497C72.4329 91.4941 72.5461 91.3527 72.6875 91.3244C73.225 91.2395 73.7767 91.1264 74.3425 91.0132C74.4981 90.9849 74.6395 91.0839 74.682 91.2254C74.7103 91.381 74.6112 91.5224 74.4698 91.5649C73.904 91.6922 73.3382 91.7912 72.7865 91.8761C72.7724 91.8902 72.7582 91.8902 72.7441 91.8902C72.6027 91.8902 72.4895 91.7912 72.4612 91.6497ZM64.2571 91.6639C63.6913 91.5224 63.1397 91.3527 62.6163 91.1688C62.4749 91.1122 62.39 90.9566 62.4466 90.8152C62.5032 90.6737 62.6587 90.5889 62.8002 90.6454C63.3236 90.8293 63.8611 90.9849 64.3986 91.1264C64.5542 91.1688 64.639 91.3244 64.5966 91.4659C64.5683 91.5932 64.4552 91.678 64.3279 91.678C64.2996 91.678 64.2854 91.678 64.2571 91.6639ZM75.7994 90.9849C75.757 90.8293 75.856 90.6737 76.0116 90.6454C76.535 90.5181 77.0866 90.3625 77.6383 90.2069C77.7939 90.1645 77.9494 90.2494 77.9919 90.405C78.0343 90.5606 77.9494 90.7162 77.7939 90.7586C77.2422 90.9142 76.6764 91.0698 76.1389 91.1971C76.1106 91.1971 76.0965 91.1971 76.0682 91.1971C75.9409 91.1971 75.8277 91.1122 75.7994 90.9849ZM61.0179 90.5323C60.4946 90.2918 59.9712 90.0372 59.4761 89.7543C59.3347 89.6836 59.2922 89.4997 59.363 89.3724C59.4337 89.2309 59.6176 89.1885 59.7449 89.2592C60.2258 89.528 60.7209 89.7826 61.2301 90.0089C61.3716 90.0796 61.4423 90.2352 61.3716 90.3767C61.3433 90.4898 61.2301 90.5606 61.1311 90.5606C61.0887 90.5606 61.0462 90.5464 61.0179 90.5323ZM79.0669 90.0655C79.0245 89.9099 79.0952 89.7543 79.2508 89.7119C79.7741 89.5421 80.3117 89.3724 80.8633 89.1744C81.0048 89.1178 81.1745 89.2027 81.2169 89.3441C81.2594 89.4856 81.1886 89.6553 81.0472 89.6977C80.5097 89.8816 79.958 90.0655 79.4205 90.2352C79.3922 90.2494 79.3639 90.2635 79.3357 90.2635C79.2225 90.2635 79.1093 90.1928 79.0669 90.0655ZM82.2778 88.9622C82.2212 88.8207 82.2919 88.651 82.4475 88.5944C82.9709 88.3964 83.4943 88.1984 84.0318 87.9862C84.1732 87.9296 84.343 88.0003 84.3995 88.1418C84.4561 88.2832 84.3854 88.453 84.244 88.5096C83.7064 88.7217 83.1689 88.9198 82.6456 89.1178C82.6173 89.1461 82.5748 89.1461 82.5466 89.1461C82.4334 89.1461 82.3202 89.0753 82.2778 88.9622ZM58.0192 88.8349C57.5524 88.4954 57.0998 88.1418 56.6613 87.7599C56.5481 87.6609 56.534 87.477 56.633 87.3638C56.732 87.2507 56.9159 87.2365 57.0291 87.3355C57.4393 87.7033 57.8778 88.0428 58.3304 88.3681C58.4577 88.453 58.486 88.6369 58.4011 88.7642C58.3587 88.849 58.2738 88.8915 58.1889 88.8915C58.1324 88.8915 58.0758 88.8773 58.0192 88.8349ZM149.226 88.651C149.07 88.6227 148.971 88.4813 149 88.3257C149.028 88.1701 149.169 88.0711 149.325 88.0993C149.848 88.1842 150.386 88.1984 150.937 88.1276C151.093 88.1135 151.234 88.2125 151.249 88.3681C151.263 88.5237 151.164 88.6651 151.008 88.6793C150.739 88.7076 150.471 88.7359 150.216 88.7359C149.891 88.7359 149.551 88.7076 149.226 88.651ZM152.338 88.0711C152.281 87.9296 152.352 87.7599 152.493 87.7033C152.974 87.5194 153.469 87.2648 153.964 86.9536C154.092 86.8687 154.276 86.9112 154.361 87.0385C154.445 87.1658 154.403 87.3497 154.276 87.4345C153.752 87.7599 153.229 88.0286 152.72 88.2267C152.663 88.2408 152.635 88.2549 152.607 88.2549C152.493 88.2549 152.38 88.1842 152.338 88.0711ZM147.543 88.0852C147.048 87.8306 146.552 87.5194 146.072 87.1233C145.944 87.0243 145.93 86.8404 146.029 86.7273C146.128 86.6 146.312 86.5858 146.425 86.6848C146.864 87.0526 147.33 87.3497 147.783 87.576C147.925 87.6467 147.981 87.8164 147.91 87.9579C147.868 88.0569 147.769 88.1135 147.67 88.1135C147.628 88.1135 147.585 88.0994 147.543 88.0852ZM85.4463 87.7316C85.3897 87.5901 85.4604 87.4204 85.6019 87.3638C86.1252 87.1516 86.6486 86.9253 87.1578 86.699C87.2993 86.6424 87.469 86.699 87.5256 86.8404C87.5822 86.9819 87.5256 87.1516 87.3841 87.2082C86.8608 87.4345 86.3374 87.6609 85.814 87.873C85.7858 87.9013 85.7433 87.9013 85.7009 87.9013C85.5877 87.9013 85.4887 87.8306 85.4463 87.7316ZM55.4307 86.5434C55.0488 86.119 54.681 85.6664 54.3415 85.1996C54.2425 85.0723 54.2708 84.9026 54.3981 84.8036C54.5254 84.7046 54.6951 84.7328 54.7942 84.8602C55.1195 85.3128 55.4731 85.7371 55.8409 86.1473C55.9399 86.2605 55.9399 86.4444 55.8267 86.5434C55.7843 86.6141 55.7136 86.6424 55.6428 86.6424C55.5721 86.6424 55.4873 86.6141 55.4307 86.5434ZM88.5582 86.3737C88.4874 86.2322 88.5582 86.0625 88.6996 85.9918C89.2088 85.7513 89.7322 85.5108 90.2273 85.2704C90.3687 85.1996 90.5385 85.2562 90.6092 85.3977C90.6799 85.5391 90.6233 85.7089 90.4819 85.7796C89.9727 86.02 89.4493 86.2746 88.9401 86.501C88.8976 86.5293 88.8552 86.5434 88.8128 86.5434C88.6996 86.5434 88.6006 86.4868 88.5582 86.3737ZM155.28 86.4019C155.181 86.2746 155.195 86.1049 155.322 86.0059C155.733 85.6664 156.157 85.2986 156.567 84.8884C156.68 84.7753 156.85 84.7753 156.963 84.8884C157.076 85.0016 157.076 85.1713 156.963 85.2845C156.539 85.7088 156.114 86.0908 155.69 86.4444C155.619 86.4727 155.549 86.501 155.492 86.501C155.407 86.501 155.322 86.4585 155.28 86.4019ZM144.827 85.9069C144.544 85.5815 144.261 85.2279 143.992 84.8602C143.922 84.7611 143.837 84.648 143.766 84.549C143.681 84.4217 143.709 84.2519 143.837 84.1529C143.964 84.068 144.148 84.0963 144.233 84.2236C144.303 84.3226 144.374 84.4217 144.459 84.5348C144.714 84.9026 144.982 85.2421 145.265 85.5391C145.364 85.6523 145.35 85.8362 145.237 85.9352C145.18 85.9776 145.11 86.0059 145.039 86.0059C144.954 86.0059 144.883 85.9776 144.827 85.9069ZM91.6276 84.9167C91.5569 84.7753 91.6135 84.6055 91.7549 84.5348C92.25 84.2802 92.7592 84.0256 93.2684 83.771C93.4099 83.7003 93.5796 83.7569 93.6504 83.8983C93.7211 84.0397 93.6645 84.2095 93.523 84.2802C93.0138 84.5348 92.5046 84.8036 92.0095 85.0582C91.9671 85.0582 91.9247 85.0723 91.8822 85.0723C91.7832 85.0723 91.6842 85.0157 91.6276 84.9167ZM157.727 84.0397C157.614 83.9407 157.6 83.7568 157.699 83.6437C158.052 83.2193 158.406 82.7808 158.745 82.3282C158.844 82.2009 159.014 82.1726 159.142 82.2716C159.269 82.3706 159.297 82.5404 159.198 82.6677C158.859 83.1345 158.491 83.5871 158.123 84.0115C158.066 84.068 157.982 84.1105 157.911 84.1105C157.84 84.1105 157.784 84.0822 157.727 84.0397ZM53.4079 83.771C53.125 83.2759 52.8563 82.7667 52.63 82.2292C52.5734 82.0877 52.63 81.918 52.7714 81.8614C52.9129 81.8048 53.0826 81.8614 53.1392 82.0029C53.3655 82.5121 53.6201 83.0072 53.8889 83.4881C53.9596 83.6295 53.9172 83.7993 53.7899 83.87C53.7474 83.8983 53.6908 83.9124 53.6484 83.9124C53.5494 83.9124 53.4504 83.8559 53.4079 83.771ZM94.6546 83.3466C94.5839 83.2052 94.6263 83.0355 94.7678 82.9647C95.2629 82.696 95.7579 82.4272 96.253 82.1585C96.3945 82.0877 96.5642 82.1302 96.6349 82.2716C96.7057 82.4131 96.6632 82.5828 96.5218 82.6535C96.0267 82.9223 95.5316 83.2052 95.0366 83.4598C94.9941 83.5022 94.9517 83.5022 94.9093 83.5022C94.8102 83.5022 94.7112 83.4457 94.6546 83.3466ZM142.818 83.1345C142.493 82.6252 142.182 82.1302 141.927 81.6634C141.856 81.5219 141.899 81.3522 142.04 81.2815C142.182 81.2108 142.351 81.2532 142.422 81.3946C142.677 81.8473 142.96 82.3282 143.285 82.8374C143.37 82.9647 143.327 83.1486 143.2 83.2335C143.158 83.2476 143.101 83.2618 143.059 83.2618C142.96 83.2618 142.875 83.2193 142.818 83.1345ZM97.6251 81.72C97.5544 81.5785 97.5968 81.4088 97.7241 81.3381C98.205 81.0552 98.7001 80.7723 99.1952 80.4894C99.3366 80.4045 99.5064 80.4611 99.5771 80.5884C99.662 80.7298 99.6054 80.8996 99.4781 80.9703C98.983 81.2673 98.4879 81.5502 98.007 81.8331C97.9646 81.8473 97.9221 81.8614 97.8656 81.8614C97.7665 81.8614 97.6675 81.8048 97.6251 81.72ZM52.0076 80.6167C51.8237 80.0792 51.6681 79.5275 51.5408 78.9617C51.5125 78.8061 51.5974 78.6505 51.753 78.6222C51.9086 78.5939 52.0642 78.6788 52.0925 78.8344C52.2198 79.386 52.3754 79.9236 52.5451 80.4469C52.5875 80.5884 52.5168 80.7581 52.3612 80.8006C52.3329 80.8147 52.3046 80.8147 52.2763 80.8147C52.1632 80.8147 52.05 80.744 52.0076 80.6167ZM141.163 80.1216C140.909 79.5275 140.739 78.99 140.612 78.4666C140.583 78.311 140.668 78.1696 140.824 78.1272C140.979 78.0989 141.121 78.1837 141.163 78.3393C141.276 78.8344 141.446 79.3436 141.687 79.8953C141.743 80.0367 141.687 80.2065 141.531 80.263C141.503 80.2772 141.46 80.2913 141.418 80.2913C141.305 80.2913 141.206 80.2206 141.163 80.1216ZM100.553 79.9943C100.468 79.867 100.511 79.6831 100.652 79.5982C101.133 79.3012 101.614 79.0041 102.095 78.7071C102.222 78.6222 102.406 78.6647 102.491 78.792C102.576 78.9193 102.533 79.1031 102.406 79.188C101.925 79.4851 101.444 79.7963 100.963 80.0792C100.893 80.1216 100.85 80.1357 100.794 80.1357C100.695 80.1357 100.61 80.0933 100.553 79.9943ZM103.439 78.1979C103.354 78.0706 103.396 77.8867 103.524 77.8018C104.004 77.4906 104.471 77.1794 104.938 76.8683C105.065 76.7834 105.249 76.8117 105.334 76.939C105.419 77.0663 105.391 77.2502 105.263 77.335C104.797 77.6462 104.316 77.9574 103.849 78.2686C103.778 78.311 103.722 78.3252 103.679 78.3252C103.58 78.3252 103.495 78.2827 103.439 78.1979ZM51.2296 77.2643C51.1448 76.7127 51.0882 76.1327 51.0599 75.5528C51.0457 75.3972 51.173 75.2557 51.3286 75.2557C51.4842 75.2416 51.6257 75.3689 51.6257 75.5245C51.654 76.0903 51.7106 76.6419 51.7954 77.1936C51.8237 77.3492 51.7105 77.4906 51.555 77.5189C51.5408 77.5048 51.5267 77.5048 51.5125 77.5048C51.3711 77.5048 51.2579 77.4058 51.2296 77.2643ZM140.711 76.9956C140.555 76.9814 140.428 76.8541 140.442 76.6985C140.47 76.1186 140.583 75.5528 140.795 74.9587C140.852 74.8172 141.008 74.7324 141.163 74.7889C141.305 74.8455 141.39 75.0011 141.333 75.1567C141.135 75.6942 141.036 76.2034 141.008 76.7268C140.994 76.8824 140.88 76.9956 140.725 76.9956H140.711ZM106.268 76.3025C106.183 76.1751 106.211 75.9913 106.338 75.9064C106.805 75.5811 107.272 75.2557 107.725 74.9304C107.852 74.8455 108.022 74.8738 108.121 75.0011C108.206 75.1284 108.177 75.2982 108.05 75.3972C107.597 75.7225 107.13 76.062 106.664 76.3732C106.607 76.4156 106.551 76.4298 106.494 76.4298C106.409 76.4298 106.31 76.3873 106.268 76.3025ZM109.026 74.3363C108.927 74.209 108.955 74.0393 109.083 73.9402C109.535 73.6008 109.988 73.2613 110.426 72.9218C110.554 72.8228 110.723 72.8511 110.822 72.9784C110.921 73.1057 110.893 73.2754 110.766 73.3745C110.327 73.7139 109.86 74.0675 109.408 74.407C109.365 74.4212 109.309 74.4495 109.252 74.4495C109.167 74.4495 109.082 74.407 109.026 74.3363ZM51.0174 73.8412C51.0316 73.2754 51.0457 72.7096 51.1023 72.1297C51.1165 71.9741 51.2438 71.8609 51.4135 71.8751C51.5691 71.8892 51.6823 72.0307 51.6681 72.1863C51.6257 72.7521 51.5974 73.3179 51.5832 73.8554C51.5832 73.9968 51.4559 74.1241 51.3003 74.1241C51.1448 74.1241 51.0174 73.9968 51.0174 73.8412ZM141.658 73.7705C141.517 73.6856 141.474 73.5159 141.559 73.3886C141.8 72.9784 142.097 72.5116 142.493 71.9458C142.578 71.8185 142.762 71.7902 142.889 71.8751C143.016 71.96 143.045 72.1438 142.96 72.2711C142.578 72.8369 142.281 73.2754 142.054 73.6715C141.998 73.7705 141.899 73.8129 141.8 73.8129C141.757 73.8129 141.701 73.7988 141.658 73.7705ZM111.713 72.257C111.614 72.1297 111.629 71.96 111.756 71.8609C112.194 71.5073 112.647 71.1395 113.071 70.7859C113.199 70.6869 113.368 70.701 113.467 70.8284C113.566 70.9415 113.552 71.1254 113.425 71.2244C113.001 71.578 112.548 71.9458 112.11 72.2994C112.067 72.3419 112.011 72.3702 111.94 72.3702C111.855 72.3702 111.77 72.3277 111.713 72.257ZM143.525 70.9557C143.398 70.8708 143.37 70.6869 143.455 70.5596C143.752 70.1353 144.077 69.6685 144.417 69.1734C144.501 69.0461 144.685 69.0178 144.813 69.1027C144.94 69.1875 144.968 69.3714 144.883 69.4987C144.544 70.0079 144.204 70.4747 143.907 70.8991C143.879 70.9698 143.794 71.0122 143.695 71.0122C143.639 71.0122 143.582 70.9981 143.525 70.9557ZM51.5408 70.7435C51.3852 70.7152 51.2862 70.5737 51.3003 70.4181C51.3852 69.8665 51.4842 69.3007 51.5974 68.7349C51.6257 68.5793 51.7813 68.4803 51.9369 68.5086C52.0925 68.5369 52.1915 68.6925 52.1632 68.8481C52.05 69.3997 51.951 69.9514 51.8661 70.503C51.8379 70.6445 51.7106 70.7435 51.5832 70.7435C51.5691 70.7435 51.555 70.7435 51.5408 70.7435ZM114.344 70.0928C114.245 69.9797 114.26 69.7958 114.373 69.6968C114.797 69.329 115.221 68.9471 115.632 68.5652C115.745 68.4661 115.929 68.4661 116.028 68.5793C116.127 68.6925 116.127 68.8764 116.014 68.9754C115.603 69.3573 115.179 69.7392 114.74 70.107C114.684 70.1635 114.613 70.1918 114.557 70.1918C114.472 70.1918 114.401 70.1635 114.344 70.0928ZM145.449 68.155C145.322 68.0701 145.279 67.9003 145.364 67.7589C145.676 67.278 145.958 66.797 146.227 66.3161C146.298 66.1747 146.482 66.1322 146.609 66.2171C146.751 66.2878 146.793 66.4717 146.708 66.599C146.425 67.0941 146.142 67.575 145.831 68.0559C145.789 68.155 145.704 68.1974 145.605 68.1974C145.548 68.1974 145.506 68.1832 145.449 68.155ZM116.862 67.8155C116.749 67.7023 116.763 67.5184 116.876 67.4194C117.287 67.0234 117.697 66.6273 118.079 66.2312C118.192 66.1181 118.362 66.1181 118.475 66.2312C118.588 66.3444 118.588 66.5141 118.475 66.6273C118.093 67.0234 117.683 67.4336 117.258 67.8296C117.202 67.8721 117.131 67.9003 117.06 67.9003C116.99 67.9003 116.919 67.8721 116.862 67.8155ZM52.1915 67.4053C52.0359 67.3628 51.951 67.2073 51.9934 67.0658C52.1349 66.5283 52.3046 65.9766 52.4744 65.425C52.5168 65.2694 52.6866 65.1987 52.828 65.2411C52.9836 65.2835 53.0543 65.4533 53.0119 65.5947C52.8421 66.1322 52.6724 66.6697 52.531 67.2073C52.5027 67.3346 52.3895 67.4194 52.2622 67.4194C52.2339 67.4194 52.2198 67.4194 52.1915 67.4053ZM119.239 65.3967C119.125 65.2977 119.111 65.1138 119.224 65.0006C119.606 64.5763 119.988 64.1519 120.342 63.7417C120.441 63.6286 120.625 63.6144 120.738 63.7134C120.851 63.8125 120.865 63.9963 120.766 64.1095C120.413 64.5338 120.031 64.9582 119.635 65.3967C119.592 65.4391 119.507 65.4674 119.437 65.4674C119.366 65.4674 119.295 65.4391 119.239 65.3967ZM147.161 65.227C147.019 65.1562 146.963 64.9865 147.033 64.845C147.104 64.7036 147.175 64.5621 147.26 64.4065C147.429 64.0671 147.599 63.6993 147.755 63.3315C147.811 63.1901 147.981 63.1194 148.123 63.1759C148.264 63.2325 148.335 63.4023 148.278 63.5437C148.123 63.9256 147.953 64.3075 147.769 64.6612C147.698 64.8168 147.613 64.9582 147.543 65.0996C147.486 65.1987 147.387 65.2552 147.288 65.2552C147.246 65.2552 147.203 65.2411 147.161 65.227ZM53.2099 64.1802C53.0685 64.1236 52.9836 63.9681 53.0402 63.8125C53.2382 63.2891 53.4504 62.7516 53.6767 62.2282C53.7333 62.0868 53.903 62.016 54.0445 62.0868C54.1859 62.1434 54.2566 62.3131 54.1859 62.4545C53.9596 62.9779 53.7474 63.5013 53.5494 64.0105C53.5211 64.1236 53.4221 64.1944 53.3089 64.1944C53.2806 64.1944 53.2382 64.1944 53.2099 64.1802ZM121.459 62.8223C121.332 62.7233 121.318 62.5536 121.403 62.4262C121.756 61.9736 122.096 61.5068 122.393 61.0683C122.478 60.941 122.662 60.9127 122.789 60.9976C122.916 61.0825 122.945 61.2664 122.86 61.3937C122.549 61.8463 122.209 62.3131 121.841 62.7799C121.799 62.8365 121.714 62.8789 121.629 62.8789C121.573 62.8789 121.502 62.8647 121.459 62.8223ZM148.519 62.1151C148.363 62.0726 148.292 61.9029 148.335 61.7614C148.505 61.2381 148.66 60.7006 148.787 60.1489C148.83 59.9933 148.971 59.9084 149.127 59.9367C149.282 59.9792 149.367 60.1206 149.339 60.2762C149.198 60.842 149.042 61.3937 148.872 61.9312C148.83 62.0585 148.717 62.1292 148.604 62.1292C148.575 62.1292 148.547 62.1292 148.519 62.1151ZM54.5254 61.0542C54.3839 60.9835 54.3274 60.8137 54.3981 60.6723C54.5254 60.4035 54.6668 60.1348 54.7942 59.8802C54.9215 59.6397 55.0488 59.3992 55.1902 59.1446C55.2609 59.0032 55.4448 58.9607 55.5721 59.0456C55.7136 59.1163 55.756 59.3002 55.6711 59.4275C55.5297 59.668 55.4024 59.9085 55.2892 60.1348C55.1619 60.3894 55.0205 60.6581 54.8932 60.9127C54.8507 61.0118 54.7517 61.0825 54.6527 61.0825C54.6103 61.0825 54.5678 61.0683 54.5254 61.0542ZM123.411 60.0358C123.284 59.9509 123.227 59.7811 123.312 59.6538C123.609 59.1588 123.878 58.6637 124.104 58.1828C124.175 58.0413 124.345 57.9847 124.486 58.0555C124.628 58.1262 124.684 58.2959 124.614 58.4374C124.373 58.9325 124.104 59.4417 123.793 59.9509C123.737 60.0216 123.652 60.0782 123.553 60.0782C123.51 60.0782 123.454 60.064 123.411 60.0358ZM149.367 58.8334C149.212 58.8051 149.113 58.6637 149.141 58.5081C149.24 57.9564 149.311 57.4048 149.367 56.839C149.381 56.6834 149.523 56.5702 149.679 56.5844C149.834 56.5985 149.947 56.74 149.933 56.8956C149.877 57.4614 149.806 58.0413 149.707 58.593C149.664 58.7344 149.537 58.8334 149.41 58.8334C149.396 58.8334 149.381 58.8334 149.367 58.8334ZM56.1804 58.0979C56.0531 58.013 56.0106 57.8291 56.1096 57.7018C56.4208 57.2492 56.7603 56.7824 57.1139 56.3156C57.2129 56.1883 57.3827 56.1742 57.51 56.259C57.6373 56.3581 57.6514 56.5278 57.5666 56.6551C57.2129 57.1077 56.8876 57.5745 56.5764 58.013C56.5198 58.0979 56.4208 58.1403 56.3359 58.1403C56.2794 58.1403 56.2228 58.1262 56.1804 58.0979ZM124.925 57.0087C124.783 56.9522 124.699 56.7966 124.755 56.641C124.911 56.2025 125.038 55.764 125.137 55.3396C125.165 55.2406 125.179 55.1416 125.208 55.0426C125.25 54.887 125.392 54.8021 125.547 54.8304C125.703 54.8728 125.788 55.0143 125.759 55.1699C125.731 55.2689 125.717 55.3679 125.689 55.4669C125.59 55.9054 125.448 56.3722 125.278 56.839C125.25 56.9522 125.137 57.0229 125.024 57.0229C124.996 57.0229 124.953 57.0229 124.925 57.0087ZM149.452 55.1699C149.452 55.0143 149.452 54.8587 149.452 54.7031C149.452 54.2929 149.438 53.8968 149.424 53.5008C149.41 53.3452 149.537 53.2179 149.693 53.2037C149.848 53.1896 149.976 53.3169 149.99 53.4725C150.018 53.8827 150.032 54.2929 150.032 54.7031C150.032 54.8587 150.032 55.0284 150.032 55.184C150.018 55.3396 149.891 55.4528 149.735 55.4528C149.58 55.4528 149.452 55.3255 149.452 55.1699ZM58.2172 55.3679C58.1041 55.2689 58.0899 55.085 58.1889 54.9719C58.5426 54.5475 58.9245 54.1232 59.3205 53.6847C59.4196 53.5715 59.6034 53.5574 59.7166 53.6705C59.8298 53.7695 59.8439 53.9534 59.7307 54.0666C59.3347 54.4909 58.9669 54.9153 58.6133 55.3255C58.5567 55.4104 58.486 55.4386 58.4011 55.4386C58.3304 55.4386 58.2738 55.4104 58.2172 55.3679ZM125.83 53.7412C125.675 53.6988 125.59 53.5432 125.632 53.3876C125.788 52.8218 125.957 52.2702 126.127 51.7468C126.17 51.6054 126.339 51.5205 126.481 51.5629C126.622 51.6054 126.707 51.7751 126.665 51.9165C126.495 52.4258 126.325 52.9774 126.17 53.5291C126.141 53.6705 126.028 53.7554 125.901 53.7554C125.873 53.7554 125.844 53.7554 125.83 53.7412ZM60.4946 52.8501C60.3814 52.737 60.3814 52.5672 60.4946 52.4541C60.8765 52.058 61.2867 51.6619 61.6969 51.2517C61.8101 51.1386 61.9939 51.1386 62.0929 51.2517C62.2061 51.3649 62.2061 51.5488 62.0929 51.6478C61.6827 52.058 61.2725 52.4541 60.8906 52.8501C60.834 52.9067 60.7633 52.935 60.6926 52.935C60.6219 52.935 60.5511 52.9067 60.4946 52.8501ZM149.24 51.8317C149.155 51.2659 149.042 50.7284 148.915 50.205C148.872 50.0494 148.971 49.8938 149.113 49.8655C149.268 49.8231 149.424 49.9221 149.452 50.0636C149.594 50.6011 149.707 51.181 149.792 51.761C149.82 51.9166 149.707 52.058 149.551 52.0863C149.551 52.0721 149.537 52.0721 149.523 52.0721C149.381 52.0721 149.268 51.9731 149.24 51.8317ZM62.9134 50.4738C62.8002 50.3606 62.8143 50.1767 62.9275 50.0777C63.3236 49.7099 63.7479 49.3139 64.1864 48.9178C64.2996 48.8188 64.4834 48.8188 64.5825 48.932C64.6815 49.0451 64.6815 49.229 64.5683 49.328C64.144 49.7241 63.7196 50.106 63.3236 50.4738C63.2528 50.5303 63.1821 50.5586 63.1255 50.5586C63.0548 50.5586 62.9699 50.5303 62.9134 50.4738ZM126.877 50.5162C126.735 50.4596 126.665 50.2899 126.721 50.1484C126.933 49.5968 127.174 49.0734 127.4 48.5783C127.471 48.4369 127.641 48.3803 127.782 48.451C127.924 48.5218 127.98 48.6915 127.909 48.8329C127.683 49.3139 127.457 49.8372 127.245 50.3747C127.202 50.4596 127.089 50.5303 126.976 50.5303C126.948 50.5303 126.905 50.5303 126.877 50.5162ZM148.405 48.6066C148.207 48.0833 147.967 47.574 147.698 47.1073C147.628 46.9658 147.67 46.7961 147.811 46.7253C147.953 46.6546 148.123 46.6971 148.193 46.8385C148.462 47.3336 148.717 47.8569 148.929 48.4086C148.985 48.55 148.915 48.7198 148.773 48.7764C148.745 48.7905 148.717 48.7905 148.674 48.7905C148.561 48.7905 148.448 48.7198 148.405 48.6066ZM65.417 48.1681C65.318 48.055 65.318 47.8711 65.4453 47.7721C65.8697 47.4043 66.294 47.0224 66.7325 46.6546C66.8457 46.5556 67.0295 46.5698 67.1286 46.6829C67.2276 46.7961 67.2134 46.98 67.1003 47.079C66.6759 47.4467 66.2374 47.8287 65.8272 48.1964C65.7706 48.2389 65.6999 48.2671 65.6292 48.2671C65.5443 48.2671 65.4736 48.2389 65.417 48.1681ZM128.306 47.4326C128.164 47.3477 128.122 47.178 128.206 47.0507C128.504 46.5415 128.829 46.0605 129.154 45.6079C129.253 45.4806 129.423 45.4523 129.55 45.5513C129.678 45.6503 129.706 45.8201 129.607 45.9474C129.296 46.3717 128.984 46.8385 128.687 47.3336C128.645 47.4184 128.546 47.475 128.447 47.475C128.405 47.475 128.348 47.4609 128.306 47.4326ZM67.9914 45.9474C67.8924 45.8342 67.9065 45.6503 68.0197 45.5513C68.444 45.1835 68.8825 44.8158 69.321 44.448C69.4342 44.349 69.6181 44.3631 69.7171 44.4763C69.8161 44.5895 69.802 44.7733 69.6888 44.8724C69.2503 45.2401 68.826 45.6079 68.3875 45.9757C68.3309 46.0181 68.2743 46.0464 68.2036 46.0464C68.1187 46.0464 68.048 46.0181 67.9914 45.9474ZM146.807 45.7352C146.468 45.2967 146.1 44.8865 145.69 44.5187C145.576 44.4197 145.562 44.2358 145.676 44.1227C145.775 44.0095 145.958 43.9954 146.072 44.1085C146.496 44.5046 146.892 44.9289 147.246 45.3957C147.345 45.523 147.316 45.6928 147.189 45.7918C147.147 45.8201 147.09 45.8484 147.033 45.8484C146.949 45.8484 146.864 45.8059 146.807 45.7352ZM130.286 44.6743C130.173 44.5612 130.173 44.3914 130.286 44.2783C130.696 43.8539 131.134 43.472 131.587 43.1325C131.714 43.0335 131.884 43.0618 131.983 43.1891C132.082 43.3164 132.054 43.4862 131.927 43.5852C131.502 43.9105 131.078 44.2783 130.696 44.6743C130.625 44.7309 130.555 44.7592 130.484 44.7592C130.413 44.7592 130.342 44.7309 130.286 44.6743ZM70.5941 43.7549C70.4951 43.6417 70.5092 43.4579 70.6365 43.3588C71.075 42.9911 71.5135 42.6375 71.9378 42.2697C72.051 42.1707 72.2349 42.1848 72.3339 42.3121C72.4329 42.4253 72.4188 42.6092 72.2915 42.7082C71.853 43.076 71.4145 43.4296 70.9901 43.7973C70.9335 43.8256 70.8628 43.8539 70.8062 43.8539C70.7214 43.8539 70.6506 43.8256 70.5941 43.7549ZM144.388 43.5144C143.936 43.2174 143.441 42.9628 142.931 42.7365C142.79 42.6799 142.719 42.5101 142.79 42.3687C142.847 42.2272 143.016 42.1565 143.158 42.2272C143.695 42.4677 144.204 42.7365 144.685 43.0477C144.813 43.1325 144.855 43.3023 144.77 43.4437C144.728 43.5144 144.629 43.5569 144.544 43.5569C144.487 43.5569 144.445 43.5427 144.388 43.5144ZM132.931 42.5809C132.86 42.4394 132.917 42.2697 133.058 42.199C133.567 41.9302 134.119 41.718 134.671 41.5483C134.826 41.5059 134.982 41.5907 135.024 41.7322C135.067 41.8878 134.982 42.0434 134.84 42.0858C134.317 42.2414 133.808 42.4536 133.313 42.694C133.27 42.7365 133.228 42.7365 133.186 42.7365C133.086 42.7365 132.987 42.6799 132.931 42.5809ZM141.375 42.1848C140.965 42.0717 140.541 41.9726 140.117 41.9019C139.989 41.8736 139.876 41.8595 139.763 41.8453C139.607 41.8171 139.508 41.6756 139.522 41.52C139.551 41.3644 139.692 41.2654 139.848 41.2795C139.975 41.2937 140.102 41.322 140.216 41.3361C140.668 41.421 141.107 41.52 141.531 41.6332C141.687 41.6756 141.771 41.8312 141.729 41.9868C141.687 42.1141 141.573 42.199 141.446 42.199C141.418 42.199 141.39 42.199 141.375 42.1848ZM136.128 41.5059C136.114 41.3503 136.213 41.2088 136.368 41.1947C136.92 41.1239 137.5 41.0957 138.108 41.1098C138.264 41.1098 138.391 41.2371 138.377 41.4068C138.377 41.5624 138.235 41.6897 138.08 41.6756C137.514 41.6615 136.962 41.6897 136.425 41.7463C136.439 41.7605 136.425 41.7605 136.411 41.7605C136.269 41.7605 136.142 41.6615 136.128 41.5059ZM73.1967 41.5766C73.0977 41.4634 73.1119 41.2795 73.2392 41.1805C73.6777 40.8128 74.102 40.4591 74.5405 40.0914C74.6537 39.9924 74.8376 40.0065 74.9366 40.1197C75.0356 40.2328 75.0214 40.4167 74.9083 40.5157C74.4698 40.8835 74.0454 41.2371 73.6069 41.6049C73.5362 41.6473 73.4796 41.6756 73.4089 41.6756C73.324 41.6756 73.2533 41.6473 73.1967 41.5766ZM75.7994 39.3983C75.7004 39.2851 75.7145 39.1012 75.8277 39.0022C76.2662 38.6344 76.6905 38.2667 77.1149 37.8989C77.2281 37.7999 77.4119 37.814 77.511 37.9272C77.61 38.0403 77.5958 38.2242 77.4827 38.3232C77.0583 38.691 76.6198 39.0588 76.1813 39.4266C76.1389 39.469 76.0823 39.4973 76.0116 39.4973C75.9267 39.4973 75.856 39.469 75.7994 39.3983ZM78.3738 37.1775C78.2748 37.0643 78.2889 36.8805 78.4021 36.7814C78.8547 36.3854 79.2649 36.0176 79.6751 35.6498C79.7883 35.5508 79.9722 35.5508 80.0712 35.6781C80.1702 35.7913 80.1702 35.9752 80.0429 36.0742C79.6468 36.442 79.2225 36.8097 78.7699 37.2058C78.7274 37.2482 78.6567 37.2765 78.586 37.2765C78.5011 37.2765 78.4304 37.2482 78.3738 37.1775ZM80.9057 34.9143C80.7926 34.8012 80.8067 34.6173 80.9199 34.5182C81.3442 34.1222 81.7544 33.7261 82.1505 33.3584C82.2637 33.2452 82.4475 33.2593 82.5466 33.3584C82.6597 33.4715 82.6456 33.6554 82.5466 33.7544C82.1505 34.1363 81.7403 34.5324 81.3018 34.9285C81.2594 34.985 81.1886 34.9992 81.1179 34.9992C81.0472 34.9992 80.9623 34.9709 80.9057 34.9143ZM83.3528 32.5521C83.2397 32.4389 83.2397 32.2692 83.3528 32.156C83.763 31.7458 84.1591 31.3215 84.5127 30.9254C84.6117 30.8123 84.7956 30.7981 84.9088 30.9113C85.0219 31.0103 85.0361 31.1942 84.9229 31.3073C84.5551 31.7034 84.1591 32.1278 83.7489 32.5521C83.7064 32.6087 83.6357 32.637 83.5508 32.637C83.4801 32.637 83.4094 32.6087 83.3528 32.5521ZM85.6726 30.0626C85.5594 29.9636 85.5311 29.7797 85.6443 29.6665C86.0262 29.2139 86.3798 28.7754 86.691 28.3511C86.79 28.2237 86.9598 28.1955 87.0871 28.2945C87.2144 28.3935 87.2427 28.5632 87.1437 28.6905C86.8183 29.129 86.4506 29.5817 86.0687 30.0343C86.0121 30.105 85.9272 30.1333 85.8565 30.1333C85.7858 30.1333 85.7292 30.105 85.6726 30.0626ZM87.7378 27.375C87.6105 27.2902 87.568 27.1204 87.6529 26.979C87.9641 26.4839 88.247 26.003 88.4874 25.5362C88.5582 25.3948 88.7279 25.3382 88.8694 25.4089C89.0108 25.4796 89.0674 25.6494 88.9967 25.7908C88.742 26.2717 88.4592 26.781 88.1338 27.276C88.0772 27.375 87.9782 27.4175 87.8934 27.4175C87.8368 27.4175 87.7943 27.4033 87.7378 27.375ZM89.322 24.3905C89.1805 24.3339 89.0957 24.1783 89.1523 24.0227C89.3503 23.4852 89.4776 22.9477 89.5625 22.4385C89.5907 22.2829 89.7322 22.1838 89.8878 22.198C90.0434 22.2263 90.1424 22.3677 90.1283 22.5233C90.0434 23.075 89.9019 23.6408 89.6898 24.2066C89.6473 24.3339 89.5342 24.4046 89.421 24.4046C89.3927 24.4046 89.3644 24.4046 89.322 24.3905ZM58.5284 21.6888C58.5284 21.5332 58.6557 21.4059 58.8113 21.4059C59.3347 21.3917 59.8863 21.3493 60.4663 21.2644C60.6219 21.2361 60.7633 21.3493 60.7916 21.5049C60.8199 21.6605 60.7067 21.8019 60.5511 21.8302C59.9288 21.9151 59.3488 21.9575 58.8113 21.9717C58.6557 21.9717 58.5284 21.8444 58.5284 21.6888ZM57.0715 21.8585C56.4774 21.7595 55.8975 21.6039 55.3741 21.3917C55.2326 21.3351 55.1619 21.1654 55.2185 21.024C55.2751 20.8825 55.4448 20.8118 55.5863 20.8684C56.0672 21.0664 56.6047 21.2078 57.1564 21.3069C57.312 21.3351 57.411 21.4766 57.3968 21.6322C57.3685 21.7595 57.2554 21.8585 57.1139 21.8585C57.0998 21.8585 57.0856 21.8585 57.0715 21.8585ZM61.8949 21.2786C61.8525 21.123 61.9515 20.9674 62.1071 20.9391C62.6163 20.8118 63.168 20.6703 63.7196 20.4865C63.8752 20.444 64.0308 20.5289 64.0732 20.6703C64.1157 20.8259 64.0308 20.9815 63.8894 21.024C63.3094 21.2078 62.7578 21.3493 62.2344 21.4766C62.2061 21.4907 62.1778 21.4907 62.1637 21.4907C62.0364 21.4907 61.9232 21.4059 61.8949 21.2786ZM89.619 20.8259C89.5766 20.2884 89.4493 19.7509 89.2654 19.2417C89.2088 19.1002 89.2937 18.9305 89.4352 18.8739C89.5766 18.8173 89.7463 18.9022 89.8029 19.0437C90.001 19.5953 90.1283 20.1753 90.1848 20.7694C90.199 20.9249 90.0858 21.0664 89.9302 21.0805C89.9161 21.0805 89.9161 21.0805 89.9019 21.0805C89.7605 21.0805 89.6332 20.9674 89.619 20.8259ZM53.8464 20.5147C53.4928 20.246 53.1675 19.9489 52.8563 19.6095C52.7573 19.5104 52.6724 19.4114 52.5875 19.2983C52.4885 19.1851 52.5027 19.0012 52.6158 18.9022C52.729 18.8032 52.9129 18.8173 53.0119 18.9305C53.0968 19.0295 53.1816 19.1285 53.2665 19.2276C53.5494 19.5387 53.8606 19.8216 54.1859 20.0762C54.3132 20.1753 54.3274 20.345 54.2425 20.4723C54.1859 20.5289 54.101 20.5713 54.0162 20.5713C53.9596 20.5713 53.903 20.5572 53.8464 20.5147ZM65.1341 20.3309C65.0775 20.1894 65.1624 20.0197 65.3039 19.9631C65.7989 19.7792 66.3223 19.5953 66.8881 19.369C67.0295 19.3124 67.1993 19.3831 67.2559 19.5246C67.3124 19.666 67.2417 19.8358 67.1003 19.8924C66.5345 20.1187 66.0111 20.3167 65.5019 20.4865C65.4736 20.5006 65.4453 20.5147 65.4029 20.5147C65.2897 20.5147 65.1766 20.444 65.1341 20.3309ZM68.3026 19.1144C68.246 18.9729 68.3167 18.8032 68.4582 18.7466C68.9815 18.5344 69.5049 18.3081 70.0283 18.096C70.1697 18.0394 70.3395 18.1101 70.396 18.2516C70.4526 18.393 70.3819 18.5627 70.2404 18.6193C69.7171 18.8456 69.1937 19.0578 68.6704 19.27C68.6421 19.27 68.6138 19.2841 68.5713 19.2841C68.4582 19.2841 68.3592 19.2134 68.3026 19.1144ZM51.5267 17.9262C51.2013 17.4311 50.9043 16.9361 50.6497 16.4269C50.579 16.2854 50.6355 16.1157 50.777 16.0449C50.9184 15.9742 51.0882 16.0308 51.1589 16.1722C51.3994 16.6532 51.6823 17.1341 51.9934 17.6009C52.0783 17.7282 52.05 17.9121 51.9227 17.9969C51.8661 18.0394 51.8237 18.0535 51.7671 18.0535C51.6823 18.0535 51.5832 18.0111 51.5267 17.9262ZM71.4569 17.7989C71.4003 17.6575 71.4711 17.4877 71.6125 17.4311C72.1359 17.2048 72.6592 16.9926 73.1826 16.7805C73.324 16.7239 73.4938 16.7946 73.5504 16.9361C73.6069 17.0775 73.5362 17.2473 73.3948 17.3038C72.8714 17.516 72.348 17.7282 71.8247 17.9545C71.7822 17.9545 71.7398 17.9687 71.7115 17.9687C71.5984 17.9687 71.4993 17.8979 71.4569 17.7989ZM88.5299 17.7989C88.2187 17.318 87.8651 16.8936 87.4973 16.54C87.3841 16.4269 87.3841 16.2571 87.4973 16.144C87.6105 16.0308 87.7802 16.0308 87.8934 16.144C88.2894 16.54 88.6713 16.9926 89.0108 17.5019C89.0957 17.6292 89.0532 17.8131 88.9259 17.8979C88.8694 17.9121 88.8269 17.9262 88.7703 17.9262C88.6713 17.9262 88.5865 17.8838 88.5299 17.7989ZM74.5829 16.5117C74.5264 16.3703 74.5971 16.2005 74.7385 16.144C75.3185 15.9176 75.8418 15.7337 76.3369 15.5499C76.4784 15.4933 76.6481 15.5782 76.6905 15.7196C76.7471 15.8611 76.6623 16.0308 76.5208 16.0732C76.0257 16.243 75.5024 16.441 74.9366 16.6532C74.9224 16.6815 74.8941 16.6956 74.8517 16.6956C74.7385 16.6956 74.6254 16.6249 74.5829 16.5117ZM86.196 15.5782C85.7292 15.3235 85.22 15.1255 84.6824 14.9982C84.5269 14.9558 84.442 14.8143 84.4703 14.6587C84.5127 14.5031 84.6542 14.4183 84.8098 14.4466C85.4038 14.588 85.9555 14.8002 86.4647 15.0831C86.6062 15.1538 86.6486 15.3235 86.5779 15.465C86.5354 15.5499 86.4364 15.6064 86.3374 15.6064C86.295 15.6064 86.2384 15.5923 86.196 15.5782ZM77.7939 15.3801C77.7514 15.2245 77.8363 15.0689 77.9919 15.0265C78.5718 14.8568 79.1376 14.7153 79.661 14.588C79.8166 14.5597 79.958 14.6446 80.0005 14.8002C80.0288 14.9558 79.9439 15.0972 79.7883 15.1397C79.2791 15.2528 78.7274 15.3943 78.1616 15.564C78.1192 15.5782 78.0909 15.5782 78.0626 15.5782C77.9353 15.5782 77.8221 15.4933 77.7939 15.3801ZM49.999 14.8143C49.8293 14.2627 49.702 13.6827 49.6171 13.1169C49.5888 12.9613 49.702 12.8199 49.8576 12.7916C50.0132 12.7633 50.1546 12.8765 50.1829 13.0321C50.2536 13.5696 50.3809 14.1071 50.5507 14.6446C50.5931 14.8002 50.5082 14.9558 50.3668 14.9982C50.3243 15.0124 50.2961 15.0124 50.2678 15.0124C50.1405 15.0124 50.0414 14.9416 49.999 14.8143ZM81.1038 14.6163C81.0896 14.4607 81.2028 14.3193 81.3584 14.3051C81.9666 14.2344 82.5466 14.2061 83.0982 14.2202C83.2538 14.2202 83.3811 14.3617 83.367 14.5173C83.367 14.6729 83.2255 14.8002 83.0699 14.786C82.5466 14.7719 81.9949 14.8002 81.415 14.8709C81.4008 14.8709 81.3867 14.8709 81.3867 14.8709C81.2452 14.8709 81.1179 14.7719 81.1038 14.6163ZM49.8151 11.6741C49.6454 11.6741 49.5322 11.5327 49.5322 11.3771C49.5464 10.8113 49.6171 10.2314 49.7161 9.65142C49.7444 9.49582 49.8859 9.39681 50.0414 9.4251C50.197 9.45339 50.2961 9.59484 50.2678 9.75043C50.1687 10.3021 50.098 10.8537 50.0839 11.3912C50.0839 11.5468 49.9566 11.6741 49.8151 11.6741C49.801 11.6741 49.801 11.6741 49.8151 11.6741ZM50.3385 8.32179C50.197 8.27936 50.1122 8.10962 50.1546 7.96817C50.3385 7.43066 50.5507 6.89315 50.8053 6.35564C50.876 6.21419 51.0457 6.15761 51.1872 6.21419C51.3286 6.28492 51.3852 6.45466 51.3286 6.5961C51.0882 7.10532 50.876 7.62869 50.7063 8.13791C50.6497 8.26521 50.5365 8.33593 50.4234 8.33593C50.3951 8.33593 50.3668 8.33594 50.3385 8.32179ZM51.7105 5.22404C51.5832 5.13918 51.5267 4.96944 51.6115 4.84213C51.9086 4.3612 52.2198 3.88027 52.5734 3.41349C52.6724 3.28619 52.8421 3.2579 52.9695 3.35691C53.0968 3.45593 53.125 3.62567 53.026 3.75297C52.6866 4.20561 52.3754 4.67239 52.0925 5.13918C52.05 5.22405 51.951 5.26648 51.852 5.26648C51.7954 5.26648 51.753 5.25233 51.7105 5.22404ZM53.6767 2.46578C53.5635 2.36676 53.5494 2.18288 53.6484 2.06972C54.3415 1.2776 54.8366 0.839108 54.8507 0.824963C54.9639 0.725948 55.1478 0.725949 55.2468 0.853254C55.3458 0.966413 55.3458 1.1503 55.2185 1.24931C55.2185 1.24931 54.7234 1.68781 54.0586 2.45163C54.0162 2.49407 53.9455 2.5365 53.8606 2.5365C53.7899 2.5365 53.7333 2.50821 53.6767 2.46578Z" fill="#5DB571"/>
<path d="M154.162 106.686C155.577 113.192 156.001 114.748 156.001 114.748H138.461L128.984 89.429L149.07 90.702C149.07 90.702 152.748 100.179 154.162 106.686Z" fill="#F9D2DD"/>
<path d="M128.984 89.429L131.248 95.3698L151.475 97.3501C150.4 94.2241 149.07 90.702 149.07 90.702L128.984 89.429Z" fill="#F9ACC0"/>
<path d="M77.6384 90.4191L73.8193 114.748H139.593L134.784 94.5212L150.626 93.1067C150.626 93.1067 143.837 70.4747 130.258 63.1194C116.678 55.764 97.1584 56.1883 84.9938 62.1292C77.4969 65.7928 65.3323 78.9617 63.0691 90.4191H77.6384Z" fill="#3D5CFF"/>
<path d="M77.6384 90.4191L73.8193 114.748H139.593L134.784 94.5212L150.626 93.1067C150.626 93.1067 146.949 72.7379 130.258 63.1193C116.877 55.4103 97.3423 56.5561 84.9938 62.1292C76.2239 66.0898 66.6053 75.9913 63.0691 90.4191H77.6384Z" fill="#3D5CFF"/>
<path fill-rule="evenodd" clip-rule="evenodd" d="M58.3589 48.4935C56.7606 49.1158 55.9543 50.9123 56.5767 52.5106L59.4764 60.0499C60.0988 61.6483 61.8952 62.4545 63.4936 61.8322L69.7173 59.4275C69.7598 59.4134 69.8164 59.4134 69.8588 59.4275L77.4122 62.5111C77.6527 62.6101 77.8931 62.5677 78.0912 62.4545C78.1053 62.4545 78.1053 62.4404 78.1194 62.4404H78.1336C78.6145 62.2565 78.855 61.719 78.6711 61.2381L76.9737 56.8531C76.9313 56.7541 76.9878 56.641 77.0869 56.5985L80.7928 55.1699C82.3912 54.5475 83.1975 52.7511 82.5751 51.1527L79.6754 43.6135C79.0672 42.0151 77.2566 41.2088 75.6582 41.8312L58.3589 48.4935ZM70.3821 55.5377C70.3539 55.5518 70.3397 55.5518 70.3114 55.5518L67.1288 55.665C66.9025 55.6791 66.6903 55.5377 66.6196 55.3255L64.6534 50.2191C64.5403 49.9504 64.6817 49.6392 64.9505 49.5402C65.0071 49.5119 65.0636 49.5119 65.1202 49.4978L67.9351 49.3846C68.1472 49.3846 68.3453 49.5119 68.4301 49.7099L70.5236 55.2123C70.566 55.3396 70.5095 55.4811 70.3821 55.5377ZM71.5279 55.0709C71.4289 55.1557 71.2733 55.1416 71.1884 55.0426C71.1743 55.0284 71.1601 55.0001 71.146 54.9719L69.0242 49.4695C68.9535 49.2714 69.0101 49.0451 69.1657 48.9037L71.3157 47.0931C71.542 46.9092 71.8674 46.9375 72.0513 47.1638C72.0795 47.2063 72.122 47.2487 72.1361 47.3053L74.1023 52.4258C74.2154 52.6379 74.1589 52.8784 73.975 53.0199L71.5279 55.0709Z" fill="white"/>
<path d="M153.342 38.6769C153.795 38.6769 154.233 38.4081 154.403 37.9696C154.587 37.5311 154.474 37.0502 154.177 36.7249L153.498 38.3515C153.455 38.4647 153.399 38.5637 153.342 38.6769Z" fill="white"/>
<path d="M151.277 35.947L151.235 34.9851C151.206 34.6456 150.994 34.5466 150.754 34.7871L150.046 35.4094L149.141 35.169C148.83 35.0983 148.674 35.2821 148.802 35.5792L149.155 36.4845L148.632 37.3332C148.462 37.6161 148.575 37.8141 148.901 37.7717L149.848 37.6585L150.428 38.4365C150.626 38.6911 150.838 38.6345 150.923 38.3092L151.15 37.3473L152.041 36.9654C152.338 36.8239 152.366 36.5835 152.083 36.4137L151.277 35.947Z" fill="white"/>
<path d="M146.737 35.9752C146.765 35.8479 146.807 35.7206 146.864 35.5932L147.557 33.9241C147.062 33.8676 146.581 34.1363 146.383 34.6172C146.185 35.1123 146.341 35.664 146.737 35.9752Z" fill="white"/>
<path fill-rule="evenodd" clip-rule="evenodd" d="M142.281 26.9789C140.654 26.3565 138.829 27.1628 138.193 28.7895L134.897 37.3755C134.275 39.0021 135.081 40.8268 136.708 41.4634L141.121 43.1608L139.126 48.3237C138.971 48.7339 139.169 49.1865 139.579 49.3421L139.805 49.427C140.018 49.5684 140.301 49.6109 140.555 49.4977L148.83 46.117L155.86 48.8329C157.487 49.4553 159.325 48.649 159.948 47.0223L163.258 38.4363C163.88 36.8238 163.074 34.9991 161.447 34.3626L142.281 26.9789ZM152.55 39.7801C151.645 40.6571 150.315 41.0107 149.056 40.643L148.406 42.213L149.58 42.7081C149.82 42.8071 149.933 43.0759 149.834 43.3163C149.735 43.5568 149.466 43.67 149.226 43.571L146.015 42.2413C145.775 42.1423 145.661 41.8736 145.76 41.6331C145.859 41.3926 146.128 41.2795 146.369 41.3785L147.543 41.8736L148.208 40.2893C147.133 39.6387 146.496 38.4929 146.468 37.2764C145.435 36.8238 144.94 35.6215 145.379 34.5606C145.775 33.6129 146.807 33.1037 147.783 33.33L148.066 32.6369C148.208 32.2974 148.604 32.1418 148.943 32.2833L154.346 34.5323C154.686 34.6738 154.842 35.0698 154.7 35.4093L154.403 36.1307C155.167 36.6541 155.492 37.6867 155.11 38.5919C154.686 39.5962 153.568 40.1054 152.55 39.7801Z" fill="white"/>
<path d="M77.2846 92.654L77.8787 92.8096L81.8958 77.9716L73.5786 90.4191H77.6382L77.2846 92.654Z" fill="#224BF4"/>
<path d="M85.8423 25.0694C86.1252 19.6943 90.3687 17.4311 92.0661 17.2897C93.7635 17.1482 94.8951 17.8555 94.8951 17.8555C94.8951 17.8555 95.6024 8.80268 101.402 7.52963C107.201 6.25659 110.03 8.51978 111.586 10.783C113.142 13.0462 113.001 14.3192 113.001 14.3192C113.001 14.3192 115.264 12.4804 119.224 14.0363C123.185 15.5923 122.053 19.9772 122.053 19.9772C122.053 19.9772 125.165 19.1285 126.721 24.2207C128.277 29.3129 123.044 37.7998 121.063 39.0729C119.083 40.3459 90.3687 35.2538 90.3687 35.2538C90.3687 35.2538 85.5594 30.4445 85.8423 25.0694Z" fill="#1F1F39"/>
<path d="M89.0957 33.132C86.2667 34.4051 85.9838 38.2242 88.1056 40.6289C90.2273 43.0335 95.6024 42.4677 95.6024 42.4677L94.1596 33.7544C94.1596 33.7544 91.9247 31.859 89.0957 33.132Z" fill="#F9ACC0"/>
<path d="M122.916 33.132C125.745 34.4051 126.028 38.2242 123.906 40.6289C121.785 43.0335 116.41 42.4677 116.41 42.4677L117.852 33.7544C117.852 33.7544 120.087 31.859 122.916 33.132Z" fill="#F9ACC0"/>
<path d="M94.6119 40.6995C94.6119 40.6853 94.5836 39.7376 93.5227 38.1251C92.4477 36.5126 90.4108 35.9609 90.3967 35.9468C90.2835 35.9185 90.2128 35.8053 90.2411 35.6922C90.2694 35.579 90.3825 35.5083 90.4957 35.5366C90.5806 35.5649 92.7023 36.1448 93.8764 37.8846C95.0362 39.6103 95.0504 40.6429 95.0504 40.6853C95.0362 40.8126 94.9372 40.9117 94.8241 40.9117C94.7109 40.9117 94.6119 40.8126 94.6119 40.6995Z" fill="#1F1F39"/>
<path d="M118.065 40.4591C117.966 40.4025 117.923 40.2752 117.966 40.1762C117.994 40.1054 118.843 38.4363 120.13 37.1491C121.431 35.8478 122.322 35.6781 122.365 35.6781C122.478 35.6639 122.591 35.7346 122.605 35.8478C122.619 35.961 122.549 36.0741 122.435 36.0883C122.435 36.0883 121.629 36.2439 120.427 37.4462C119.196 38.6768 118.348 40.3459 118.348 40.36C118.319 40.4449 118.234 40.4873 118.164 40.4873C118.135 40.4873 118.093 40.4732 118.065 40.4591Z" fill="#1F1F39"/>
<path d="M95.0365 42.4677C96.451 47.4184 100.977 50.2474 100.977 50.2474C100.977 50.2474 101.119 53.7836 100.553 56.3297C99.9873 58.8758 99.4215 59.866 99.4215 59.866C99.4215 59.866 100.412 61.9877 105.645 61.9877C111.303 61.9877 112.859 59.866 112.859 59.866C112.859 59.866 112.152 57.7442 111.869 55.7639C111.586 53.7836 111.728 50.3889 111.728 50.3889C111.728 50.3889 116.113 49.8231 117.81 43.5993C119.507 37.3755 118.659 31.859 118.659 31.859C118.659 31.859 110.313 33.132 107.484 29.7372C104.655 26.3424 101.826 22.9476 97.7241 24.645C93.622 26.3424 93.9049 30.5859 93.9049 30.5859C93.9049 30.5859 93.622 37.5169 95.0365 42.4677Z" fill="#F9D2DD"/>
<path fill-rule="evenodd" clip-rule="evenodd" d="M100.509 30.5187C99.7781 30.9406 98.9768 30.9206 98.719 30.4741C98.4612 30.0276 98.8445 29.3236 99.5752 28.9017C100.306 28.4799 101.107 28.4999 101.365 28.9464C101.623 29.3929 101.239 30.0969 100.509 30.5187Z" fill="#1F1F39"/>
<path fill-rule="evenodd" clip-rule="evenodd" d="M101.967 37.9414C101.264 37.9414 100.694 37.2764 100.694 36.4562C100.694 35.6359 101.264 34.9709 101.967 34.9709C102.67 34.9709 103.24 35.6359 103.24 36.4562C103.24 37.2764 102.67 37.9414 101.967 37.9414Z" fill="#1F1F39"/>
<path fill-rule="evenodd" clip-rule="evenodd" d="M111.303 37.9414C110.6 37.9414 110.03 37.2764 110.03 36.4562C110.03 35.6359 110.6 34.9709 111.303 34.9709C112.006 34.9709 112.576 35.6359 112.576 36.4562C112.576 37.2764 112.006 37.9414 111.303 37.9414Z" fill="#1F1F39"/>
<path d="M106.777 41.3361C108.05 41.1947 108.757 40.2045 108.757 40.2045C108.757 40.2045 109.181 41.9019 107.484 42.4677C105.786 43.0335 104.372 41.3361 104.796 40.2045C104.796 40.2045 105.503 41.4776 106.777 41.3361Z" fill="#F95368"/>
<path d="M105.645 38.5071C106.069 39.3558 107.201 38.9314 107.201 38.9314C107.201 38.9314 106.069 38.6485 106.069 37.7998C106.069 36.9511 106.635 35.3952 106.635 35.3952C106.635 35.3952 105.221 37.6584 105.645 38.5071Z" fill="#1F1F39"/>
<path fill-rule="evenodd" clip-rule="evenodd" d="M94.1877 37.3049C94.1877 34.3061 96.6348 31.8591 99.6336 31.8591C102.632 31.8591 105.079 34.3061 105.079 37.3049C105.079 40.3036 102.632 42.7507 99.6336 42.7507C96.6348 42.7507 94.1877 40.3036 94.1877 37.3049ZM94.6121 37.3049C94.6121 40.0773 96.8611 42.3263 99.6336 42.3263C102.406 42.3263 104.655 40.0773 104.655 37.3049C104.655 34.5325 102.406 32.2834 99.6336 32.2834C96.8611 32.2834 94.6121 34.5325 94.6121 37.3049Z" fill="#1F1F39"/>
<path fill-rule="evenodd" clip-rule="evenodd" d="M107.767 37.3049C107.767 34.3061 110.214 31.8591 113.213 31.8591C116.211 31.8591 118.658 34.3061 118.658 37.3049C118.658 40.3036 116.211 42.7507 113.213 42.7507C110.214 42.7507 107.767 40.3036 107.767 37.3049ZM108.191 37.3049C108.191 40.0773 110.44 42.3263 113.213 42.3263C115.985 42.3263 118.234 40.0773 118.234 37.3049C118.234 34.5325 115.985 32.2834 113.213 32.2834C110.44 32.2834 108.191 34.5325 108.191 37.3049Z" fill="#1F1F39"/>
<path d="M104.824 35.6923C104.853 35.6781 105.631 35.4943 106.607 35.4943C107.597 35.4943 108.05 35.6923 108.078 35.7064L107.908 36.0883C107.908 36.0883 107.498 35.9186 106.621 35.9186C105.687 35.9045 104.923 36.0883 104.923 36.1025L104.824 35.6923Z" fill="#1F1F39"/>
<path d="M100.553 56.3297C100.454 56.7541 100.369 57.136 100.27 57.4896C100.355 57.4613 100.44 57.4472 100.525 57.4189C106.635 55.8063 109.931 53.7129 111.685 52.1004C111.685 51.1102 111.714 50.3888 111.714 50.3888C111.714 50.3888 110.016 51.379 105.914 51.2375C104.019 51.1668 101.968 50.8132 100.978 50.2474C100.992 51.1244 101.02 54.208 100.553 56.3297Z" fill="#F9ACC0"/>
<path fill-rule="evenodd" clip-rule="evenodd" d="M113.637 41.619C112.114 41.619 110.879 40.859 110.879 39.9216C110.879 38.9841 112.114 38.2242 113.637 38.2242C115.16 38.2242 116.395 38.9841 116.395 39.9216C116.395 40.859 115.16 41.619 113.637 41.619Z" fill="#F9ACC0"/>
<path fill-rule="evenodd" clip-rule="evenodd" d="M99.0678 41.619C97.5445 41.619 96.3096 40.8591 96.3096 39.9216C96.3096 38.9842 97.5445 38.2242 99.0678 38.2242C100.591 38.2242 101.826 38.9842 101.826 39.9216C101.826 40.8591 100.591 41.619 99.0678 41.619Z" fill="#F9ACC0"/>
<path d="M134.784 94.5211L139.508 94.1251L128.984 76.1327L134.784 94.5211Z" fill="#224BF4"/>
<path d="M100.935 50.6435C100.836 50.5869 100.794 50.4596 100.864 50.3464C100.921 50.2474 101.048 50.205 101.162 50.2757C101.176 50.2899 102.845 51.2376 105.292 51.2376C105.405 51.2376 105.504 51.3366 105.504 51.4498C105.504 51.5629 105.405 51.6619 105.292 51.6619C102.717 51.6619 101.006 50.6859 100.935 50.6435Z" fill="#1F1F39"/>
<path d="M96.3095 93.1349C97.1017 92.456 96.9885 90.9849 96.649 90.0796C96.451 89.5704 95.9418 88.8349 95.5316 88.2974C95.0931 87.7316 95.0082 86.9677 95.3901 86.4444C95.8993 85.7513 97.3987 85.6381 98.5727 85.9635C99.3507 86.1756 100.157 86.5434 100.709 87.1658C102.067 88.75 102.406 90.1362 102.406 90.1362C102.406 90.1362 104.811 88.7217 107.074 90.1362C108.191 90.8293 108.064 92.258 108.064 92.258C108.064 92.258 109.309 92.2297 110.327 93.2481C111.346 94.2665 110.61 95.7942 110.61 95.7942C110.61 95.7942 112.067 97.1804 111.091 98.9344C110.469 100.038 108.149 102.739 103.594 105.102C96.7763 108.638 82.5323 117.125 72.7016 118.143C66.3505 118.794 57.5665 116.587 60.1126 104.847C62.6587 93.1067 63.6488 90.4191 63.6488 90.4191H78.501L76.2237 99.3304C76.2237 99.3304 95.5174 93.8139 96.3095 93.1349Z" fill="#F9D2DD"/>
<path d="M67.7508 102.16C67.7084 102.046 67.7791 101.933 67.8781 101.891L76.1529 99.1325C76.2661 99.0901 76.3793 99.1608 76.4217 99.2598C76.4641 99.373 76.3934 99.4861 76.2944 99.5286L68.0196 102.287C67.9913 102.301 67.9772 102.301 67.9489 102.301C67.864 102.301 67.7791 102.244 67.7508 102.16Z" fill="#1F1F39"/>
<path d="M103.835 94.8464C103.778 94.7474 103.806 94.6201 103.905 94.5494L107.937 92.074C108.036 92.0174 108.163 92.0457 108.234 92.1447C108.29 92.2437 108.262 92.371 108.163 92.4418L104.132 94.9171C104.089 94.9313 104.061 94.9454 104.018 94.9454C103.948 94.9454 103.877 94.903 103.835 94.8464Z" fill="#1F1F39"/>
<path d="M106.24 98.5241C106.183 98.4251 106.211 98.2978 106.31 98.2271L110.342 95.7517C110.441 95.6952 110.568 95.7234 110.639 95.8225C110.695 95.9215 110.667 96.0488 110.568 96.1195L106.537 98.5949C106.494 98.609 106.466 98.6232 106.423 98.6232C106.353 98.6232 106.282 98.5807 106.24 98.5241Z" fill="#1F1F39"/>
<path d="M102.406 90.1221C102.42 92.0599 101.119 93.6724 101.119 93.6724C103.41 93.5027 104.825 91.3102 105.603 89.5704C103.99 89.2875 102.59 90.023 102.406 90.1221Z" fill="#F9ACC0"/>
<path d="M78.4868 90.4193H63.6346C63.6346 90.4193 63.2385 91.4801 62.3191 95.2002L78.0907 91.9893L78.4868 90.4193Z" fill="#F9ACC0"/>
<path d="M106.367 86.4301C106.225 86.3594 106.169 86.1897 106.253 86.0482L107.809 83.0778C107.88 82.9363 108.05 82.8798 108.191 82.9646C108.333 83.0353 108.389 83.2051 108.305 83.3465L106.749 86.317C106.692 86.4018 106.593 86.4584 106.494 86.4584C106.452 86.4584 106.409 86.4443 106.367 86.4301Z" fill="#EAEAFF"/>
<path d="M90.8074 71.8185L89.5343 67.1507C89.4919 66.9951 89.5768 66.8395 89.7324 66.7971C89.8879 66.7546 90.0435 66.8395 90.086 66.9951L91.359 71.6629C91.4015 71.8185 91.3166 71.9741 91.161 72.0166C91.1186 72.0307 91.1044 72.0307 91.0761 72.0307C90.9488 72.0307 90.8357 71.9458 90.8074 71.8185Z" fill="#EAEAFF"/>
<path d="M96.9178 79.5135C96.7763 79.4569 96.7056 79.2871 96.7622 79.1457L98.4596 74.7608C98.5162 74.6193 98.6859 74.5486 98.8274 74.6052C98.9688 74.6617 99.0395 74.8315 98.983 74.9729L97.2856 79.3579C97.2431 79.4569 97.13 79.5276 97.0168 79.5276C96.9885 79.5276 96.9461 79.5276 96.9178 79.5135Z" fill="#EAEAFF"/>
<path d="M86.1536 89.6978L84.1733 85.8787C84.1025 85.7372 84.1591 85.5675 84.3006 85.4968C84.442 85.426 84.6118 85.4826 84.6825 85.6241L86.6628 89.4432C86.7335 89.5846 86.6769 89.7544 86.5355 89.8251C86.493 89.8393 86.4506 89.8534 86.4082 89.8534C86.3092 89.8534 86.2101 89.7968 86.1536 89.6978Z" fill="#EAEAFF"/>
<path d="M117.612 97.1239C117.499 97.0108 117.499 96.841 117.612 96.7279L119.733 94.6061C119.847 94.493 120.016 94.493 120.13 94.6061C120.243 94.7193 120.243 94.889 120.13 95.0022L118.008 97.1239C117.951 97.1805 117.88 97.2088 117.81 97.2088C117.739 97.2088 117.668 97.1805 117.612 97.1239Z" fill="#EAEAFF"/>
<path d="M118.715 108.977L116.452 106.148C116.353 106.021 116.367 105.851 116.495 105.752C116.622 105.653 116.792 105.667 116.891 105.795L119.154 108.624C119.253 108.751 119.239 108.921 119.111 109.02C119.069 109.076 118.998 109.09 118.942 109.09C118.857 109.09 118.772 109.048 118.715 108.977Z" fill="#EAEAFF"/>
<path d="M101.798 112.57C101.671 112.485 101.642 112.301 101.727 112.174L103.849 109.204C103.934 109.076 104.118 109.048 104.245 109.133C104.372 109.218 104.401 109.402 104.316 109.529L102.194 112.499C102.137 112.584 102.053 112.627 101.968 112.627C101.911 112.627 101.855 112.613 101.798 112.57Z" fill="#EAEAFF"/>
<path d="M129.451 106.247C129.31 106.191 129.225 106.035 129.282 105.88L130.696 101.919C130.753 101.778 130.908 101.693 131.064 101.749C131.205 101.806 131.29 101.961 131.234 102.117L129.819 106.078C129.777 106.191 129.664 106.261 129.55 106.261C129.522 106.261 129.48 106.261 129.451 106.247Z" fill="#EAEAFF"/>
<path d="M119.225 80.2348V75.2841C119.225 75.1285 119.352 75.0012 119.508 75.0012C119.663 75.0012 119.79 75.1285 119.79 75.2841V80.2348C119.79 80.3904 119.663 80.5177 119.508 80.5177C119.352 80.5177 119.225 80.3904 119.225 80.2348Z" fill="#EAEAFF"/>
<path d="M109.62 68.8482L108.913 66.1606C108.87 66.005 108.969 65.8494 109.111 65.8211C109.266 65.7787 109.422 65.8777 109.45 66.0192L110.158 68.7067C110.2 68.8623 110.101 69.0179 109.959 69.0462C109.931 69.0603 109.917 69.0603 109.889 69.0603C109.761 69.0603 109.648 68.9755 109.62 68.8482Z" fill="#EAEAFF"/>
<path d="M127.895 69.0462C127.754 68.9896 127.669 68.834 127.726 68.6784L128.716 65.9909C128.772 65.8494 128.928 65.7645 129.084 65.8211C129.225 65.8777 129.31 66.0333 129.253 66.1889L128.263 68.8764C128.221 68.9896 128.108 69.0603 127.994 69.0603C127.966 69.0603 127.924 69.0603 127.895 69.0462Z" fill="#EAEAFF"/>
<path d="M70.2828 79.2588L70.1414 76.147C70.1414 75.9914 70.2545 75.8641 70.4101 75.8499C70.5657 75.8499 70.693 75.9631 70.7072 76.1187L70.8486 79.2306C70.8486 79.3862 70.7354 79.5135 70.5657 79.5276C70.5799 79.5276 70.5657 79.5276 70.5657 79.5276C70.4101 79.5276 70.297 79.4144 70.2828 79.2588Z" fill="#EAEAFF"/>
<path d="M144.303 78.9758L140.244 78.2544C140.088 78.2261 139.989 78.0847 140.017 77.9291C140.046 77.7735 140.187 77.6745 140.343 77.7028L144.402 78.4242C144.558 78.4524 144.657 78.5939 144.629 78.7495C144.614 78.8768 144.487 78.9758 144.36 78.9758C144.346 78.9758 144.331 78.9758 144.303 78.9758Z" fill="#EAEAFF"/>
<path d="M133.694 92.0174C133.68 91.8618 133.793 91.7204 133.949 91.7062L149.735 90.3059C149.89 90.2917 150.032 90.4049 150.046 90.5605C150.06 90.7161 149.947 90.8575 149.791 90.8717L134.005 92.2579C134.005 92.2579 133.991 92.272 133.977 92.272C133.836 92.272 133.708 92.1589 133.694 92.0174Z" fill="#EAEAFF"/>
<path d="M63.3235 88.1843C63.3235 88.0287 63.4366 87.9014 63.5922 87.8873L79.0527 87.3781C79.2083 87.3781 79.3356 87.4912 79.3497 87.6468C79.3497 87.8024 79.2366 87.9297 79.081 87.9439L63.6064 88.4531C63.4508 88.4531 63.3235 88.3258 63.3235 88.1843Z" fill="#EAEAFF"/>
<path d="M78.4586 90.3343C78.3454 90.306 78.2747 90.1928 78.3171 90.0796L82.1363 76.359C82.1646 76.2459 82.2919 76.1752 82.3909 76.2176C82.504 76.2459 82.5748 76.359 82.5323 76.4722L78.7132 90.1928C78.6991 90.2777 78.6142 90.3484 78.5152 90.3484C78.501 90.3484 78.4727 90.3484 78.4586 90.3343Z" fill="#1F1F39"/>
<path d="M134.374 94.507L128.716 76.1186C128.687 76.0054 128.744 75.8922 128.857 75.8498C128.97 75.8215 129.083 75.8781 129.126 75.9912L134.784 94.3797C134.812 94.4929 134.756 94.606 134.642 94.6485C134.614 94.6626 134.586 94.6626 134.572 94.6626C134.487 94.6626 134.402 94.606 134.374 94.507Z" fill="#1F1F39"/>
<g clip-path="url(#clip0_65_181)">
<rect x="0.67749" y="5.46301" width="37.1742" height="44.0994" rx="5" fill="white"/>
<rect x="8.98486" y="36.1725" width="20.5596" height="2.24379" fill="#63926C"/>
<rect x="12.5532" y="40.9676" width="13.4227" height="2.24379" fill="#8FAC94"/>
<g clip-path="url(#clip1_65_181)">
<circle cx="19.2646" cy="21.602" r="9.36397" fill="#C2E3DF"/>
<path fill-rule="evenodd" clip-rule="evenodd" d="M18.1911 22.4719L22.3915 18.3014L23.6026 19.5622L18.1911 24.9026L14.9265 21.5848L16.0798 20.4138L18.1911 22.4719Z" fill="#63926C"/>
</g>
</g>
<defs>
<clipPath id="clip0_65_181">
<rect width="37.1742" height="44.0994" fill="white" transform="translate(0.67749 5.46301)"/>
</clipPath>
<clipPath id="clip1_65_181">
<rect width="18.7279" height="18.7279" fill="white" transform="translate(9.90063 12.238)"/>
</clipPath>
</defs>
</svg>
