<svg width="64" height="65" viewBox="0 0 64 65" fill="none" xmlns="http://www.w3.org/2000/svg">
<g clip-path="url(#clip0_0_2930)">
<circle cx="32" cy="32.0977" r="32" fill="#EAEAFF"/>
<path fill-rule="evenodd" clip-rule="evenodd" d="M32 64.0977C14.3269 64.0977 0 49.7708 0 32.0977C0 14.4245 14.3269 0.0976562 32 0.0976562C49.6731 0.0976562 64 14.4245 64 32.0977C64 49.7708 49.6731 64.0977 32 64.0977Z" fill="#FFEBF0"/>
<path d="M35.9111 25.0038C35.9111 25.0038 36.6094 24.5753 37.7361 24.7181C38.8628 24.8609 39.3706 25.2894 39.3706 25.2894" fill="white"/>
<path d="M30.3579 25.0038C30.3579 25.0038 29.6596 24.5753 28.5329 24.7181C27.4062 24.8609 26.8984 25.2894 26.8984 25.2894" fill="white"/>
<path d="M15.7264 52.1554C9.4423 55.0118 2.55515 63.835 0.0161133 74.1816H11.2514L9.39469 83.576C16.1073 87.0037 23.7085 88.9397 31.7541 88.9397C39.8473 88.9397 47.4644 86.9879 54.1929 83.5284L52.2251 75.3876L63.5873 74.372C63.5715 74.372 60.9531 59.7725 48.972 52.8695C39.3712 47.3471 24.5813 48.1723 15.7264 52.1554Z" fill="#3D5CFF"/>
<path d="M14.3146 63.5337L7.63379 74.1818L11.4265 74.1659L14.3146 63.5337Z" fill="#224BF4"/>
<path d="M52.2256 75.3878L55.6056 75.1022L48.0679 62.2007L52.2256 75.3878Z" fill="#224BF4"/>
<path d="M11.3934 74.3406C11.3141 74.3247 11.2665 74.2295 11.2823 74.1502L14.4561 62.3754C14.472 62.296 14.5672 62.2484 14.6466 62.2643C14.7259 62.2801 14.7735 62.3754 14.7576 62.4547L11.5838 74.2295C11.568 74.293 11.5045 74.3406 11.441 74.3406C11.4252 74.3406 11.4093 74.3406 11.3934 74.3406Z" fill="#1F1F39"/>
<path d="M51.923 75.3875L47.8605 62.2004C47.8288 62.121 47.8764 62.0417 47.9557 62.0099C48.0351 61.9782 48.1144 62.0258 48.1462 62.1052L52.2245 75.2923C52.2562 75.3716 52.2086 75.451 52.1293 75.4827C52.0975 75.4827 52.0817 75.4986 52.0658 75.4986C52.0023 75.4986 51.9389 75.451 51.923 75.3875Z" fill="#1F1F39"/>
<path d="M20.6383 26.257C20.6383 26.257 16.9249 26.257 15.9252 24.6384C14.9254 23.0356 16.3854 21.8613 16.3854 21.8613C16.3854 21.8613 14.37 19.1953 15.4333 16.7515C16.6869 13.8792 19.6227 14.4822 19.6227 14.4822C19.6227 14.4822 17.4804 10.6895 20.0987 7.84896C23.3043 4.35778 28.668 7.84896 28.668 7.84896C28.668 7.84896 29.0171 5.5797 31.3499 5.5797C33.6667 5.5797 33.6667 6.97617 33.6667 6.97617C33.6667 6.97617 35.7456 4.16736 39.3796 5.23058C44.7274 6.80161 43.807 12.7366 43.807 12.7366C43.807 12.7366 45.9493 12.2129 46.6634 14.6568C47.3776 17.1006 45.0607 17.9734 45.0607 17.9734C45.0607 17.9734 47.2189 17.6243 47.7584 19.3699C48.5677 21.9882 46.3302 23.3847 46.3302 23.3847L45.0765 29.4943L21.1461 30.4782L20.6383 26.257Z" fill="#1F1F39"/>
<path d="M16.4962 25.7173C13.9096 26.9075 13.6398 30.4939 15.5917 32.7473C17.5436 35.0007 22.4629 34.477 22.4629 34.477L21.7488 26.4156C21.7488 26.4156 19.0829 24.5272 16.4962 25.7173Z" fill="#C43D28"/>
<path d="M47.5043 25.717C50.091 26.9072 50.3608 30.4936 48.4089 32.747C46.457 35.0004 41.5376 34.4767 41.5376 34.4767L42.8547 26.3042C42.8547 26.3042 44.9018 24.5268 47.5043 25.717Z" fill="#C43D28"/>
<path d="M42.9341 32.8104C42.9341 32.7628 42.95 31.8106 43.9973 30.192C45.0605 28.5575 47.0124 28.0179 47.0918 27.9862C47.2028 27.9545 47.2981 28.0179 47.3298 28.129C47.3615 28.2401 47.2981 28.3353 47.187 28.3671C47.1711 28.3671 45.2986 28.9066 44.3147 30.3983C43.3308 31.9058 43.3149 32.7945 43.3149 32.8104C43.3149 32.9056 43.2356 33.0008 43.1245 33.0008C43.0134 33.0008 42.9341 32.9056 42.9341 32.8104Z" fill="#1F1F39"/>
<path d="M21.5588 32.8105C21.5588 32.8105 21.543 31.906 20.5591 30.3984C19.5752 28.8909 17.7027 28.3672 17.6868 28.3672C17.5757 28.3354 17.5281 28.2244 17.544 28.1291C17.5599 28.0339 17.6868 27.9704 17.782 27.9863C17.8614 28.0022 19.8133 28.5576 20.8765 30.1921C21.9397 31.8107 21.9397 32.7788 21.9397 32.8105C21.9397 32.9057 21.8604 33.0009 21.7493 33.0009C21.6382 33.0009 21.5588 32.9057 21.5588 32.8105Z" fill="#1F1F39"/>
<path d="M26.6051 41.7449L25.9544 50.7585C25.9544 50.7585 26.859 52.7422 31.6514 52.7422C36.8406 52.7422 38.2688 50.7585 38.2688 50.7585L38.0149 41.8878C38.0149 41.8878 41.2522 41.3641 42.8073 35.5243C44.3625 29.7004 43.5849 24.5271 43.5849 24.5271C43.5849 24.5271 35.936 25.7173 33.3494 22.5435C30.7627 19.3697 28.1602 16.18 24.3993 17.7669C20.6383 19.3538 21.1144 29.5893 22.0983 34.4611C23.0504 39.1742 26.6051 41.7449 26.6051 41.7449Z" fill="#DA5742"/>
<path fill-rule="evenodd" clip-rule="evenodd" d="M28.2871 29.5893C27.6386 29.5893 27.1128 28.9641 27.1128 28.1929C27.1128 27.4216 27.6386 26.7964 28.2871 26.7964C28.9357 26.7964 29.4614 27.4216 29.4614 28.1929C29.4614 28.9641 28.9357 29.5893 28.2871 29.5893Z" fill="#1F1F39"/>
<path fill-rule="evenodd" clip-rule="evenodd" d="M36.8413 29.5893C36.1927 29.5893 35.667 28.9641 35.667 28.1929C35.667 27.4216 36.1927 26.7964 36.8413 26.7964C37.4898 26.7964 38.0156 27.4216 38.0156 28.1929C38.0156 28.9641 37.4898 29.5893 36.8413 29.5893Z" fill="#1F1F39"/>
<path d="M31.6674 30.113C32.0641 30.9065 33.0956 30.5097 33.0956 30.5097C33.0956 30.5097 32.0641 30.24 32.0641 29.4465C32.0482 28.6531 31.9847 25.9395 31.9847 25.9395C31.9847 25.9395 31.2706 29.3196 31.6674 30.113Z" fill="#1F1F39"/>
<path d="M26.2397 48.3149C26.3191 48.299 34.8249 44.9983 36.4276 43.4907C36.4276 42.5703 36.4594 41.8879 36.4594 41.8879C36.4594 41.8879 34.9042 42.8083 31.1433 42.6814C29.3977 42.6179 27.5093 42.2847 26.6047 41.7451C26.6206 42.5544 26.3191 47.9975 26.2397 48.3149Z" fill="#C43D28"/>
<path fill-rule="evenodd" clip-rule="evenodd" d="M38.9822 33.0332C37.5886 33.0332 36.459 32.3227 36.459 31.4463C36.459 30.5699 37.5886 29.8594 38.9822 29.8594C40.3757 29.8594 41.5053 30.5699 41.5053 31.4463C41.5053 32.3227 40.3757 33.0332 38.9822 33.0332Z" fill="#C43D28"/>
<path fill-rule="evenodd" clip-rule="evenodd" d="M25.6369 33.0332C24.2434 33.0332 23.1138 32.3227 23.1138 31.4463C23.1138 30.5699 24.2434 29.8594 25.6369 29.8594C27.0304 29.8594 28.1601 30.5699 28.1601 31.4463C28.1601 32.3227 27.0304 33.0332 25.6369 33.0332Z" fill="#C43D28"/>
<path d="M32.5389 33.3977C33.1736 33.239 34.4431 32.2868 34.4431 32.2868C34.4431 32.2868 34.7605 32.1281 34.9192 32.2868C35.0779 32.4455 34.0623 34.2546 33.1736 34.5085C32.0628 34.8259 31.2693 34.3498 30.7933 33.715C30.3172 33.0803 30.952 33.239 30.952 33.239C30.952 33.239 31.9041 33.5564 32.5389 33.3977Z" fill="white"/>
<path d="M26.5092 38.4755C28.8896 39.1103 28.4453 40.2211 29.4767 39.7451C30.5241 39.269 30.8097 38.3169 32.9044 38.6342C34.9833 38.9516 34.539 40.0624 35.8719 39.9038C37.2049 39.7451 39.4425 38.1582 40.474 37.206C41.5213 36.2539 42.9971 34.667 42.9971 34.667C42.9971 34.667 42.045 41.332 36.7447 42.9189C32.7616 44.109 27.1123 43.5536 24.5891 39.9038C22.0659 36.2539 21.9072 34.1909 21.9072 34.1909C21.9072 34.1909 24.1289 37.8408 26.5092 38.4755Z" fill="#1F1F39"/>
<path d="M28.9373 37.6826C28.842 37.6191 28.8262 37.508 28.8896 37.4128L29.5244 36.4607C29.5879 36.3655 29.699 36.3496 29.7942 36.4131C29.8894 36.4766 29.9053 36.5876 29.8418 36.6829L29.207 37.635C29.1753 37.6826 29.1118 37.7143 29.0483 37.7143C29.0166 37.7143 28.969 37.6985 28.9373 37.6826Z" fill="#1F1F39"/>
<path d="M25.5572 37.0159C25.4937 36.9207 25.5255 36.8096 25.6048 36.7462L26.557 36.1114C26.6522 36.0479 26.7632 36.0797 26.8267 36.159C26.8902 36.2542 26.8585 36.3653 26.7791 36.4288L25.827 37.0635C25.7952 37.0794 25.7635 37.0953 25.7159 37.0953C25.6524 37.0953 25.5889 37.0635 25.5572 37.0159Z" fill="#1F1F39"/>
<path d="M32.3491 37.8418V37.0483C32.3491 36.9373 32.4443 36.8579 32.5396 36.8579C32.6348 36.8579 32.73 36.9531 32.73 37.0483V37.8418C32.73 37.9529 32.6506 38.0322 32.5396 38.0322C32.4285 38.0322 32.3491 37.937 32.3491 37.8418Z" fill="#1F1F39"/>
<path d="M35.3648 37.4288L35.0474 36.6353C34.9998 36.5401 35.0633 36.4132 35.1585 36.3814C35.2537 36.3338 35.3807 36.3973 35.4124 36.4925L35.7298 37.286C35.7774 37.3812 35.7139 37.5081 35.6187 37.5399C35.6029 37.5557 35.587 37.5557 35.5552 37.5557C35.4759 37.5557 35.3966 37.5081 35.3648 37.4288Z" fill="#1F1F39"/>
<path d="M38.9498 37.2064L37.839 36.5717C37.7438 36.5241 37.7121 36.3971 37.7597 36.3019C37.8073 36.2067 37.9342 36.1749 38.0294 36.2226L39.1403 36.8573C39.2355 36.9049 39.2672 37.0319 39.2196 37.1271C39.172 37.2064 39.1085 37.2382 39.0451 37.2382C39.0133 37.2382 38.9816 37.2223 38.9498 37.2064Z" fill="#1F1F39"/>
<g opacity="0.5919">
<g opacity="0.5919">
<path opacity="0.5919" d="M23.0893 60.3443C23.3749 60.5347 23.7558 60.503 24.089 60.4236C24.5016 60.3126 24.9301 60.1063 25.3427 60.3284C25.7077 60.5189 25.8822 60.9473 25.787 61.344C25.7553 61.4869 25.9774 61.5503 26.0092 61.4075C26.1996 60.6299 25.5648 59.9158 24.7714 60.011C24.3588 60.0587 23.9621 60.2967 23.5336 60.2649C23.0734 60.2332 22.9623 59.8206 22.883 59.4239C22.8512 59.2493 22.6291 59.3128 22.6608 59.4715C22.7243 59.7889 22.8036 60.138 23.0893 60.3443Z" fill="#BFE3C6"/>
<path opacity="0.5919" d="M8.44237 64.089C8.4265 63.7716 8.45824 63.486 8.75975 63.3114C9.36277 62.9306 9.9658 63.486 10.5529 63.5336C11.0925 63.5812 11.4416 63.1051 11.5844 62.6291C11.7114 62.153 11.6479 61.6293 11.3781 61.2167C11.2988 61.0898 11.0925 61.2009 11.1718 61.3437C11.4734 61.8039 11.4892 62.4228 11.2036 62.8988C11.0131 63.2162 10.7434 63.359 10.3943 63.248C10.1086 63.1686 9.83884 63.0099 9.53733 62.9623C9.07713 62.883 8.52172 62.9941 8.29955 63.4701C8.18847 63.7082 8.20434 63.9779 8.22021 64.2318C8.23607 64.5492 8.28368 64.8666 8.36303 65.1681C8.39477 65.3109 8.61693 65.2474 8.58519 65.1046C8.50585 64.7714 8.44237 64.4223 8.44237 64.089Z" fill="#BFE3C6"/>
<path opacity="0.5919" d="M38.9109 58.1543C39.0854 58.6145 39.4187 58.916 39.7361 59.281C39.9265 59.4873 40.0852 59.7888 39.7837 59.9793C39.5298 60.1379 39.1965 60.1697 38.9109 60.1538C38.7522 60.1538 38.7522 60.3918 38.9109 60.3918C39.3076 60.4077 40.0058 60.3284 40.1645 59.8999C40.3232 59.4873 39.9106 59.1223 39.6567 58.8526C39.2917 58.4717 39.0061 57.9639 39.022 57.4243C39.0378 56.9483 39.3235 56.4881 39.7837 56.3453C39.9424 56.2818 39.8789 56.0596 39.7202 56.1072C38.8633 56.377 38.6094 57.3767 38.9109 58.1543Z" fill="#BFE3C6"/>
<path opacity="0.5919" d="M53.3359 62.9147C53.1455 63.3115 53.2725 63.7558 53.3518 64.1525C53.4312 64.5651 53.447 65.0412 53.0344 65.2792C52.6536 65.4855 52.2092 65.3268 51.9712 64.9936C51.8919 64.8666 51.6856 64.9936 51.7649 65.1205C51.9871 65.4379 52.3362 65.6601 52.7329 65.6283C53.1138 65.5966 53.4629 65.3427 53.5899 64.9777C53.7327 64.5334 53.5581 64.0732 53.4946 63.6289C53.4629 63.4067 53.4629 63.1528 53.6057 62.9465C53.7168 62.7878 53.9072 62.6767 54.1135 62.7402C54.2563 62.7561 54.3198 62.5339 54.177 62.4863C53.8279 62.3752 53.4946 62.6132 53.3359 62.9147Z" fill="#BFE3C6"/>
</g>
</g>
</g>
<g clip-path="url(#clip1_0_2930)">
<circle cx="54" cy="10.0977" r="9.5" fill="#3D5CFF" stroke="white"/>
<path fill-rule="evenodd" clip-rule="evenodd" d="M52.3772 6.16148L51.8673 7.18115H50.4582C49.8829 7.18115 49.4165 7.64752 49.4165 8.22282V13.2228C49.4165 13.7981 49.8829 14.2645 50.4582 14.2645H57.5415C58.1168 14.2645 58.5832 13.7981 58.5832 13.2228V8.22282C58.5832 7.64752 58.1168 7.18115 57.5415 7.18115H56.1324L55.6225 6.16148C55.5519 6.02032 55.4077 5.93115 55.2498 5.93115H52.7498C52.592 5.93115 52.4477 6.02032 52.3772 6.16148ZM53.9998 8.63949C55.1504 8.63949 56.0832 9.57222 56.0832 10.7228C56.0832 11.8734 55.1504 12.8062 53.9998 12.8062C52.8492 12.8062 51.9165 11.8734 51.9165 10.7228C51.9165 9.57222 52.8492 8.63949 53.9998 8.63949Z" fill="white"/>
</g>
<defs>
<clipPath id="clip0_0_2930">
<rect width="64" height="64" fill="white" transform="translate(0 0.0976562)"/>
</clipPath>
<clipPath id="clip1_0_2930">
<rect width="20" height="20" fill="white" transform="translate(44 0.0976562)"/>
</clipPath>
</defs>
</svg>
