<svg width="48" height="48" viewBox="0 0 48 48" fill="none" xmlns="http://www.w3.org/2000/svg">
<path fill-rule="evenodd" clip-rule="evenodd" d="M40.0109 20.9092H24V27.4851H33.1491C32.755 29.6101 31.5573 31.4106 29.7568 32.616V36.8815H35.2509C38.4655 33.9219 40.32 29.5637 40.32 24.3865C40.32 23.181 40.2118 22.0219 40.0109 20.9092Z" fill="#4285F4"/>
<path fill-rule="evenodd" clip-rule="evenodd" d="M35.2509 36.8814L29.7568 32.6159C28.2345 33.6359 26.2872 34.2386 23.9999 34.2386C19.5722 34.2386 15.8245 31.2482 14.4877 27.23H8.80811V31.6345C11.6054 37.1905 17.3545 41 23.9999 41C28.59 41 32.4381 39.4777 35.2509 36.8814Z" fill="#34A853"/>
<path fill-rule="evenodd" clip-rule="evenodd" d="M13.9546 24.0003C13.9546 22.8798 14.1477 21.7903 14.4877 20.7703V16.3657H8.80818C7.65682 18.6607 7 21.2571 7 24.0003C7 26.7435 7.65682 29.3398 8.80818 31.6348L14.4877 27.2303C14.1477 26.2103 13.9546 25.1207 13.9546 24.0003Z" fill="#FBBC05"/>
<path fill-rule="evenodd" clip-rule="evenodd" d="M30.4986 16.3037L35.3745 11.4277C32.4304 8.68455 28.5822 7 23.9999 7C17.3545 7 11.6054 10.8096 8.80811 16.3655L14.4877 20.77C15.8245 16.7518 19.5722 13.7614 23.9999 13.7614C26.4959 13.7614 28.7368 14.6191 30.4986 16.3037Z" fill="#EA4335"/>
</svg>
