<svg width="110" height="108" viewBox="0 0 110 108" fill="none" xmlns="http://www.w3.org/2000/svg">
<mask id="mask0_0_8790" style="mask-type:luminance" maskUnits="userSpaceOnUse" x="0" y="0" width="110" height="108">
<rect y="6.10352e-05" width="109.768" height="108" fill="white"/>
</mask>
<g mask="url(#mask0_0_8790)">
<path d="M106.906 61.9359L79.3586 49.9359L68.6572 53.1824L87.054 70.497L106.906 61.9359Z" fill="#F9ACC0"/>
<path d="M15.2706 67.6112L14.6814 88.2926L21.2826 85.8878L19.2385 107.531L77.5551 107.772L73.5872 75.0662L89.0982 70.2565L80.6814 51.2585C80.6814 51.2585 58.7135 53.2425 45.2105 56.4289C36.7455 58.4249 29.2425 61.6473 26.4529 62.8016C19.2385 65.8076 15.2706 67.6112 15.2706 67.6112Z" fill="#3D5CFF"/>
<path d="M34.6292 25.1663C30.7815 28.0521 30.06 34.4249 28.4969 38.0321C26.9338 41.6393 26.2123 42.6012 24.7694 44.0441C23.3266 45.487 21.2825 45.8477 21.2825 45.8477C21.2825 45.8477 26.4528 54.3848 40.7614 53.6633C55.07 52.9419 61.8035 46.9299 64.3286 44.5251C66.8536 42.1202 67.9358 38.7535 67.9358 38.7535C67.9358 38.7535 61.0821 38.3928 58.1963 32.6213C55.3105 26.8497 51.9438 23.002 47.7354 23.002C43.527 23.002 41.7234 24.6854 41.7234 24.6854C41.7234 24.6854 38.4769 22.2806 34.6292 25.1663Z" fill="#1F1F39"/>
<path d="M15.0061 88.1844L21.2827 85.8878L20.934 89.6514L22.2446 78.6614L15.0061 88.1844Z" fill="#224BF4"/>
<path d="M74.3207 81.0782L73.5872 75.0662L77.0501 73.9961L71.988 65.2666L74.3207 81.0782Z" fill="#224BF4"/>
<path d="M60.4569 67.4669C60.3246 67.8637 59.9519 68.1162 59.6152 68.3327C59.2425 68.5731 58.8577 68.8136 58.6292 69.1984C58.4008 69.5711 58.3286 70.0401 58.4489 70.4609C58.5691 70.9178 58.9058 71.3026 59.3266 71.495C59.5551 71.6032 59.7475 71.2665 59.519 71.1583C59.1463 70.99 58.8697 70.6653 58.7976 70.2565C58.7134 69.8236 58.8817 69.3908 59.2064 69.0902C59.7956 68.5371 60.7695 68.2485 60.8657 67.3347C60.9258 66.8176 60.5892 66.3848 60.2765 66.012C60.1322 65.8317 59.8557 66.1082 60.012 66.3006C60.2765 66.6252 60.6012 67.022 60.4569 67.4669Z" fill="white"/>
<path d="M27.4147 105.74C27.4508 106.04 27.2825 106.317 27.0781 106.521C26.6211 106.978 25.9959 107.194 25.6111 107.723C25.4668 107.928 25.8035 108.12 25.9478 107.916C26.1642 107.627 26.4889 107.435 26.7895 107.243C27.0781 107.05 27.3666 106.834 27.571 106.545C27.7755 106.269 27.8596 105.932 27.7875 105.595C27.7153 105.222 27.4628 104.91 27.2223 104.633C27.066 104.429 26.7895 104.705 26.9458 104.898C27.1502 105.138 27.3787 105.415 27.4147 105.74Z" fill="white"/>
<path d="M66.9981 75.499C66.7937 75.9319 66.4209 76.1964 66.0241 76.4489C65.6514 76.6774 65.2546 76.9299 65.0381 77.3147C64.7616 77.7836 64.8337 78.3367 65.0983 78.7936C65.4109 79.3467 65.988 79.6834 66.5171 79.996C66.7335 80.1163 66.9259 79.7916 66.7095 79.6594C66.2406 79.3948 65.7355 79.1062 65.447 78.6373C65.1945 78.2165 65.1584 77.7115 65.4951 77.3267C65.7836 77.002 66.1925 76.8097 66.5532 76.5692C66.95 76.2926 67.2626 75.9439 67.4309 75.487C67.6233 74.97 67.5993 74.3928 67.3828 73.8878C67.3468 73.7916 67.2025 73.7676 67.1183 73.8157C67.0101 73.8758 66.9981 73.996 67.0341 74.0802C67.2265 74.5251 67.2025 75.0542 66.9981 75.499Z" fill="white"/>
<path d="M33.4869 94.1363C33.5229 93.7996 33.547 93.4389 33.4869 93.1022C33.3907 92.513 32.8857 92.1042 32.3085 92.02C31.9598 91.972 31.6111 92.02 31.2745 92.1283C30.9739 92.2245 30.6853 92.3687 30.3726 92.4529C30.06 92.5371 29.7594 92.5371 29.5069 92.3086C29.2905 92.1162 29.1462 91.8517 29.05 91.5752C28.8456 90.9619 28.9298 90.2886 29.2785 89.7595C29.4107 89.5551 29.0861 89.3627 28.9418 89.5671C28.6171 90.0601 28.4969 90.6613 28.569 91.2385C28.6412 91.8036 28.9177 92.4168 29.4107 92.7415C29.9999 93.1263 30.6612 92.7655 31.2384 92.5611C31.7915 92.3687 32.537 92.2726 32.9458 92.8016C33.1743 93.1022 33.1382 93.5231 33.1141 93.8718C33.0901 94.3046 33.0179 94.7255 32.9097 95.1343C32.8616 95.3507 33.2344 95.4589 33.2945 95.2184C33.3907 94.8698 33.4508 94.509 33.4869 94.1363Z" fill="white"/>
<path d="M68.7294 95.3627C68.1041 95.3386 67.6592 95.9158 67.2144 96.2765C66.3005 97.022 64.9418 97.527 63.8717 96.7815C63.3907 96.4449 63.042 95.8557 63.1502 95.2425C63.1983 95.002 62.8256 94.8938 62.7775 95.1342C62.5731 96.2525 63.511 97.2865 64.5691 97.491C65.1823 97.6112 65.8075 97.4789 66.3727 97.2385C66.9619 96.9859 67.4428 96.5892 67.9118 96.1683C68.1282 95.9759 68.4168 95.7114 68.7294 95.7595C68.9338 95.7835 69.2344 96.012 69.1021 96.2405C69.018 96.4449 69.3426 96.6373 69.4629 96.4208C69.7394 95.9278 69.2344 95.3867 68.7294 95.3627Z" fill="white"/>
<path d="M54.8057 83.1944C54.7936 83.7956 54.3608 84.2044 53.9039 84.517C53.4109 84.8657 52.8938 85.1663 52.5812 85.6954C52.2926 86.1764 52.2445 86.7896 52.6413 87.2224C53.0502 87.6553 53.7115 87.7154 54.2646 87.6433C54.3728 87.6313 54.4209 87.499 54.3969 87.4028C54.3728 87.2946 54.2646 87.2585 54.1564 87.2705C53.7235 87.3307 53.1584 87.2705 52.8698 86.8978C52.5091 86.4289 52.8698 85.8397 53.2185 85.491C53.6153 85.0942 54.1323 84.8657 54.5411 84.493C54.962 84.1202 55.2145 83.6152 55.1784 83.0501C55.1303 82.3888 54.7816 81.7876 54.3367 81.3066C54.1684 81.1383 53.9039 81.4148 54.0722 81.5952C54.469 82.028 54.8177 82.5932 54.8057 83.1944Z" fill="white"/>
<path d="M50.4288 98.4048C50.549 98.6333 50.5971 98.8978 50.5731 99.1503C50.537 99.4509 50.3807 99.7275 50.2364 99.992C50.0801 100.269 49.9118 100.545 49.8396 100.858C49.7675 101.134 49.7795 101.435 49.8516 101.711C49.9959 102.265 50.4047 102.745 50.9578 102.938C51.5831 103.154 52.3045 102.986 52.7735 102.529C52.9538 102.361 52.6773 102.084 52.4969 102.253C52.1001 102.637 51.4869 102.758 50.9819 102.541C50.4889 102.325 50.1643 101.784 50.1763 101.255C50.1763 100.641 50.6452 100.16 50.8496 99.6192C51.042 99.1022 50.9699 98.5371 50.6813 98.0802C50.3687 97.5631 49.8156 97.2024 49.2023 97.1904C48.9619 97.1663 48.9619 97.5631 49.2023 97.5631C49.7314 97.5752 50.1883 97.9359 50.4288 98.4048Z" fill="white"/>
<path d="M36.5652 62.4529C36.7576 62.9459 36.7215 63.4629 36.5291 63.9439C36.3247 64.485 35.9519 64.8818 35.5551 65.2906C35.2185 65.6393 34.8337 66.1443 35.0982 66.6493C35.2425 66.9138 35.5431 67.0461 35.8197 67.1423C36.1564 67.2625 36.5291 67.3106 36.8898 67.2866C37.1423 67.2745 37.1423 66.8898 36.8898 66.9018C36.5772 66.9138 36.2766 66.8777 35.976 66.7816C35.7596 66.7094 35.4349 66.6012 35.4109 66.3367C35.3868 66.1082 35.5672 65.8797 35.6994 65.7114C35.8798 65.507 36.0842 65.3266 36.2525 65.1222C36.9499 64.3046 37.3467 63.1984 36.8778 62.1763C36.6614 61.6834 36.2525 61.2866 35.7235 61.1303C35.483 61.0701 35.3748 61.4429 35.6153 61.515C36.0602 61.6473 36.3968 62.02 36.5652 62.4529Z" fill="white"/>
<path d="M45.3307 71.8798C44.6333 72.0121 44.1764 72.493 43.9119 73.1303C43.6473 73.7676 43.5872 74.5491 43.0702 75.0421C42.8057 75.2946 42.4449 75.4149 42.0962 75.475C41.7475 75.5351 41.3628 75.5471 41.0141 75.4629C40.2205 75.2585 39.5952 74.5732 39.3067 73.8277C39.2225 73.5992 38.8498 73.6954 38.9339 73.9359C39.2105 74.6453 39.7035 75.2826 40.3888 75.6313C41.0381 75.968 41.8437 75.992 42.5411 75.7756C42.9019 75.6674 43.2385 75.475 43.479 75.1744C43.7075 74.8978 43.8518 74.5611 43.972 74.2125C44.1764 73.5872 44.3087 72.8177 44.9219 72.4449C45.5351 72.0842 46.3768 72.1684 46.8578 72.7094C47.0141 72.8898 47.2906 72.6253 47.1223 72.4329C46.6774 71.9399 45.98 71.7595 45.3307 71.8798Z" fill="white"/>
<path d="M67.4429 53.483C66.9139 53.7716 66.5411 54.2646 66.0962 54.6493C65.8798 54.8417 65.6393 54.998 65.3628 55.0702C64.99 55.1664 64.6052 55.1062 64.2566 54.974C63.8958 54.8417 63.5351 54.6614 63.2706 54.3848C63.0061 54.1082 62.8257 53.7596 62.7054 53.3988C62.6333 53.1583 62.2606 53.2666 62.3327 53.507C62.5371 54.1563 62.9219 54.7335 63.5231 55.0702C64.1483 55.4189 64.9179 55.6593 65.6153 55.3948C66.1804 55.1784 66.5772 54.7094 67.0101 54.3006C67.4189 53.9038 67.8878 53.5792 68.489 53.6634C69.0902 53.7475 69.6433 54.1924 69.7876 54.7936C69.8598 55.0341 70.2325 54.9259 70.1724 54.6854C69.8958 53.5311 68.477 52.9179 67.4429 53.483Z" fill="white"/>
<path d="M32.513 78.5771C32.6453 79.1062 32.4289 79.6473 32.3567 80.1643C32.2846 80.6453 32.3086 81.1503 32.6092 81.5471C32.8738 81.8958 33.3187 82.1122 33.7635 82.1002C34.2806 82.0881 34.7495 81.7875 35.0381 81.3667C35.1824 81.1623 34.8457 80.9699 34.7014 81.1743C34.4609 81.523 34.0521 81.7515 33.6193 81.7154C33.1864 81.6793 32.8377 81.3667 32.7295 80.9579C32.501 80.02 33.2706 79.01 32.7175 78.1202C32.477 77.7354 32.0201 77.4589 31.5511 77.6032C31.3227 77.6633 31.4309 78.036 31.6714 77.9639C32.0682 77.8316 32.4289 78.2164 32.513 78.5771Z" fill="white"/>
<path d="M54.7935 56.8617C54.6853 57.5471 54.3967 58.1844 53.9398 58.7134C53.3987 59.3507 52.6893 59.8076 51.9438 60.1684C50.9458 60.6493 49.8636 60.9619 48.7935 61.2385C47.1702 61.6473 45.4147 61.9239 43.7434 61.6112C42.6732 61.4068 41.6752 60.9499 40.9057 60.2044C40.2805 59.6032 39.8356 58.8818 39.4388 58.1002C39.3907 58.0161 39.3546 57.9319 39.3185 57.8477C39.2103 57.6193 38.8736 57.8237 38.9819 58.0401C39.3786 58.8337 39.8235 59.6032 40.4247 60.2646C41.1823 61.0822 42.1682 61.6353 43.2504 61.8998C44.8857 62.3086 46.6291 62.1283 48.2524 61.7676C49.3947 61.5151 50.537 61.1904 51.6071 60.7455C52.4368 60.3968 53.2544 59.9399 53.9037 59.3146C54.4448 58.7976 54.8536 58.1483 55.058 57.4269C55.2744 56.6814 55.2504 55.8998 55.1061 55.1423C55.07 54.9379 55.0099 54.7215 54.9498 54.5171C54.8897 54.2766 54.5169 54.3848 54.5891 54.6253C54.7935 55.3467 54.9137 56.1163 54.7935 56.8617Z" fill="white"/>
<path fill-rule="evenodd" clip-rule="evenodd" d="M76.4075 52.0053L84.2239 71.9685L83.9999 72.0562L76.1836 52.093L76.4075 52.0053Z" fill="white"/>
<path fill-rule="evenodd" clip-rule="evenodd" d="M82.401 67.5967L82.4665 67.8281L72.8412 70.5543L72.7756 70.3229L82.401 67.5967Z" fill="white"/>
<path d="M79.4189 55.7676C67.9961 49.5151 61.6233 45.7876 61.6233 45.7876C61.6233 45.7876 58.4971 45.0662 56.9339 43.7435C55.3708 42.4209 57.3548 35.507 57.3548 35.507C57.3548 35.507 56.0923 31.3587 56.6935 30.998C57.2947 30.6373 58.1364 30.2766 60.1804 32.0802C62.2245 33.8838 63.1865 37.01 63.1865 37.01C63.1865 37.01 88.9179 40.497 96.3728 43.1423C103.828 45.7876 110.321 49.0341 109.72 56.6092C109.118 64.1844 101.303 63.2225 101.303 63.2225C101.303 63.2225 90.8418 62.0201 79.4189 55.7676Z" fill="#F9D2DD"/>
<path d="M56.9339 33.968C57.1384 34.8096 57.3548 35.507 57.3548 35.507C57.3548 35.507 55.3708 42.4209 56.9339 43.7435C57.6915 44.3808 58.8217 44.8858 59.7716 45.2345C60.7696 43.9599 62.1644 41.6633 61.6834 39.1142C61.1544 36.3126 58.3889 34.6533 56.9339 33.968Z" fill="#F9ACC0"/>
<path fill-rule="evenodd" clip-rule="evenodd" d="M56.4681 43.2275C54.5043 43.4723 52.6627 41.6675 52.3547 39.1964C52.0466 36.7252 53.3888 34.5235 55.3525 34.2787C57.3162 34.0339 59.1579 35.8387 59.4659 38.3099C59.774 40.781 58.4318 42.9827 56.4681 43.2275Z" fill="#F99A3D"/>
<path fill-rule="evenodd" clip-rule="evenodd" d="M55.6134 42.0761C54.1889 42.1726 52.9359 40.8007 52.8147 39.0118C52.6935 37.2229 53.75 35.6945 55.1745 35.5979C56.599 35.5014 57.852 36.8734 57.9732 38.6622C58.0944 40.4511 57.0379 41.9796 55.6134 42.0761Z" fill="#FF7F2D"/>
<path d="M34.6293 42.7215C34.2927 46.1243 39.7997 47.5311 39.7997 47.5311C39.7997 47.5311 41.1223 52.1002 41.3628 54.6253C41.6033 57.1503 41.3628 59.5551 41.3628 59.5551C41.3628 59.5551 43.8758 61.2986 47.976 60.3968C52.9059 59.3147 53.1464 57.2706 53.1464 57.2706L51.2225 49.3347C51.2225 49.3347 54.8057 48.3728 55.6714 43.8036C56.5131 39.3547 55.0702 33.9439 55.0702 33.9439L48.938 35.1463L47.0141 33.463V35.507L41.2426 37.0702L39.6794 35.3868C39.6794 35.3868 40.7616 36.7094 40.1604 39.7155C39.5592 42.7215 39.1985 42.8417 39.1985 42.8417L38.958 40.6774C38.958 40.6774 35.1103 37.7916 34.6293 42.7215Z" fill="#F9D2DD"/>
<path fill-rule="evenodd" clip-rule="evenodd" d="M43.8506 43.576C42.4852 43.825 41.2548 43.3489 41.1023 42.5127C40.9498 41.6765 41.933 40.7968 43.2984 40.5478C44.6638 40.2988 45.8943 40.7748 46.0468 41.6111C46.1993 42.4473 45.216 43.327 43.8506 43.576Z" fill="#F9ACC0"/>
<path d="M51.2826 36.6494C51.4269 36.3608 51.7275 36.1083 52.0762 36.0241C52.2446 35.988 52.4009 35.976 52.5692 35.988C52.7376 36.0001 52.9059 36.0482 53.0502 36.1323C53.3508 36.3007 53.5552 36.6253 53.5071 36.9379C53.2666 36.7455 53.0502 36.6854 52.8458 36.6614C52.7496 36.6494 52.6534 36.6494 52.5452 36.6614C52.4971 36.6614 52.437 36.6734 52.3889 36.6854C52.3287 36.6854 52.2927 36.7095 52.2446 36.7095C52.1604 36.7335 52.0642 36.7576 51.9921 36.8057C51.9079 36.8417 51.8237 36.9019 51.7396 36.974C51.5832 37.1303 51.4149 37.3227 51.2225 37.5512C51.1143 37.2626 51.1384 36.9379 51.2826 36.6494Z" fill="#1F1F39"/>
<path d="M43.6353 38.2726C43.7556 38.0081 43.984 37.7435 44.3207 37.6233C44.3688 37.6113 44.4049 37.5992 44.453 37.5872L44.5131 37.5752H44.5852H44.7175C44.7536 37.5752 44.7896 37.5752 44.8377 37.5872C44.994 37.6113 45.1504 37.6473 45.2946 37.7315C45.4389 37.8157 45.5592 37.9359 45.6433 38.0802C45.6794 38.1524 45.7035 38.2245 45.7155 38.3087C45.7275 38.3808 45.7275 38.465 45.7035 38.5371C45.5952 38.4409 45.487 38.3808 45.3908 38.3327C45.2946 38.2966 45.1984 38.2846 45.1023 38.2726C45.0061 38.2726 44.9099 38.2726 44.8137 38.2726C44.7896 38.2726 44.7656 38.2726 44.7415 38.2726C44.7175 38.2726 44.7055 38.2846 44.6814 38.2846C44.6694 38.2846 44.6574 38.2846 44.6574 38.2846L44.6333 38.2966C44.6213 38.2966 44.5972 38.3087 44.5852 38.3087C44.453 38.3568 44.2846 38.465 44.1163 38.6093C43.9239 38.7536 43.7556 38.9339 43.5271 39.1143C43.467 38.8257 43.5151 38.5371 43.6353 38.2726Z" fill="#1F1F39"/>
<path d="M49.6835 38.4169C49.8157 38.5251 49.936 38.6453 50.0442 38.7896C50.1524 38.9339 50.2366 39.0902 50.2727 39.2826C50.2847 39.3788 50.2847 39.475 50.2606 39.5712C50.2486 39.6193 50.2366 39.6674 50.2125 39.7034C50.2005 39.7515 50.1885 39.7876 50.1524 39.8357C50.0683 40.004 49.936 40.1363 49.7797 40.2325C49.4791 40.4249 49.1184 40.485 48.7937 40.4369C49.1184 40.3648 49.431 40.2566 49.6715 40.0642C49.7917 39.968 49.8879 39.8598 49.936 39.7155C49.96 39.6794 49.96 39.6433 49.9721 39.6193C49.9841 39.5832 49.9961 39.5471 49.9961 39.5231C50.0081 39.463 50.0081 39.3908 49.9961 39.3187C49.9721 39.1864 49.9119 39.0421 49.8278 38.9219C49.7436 38.7896 49.6354 38.6814 49.5272 38.5612C49.3348 38.3327 49.0823 38.1283 48.8178 37.9119C49.1304 38.0321 49.419 38.2004 49.6835 38.4169Z" fill="#1F1F39"/>
<path d="M49.4308 41.8919C50.8617 41.6033 51.535 41.0502 51.535 41.0502C51.535 41.0502 52.3526 43.7075 51.4388 44.6213C50.525 45.5351 48.1683 45.6794 47.555 44.0081C46.9418 42.3247 47.1462 41.964 47.1462 41.964C47.1462 41.964 48.2284 42.1323 49.4308 41.8919Z" fill="#F95368"/>
<path d="M51.7635 43.996C51.2224 43.8036 50.513 43.6954 49.7074 43.9118C48.9859 44.1162 48.4689 44.4649 48.1082 44.8136C49.0581 45.5832 50.6933 45.3547 51.4268 44.6213C51.5951 44.4529 51.6913 44.2365 51.7635 43.996Z" fill="#F9ACC0"/>
<path d="M40.1604 39.7275C39.5592 42.7335 39.1985 42.8537 39.1985 42.8537L38.958 40.6894C38.958 40.6894 38.8498 40.6052 38.6574 40.497L36.2285 45.8477C37.7556 47.0141 39.7997 47.5311 39.7997 47.5311C39.7997 47.5311 39.9199 47.9279 40.0762 48.5531C40.5932 48 41.3868 46.7856 42.0241 44.1764C42.7816 41.0982 41.2185 39.2345 40.3287 38.465C40.3047 38.8497 40.2566 39.2706 40.1604 39.7275Z" fill="#F9ACC0"/>
<path fill-rule="evenodd" clip-rule="evenodd" d="M38.5834 47.5071C36.4036 47.6548 34.4862 45.5563 34.3008 42.82C34.1154 40.0837 35.7322 37.7457 37.9119 37.598C40.0917 37.4503 42.0091 39.5488 42.1945 42.2851C42.3799 45.0215 40.7632 47.3594 38.5834 47.5071Z" fill="#F99A3D"/>
<path fill-rule="evenodd" clip-rule="evenodd" d="M38.0585 45.563C36.634 45.6595 35.381 44.2876 35.2598 42.4987C35.1385 40.7098 36.1951 39.1814 37.6195 39.0849C39.044 38.9884 40.2971 40.3603 40.4183 42.1492C40.5395 43.9381 39.483 45.4665 38.0585 45.563Z" fill="#FF7F2D"/>
<path d="M34.99 28.2926C33.4991 31.0942 33.4269 32.6213 33.3067 34.9059C33.1864 37.1904 33.7876 39.7155 33.7876 39.7155L36.5411 38.5131C36.5411 38.5131 35.6874 32.8017 37.0341 29.495C37.8518 27.463 39.1143 26.2485 40.1243 25.5391C40.1965 25.491 40.6413 25.2025 41.0141 24.998C41.1343 24.9379 41.2425 24.8898 41.3267 24.8417C41.7235 24.6854 41.7235 24.6854 41.7235 24.6854C41.7235 24.6854 42.3127 24.3367 42.8057 24.0842C43.5271 23.7235 44.6093 23.3628 44.6093 23.3628C44.6093 23.3628 42.0602 22.485 39.5592 23.6033C39.5592 23.6033 36.9139 24.6854 34.99 28.2926Z" fill="#F99A3D"/>
<path d="M45.0541 105.848C42.9979 105.415 40.7374 104.717 39.6432 102.938C38.8496 101.651 38.7535 99.9439 39.3426 97.7435C39.9799 95.3507 42.0721 93.3548 44.4889 91.0461C47.6392 88.0401 51.2104 84.6253 52.5691 79.3467C54.3486 72.4209 48.0841 67.3227 43.527 63.5952C41.9999 62.3568 40.6893 61.2866 39.8717 60.3247C38.4889 58.6894 37.7314 55.984 37.6352 52.3047C37.5631 49.5752 37.8877 47.2906 37.8877 47.2786C37.9118 47.1463 38.032 47.0501 38.1643 47.0742C38.2965 47.0982 38.3807 47.2185 38.3687 47.3507C38.3567 47.4349 37.0941 56.3087 40.2324 60.0241C41.014 60.9499 42.3126 62.0081 43.8156 63.2345C48.4809 67.0341 54.8777 72.2525 53.026 79.479C51.6432 84.8898 48.012 88.3527 44.8136 91.4069C42.4448 93.6433 40.4007 95.5912 39.7995 97.8638C39.2464 99.9319 39.3306 101.519 40.0521 102.685C40.8456 103.984 42.3727 104.79 45.1502 105.379C49.034 106.196 52.016 105.86 52.04 105.86C52.1723 105.848 52.2925 105.944 52.3046 106.064C52.3166 106.196 52.2204 106.317 52.1001 106.329C52.04 106.341 51.4028 106.413 50.3446 106.413C49.0701 106.413 47.2064 106.305 45.0541 105.848Z" fill="#1F1F39"/>
<path d="M49.2985 68.8738C49.2144 68.7656 49.2384 68.6213 49.3346 68.5371C49.4067 68.477 56.4408 62.8137 58.4488 55.8758C60.4448 48.95 57.535 42.9981 57.4989 42.9379C57.4388 42.8177 57.4869 42.6734 57.6071 42.6133C57.7274 42.5532 57.8717 42.6013 57.9318 42.7215C57.9679 42.7816 60.9619 48.9019 58.9057 55.9961C56.8617 63.0782 49.7073 68.8377 49.6352 68.8979C49.5991 68.958 49.539 68.97 49.4909 68.97C49.4188 68.97 49.3466 68.9339 49.2985 68.8738Z" fill="#1F1F39"/>
<path d="M46.7254 87.8958L47.1462 87.475C47.5189 87.1022 48.1322 87.1022 48.5049 87.475C48.8777 87.8477 48.8777 88.461 48.5049 88.8337L48.0841 89.2546C47.7113 89.6273 47.0981 89.6273 46.7254 89.2546C46.3526 88.8818 46.3526 88.2686 46.7254 87.8958Z" fill="#1F1F39"/>
<path d="M51.2945 49.6594C51.3426 49.467 49.7795 50.0682 48.0961 50.0682C45.3186 50.0682 44.3687 49.467 44.3687 49.467C44.3687 49.467 47.0139 52.8337 49.7795 53.9159C50.8857 54.3367 51.7995 54.5291 52.4969 54.6012L51.2945 49.6594Z" fill="#F9ACC0"/>
<path d="M43.9719 49.4429C43.9118 49.4189 43.8878 49.3467 43.9118 49.2986C43.9359 49.2385 44.008 49.2145 44.0561 49.2385C44.0801 49.2505 45.9559 50.0321 48.0962 49.9479C49.2745 49.8998 50.3206 49.7315 51.2224 49.4309C51.2825 49.4069 51.3427 49.4429 51.3667 49.5031C51.3908 49.5632 51.3547 49.6233 51.2946 49.6473C50.3687 49.96 49.2986 50.1403 48.0962 50.1764C48 50.1764 47.8918 50.1764 47.7956 50.1764C45.7395 50.1764 43.996 49.4429 43.9719 49.4429Z" fill="#1F1F39"/>
<path d="M52.2446 107.531C51.4871 107.531 50.8618 106.906 50.8618 106.148C50.8618 105.391 51.4871 104.766 52.2446 104.766H71.2426C72.0001 104.766 72.6253 105.391 72.6253 106.148C72.6253 106.918 72.0121 107.531 71.2426 107.531H52.2446Z" fill="#EAEAFF"/>
<path fill-rule="evenodd" clip-rule="evenodd" d="M23.2066 72.1806L21.2827 85.888L23.2066 72.1806Z" fill="#1F1F39"/>
<path d="M21.2704 86.008C21.2103 85.996 21.1622 85.9479 21.1742 85.8758L23.0981 72.1684C23.1101 72.1082 23.1582 72.0601 23.2303 72.0722C23.2904 72.0842 23.3385 72.1323 23.3265 72.2044L21.4027 85.9118C21.3907 85.9599 21.3426 86.008 21.2824 86.008H21.2704Z" fill="#1F1F39"/>
<path d="M26.6935 38.0321C27.5352 35.988 30.5412 33.3307 31.3829 33.1023C32.7055 32.7415 33.0662 33.5832 33.0662 33.5832C33.0662 33.5832 34.0281 32.7415 34.9901 33.1023C35.952 33.463 36.0722 34.4249 36.0722 34.4249C36.0722 34.4249 36.962 33.7155 37.9961 34.3047C38.8378 34.7856 38.5973 35.988 37.9961 36.7095C37.3949 37.4309 35.5913 38.7536 35.471 39.475C35.3508 40.1964 38.477 47.8918 37.0342 53.0622C35.5913 58.2325 23.9279 78.6734 18.5171 85.4069C13.1063 92.1403 6.13235 91.1784 3.96802 89.495C1.8037 87.8117 -2.044 83.0021 1.32273 76.5091C4.68947 70.0161 26.6935 46.9299 26.6935 46.9299C26.6935 46.9299 25.8518 40.0762 26.6935 38.0321Z" fill="#F9D2DD"/>
<path d="M32.4768 42.6253C32.4408 42.457 31.6351 38.3447 32.9818 36.8778C34.3045 35.4349 35.9879 34.3407 36.0119 34.3287C36.06 34.2926 36.1321 34.3047 36.1682 34.3648C36.2043 34.4129 36.1923 34.485 36.1321 34.5211C36.1201 34.5331 34.4488 35.6153 33.1502 37.0221C31.8756 38.4049 32.6933 42.5291 32.6933 42.5772C32.7053 42.6373 32.6692 42.6974 32.6091 42.7095C32.6091 42.7215 32.5971 42.7215 32.5851 42.7215C32.537 42.7215 32.4889 42.6854 32.4768 42.6253Z" fill="#1F1F39"/>
<path d="M28.99 40.9299C28.9779 40.7977 28.7615 37.6233 29.8557 36.2766C30.9379 34.954 32.9819 33.4991 33.006 33.487C33.0541 33.451 33.1262 33.463 33.1623 33.5111C33.1984 33.5592 33.1863 33.6313 33.1383 33.6674C33.1142 33.6794 31.0942 35.1223 30.036 36.4089C28.99 37.6834 29.2184 40.8698 29.2184 40.8939C29.2184 40.978 29.1703 41.0261 29.0982 41.0381C29.1102 41.0381 29.1102 41.0381 29.0982 41.0381C29.0381 41.0381 28.99 40.99 28.99 40.9299Z" fill="#1F1F39"/>
<path fill-rule="evenodd" clip-rule="evenodd" d="M71.7839 64.0043L73.5875 75.0665L71.7839 64.0043Z" fill="#1F1F39"/>
<path d="M73.479 75.0902L71.6754 64.0281C71.6634 63.968 71.7115 63.9079 71.7716 63.8958C71.8318 63.8838 71.8919 63.9319 71.9039 63.992L73.7075 75.0541C73.7195 75.1143 73.6714 75.1744 73.6113 75.1864C73.5993 75.1864 73.5993 75.1864 73.5873 75.1864C73.5271 75.1864 73.479 75.1503 73.479 75.0902Z" fill="#1F1F39"/>
<path d="M48.1924 42.5772C48.2045 42.7215 48.3367 42.8176 48.481 42.7936C48.481 42.7936 49.3708 42.6493 49.6594 42.6012C50.2846 42.481 50.8377 42.2886 50.8377 42.2886C50.982 42.2645 51.0782 42.1323 51.0542 41.988L50.9219 41.3988C50.5732 41.5671 50.0802 41.7595 49.4189 41.8918C48.962 41.976 48.5051 42.012 48.1323 42.012L48.1924 42.5772Z" fill="white"/>
<path d="M0.505078 78.4329C-1.2865 83.9399 2.02011 87.98 3.968 89.495C6.13233 91.1784 13.1063 92.1403 18.5171 85.4069C19.0462 84.7455 19.6474 83.9399 20.2846 83.0381C17.6754 84.7696 12.3969 87.4269 6.85378 85.2866C2.97001 83.7956 1.25057 80.9339 0.505078 78.4329Z" fill="#F9ACC0"/>
<path d="M54.6012 37.8998C53.2424 38.1523 52.2565 39.0301 52.4128 39.8718C52.5691 40.7135 53.7955 41.1944 55.1543 40.9419C55.4308 40.8938 55.6953 40.8096 55.9358 40.7135C55.9358 39.7155 55.8637 38.7415 55.7675 37.8638C55.4068 37.8157 55.01 37.8277 54.6012 37.8998Z" fill="#F9ACC0"/>
</g>
</svg>
