<svg width="98" height="97" viewBox="0 0 98 97" fill="none" xmlns="http://www.w3.org/2000/svg">
<circle opacity="0.56" cx="48.9294" cy="48.5068" r="48.2568" fill="#F5ECFF"/>
<circle opacity="0.8" cx="48.9294" cy="48.5068" r="35.5" fill="#F8F2FF"/>
<path d="M58.6382 54.1769L61.0765 60.6732C63.2089 59.6675 65.176 58.3814 66.9366 56.8562C66.5068 55.6031 66.1348 54.655 66.1348 54.655L58.6382 54.1769Z" fill="#DA5742"/>
<path d="M39.4874 60.7969L42.0332 54.0038L34.5365 54.4819C34.5283 54.4902 34.0819 55.6361 33.6025 57.0706C35.3713 58.5628 37.3467 59.8241 39.4874 60.7969Z" fill="#DA5742"/>
<path d="M58.6382 54.1769L59.4812 56.3863L66.92 56.848C66.515 55.6856 66.1348 54.655 66.1348 54.655L58.6382 54.1769Z" fill="#C43D28"/>
<path d="M42.1075 53.7646L41.2645 55.9741L33.71 56.7078C34.115 55.5536 34.6109 54.2428 34.6109 54.2428L42.1075 53.7646Z" fill="#C43D28"/>
<path d="M41.7935 44.0037C38.5204 45.4876 34.9333 50.0713 33.6108 55.4465H39.4627L38.4956 60.327C41.9919 62.1077 45.9509 63.1135 50.1415 63.1135C54.3568 63.1135 58.3241 62.0995 61.8286 60.3023L60.8037 56.073L66.7217 55.5454C66.7134 55.5454 65.3496 47.9609 59.1093 44.3747C54.1088 41.5057 46.4055 41.9344 41.7935 44.0037Z" fill="#3D5CFF"/>
<path opacity="0.4672" d="M42.7191 50.599C42.5786 52.9815 42.4464 55.3558 42.3058 57.7383C42.2315 59.0656 42.1488 60.3929 42.0744 61.712C42.0662 61.8686 42.3141 61.8686 42.3224 61.712C42.4629 59.3377 42.6034 56.9716 42.7356 54.5973C42.8762 52.223 43.0084 49.8487 43.1489 47.4744C43.2233 46.1636 43.306 44.8528 43.3803 43.542C43.3886 43.3854 43.1406 43.3854 43.1324 43.5502C42.9919 45.8998 42.8514 48.2494 42.7191 50.599Z" fill="#CDECFE"/>
<path opacity="0.4672" d="M45.9922 50.5164C45.9426 53.0969 45.893 55.6855 45.8434 58.2659C45.8186 59.7169 45.7855 61.1761 45.7607 62.627C45.7607 62.7837 46.0087 62.7837 46.0087 62.627C46.0583 60.0384 46.1079 57.4497 46.1657 54.8611C46.2153 52.2807 46.2649 49.7003 46.3145 47.1199C46.3393 45.6772 46.3724 44.2262 46.3972 42.7835C46.3972 42.6104 46.1492 42.6104 46.1492 42.7752C46.0996 45.3556 46.05 47.936 45.9922 50.5164Z" fill="#CDECFE"/>
<path opacity="0.4672" d="M49.8522 50.4917C49.8935 53.1381 49.9431 55.7844 49.9845 58.4308C50.0093 59.923 50.0341 61.4234 50.0588 62.9156C50.0588 63.0722 50.3068 63.0722 50.3068 62.9156C50.2655 60.2692 50.2159 57.6229 50.1746 54.9765C50.1332 52.3302 50.0836 49.6838 50.0423 47.0374C50.0175 45.5453 49.9927 44.0448 49.9679 42.5527C49.9679 42.396 49.72 42.396 49.72 42.5527C49.7613 45.199 49.8109 47.8454 49.8522 50.4917Z" fill="#CDECFE"/>
<path opacity="0.4672" d="M53.5716 46.2873C53.646 47.5898 53.7369 48.8924 53.8195 50.195C53.9105 51.514 54.0014 52.8248 54.1088 54.1439C54.208 55.4465 54.3155 56.7573 54.4312 58.0599C54.5386 59.313 54.6543 60.5661 54.7783 61.8192C54.7949 61.9676 54.8114 62.116 54.8196 62.2643C54.8362 62.421 55.0841 62.421 55.0676 62.2643C54.9436 61.0195 54.8279 59.7746 54.7205 58.538C54.6047 57.2354 54.4973 55.9329 54.3981 54.6385C54.2989 53.3195 54.1997 52.0087 54.1088 50.6896C54.0179 49.3788 53.9353 48.0762 53.8526 46.7654C53.7782 45.5123 53.7038 44.251 53.6377 42.9979C53.6294 42.8495 53.6212 42.7011 53.6129 42.5527C53.6046 42.3878 53.3567 42.3878 53.3649 42.5444C53.4311 43.7893 53.4972 45.0342 53.5716 46.2873Z" fill="#CDECFE"/>
<path opacity="0.4672" d="M57.7952 50.2774C58.1754 52.5775 58.5556 54.8776 58.9358 57.1859C59.1425 58.439 59.3491 59.7004 59.5557 60.9535C59.5805 61.1101 59.8202 61.0442 59.7954 60.8876C59.4235 58.6204 59.0515 56.3615 58.6796 54.0944C58.2994 51.7943 57.9192 49.4942 57.539 47.1859C57.3324 45.9327 57.1257 44.6714 56.9191 43.4183C56.886 43.2617 56.6463 43.3276 56.6794 43.4843C57.0513 45.7514 57.4233 48.0103 57.7952 50.2774Z" fill="#CDECFE"/>
<path opacity="0.4672" d="M39.0908 49.148C38.7933 50.4505 38.504 51.7613 38.223 53.0639C38.0577 53.8141 37.9006 54.5643 37.7436 55.3228C37.7105 55.4794 37.9502 55.5454 37.9833 55.3887C38.256 54.0614 38.5453 52.7424 38.8346 51.4151C39.1239 50.1125 39.4215 48.8017 39.7107 47.4992C39.8843 46.7489 40.0496 45.9987 40.2149 45.2485C40.2563 45.1001 40.0248 45.0342 39.9835 45.1908C39.6859 46.5099 39.3884 47.8289 39.0908 49.148Z" fill="#CDECFE"/>
<path opacity="0.4672" d="M61.6469 49.42C62.0684 50.7556 62.4982 52.0994 62.928 53.4349C63.1677 54.1851 63.4156 54.9353 63.6719 55.6773C63.7215 55.8257 63.9612 55.7597 63.9116 55.6113C63.4652 54.284 63.0354 52.9485 62.6056 51.613C62.1841 50.2774 61.7543 48.9336 61.3245 47.5981C61.0848 46.8479 60.8369 46.0976 60.5806 45.3557C60.531 45.199 60.2914 45.265 60.3409 45.4216C60.7873 46.7489 61.2171 48.0845 61.6469 49.42Z" fill="#CDECFE"/>
<path d="M41.0581 49.9147L37.5784 55.4465L39.5538 55.4382L41.0581 49.9147Z" fill="#224BF4"/>
<path d="M60.8037 56.073L62.5642 55.9246L58.6382 49.2222L60.8037 56.073Z" fill="#224BF4"/>
<path d="M39.5372 55.5289C39.4959 55.5206 39.4711 55.4712 39.4794 55.43L41.1324 49.3128C41.1407 49.2716 41.1903 49.2469 41.2316 49.2551C41.2729 49.2634 41.2977 49.3128 41.2895 49.354L39.6364 55.4712C39.6281 55.5042 39.5951 55.5289 39.562 55.5289C39.5538 55.5289 39.5455 55.5289 39.5372 55.5289Z" fill="#1F1F39"/>
<path d="M60.6467 56.073L58.5308 49.2221C58.5143 49.1809 58.5391 49.1397 58.5804 49.1232C58.6217 49.1067 58.6631 49.1315 58.6796 49.1727L60.8038 56.0235C60.8203 56.0647 60.7955 56.106 60.7542 56.1225C60.7377 56.1225 60.7294 56.1307 60.7211 56.1307C60.6881 56.1307 60.655 56.106 60.6467 56.073Z" fill="#1F1F39"/>
<path d="M46.2404 39.9475C45.4965 39.7827 45.4139 39.3705 45.4139 39.3705C45.4139 39.3705 45.1659 39.8651 43.6781 39.7002C42.1904 39.5353 41.6945 38.1338 41.6945 38.1338C41.6945 38.1338 39.8761 37.8041 39.5455 36.8148C39.2149 35.8255 39.2975 35.4133 39.2975 35.4133C39.2975 35.4133 38.0577 34.3416 38.1404 33.1874C38.223 32.0332 38.6363 31.7859 38.6363 31.7859C38.6363 31.7859 37.9751 31.2088 38.1404 30.7142C38.3057 30.2195 38.6363 30.1371 38.6363 30.1371C38.6363 30.1371 36.9006 28.4058 37.4792 26.5097C38.0577 24.6135 39.4628 24.6135 39.4628 24.6135C39.4628 24.6135 39.2149 23.954 39.9588 23.5418C40.7026 23.1296 41.0332 23.212 41.0332 23.212C41.0332 23.212 40.8679 21.151 41.9424 20.6564C43.0169 20.1617 43.9261 20.409 43.9261 20.409C43.9261 20.409 43.8434 19.2549 44.5873 19.1724C45.3312 19.09 45.6618 19.5846 45.6618 19.5846C45.6618 19.5846 45.6618 19.2549 46.323 19.1724C46.9843 19.09 47.0669 19.3373 47.0669 19.3373C47.0669 19.3373 47.2322 17.6885 48.9679 17.6885C50.7037 17.6885 51.2822 18.6778 51.2822 18.6778C51.2822 18.6778 51.6955 17.9358 52.6873 18.1007C53.6792 18.2656 53.6792 19.1724 53.6792 19.1724C53.6792 19.1724 54.5057 18.2656 56.2414 18.7602C57.9771 19.2549 58.473 22.3052 58.473 22.3052C58.473 22.3052 59.0516 22.1403 59.5475 22.3876C60.0435 22.6349 59.9608 23.5418 59.9608 23.5418C59.9608 23.5418 61.5312 23.6242 61.8618 24.9433C62.1924 26.2623 61.8618 26.757 61.8618 26.757C61.8618 26.757 63.2669 28.076 62.8537 30.0546C62.4404 32.0332 61.6139 32.6927 61.6139 32.6927C61.6139 32.6927 61.9445 33.682 61.6139 34.424C61.2832 35.166 60.622 35.166 60.622 35.166C60.622 35.166 60.87 36.3201 60.2914 36.7323C59.7128 37.1446 59.1343 36.9797 59.1343 36.9797C59.1343 36.9797 58.5557 38.9583 56.4894 39.6178C54.423 40.2773 52.3567 39.3705 52.3567 39.3705L47.4802 40.1124C47.4802 40.1124 46.9843 40.1124 46.2404 39.9475Z" fill="#F99A3D"/>
<path d="M43.7771 32.1981C44.0416 32.3052 44.2565 32.4289 44.4218 32.5526C44.4383 31.8271 45.2649 29.5599 46.0914 28.818C46.8766 28.1172 48.323 27.4989 49.4802 28.4058C50.6373 29.3126 51.1332 30.7966 51.8771 30.3844C52.621 29.9721 53.4475 29.1477 54.2741 29.8073C54.8939 30.3019 55.0014 31.8271 55.0179 32.5526C55.1832 32.4289 55.3981 32.3135 55.6626 32.1981C56.5718 31.8188 57.8364 32.3465 57.7785 33.9128C57.8199 34.5971 57.5141 35.3391 57.0016 35.6606C56.266 36.1305 54.6129 35.9903 54.6129 35.9903C54.6129 35.9903 54.4724 36.6911 54.1005 37.3918C53.5219 38.4636 52.3648 39.3704 52.3648 39.3704V41.3243L52.5466 43.9871C52.5466 43.9871 52.3565 44.0861 52.0259 44.2015C51.8606 44.2674 51.6292 44.3499 51.2903 44.4158C50.8522 44.5148 50.3232 44.5889 49.7281 44.5889C49.133 44.5972 48.604 44.523 48.166 44.4158C47.8271 44.3499 47.5957 44.2757 47.4304 44.2015C47.0998 44.0861 46.9097 43.9871 46.9097 43.9871L47.0915 41.3243V39.3704C47.0915 39.3704 45.9344 38.4636 45.3558 37.3918C44.9756 36.6911 44.9177 36.2377 44.9177 36.0068C44.4549 36.0481 43.182 36.1223 42.4464 35.6606C41.9257 35.3391 41.6199 34.5971 41.6612 33.9128C41.6033 32.3465 42.8597 31.8188 43.7771 32.1981Z" fill="#DA5742"/>
<path d="M47.0752 41.3326L47.009 42.3549C47.7612 42.2972 48.6786 42.1323 49.7118 41.7613C50.7615 41.3821 51.6541 40.8462 52.3567 40.3434V39.3705C50.8689 40.2774 47.7281 39.9476 47.0752 39.3623V41.3326Z" fill="#C43D28"/>
<path d="M47.0173 39.4199C46.9843 39.3869 46.976 39.3292 47.0091 39.288C47.0421 39.2468 47.1 39.2468 47.1413 39.2798C47.5298 39.6343 48.8688 39.8816 50.1168 39.8239C50.1664 39.8239 50.2078 39.8569 50.2078 39.9063C50.2078 39.9558 50.1747 39.997 50.1251 39.997C50.0011 40.0217 49.8771 40.0217 49.7532 40.0217C48.563 40.0217 47.4058 39.7744 47.0173 39.4199Z" fill="#1F1F39"/>
<path d="M55.109 32.4866C55.0676 33.0884 55.1833 32.7752 54.9188 34.5889C54.861 34.9599 54.6544 35.6606 54.5552 36.0233C55.1172 36.0646 56.3488 36.0728 57.0017 35.6606C57.5142 35.3391 57.8117 34.5971 57.7787 33.9129C57.8282 32.3465 56.5719 31.8189 55.6627 32.1981C55.4478 32.2888 55.266 32.3877 55.109 32.4866Z" fill="#C43D28"/>
<path d="M45.3394 37.3919C45.3477 37.4084 45.3642 37.4332 45.3725 37.4497C45.2899 37.2848 45.2072 37.1199 45.1328 36.9633C45.1907 37.0952 45.2568 37.2353 45.3394 37.3919Z" fill="#C43D28"/>
<path d="M43.7688 32.1981C42.8596 31.8189 41.595 32.3465 41.6529 33.9129C41.6116 34.5971 41.9174 35.3391 42.4298 35.6606C43.1324 36.1058 44.3309 36.0563 44.835 36.0151C44.6036 34.9846 44.4218 33.5419 44.3061 32.4784C44.1573 32.3795 43.9837 32.2888 43.7688 32.1981Z" fill="#C43D28"/>
<path d="M44.5047 35.2732C44.5047 35.2732 44.4965 34.861 44.0336 34.1767C43.5708 33.4924 42.7029 33.2534 42.6946 33.2451C42.645 33.2286 42.6203 33.1792 42.6285 33.1379C42.6451 33.0885 42.6946 33.0638 42.736 33.072C42.7773 33.0802 43.6865 33.3276 44.1824 34.0778C44.6783 34.8197 44.6783 35.2567 44.6783 35.2732C44.6866 35.3226 44.6453 35.3639 44.5957 35.3639C44.5461 35.3639 44.5047 35.3226 44.5047 35.2732Z" fill="#1F1F39"/>
<path d="M54.8608 35.2731C54.8608 35.2566 54.8691 34.8114 55.3568 34.0777C55.8527 33.3357 56.7619 33.0884 56.8032 33.0719C56.8528 33.0554 56.9024 33.0884 56.9106 33.1379C56.9272 33.1873 56.8941 33.2368 56.8445 33.245C56.8362 33.245 55.9601 33.4841 55.5055 34.1766C55.0427 34.8609 55.0344 35.2731 55.0344 35.2731C55.0427 35.3226 55.0014 35.3638 54.9518 35.3638C54.9022 35.3638 54.8608 35.3226 54.8608 35.2731Z" fill="#1F1F39"/>
<path d="M47.0667 32.5278C47.0667 32.5278 47.1328 31.8683 47.6122 31.8683C48.0915 31.8683 48.1577 32.5278 48.1577 32.5278" fill="white"/>
<path d="M51.2573 32.5278C51.2573 32.5278 51.3234 31.8683 51.8028 31.8683C52.2822 31.8683 52.3483 32.5278 52.3483 32.5278" fill="white"/>
<path d="M49.7117 33.7067C49.6538 33.8551 49.6042 34.0035 49.5877 34.1436C49.5794 34.2178 49.5877 34.2838 49.6208 34.325C49.6208 34.3333 49.629 34.3333 49.629 34.3415L49.6456 34.358C49.6538 34.3662 49.6703 34.3745 49.6869 34.3827C49.7117 34.3992 49.7447 34.4157 49.7778 34.4157C49.91 34.4404 50.0671 34.3827 50.2076 34.3168C50.158 34.3827 50.0919 34.4322 50.0175 34.4734C49.9431 34.5146 49.8522 34.5394 49.7613 34.5311C49.7117 34.5229 49.6703 34.5146 49.629 34.4899C49.6042 34.4817 49.5877 34.4652 49.5712 34.4487L49.5464 34.4239C49.5381 34.4157 49.5298 34.4075 49.5216 34.391C49.4555 34.3003 49.4554 34.2014 49.4637 34.1189C49.472 34.0365 49.4968 33.954 49.5298 33.8716C49.5546 33.7974 49.596 33.7232 49.629 33.649C49.6951 33.5253 49.7861 33.3934 49.8935 33.2698C49.8274 33.4182 49.7695 33.5666 49.7117 33.7067Z" fill="#1F1F39"/>
<path d="M49.1333 35.6771C49.1333 35.6771 49.4474 36.4603 50.3235 36.3367C51.0343 36.2377 51.117 35.4133 51.117 35.4133" fill="white"/>
<path fill-rule="evenodd" clip-rule="evenodd" d="M47.6867 34.3415C47.3899 34.3415 47.1494 34.0462 47.1494 33.682C47.1494 33.3177 47.3899 33.0225 47.6867 33.0225C47.9834 33.0225 48.2239 33.3177 48.2239 33.682C48.2239 34.0462 47.9834 34.3415 47.6867 34.3415Z" fill="#1F1F39"/>
<path fill-rule="evenodd" clip-rule="evenodd" d="M51.8192 34.3415C51.5225 34.3415 51.282 34.0462 51.282 33.682C51.282 33.3177 51.5225 33.0225 51.8192 33.0225C52.1159 33.0225 52.3565 33.3177 52.3565 33.682C52.3565 34.0462 52.1159 34.3415 51.8192 34.3415Z" fill="#1F1F39"/>
<path fill-rule="evenodd" clip-rule="evenodd" d="M54.5972 35.1841C54.5592 35.6287 53.9015 35.9354 53.1284 35.8693C52.3552 35.8031 51.7592 35.3891 51.7973 34.9445C51.8353 34.4999 52.4929 34.1931 53.2661 34.2593C54.0393 34.3254 54.6352 34.7395 54.5972 35.1841Z" fill="#C43D28"/>
<path fill-rule="evenodd" clip-rule="evenodd" d="M47.9024 35.1842C47.8643 35.6288 47.2067 35.9356 46.4335 35.8694C45.6604 35.8033 45.0644 35.3892 45.1024 34.9446C45.1405 34.5001 45.7981 34.1933 46.5713 34.2594C47.3445 34.3256 47.9404 34.7396 47.9024 35.1842Z" fill="#C43D28"/>
<path d="M23.6693 39.7999C20.8936 41.2359 19.7554 45.2461 18.3632 47.3913C16.9797 49.5365 16.4106 50.0794 15.3336 50.8499C14.2566 51.6204 12.9082 51.6379 12.9082 51.6379C12.9082 51.6379 15.3073 57.662 24.5536 58.7215C33.7999 59.781 38.7558 56.6551 40.6296 55.3767C42.5034 54.1071 43.5541 52.067 43.5541 52.067C43.5541 52.067 39.2024 51.1038 37.9678 47.1024C36.7332 43.0921 34.9907 40.2727 32.2939 39.8261C29.5971 39.3796 28.2662 40.2464 28.2662 40.2464C28.2662 40.2464 26.4449 38.3551 23.6693 39.7999Z" fill="#1F1F39"/>
<path d="M36.9695 71.8467L39.5525 78.7464C41.8115 77.6782 43.8955 76.3122 45.7605 74.6924C45.3052 73.3615 44.9112 72.3545 44.9112 72.3545L36.9695 71.8467Z" fill="#F9D2DD"/>
<path d="M16.682 78.8778L19.3788 71.6628L11.4372 72.1707C11.4284 72.1794 10.9556 73.3965 10.4478 74.9201C12.3215 76.5049 14.4142 77.8446 16.682 78.8778Z" fill="#F9D2DD"/>
<path d="M36.9695 71.8467L37.8626 74.1933L45.743 74.6836C45.3139 73.449 44.9112 72.3545 44.9112 72.3545L36.9695 71.8467Z" fill="#F9ACC0"/>
<path d="M19.4576 71.4089L18.5645 73.7555L10.5615 74.5348C10.9906 73.309 11.5159 71.9168 11.5159 71.9168L19.4576 71.4089Z" fill="#F9ACC0"/>
<path d="M19.1337 61.0418C15.6664 62.6091 11.8575 67.4775 10.4565 73.1864H16.6558L15.6313 78.3699C19.3351 80.2612 23.5204 81.3294 27.9597 81.3294C32.4253 81.3294 36.6281 80.2524 40.3406 78.3524L39.2549 73.8606L45.5242 73.3002C45.5242 73.3089 44.0795 65.2535 37.4775 61.4446C32.1889 58.3888 24.0195 58.8441 19.1337 61.0418Z" fill="#3D5CFF"/>
<path d="M18.3457 67.3198L14.6594 73.1951L16.7521 73.1863L18.3457 67.3198Z" fill="#224BF4"/>
<path d="M39.2636 73.8606L41.1286 73.703L36.9695 66.5844L39.2636 73.8606Z" fill="#224BF4"/>
<path d="M16.7346 73.2826C16.6908 73.2739 16.6646 73.2214 16.6733 73.1776L18.4245 66.6806C18.4333 66.6369 18.4858 66.6106 18.5296 66.6194C18.5734 66.6281 18.5996 66.6806 18.5909 66.7244L16.8397 73.2214C16.8309 73.2564 16.7959 73.2826 16.7609 73.2826C16.7521 73.2826 16.7434 73.2826 16.7346 73.2826Z" fill="#1F1F39"/>
<path d="M39.0974 73.8605L36.8558 66.5843C36.8383 66.5405 36.8646 66.4968 36.9084 66.4792C36.9522 66.4617 36.9959 66.488 37.0134 66.5318L39.255 73.808C39.2725 73.8517 39.2462 73.8955 39.2024 73.913C39.1936 73.913 39.1849 73.9218 39.1762 73.9218C39.1411 73.9218 39.1061 73.8955 39.0974 73.8605Z" fill="#1F1F39"/>
<path d="M34.6842 48.2405C34.404 48.3544 34.1764 48.4857 34.0012 48.6171C34.0012 47.864 33.9224 47.1723 33.9224 47.1723L32.1888 47.1548L32.0837 46.1128L31.8736 47.1548L29.2205 47.1285L29.1067 46.1128L28.9228 47.1198L24.5448 47.076L24.3697 45.2548L24.1245 47.076L22.7936 47.0672C22.7936 47.0672 22.7761 47.794 22.7761 48.6083C22.601 48.4769 22.3733 48.3544 22.0931 48.2318C21.13 47.829 19.7903 48.3894 19.8516 50.053C19.8078 50.7798 20.1318 51.5678 20.6747 51.9093C21.454 52.4084 22.7236 52.3296 23.2052 52.277C23.2314 52.5222 23.354 53.0038 23.7568 53.748C24.3697 54.8863 25.5955 55.8495 25.5955 55.8495V57.9246L25.4029 60.7528C25.4029 60.7528 25.6043 60.8579 25.9545 60.9805C26.1296 61.0505 26.3748 61.1381 26.7338 61.2081C27.1979 61.3132 27.7582 61.392 28.3887 61.392C29.0191 61.4007 29.5795 61.3219 30.0436 61.2081C30.4026 61.1381 30.6477 61.0593 30.8228 60.9805C31.1731 60.8579 31.3745 60.7528 31.3745 60.7528L31.1818 57.9246V55.8582C31.1818 55.8582 32.4077 54.8951 33.0206 53.7568C33.4234 53.0125 33.5634 52.2683 33.5634 52.2683C33.5634 52.2683 35.3146 52.4171 36.0939 51.918C36.6455 51.5766 36.9695 50.7885 36.9257 50.0618C36.987 48.3982 35.6561 47.8378 34.6842 48.2405Z" fill="#F9D2DD"/>
<path d="M22.1019 48.2406C21.1388 47.8378 19.7991 48.3982 19.8604 50.0618C19.8166 50.7885 20.1406 51.5766 20.6834 51.9181C21.454 52.4084 22.6973 52.3384 23.1964 52.2946C23.1964 52.2946 23.0213 51.3139 22.89 50.342C22.7674 49.4576 22.7849 48.582 22.7849 48.6171C22.6098 48.4857 22.3821 48.3631 22.1019 48.2406Z" fill="#F9ACC0"/>
<path d="M34.0101 48.6171C34.0101 48.5908 34.0189 49.4314 33.9313 50.2544C33.8175 51.2526 33.5898 52.2683 33.5898 52.2683C33.7387 52.2771 35.3673 52.3909 36.1115 51.9181C36.6544 51.5766 36.9696 50.7885 36.9346 50.0618C36.9871 48.3982 35.6562 47.8378 34.6931 48.2406C34.4129 48.3544 34.1852 48.4857 34.0101 48.6171Z" fill="#F9ACC0"/>
<path d="M22.6974 51.5065C22.6974 51.5065 22.6886 51.0074 22.1457 50.1756C21.6029 49.3437 20.5697 49.0548 20.5609 49.0548C20.4996 49.0373 20.4734 48.976 20.4821 48.9235C20.4996 48.8622 20.5609 48.8359 20.6135 48.8447C20.6572 48.8534 21.7342 49.1599 22.3209 50.0617C22.9075 50.9549 22.9075 51.489 22.9075 51.5065C22.9075 51.559 22.8637 51.6115 22.8024 51.6115C22.7411 51.6115 22.6974 51.559 22.6974 51.5065Z" fill="#1F1F39"/>
<path d="M34.1238 51.3839C34.0713 51.3577 34.0451 51.2964 34.0713 51.2351C34.0889 51.2001 34.5179 50.3332 35.1658 49.6678C35.8225 48.9936 36.2778 48.906 36.2953 48.906C36.3566 48.8972 36.4092 48.9323 36.4179 48.9936C36.4267 49.0548 36.3917 49.1074 36.3304 49.1161C36.3304 49.1161 35.9188 49.1949 35.3147 49.8166C34.693 50.4558 34.264 51.3139 34.264 51.3226C34.2464 51.3664 34.2027 51.3927 34.1676 51.3927C34.1501 51.3927 34.1326 51.3927 34.1238 51.3839Z" fill="#1F1F39"/>
<path fill-rule="evenodd" clip-rule="evenodd" d="M32.0487 52.4172C31.2798 52.4172 30.6565 52.0252 30.6565 51.5416C30.6565 51.058 31.2798 50.666 32.0487 50.666C32.8176 50.666 33.4409 51.058 33.4409 51.5416C33.4409 52.0252 32.8176 52.4172 32.0487 52.4172Z" fill="#F9ACC0"/>
<path fill-rule="evenodd" clip-rule="evenodd" d="M24.6849 52.4172C23.916 52.4172 23.2927 52.0252 23.2927 51.5416C23.2927 51.058 23.916 50.666 24.6849 50.666C25.4538 50.666 26.0771 51.058 26.0771 51.5416C26.0771 52.0252 25.4538 52.4172 24.6849 52.4172Z" fill="#F9ACC0"/>
<path d="M26.6551 56.2085C26.2873 56.1647 25.9371 56.0509 25.5956 55.9108V57.9334L25.5081 59.1943C25.7445 59.1767 26.0071 59.1242 26.2961 59.0104C28.3187 58.2223 30.5077 56.1209 30.5077 56.1209C30.5077 56.1209 28.1436 56.3836 26.6551 56.2085Z" fill="#F9ACC0"/>
<path d="M24.9739 47.9341C25.1227 47.8202 25.3154 47.794 25.4905 47.8115C25.6656 47.829 25.8407 47.8815 25.9896 47.9953C26.1297 48.1092 26.226 48.2843 26.2085 48.4594C26.1472 48.3018 26.0334 48.188 25.9108 48.1179C25.7794 48.0479 25.6306 48.0129 25.4817 47.9953C25.3329 47.9866 25.184 47.9953 25.0527 48.0566C24.9214 48.1267 24.7987 48.2318 24.7112 48.3718C24.7287 48.2055 24.825 48.0391 24.9739 47.9341Z" fill="#1F1F39"/>
<path d="M30.8403 48.0567C30.9979 47.9691 31.1818 47.9429 31.3569 47.9779C31.4445 47.9867 31.532 48.0217 31.6108 48.0655C31.6896 48.1092 31.7597 48.1705 31.8122 48.2406C31.926 48.3807 31.9873 48.547 31.9873 48.7134C31.9085 48.5646 31.821 48.442 31.7072 48.3456C31.6546 48.2931 31.5933 48.2581 31.532 48.2318C31.497 48.2231 31.4707 48.2056 31.4357 48.1968C31.4007 48.188 31.3656 48.1793 31.3306 48.1705C31.1905 48.1443 31.0417 48.153 30.9016 48.1968C30.7527 48.2318 30.6214 48.3194 30.5076 48.4332C30.5601 48.2756 30.6827 48.1355 30.8403 48.0567Z" fill="#1F1F39"/>
<path d="M28.4236 50.053C28.3361 50.2632 28.2572 50.4733 28.231 50.6922C28.2222 50.7448 28.2222 50.7973 28.2222 50.8498C28.231 50.9024 28.231 50.9549 28.2485 50.9987C28.2748 51.095 28.3273 51.1738 28.4061 51.2263C28.4849 51.2789 28.59 51.3139 28.7038 51.3314C28.8176 51.3489 28.9314 51.3577 29.0453 51.3489C28.9402 51.3927 28.8176 51.419 28.695 51.419C28.5724 51.419 28.4499 51.4015 28.3273 51.3402C28.2047 51.2789 28.1172 51.165 28.0734 51.0337C28.0471 50.9724 28.0471 50.9024 28.0383 50.8411C28.0383 50.7798 28.0383 50.7097 28.0471 50.6484C28.0821 50.4033 28.1785 50.1844 28.2923 49.9742C28.4061 49.7816 28.5374 49.589 28.7038 49.4226C28.6075 49.6328 28.5112 49.8429 28.4236 50.053Z" fill="#1F1F39"/>
<path fill-rule="evenodd" clip-rule="evenodd" d="M26.2152 50.0719C26.1654 50.4847 25.8525 50.7866 25.5165 50.746C25.1804 50.7055 24.9483 50.3379 24.9982 49.925C25.048 49.5121 25.3608 49.2103 25.6969 49.2508C26.033 49.2914 26.265 49.659 26.2152 50.0719Z" fill="#1F1F39"/>
<path fill-rule="evenodd" clip-rule="evenodd" d="M31.8263 50.1882C31.7764 50.6011 31.4636 50.9029 31.1275 50.8624C30.7915 50.8218 30.5594 50.4542 30.6093 50.0413C30.6591 49.6285 30.9719 49.3266 31.308 49.3672C31.644 49.4077 31.8761 49.7753 31.8263 50.1882Z" fill="#1F1F39"/>
<path d="M28.2048 52.1807C28.2748 52.1807 28.3449 52.1807 28.4062 52.1807C28.4675 52.1807 28.5375 52.1807 28.5901 52.1807C28.7126 52.1807 28.844 52.1807 29.0103 52.1807C29.1767 52.1807 29.3693 52.1807 29.632 52.1895C29.6232 52.3295 29.5795 52.4434 29.5182 52.5397C29.4569 52.6448 29.3781 52.7323 29.2818 52.8111C29.0979 52.96 28.8527 53.0563 28.5901 53.0563C28.4587 53.0563 28.3274 53.03 28.2048 52.9862C28.0822 52.9425 27.9684 52.8724 27.872 52.7849C27.7757 52.6973 27.7057 52.5922 27.6531 52.4697C27.6181 52.3558 27.5919 52.2245 27.6269 52.0931C27.8808 52.1544 28.0559 52.1719 28.2048 52.1807Z" fill="#DA5742"/>
<path d="M25.1841 55.8233C25.1491 55.7883 25.1403 55.727 25.1754 55.6832C25.2104 55.6394 25.2717 55.6394 25.3155 55.6744C25.727 56.0509 27.1455 56.3136 28.4676 56.2523C28.5202 56.2523 28.5639 56.2873 28.5639 56.3399C28.5639 56.3924 28.5289 56.4362 28.4763 56.4362C28.345 56.4625 28.2137 56.4625 28.0823 56.4625C26.8215 56.4625 25.5957 56.1998 25.1841 55.8233Z" fill="#1F1F39"/>
<path opacity="0.55" d="M35.3059 64.8595C34.6404 64.5705 33.8174 63.87 33.6598 62.1714C33.5897 61.3746 33.5985 60.6303 33.7035 59.9649C33.7211 59.8686 33.8086 59.8073 33.9049 59.816C34.0012 59.8335 34.0625 59.9211 34.0538 60.0174C33.9575 60.6566 33.94 61.3746 34.01 62.1363C34.1238 63.3622 34.6054 64.1677 35.446 64.5355C36.6193 65.0433 38.4931 64.588 40.0078 63.4235C40.0866 63.3622 40.1917 63.3797 40.253 63.4585C40.3143 63.5373 40.2968 63.6424 40.218 63.7037C38.9309 64.6931 37.6175 65.0959 36.5668 65.0959C36.0764 65.0959 35.6474 65.0083 35.3059 64.8595Z" fill="#EAEAFF"/>
<path opacity="0.55" d="M44.1233 70.1218L43.9132 70.0255C40.4458 68.4144 37.1711 66.8909 36.5581 63.1433C36.4356 62.3728 36.4268 61.6548 36.5406 61.0069C36.5581 60.9105 36.6457 60.8492 36.742 60.8668C36.8383 60.8843 36.8996 60.9718 36.8821 61.0681C36.777 61.6811 36.7858 62.364 36.9084 63.0908C37.495 66.6544 40.6822 68.143 44.0707 69.7103L44.2809 69.8066C44.3684 69.8504 44.4035 69.9554 44.3684 70.043C44.3159 70.0955 44.2546 70.1393 44.1933 70.1393C44.1671 70.1393 44.1408 70.1306 44.1233 70.1218Z" fill="#EAEAFF"/>
<path opacity="0.55" fill-rule="evenodd" clip-rule="evenodd" d="M39.1674 78.6326C39.5352 77.363 39.2812 75.997 38.4582 74.7975C37.4863 73.3878 35.7526 72.2495 33.441 71.5052C30.788 70.6471 28.8003 70.8923 27.6008 71.2425C26.9003 71.4527 26.2874 71.7504 25.7883 72.1269C26.41 72.1882 27.0492 72.232 27.6796 72.2757C31.0857 72.5209 34.2991 72.7573 35.0609 75.0426C35.3848 76.0058 35.166 76.8901 34.4567 77.5293C33.765 78.151 32.653 78.51 31.3221 78.5363C29.9036 78.5625 28.3625 78.2123 26.8565 77.5381C25.727 77.0302 24.9302 76.3823 24.5012 75.6205C24.0984 74.9113 24.0371 74.1495 24.3261 73.414C24.4662 73.0463 24.685 72.7048 24.974 72.3896C22.9951 72.1444 21.2089 71.6978 20.1582 70.5858C19.4315 69.8241 19.1513 68.8171 19.3177 67.6614C18.6084 67.6438 17.8466 67.5913 17.0236 67.4862C15.5789 67.3024 14.5457 66.9696 13.4512 66.3392L13.6263 66.0327C14.5106 66.5406 15.43 66.9259 17.0586 67.136C17.8904 67.2411 18.6697 67.2936 19.3789 67.3111C19.6329 66.1816 20.2808 65.0083 21.2177 64.0101C22.1108 63.047 23.1703 62.364 24.2035 62.0663C25.3855 61.7248 26.4625 61.9174 27.3118 62.6267C27.8897 63.1083 28.0473 63.7825 27.7409 64.5004C27.3118 65.4986 26.0773 66.4005 24.3523 66.9784C23.3279 67.3199 21.7868 67.6701 19.7029 67.6701C19.6942 67.6701 19.6854 67.6701 19.6766 67.6701C19.519 68.6595 19.7117 69.6139 20.4034 70.3494C21.4366 71.4352 23.2666 71.8555 25.2892 72.0831C26.8828 70.6822 29.9649 70.0255 33.5548 71.1813C35.9365 71.9518 37.7315 73.1338 38.7559 74.6048C39.6228 75.892 39.8942 77.3542 39.5002 78.7289L39.1674 78.6326ZM24.6413 73.5366C24.1072 74.9288 24.9828 76.3035 26.9966 77.2229C29.4045 78.3174 32.653 78.6851 34.2115 77.2754C34.8244 76.7238 34.9996 75.997 34.7194 75.1565C34.0277 73.0901 30.928 72.8624 27.6446 72.626C26.8915 72.5822 26.1386 72.5209 25.4031 72.4421C25.0528 72.7748 24.7901 73.1426 24.6413 73.5366ZM21.4541 64.2553C20.6223 65.1396 19.9831 66.2429 19.7292 67.3199C21.743 67.3111 23.2316 66.9871 24.221 66.6457C25.8234 66.1028 27.0141 65.2535 27.3994 64.3604C27.6446 63.7912 27.5308 63.2834 27.0667 62.8981C26.5939 62.5041 25.9634 62.2677 25.2367 62.2677C24.1159 62.2677 22.785 62.8368 21.4541 64.2553Z" fill="#EAEAFF"/>
<path d="M75.0895 48.4473C75.0895 48.4473 74.8416 48.2494 74.3043 48.1834C73.7671 48.1175 73.4365 48.3153 73.4282 48.3153C73.3703 48.3483 73.296 48.3318 73.2546 48.2741C73.2216 48.2164 73.2381 48.1422 73.296 48.1092C73.3125 48.101 73.7092 47.8702 74.3291 47.9444C74.949 48.0186 75.23 48.2576 75.2466 48.2659C75.2962 48.3071 75.3044 48.3895 75.2631 48.439C75.2466 48.4555 75.2135 48.472 75.1722 48.472C75.1474 48.472 75.1143 48.4637 75.0895 48.4473Z" fill="#1F1F39"/>
<path d="M68.5765 48.4307C68.5352 48.3812 68.5434 48.2988 68.593 48.2576C68.6013 48.2493 68.8906 48.0103 69.5105 47.9361C70.1304 47.8619 70.5272 48.0927 70.5437 48.1009C70.6015 48.1339 70.6181 48.2081 70.585 48.2741C70.552 48.3318 70.4776 48.3483 70.4114 48.3153C70.4032 48.3153 70.0643 48.1174 69.5353 48.1834C68.9981 48.2493 68.7501 48.4472 68.7501 48.4472C68.7253 48.4637 68.7005 48.4719 68.6757 48.4719C68.6426 48.4719 68.6013 48.4554 68.5765 48.4307Z" fill="#1F1F39"/>
<path d="M79.7017 72.4788L82.1399 78.9751C84.2724 77.9693 86.2395 76.6833 88 75.1581C87.5702 73.905 87.1983 72.9569 87.1983 72.9569L79.7017 72.4788Z" fill="#F9D2DD"/>
<path d="M60.5509 79.0988L63.0966 72.3057L55.6 72.7838C55.5917 72.7921 55.1454 73.938 54.666 75.3725C56.4348 76.8647 58.4102 78.126 60.5509 79.0988Z" fill="#F9D2DD"/>
<path d="M79.7017 72.4788L80.5447 74.6882L87.9835 75.1499C87.5785 73.9874 87.1983 72.9569 87.1983 72.9569L79.7017 72.4788Z" fill="#F9ACC0"/>
<path d="M63.171 72.0667L62.3279 74.2761L54.7734 75.0098C55.1784 73.8556 55.6744 72.5448 55.6744 72.5448L63.171 72.0667Z" fill="#F9ACC0"/>
<path d="M62.865 62.3055C59.5919 63.7812 55.9965 68.3649 54.6741 73.7401H60.5259L59.5589 78.6206C63.0551 80.4013 67.0059 81.4071 71.1964 81.4071C75.4117 81.4071 79.3791 80.3931 82.8836 78.6041L81.8587 74.3749L87.7766 73.8472C87.7766 73.8555 86.4129 66.2709 80.1808 62.6847C75.1886 59.8075 67.477 60.2362 62.865 62.3055Z" fill="#3D5CFF"/>
<path d="M62.1213 68.2166L58.6416 73.7484L60.617 73.7401L62.1213 68.2166Z" fill="#224BF4"/>
<path d="M81.8672 74.375L83.6277 74.2266L79.7017 67.5242L81.8672 74.375Z" fill="#224BF4"/>
<g opacity="0.4513">
<g opacity="0.4513">
<path opacity="0.4513" fill-rule="evenodd" clip-rule="evenodd" d="M68.6012 73.3774C67.9622 73.3774 67.4441 72.8607 67.4441 72.2233C67.4441 71.5858 67.9622 71.0691 68.6012 71.0691C69.2403 71.0691 69.7584 71.5858 69.7584 72.2233C69.7584 72.8607 69.2403 73.3774 68.6012 73.3774Z" fill="#F9EDC7"/>
<path opacity="0.4513" fill-rule="evenodd" clip-rule="evenodd" d="M74.015 71.1927C73.376 71.1927 72.8579 70.676 72.8579 70.0386C72.8579 69.4011 73.376 68.8844 74.015 68.8844C74.6541 68.8844 75.1722 69.4011 75.1722 70.0386C75.1722 70.676 74.6541 71.1927 74.015 71.1927Z" fill="#F9EDC7"/>
<path opacity="0.4513" fill-rule="evenodd" clip-rule="evenodd" d="M64.5927 67.318C63.9536 67.318 63.4355 66.8013 63.4355 66.1638C63.4355 65.5264 63.9536 65.0096 64.5927 65.0096C65.2318 65.0096 65.7498 65.5264 65.7498 66.1638C65.7498 66.8013 65.2318 67.318 64.5927 67.318Z" fill="#F9EDC7"/>
<path opacity="0.4513" fill-rule="evenodd" clip-rule="evenodd" d="M64.5927 78.6949C63.9536 78.6949 63.4355 78.1782 63.4355 77.5408C63.4355 76.9033 63.9536 76.3866 64.5927 76.3866C65.2318 76.3866 65.7498 76.9033 65.7498 77.5408C65.7498 78.1782 65.2318 78.6949 64.5927 78.6949Z" fill="#F9EDC7"/>
<path opacity="0.4513" fill-rule="evenodd" clip-rule="evenodd" d="M74.7589 79.8491C74.1199 79.8491 73.6018 79.3324 73.6018 78.6949C73.6018 78.0575 74.1199 77.5408 74.7589 77.5408C75.398 77.5408 75.9161 78.0575 75.9161 78.6949C75.9161 79.3324 75.398 79.8491 74.7589 79.8491Z" fill="#F9EDC7"/>
<path opacity="0.4513" fill-rule="evenodd" clip-rule="evenodd" d="M84.0163 74.985C83.3772 74.985 82.8591 74.4682 82.8591 73.8308C82.8591 73.1934 83.3772 72.6766 84.0163 72.6766C84.6554 72.6766 85.1734 73.1934 85.1734 73.8308C85.1734 74.4682 84.6554 74.985 84.0163 74.985Z" fill="#F9EDC7"/>
<path opacity="0.4513" fill-rule="evenodd" clip-rule="evenodd" d="M56.9059 70.6157C56.2668 70.6157 55.7488 70.099 55.7488 69.4615C55.7488 68.8241 56.2668 68.3074 56.9059 68.3074C57.545 68.3074 58.0631 68.8241 58.0631 69.4615C58.0631 70.099 57.545 70.6157 56.9059 70.6157Z" fill="#F9EDC7"/>
<path opacity="0.4513" fill-rule="evenodd" clip-rule="evenodd" d="M84.4294 68.225C83.7903 68.225 83.2722 67.7082 83.2722 67.0708C83.2722 66.4334 83.7903 65.9166 84.4294 65.9166C85.0684 65.9166 85.5865 66.4334 85.5865 67.0708C85.5865 67.7082 85.0684 68.225 84.4294 68.225Z" fill="#F9EDC7"/>
<path opacity="0.4513" fill-rule="evenodd" clip-rule="evenodd" d="M77.3212 63.2784C76.6821 63.2784 76.1641 62.7617 76.1641 62.1243C76.1641 61.4868 76.6821 60.9701 77.3212 60.9701C77.9603 60.9701 78.4783 61.4868 78.4783 62.1243C78.4783 62.7617 77.9603 63.2784 77.3212 63.2784Z" fill="#F9EDC7"/>
</g>
</g>
<path d="M60.6005 73.8309C60.5591 73.8226 60.5343 73.7732 60.5426 73.732L62.1957 67.6148C62.204 67.5736 62.2535 67.5489 62.2949 67.5571C62.3362 67.5654 62.361 67.6148 62.3527 67.6561L60.6996 73.7732C60.6914 73.8062 60.6583 73.8309 60.6253 73.8309C60.617 73.8309 60.6087 73.8309 60.6005 73.8309Z" fill="#1F1F39"/>
<path d="M81.71 74.3749L79.594 67.524C79.5775 67.4828 79.6023 67.4416 79.6436 67.4251C79.685 67.4086 79.7263 67.4333 79.7428 67.4746L81.867 74.3254C81.8835 74.3666 81.8587 74.4078 81.8174 74.4243C81.8009 74.4243 81.7926 74.4326 81.7844 74.4326C81.7513 74.4326 81.7182 74.4078 81.71 74.3749Z" fill="#1F1F39"/>
<path d="M63.3529 43.4101C64.4274 41.2666 65.9152 41.1017 65.9152 41.1017C65.9152 41.1017 67.3203 37.5568 72.0315 37.5568C76.7428 37.5568 77.8173 42.1735 77.8173 42.1735C77.8173 42.1735 79.9662 42.833 79.8836 44.9765C79.8009 47.1199 77.8007 52.0416 77.8007 52.0416L64.5927 49.4283C64.5927 49.4283 62.2785 45.5535 63.3529 43.4101Z" fill="white"/>
<path d="M63.5927 48.571C62.2371 49.1893 62.1049 51.0524 63.1215 52.2231C64.1382 53.3938 66.7005 53.1217 66.7005 53.1217L66.0144 48.876C66.0144 48.876 64.9482 47.9527 63.5927 48.571Z" fill="#F9ACC0"/>
<path d="M79.743 48.571C81.0903 49.1893 81.2308 51.0524 80.2141 52.2231C79.1975 53.3938 76.6353 53.1217 76.6353 53.1217L77.3213 48.876C77.3213 48.876 78.3875 47.9527 79.743 48.571Z" fill="#F9ACC0"/>
<path d="M66.2291 52.2562C66.2291 52.2562 66.2209 51.7863 65.7084 51.0031C65.196 50.2199 64.2207 49.9478 64.2124 49.9478C64.1545 49.9313 64.1298 49.8736 64.138 49.8242C64.1546 49.7664 64.2124 49.7417 64.262 49.75C64.3033 49.7582 65.32 50.0467 65.8737 50.8959C66.4275 51.7368 66.4275 52.2397 66.4275 52.2562C66.4275 52.3056 66.3862 52.3551 66.3283 52.3551C66.2705 52.3551 66.2291 52.3056 66.2291 52.2562Z" fill="#1F1F39"/>
<path d="M77.4287 52.1407C77.3791 52.116 77.3543 52.0583 77.3791 52.0006C77.3956 51.9676 77.8006 51.1514 78.4123 50.5249C79.0322 49.8901 79.462 49.8077 79.4785 49.8077C79.5364 49.7994 79.586 49.8324 79.5942 49.8901C79.6025 49.9478 79.5694 49.9973 79.5116 50.0055C79.5116 50.0055 79.1231 50.0797 78.5528 50.665C77.9659 51.2669 77.5609 52.0748 77.5609 52.083C77.5444 52.1242 77.5031 52.149 77.47 52.149C77.4535 52.149 77.437 52.149 77.4287 52.1407Z" fill="#1F1F39"/>
<path d="M66.4276 53.1135C67.1053 55.5208 68.8576 56.8976 68.8576 56.8976L68.5187 61.5802C68.5187 61.5802 68.9898 62.6107 71.486 62.6107C74.1887 62.6107 74.9326 61.5802 74.9326 61.5802L74.8004 56.9718C74.8004 56.9718 76.4865 56.6997 77.2965 53.6659C78.1065 50.6403 77.7015 47.9527 77.7015 47.9527C77.7015 47.9527 73.7176 48.571 72.3704 46.9222C71.0231 45.2734 69.6676 43.6163 67.7087 44.4407C65.7498 45.2651 66.1631 47.5323 66.1631 47.5323C66.1631 47.5323 65.7498 50.7062 66.4276 53.1135Z" fill="#F9D2DD"/>
<path fill-rule="evenodd" clip-rule="evenodd" d="M69.7337 50.9123C69.3959 50.9123 69.1221 50.5875 69.1221 50.1868C69.1221 49.7861 69.3959 49.4613 69.7337 49.4613C70.0715 49.4613 70.3453 49.7861 70.3453 50.1868C70.3453 50.5875 70.0715 50.9123 69.7337 50.9123Z" fill="#1F1F39"/>
<path fill-rule="evenodd" clip-rule="evenodd" d="M74.1888 50.9123C73.851 50.9123 73.5771 50.5875 73.5771 50.1868C73.5771 49.7861 73.851 49.4613 74.1888 49.4613C74.5266 49.4613 74.8004 49.7861 74.8004 50.1868C74.8004 50.5875 74.5266 50.9123 74.1888 50.9123Z" fill="#1F1F39"/>
<path d="M71.4941 51.1843C71.7008 51.5965 72.238 51.3904 72.238 51.3904C72.238 51.3904 71.7008 51.2503 71.7008 50.8381C71.6925 50.4259 71.6594 49.0161 71.6594 49.0161C71.6594 49.0161 71.2875 50.7721 71.4941 51.1843Z" fill="#1F1F39"/>
<path d="M68.6675 60.3106C68.7088 60.3024 73.139 58.5876 73.9738 57.8044C73.9738 57.3263 73.9903 56.9718 73.9903 56.9718C73.9903 56.9718 73.1803 57.4499 71.2215 57.384C70.3123 57.351 69.3287 57.1779 68.8576 56.8976C68.8659 57.318 68.7088 60.1458 68.6675 60.3106Z" fill="#F9ACC0"/>
<path fill-rule="evenodd" clip-rule="evenodd" d="M75.3044 52.7013C74.5786 52.7013 73.9902 52.3322 73.9902 51.8769C73.9902 51.4216 74.5786 51.0525 75.3044 51.0525C76.0302 51.0525 76.6186 51.4216 76.6186 51.8769C76.6186 52.3322 76.0302 52.7013 75.3044 52.7013Z" fill="#F9ACC0"/>
<path fill-rule="evenodd" clip-rule="evenodd" d="M68.3535 52.7013C67.6277 52.7013 67.0393 52.3322 67.0393 51.8769C67.0393 51.4216 67.6277 51.0525 68.3535 51.0525C69.0793 51.0525 69.6677 51.4216 69.6677 51.8769C69.6677 52.3322 69.0793 52.7013 68.3535 52.7013Z" fill="#F9ACC0"/>
<path d="M69.684 53.7401C72.6678 54.482 74.8581 53.3279 75.8251 52.2479C76.7921 51.1679 76.8252 47.6971 76.8252 47.6971L77.8336 47.3674C77.8336 47.3674 78.1063 53.8225 76.7922 55.562C75.478 57.3015 73.61 57.8374 71.585 57.7549C70.1303 57.689 68.6425 57.2191 67.3201 55.4796C66.0059 53.7401 65.5017 47.6971 65.5017 47.6971L66.1629 46.543C66.1629 46.543 66.7002 52.9899 69.684 53.7401Z" fill="white"/>
<path d="M71.9487 52.4786C72.2793 52.3962 72.9405 51.9015 72.9405 51.9015C72.9405 51.9015 73.1058 51.8191 73.1885 51.9015C73.2711 51.984 72.7421 52.9238 72.2793 53.0557C71.7007 53.2206 71.2874 52.9732 71.0395 52.6435C70.7915 52.3137 71.1221 52.3962 71.1221 52.3962C71.1221 52.3962 71.6181 52.561 71.9487 52.4786Z" fill="#F95368"/>
</svg>
