<svg width="20" height="19" viewBox="0 0 20 19" fill="none" xmlns="http://www.w3.org/2000/svg">
<path fill-rule="evenodd" clip-rule="evenodd" d="M0.833252 9.64665C0.833252 4.58403 4.93731 0.47998 9.99992 0.47998C15.0625 0.47998 19.1666 4.58403 19.1666 9.64665C19.1666 14.7093 15.0625 18.8133 9.99992 18.8133H1.66665C1.20641 18.8133 0.833252 18.4401 0.833252 17.9799V9.64665ZM4.99992 7.14665C4.99992 7.60688 5.37301 7.97998 5.83325 7.97998H13.3333C13.7935 7.97998 14.1666 7.60688 14.1666 7.14665C14.1666 6.68641 13.7935 6.31331 13.3333 6.31331H5.83325C5.37301 6.31331 4.99992 6.68641 4.99992 7.14665ZM4.99992 10.48C4.99992 10.9402 5.37301 11.3133 5.83325 11.3133H13.3333C13.7935 11.3133 14.1666 10.9402 14.1666 10.48C14.1666 10.0197 13.7935 9.64665 13.3333 9.64665H5.83325C5.37301 9.64665 4.99992 10.0197 4.99992 10.48ZM5.83325 12.98H9.99992C10.4602 12.98 10.8333 13.3531 10.8333 13.8133C10.8333 14.2735 10.4602 14.6466 9.99992 14.6466H5.83325C5.37301 14.6466 4.99992 14.2735 4.99992 13.8133C4.99992 13.3531 5.37301 12.98 5.83325 12.98Z" fill="#3D5CFF"/>
</svg>
