<svg width="149" height="103" viewBox="0 0 149 103" fill="none" xmlns="http://www.w3.org/2000/svg">
<path d="M51.3083 26.9367C59.8823 26.9367 63.2098 17.9426 56.3361 13.7859C51.9884 11.1606 48.2722 14.4422 48.2722 14.4422C48.2722 14.4422 48.2722 6.71214 39.2124 6.858C30.1284 7.00385 31.1728 16.7029 31.1728 16.7029C31.1728 16.7029 26.4608 16.8488 25.9021 21.0541C25.2706 25.697 31.0756 26.9367 34.1118 26.9367C39.5282 26.9367 47.7135 26.9367 51.3083 26.9367Z" fill="#EAEAFF"/>
<path d="M93.8385 23.1694C94.2999 23.8257 94.8343 24.4334 95.4172 24.9682C95.7087 25.2356 96.0244 25.4787 96.3402 25.6732C96.656 25.8919 96.996 26.0621 97.3603 26.2079C97.7247 26.3295 98.089 26.451 98.4533 26.4753C98.8177 26.524 99.2063 26.524 99.5706 26.4753C100.324 26.4024 101.028 26.135 101.465 25.6245C101.902 25.1384 102.097 24.4091 102 23.7042C101.927 22.9992 101.611 22.2943 101.125 21.8081C100.882 21.565 100.615 21.3949 100.324 21.3463C100.178 21.322 100.032 21.322 99.8864 21.322C99.7407 21.3463 99.5949 21.3949 99.4735 21.4678C99.352 21.5407 99.2306 21.638 99.1334 21.7595C99.0363 21.881 98.9391 22.0026 98.8663 22.1727C98.7205 22.4645 98.6477 22.8291 98.5991 23.1937C98.5262 23.923 98.6477 24.7008 98.8905 25.4301C99.012 25.7947 99.1577 26.1593 99.3277 26.4996C99.4978 26.84 99.6921 27.1803 99.9107 27.5206C100.348 28.1769 100.858 28.7846 101.417 29.368C101.684 29.6597 101.975 29.9514 102.267 30.2431C102.558 30.5105 102.85 30.8022 103.165 31.0696C103.773 31.6044 104.404 32.0906 105.108 32.5281C105.449 32.7469 105.813 32.9414 106.177 33.1115C106.542 33.2817 106.93 33.4519 107.319 33.5248C106.493 33.4519 105.716 33.1358 104.987 32.7712C104.258 32.4066 103.554 31.9447 102.898 31.4586C102.242 30.9724 101.611 30.4133 101.004 29.8542C100.396 29.2951 99.8378 28.6631 99.3277 27.9825C98.8177 27.3018 98.4048 26.5483 98.1133 25.7461C97.8218 24.9439 97.6518 24.0688 97.7004 23.1694C97.7247 22.7075 97.8218 22.27 98.0404 21.8324C98.1376 21.6137 98.2833 21.3949 98.4291 21.2004C98.5991 21.0059 98.7934 20.8358 99.012 20.7142C99.2306 20.5927 99.4978 20.4955 99.7649 20.4469C100.032 20.4225 100.275 20.3982 100.542 20.4712C101.077 20.5684 101.489 20.8601 101.829 21.2004C102.485 21.9054 102.85 22.7805 102.947 23.6799C102.995 24.1417 102.971 24.6036 102.825 25.0655C102.704 25.5273 102.461 25.9649 102.121 26.3052C101.781 26.6698 101.368 26.9129 100.955 27.083C100.518 27.2532 100.081 27.3504 99.6435 27.3748C98.7691 27.4477 97.8704 27.3018 97.0689 26.9615C96.2673 26.5969 95.563 26.0864 94.98 25.4787C94.3728 24.871 93.887 24.1903 93.4498 23.4854C92.5997 22.0026 91.9439 20.4712 91.531 18.8911C92.1382 20.3982 92.8912 21.8567 93.8385 23.1694Z" fill="#EAEAFF"/>
<path d="M98.0889 7.70911L71.3711 0.659668L92.9882 16.4601L98.0889 7.70911Z" fill="#DADAF7"/>
<path d="M96.1458 10.8692L85.7015 15.4878L71.3711 0.659668L96.1458 10.8692Z" fill="#F4F3FD"/>
<path d="M109.262 3.33359L71.3711 0.659668L98.0889 7.70911L109.262 3.33359Z" fill="#F4F3FD"/>
<path opacity="0.9991" d="M15.0208 102.512H136.708C136.708 68.8937 109.48 41.6196 75.8644 41.6196C42.2729 41.6196 15.0208 68.8937 15.0208 102.512Z" fill="#F4F3FD"/>
<path d="M108.266 44.4876C109.383 44.0986 110.5 43.7826 111.642 43.4666C112.783 43.1749 113.925 42.9075 115.091 42.6888C116.257 42.47 117.447 42.3241 118.637 42.2755C119.851 42.2269 121.066 42.2512 122.305 42.5186C122.912 42.6401 123.543 42.8346 124.151 43.102C124.758 43.3694 125.341 43.734 125.826 44.2202C126.337 44.682 126.749 45.2898 127.041 45.9218C127.332 46.5538 127.478 47.2344 127.551 47.8908C127.672 49.2277 127.478 50.4918 127.187 51.7072C126.871 52.9226 126.434 54.0651 125.948 55.159C124.952 57.371 123.738 59.4373 122.426 61.4062C119.803 65.3685 116.767 69.0148 113.561 72.4666C111.958 74.1925 110.282 75.8697 108.557 77.4741C108.144 77.8873 107.683 78.2763 107.221 78.6652L105.861 79.832C105.642 80.0265 105.4 80.1966 105.157 80.3911L104.452 80.9259L103.044 82.0198C102.096 82.7247 101.125 83.381 100.153 84.086C99.6674 84.4263 99.1816 84.7423 98.6958 85.0826L97.2385 86.055L96.5098 86.5411L95.7568 87.003L94.2752 87.951C93.7652 88.267 93.2794 88.583 92.7693 88.8747L91.2634 89.7742L89.7575 90.6736L88.2273 91.5487C87.2072 92.1321 86.187 92.7155 85.1669 93.2746C83.1023 94.3927 81.0378 95.4866 78.9732 96.5562C74.7955 98.671 70.5936 100.713 66.2944 102.56C70.3507 100.227 74.3826 97.8932 78.3903 95.5109C80.382 94.3198 82.398 93.1287 84.3654 91.889L87.3286 90.0415L88.8102 89.1178L90.2676 88.1698C94.1538 85.6174 98.04 83.065 101.659 80.2209C102.533 79.4917 103.456 78.7867 104.331 78.0575L105.618 76.915C106.031 76.5261 106.468 76.1614 106.881 75.7482C108.557 74.1438 110.184 72.5152 111.763 70.8136C113.342 69.1363 114.872 67.3861 116.33 65.6116C117.811 63.8371 119.196 62.0139 120.507 60.1179C121.819 58.2461 123.033 56.2772 124.005 54.2596C124.491 53.2386 124.904 52.2177 125.219 51.1724C125.535 50.1271 125.729 49.0576 125.681 48.0609C125.632 47.0643 125.292 46.1649 124.636 45.4842C123.981 44.8036 123.009 44.366 121.965 44.0743C120.92 43.8069 119.803 43.7097 118.686 43.6854C117.568 43.6611 116.427 43.7583 115.285 43.8799C113.002 44.123 110.719 44.5848 108.46 45.1439C107.343 45.4113 106.201 45.7273 105.084 46.0433C103.966 46.3593 102.849 46.724 101.732 47.0886C103.845 46.0919 106.031 45.2411 108.266 44.4876Z" fill="#DADAF7"/>
<path fill-rule="evenodd" clip-rule="evenodd" d="M96.6315 68.7234C93.1438 68.7234 90.3164 65.8937 90.3164 62.4032C90.3164 58.9127 93.1438 56.083 96.6315 56.083C100.119 56.083 102.947 58.9127 102.947 62.4032C102.947 65.8937 100.119 68.7234 96.6315 68.7234Z" fill="#EAEAFF"/>
<path fill-rule="evenodd" clip-rule="evenodd" d="M68.092 81.6065C61.9884 81.6065 57.0405 76.6546 57.0405 70.5462C57.0405 64.4377 61.9884 59.4858 68.092 59.4858C74.1955 59.4858 79.1434 64.4377 79.1434 70.5462C79.1434 76.6546 74.1955 81.6065 68.092 81.6065Z" fill="#EAEAFF"/>
<path d="M27.6023 78.0332L40.2325 82.8706L31.9743 102.317L27.6023 102.342L21.5786 93.0801L27.6023 78.0332Z" fill="#F9ACC0"/>
<path d="M49.8994 45.3381C51.794 46.2132 50.4581 48.2064 48.6364 50.297C46.9119 52.266 36.5406 72.8066 36.5406 72.8066C36.5406 72.8066 37.1478 97.042 30.5655 101.32C23.9832 105.599 10.4786 99.2298 15.2878 83.405C20.097 67.5802 37.4392 41.3758 43.22 39.2366C49.0008 37.0975 50.5552 39.2366 50.1666 41.8376C49.9966 43.0288 48.9036 43.3448 47.3491 45.1193C45.5031 47.1855 43.9729 49.2274 43.9729 49.2274C43.9729 49.2274 47.9806 44.463 49.8994 45.3381Z" fill="#F9D2DD"/>
<path d="M42.3701 46.6509C42.3215 46.6023 42.3215 46.5293 42.3458 46.4807C42.3701 46.4564 45.3333 42.8588 46.9121 41.4732C48.5152 40.039 49.9239 39.8202 49.9968 39.7959C50.0697 39.7959 50.1182 39.8202 50.1425 39.8931C50.1425 39.9661 50.1182 40.0147 50.0454 40.039C50.0211 40.039 48.6366 40.2821 47.0821 41.6433C45.5033 43.0289 42.5644 46.6023 42.5401 46.6266C42.5158 46.6509 42.4915 46.6752 42.4429 46.6752C42.4187 46.6752 42.3944 46.6752 42.3701 46.6509Z" fill="white"/>
<path d="M39.8438 45.1682C39.7952 45.1196 39.7952 45.0466 39.8438 44.998C39.9653 44.8522 42.9285 41.4733 44.4101 40.3794C46.4504 38.8723 48.1506 38.3375 48.1749 38.3375C48.2478 38.3132 48.2963 38.3618 48.3206 38.4104C48.3449 38.4834 48.2963 38.532 48.2478 38.5563C48.2235 38.5563 46.5718 39.0668 44.5559 40.5496C43.0985 41.6192 40.0624 45.1196 40.0381 45.1439C39.9895 45.1682 39.9653 45.1925 39.9167 45.1925C39.8924 45.1925 39.8681 45.1925 39.8438 45.1682Z" fill="white"/>
<path d="M49.7539 65.0769H59.9552L59.4695 55.8397L49.9968 55.3535L49.7539 65.0769Z" fill="#F9D2DD"/>
<path d="M59.6151 58.2949L59.5908 58.2463L49.9724 56.3745L49.8752 60.6771L59.6151 58.2949Z" fill="#F9ACC0"/>
<path d="M65.5417 39.5531C62.1412 33.9622 48.0537 38.5808 45.3819 41.984C42.7101 45.3872 46.5478 54.6 48.2966 56.569C51.9399 60.7015 59.9552 58.5137 59.9552 58.5137L65.0559 47.818C65.0559 47.818 67.9706 43.564 65.5417 39.5531Z" fill="#1F1F39"/>
<path d="M62.8699 48.0611C62.3599 48.1341 60.7082 47.9153 60.3196 47.9153C61.1697 50.0058 59.9553 51.4643 59.9553 51.4643C59.9553 51.4643 60.0038 50.4677 59.4695 49.5196C58.255 47.3319 53.883 48.7904 55.3404 52.1936C56.2876 54.4056 58.9837 53.6521 58.9837 53.6521C58.9837 53.6521 59.2266 54.6244 59.2266 56.0829C59.2266 57.7845 58.7408 58.5137 58.7408 58.5137C58.7408 58.5137 63.3557 58.7568 64.5702 55.1106C65.7846 51.4643 65.396 47.186 65.396 47.186C65.396 47.186 64.813 47.8181 62.8699 48.0611Z" fill="#F9D2DD"/>
<path d="M49.8994 45.3381C51.794 46.2132 50.4581 48.2064 48.6364 50.297C46.9119 52.266 36.5406 72.8066 36.5406 72.8066C36.5406 72.8066 37.1478 97.042 30.5655 101.32C23.9832 105.599 10.4786 99.2298 15.2878 83.405C20.097 67.5802 37.4392 41.3758 43.22 39.2366C49.0008 37.0975 50.5552 39.2366 50.1666 41.8376C49.9966 43.0288 48.9036 43.3448 47.3491 45.1193C45.5031 47.1855 43.9729 49.2274 43.9729 49.2274C43.9729 49.2274 47.9806 44.463 49.8994 45.3381Z" fill="#F9D2DD"/>
<path d="M42.3701 46.6509C42.3215 46.6023 42.3215 46.5293 42.3458 46.4807C42.3701 46.4564 45.3333 42.8588 46.9121 41.4732C48.5152 40.039 49.9239 39.8202 49.9968 39.7959C50.0697 39.7959 50.1182 39.8202 50.1425 39.8931C50.1425 39.9661 50.1182 40.0147 50.0454 40.039C50.0211 40.039 48.6366 40.2821 47.0821 41.6433C45.5033 43.0289 42.5644 46.6023 42.5401 46.6266C42.5158 46.6509 42.4915 46.6752 42.4429 46.6752C42.4187 46.6752 42.3944 46.6752 42.3701 46.6509Z" fill="white"/>
<path d="M39.8438 45.1682C39.7952 45.1196 39.7952 45.0466 39.8438 44.998C39.9653 44.8522 42.9285 41.4733 44.4101 40.3794C46.4504 38.8723 48.1506 38.3375 48.1749 38.3375C48.2478 38.3132 48.2963 38.3618 48.3206 38.4104C48.3449 38.4834 48.2963 38.532 48.2478 38.5563C48.2235 38.5563 46.5718 39.0668 44.5559 40.5496C43.0985 41.6192 40.0624 45.1196 40.0381 45.1439C39.9895 45.1682 39.9653 45.1925 39.9167 45.1925C39.8924 45.1925 39.8681 45.1925 39.8438 45.1682Z" fill="white"/>
<path d="M81.2809 78.252L68.6506 83.1136L76.9089 102.56L91.045 102.512L81.2809 78.252Z" fill="#F9D2DD"/>
<path d="M21.02 86.0796C20.9714 86.0553 20.9472 85.9823 20.9714 85.9094L24.129 80.5616C24.1533 80.513 24.2262 80.4886 24.299 80.513C24.3476 80.5373 24.3719 80.6102 24.3476 80.6831L21.19 86.031C21.19 86.0796 21.1415 86.1039 21.0929 86.1039C21.0686 86.1039 21.0443 86.1039 21.02 86.0796Z" fill="white"/>
<path d="M36.5162 93.1533L38.2165 84.4023L25.3434 79.7837L24.1289 80.756L36.5162 93.1533Z" fill="#F9ACC0"/>
<path d="M83.2239 83.065L81.2808 78.252L68.6506 83.1136L71.8082 90.5763L83.2239 83.065Z" fill="#F9ACC0"/>
<path d="M36.1035 86.0308L24.2019 80.4399C24.2019 80.4399 25.1249 79.0786 26.7522 77.1096C29.9827 73.2446 34.9376 67.3133 41.6656 64.3963C51.9398 59.9722 63.1856 61.6495 69.1121 65.1256C79.8721 71.3972 83.9283 81.4122 83.9283 81.4122L71.7838 86.0308L76.9088 102.561H31.0028L36.1035 86.0308Z" fill="#3D5CFF"/>
<path d="M36.0549 86.1523C35.982 86.128 35.9577 86.0551 35.982 86.0065L39.6253 76.0401C39.6496 75.9671 39.7225 75.9428 39.7711 75.9671C39.8439 75.9914 39.8682 76.0644 39.8439 76.113L36.2006 86.0794C36.2006 86.128 36.152 86.1523 36.1035 86.1523C36.0792 86.1523 36.0792 86.1523 36.0549 86.1523Z" fill="#DADAF7"/>
<path d="M71.6866 86.0794L68.0433 76.113C68.019 76.04 68.0433 75.9914 68.1162 75.9671C68.189 75.9428 68.2376 75.9671 68.2619 76.0401L71.9052 86.0065C71.9295 86.0794 71.9052 86.128 71.8323 86.1523C71.8323 86.1523 71.8323 86.1523 71.8081 86.1523C71.7595 86.1523 71.7109 86.128 71.6866 86.0794Z" fill="#DADAF7"/>
<path d="M130.879 101.175C130.879 95.0737 125.924 90.1147 119.827 90.1147C113.731 90.1147 108.776 95.0737 108.776 101.175C108.776 101.637 108.8 102.074 108.849 102.512H130.806C130.855 102.074 130.879 101.637 130.879 101.175Z" fill="#EAEAFF"/>
<path fill-rule="evenodd" clip-rule="evenodd" d="M148.217 102.391V102.634H0.783203V102.391H148.217Z" fill="#DADAF7"/>
</svg>
