<svg width="145" height="93" viewBox="0 0 145 93" fill="none" xmlns="http://www.w3.org/2000/svg">
<path fill-rule="evenodd" clip-rule="evenodd" d="M144.363 92.5117V92.7485H0.636963V92.5117H144.363Z" fill="#DADAF7"/>
<path opacity="0.9977" d="M59.0033 92.6535C53.3206 92.6535 48.656 88.0126 48.656 82.3062L48.6323 11.1298C48.6323 5.44705 53.2732 0.782467 58.9797 0.782467L106.951 0.758789C112.634 0.758789 117.299 5.3997 117.299 11.1061L117.322 82.2825C117.322 87.9652 112.658 92.6298 106.975 92.6298L59.0033 92.6535Z" fill="#F4F3FD"/>
<path d="M65.4439 18.5413C64.6625 18.5413 64.0232 17.902 64.0232 17.1206C64.0232 16.3393 64.6625 15.6999 65.4439 15.6999L100.487 15.6763C101.269 15.6763 101.908 16.3156 101.908 17.097C101.908 17.8783 101.269 18.5176 100.487 18.5176L65.4439 18.5413Z" fill="#DADAF7"/>
<path d="M65.4439 32.4402C64.6625 32.4402 64.0232 31.8009 64.0232 31.0196C64.0232 30.2382 64.6625 29.5989 65.4439 29.5989L100.487 29.5752C101.269 29.5752 101.908 30.2145 101.908 30.9959C101.908 31.7773 101.269 32.4166 100.487 32.4166L65.4439 32.4402Z" fill="#DADAF7"/>
<path d="M65.4439 46.3392C64.6625 46.3392 64.0232 45.6999 64.0232 44.9185C64.0232 44.1371 64.6625 43.4978 65.4439 43.4978L100.487 43.4741C101.269 43.4741 101.908 44.1134 101.908 44.8948C101.908 45.6762 101.269 46.3155 100.487 46.3155L65.4439 46.3392Z" fill="#DADAF7"/>
<path d="M65.4439 60.2147C64.6625 60.2147 64.0232 59.5754 64.0232 58.794C64.0232 58.0126 64.6625 57.3733 65.4439 57.3733L100.487 57.3496C101.269 57.3496 101.908 57.9889 101.908 58.7703C101.908 59.5517 101.269 60.191 100.487 60.191L65.4439 60.2147Z" fill="#DADAF7"/>
<path opacity="0.5329" d="M53.9838 92.6534C52.6341 92.6534 51.3319 92.2982 50.1479 91.6353C50.7636 92.2746 51.6397 92.6534 52.7289 92.6534H53.9838Z" fill="#EAEAFF"/>
<path d="M121.608 75.1079H117.062H102.405L63.5733 75.1316C63.8811 76.4102 64.0232 77.7599 64.0232 79.1569C64.0232 86.6155 59.5243 92.6534 53.96 92.6534L112.326 92.6297C112.8 92.6297 113.297 92.5587 113.771 92.4166C118.483 91.2801 122.058 85.7631 122.058 79.1332C122.058 77.7362 121.892 76.3865 121.608 75.1079Z" fill="#EAEAFF"/>
<path d="M135.578 70.1358C143.937 70.1358 147.181 61.3749 140.48 57.3259C136.241 54.7687 132.619 57.9652 132.619 57.9652C132.619 57.9652 132.619 50.4356 123.787 50.5777C114.931 50.7197 115.973 60.1436 115.973 60.1436C115.973 60.1436 111.379 60.2857 110.835 64.382C110.196 68.9282 115.855 70.1358 118.814 70.1358C124.095 70.1358 132.074 70.1358 135.578 70.1358Z" fill="#EAEAFF"/>
<path d="M22.7996 18.0678C15.2936 18.0678 12.4049 10.2303 18.3954 6.60757C22.1839 4.31079 25.4278 7.17584 25.4278 7.17584C25.4278 7.17584 25.4042 0.427583 33.3363 0.545973C41.2685 0.664364 40.345 9.11745 40.345 9.11745C40.345 9.11745 44.4414 9.25952 44.9623 12.9059C45.5305 16.9786 40.4398 18.0678 37.8115 18.0678C33.0759 18.0678 25.9251 18.0678 22.7996 18.0678Z" fill="#EAEAFF"/>
<path d="M28.648 68.9761L40.9607 73.7117L32.9101 92.6542H28.648L22.7759 83.6565L28.648 68.9761Z" fill="#F9ACC0"/>
<path d="M80.0297 68.9761L67.717 73.7117L75.7676 92.6542H80.0297L85.9018 83.6328L80.0297 68.9761Z" fill="#F9ACC0"/>
<path d="M36.9355 76.5529L25.3333 71.1069C25.3333 71.1069 26.233 69.781 27.8195 67.863C30.9686 64.0982 36.7935 58.0603 43.5417 55.7162C53.7233 52.1644 62.0106 54.769 68.1669 57.3736C72.2869 59.1021 83.5577 72.0541 83.5577 72.0541L71.7187 76.5529L76.7147 92.654H31.9631L36.9355 76.5529Z" fill="#3D5CFF"/>
<path d="M62.2475 37.0105C62.0818 32.9616 58.6958 29.6703 54.6705 30.3807C49.5087 31.3041 44.0154 32.9853 42.1211 37.0105C40.7951 39.8282 42.0974 45.4399 45.1993 47.6657C50.1717 51.2174 51.8291 49.0864 51.8291 49.0864L58.2222 45.2979C58.2222 45.2979 62.4843 42.6933 62.2475 37.0105Z" fill="#1F1F39"/>
<path d="M44.489 42.2198C42.5947 43.4037 44.0154 46.4818 45.6729 47.1922C47.3303 47.9025 48.0407 47.6658 48.0407 47.6658V55.7163C48.0407 55.7163 50.4085 56.9002 53.0131 56.6634C55.6177 56.4267 57.2751 55.4795 57.2751 55.4795L56.5648 49.7968C56.5648 49.7968 59.8797 48.3761 59.8797 44.8244C59.8797 41.2727 59.1694 39.3784 59.1694 39.3784L49.6981 41.2727C49.6981 41.2727 49.9349 42.2198 49.6981 43.6405C49.4614 45.0612 48.9878 45.5347 48.9878 45.5347C48.9878 45.5347 49.2246 43.4037 48.0407 42.6934C48.0407 42.6934 46.3832 41.0359 44.489 42.2198Z" fill="#F9D2DD"/>
<path d="M36.888 76.6712C36.817 76.6475 36.7933 76.5765 36.817 76.5291L40.3687 66.8211C40.3924 66.7501 40.4634 66.7264 40.5108 66.7501C40.5818 66.7738 40.6055 66.8448 40.5818 66.8922L37.0301 76.6002C37.0301 76.6475 36.9827 76.6712 36.9354 76.6712C36.9117 76.6712 36.9117 76.6712 36.888 76.6712Z" fill="#DADAF7"/>
<path d="M27.1092 72.8117C25.7595 70.5386 21.0002 59.4336 21.0002 59.4336C21.0002 59.4336 19.769 54.9111 17.0933 54.2954C14.4177 53.6798 13.8021 53.0642 12.7839 52.4485C11.7658 51.8329 10.7239 51.6198 10.1083 52.2354C9.49266 52.8511 9.49266 53.6798 9.89518 54.4849C10.2977 55.3136 10.9133 55.7161 10.9133 55.7161C10.9133 55.7161 2.69704 55.503 1.67888 56.3318C0.660725 57.1605 0.0450945 59.4099 3.9283 60.6412C7.40898 61.7304 11.6947 61.683 12.5945 61.6593C12.7839 62.0619 18.4193 82.2356 20.1241 86.7108C21.8526 91.1859 25.286 92.9144 28.1273 92.654C31.0161 92.4172 34.5441 90.2625 33.1471 84.6744C33.1471 84.6744 29.0034 75.9846 27.1092 72.8117Z" fill="#F9D2DD"/>
<path d="M71.6238 76.6002L68.0721 66.8922C68.0484 66.8211 68.0721 66.7738 68.1431 66.7501C68.2142 66.7264 68.2615 66.7501 68.2852 66.8211L71.8369 76.5291C71.8606 76.6002 71.8369 76.6475 71.7659 76.6712H71.7422C71.6949 76.6712 71.6475 76.6475 71.6238 76.6002Z" fill="#DADAF7"/>
<path d="M81.5213 72.7643C82.871 70.4912 87.6303 59.3862 87.6303 59.3862C87.6303 59.3862 88.8615 54.8637 91.5372 54.2481C94.2128 53.6324 94.8284 53.0168 95.8466 52.4012C96.8647 51.7855 97.9066 51.5724 98.5222 52.1881C99.1378 52.8037 99.1378 53.6324 98.7353 54.4375C98.3328 55.2662 97.7172 55.6688 97.7172 55.6688C97.7172 55.6688 105.933 55.4557 106.952 56.2844C107.97 57.1131 108.585 59.3625 104.702 60.5938C101.222 61.683 96.9358 61.6593 96.036 61.6356C95.8466 62.0382 90.2349 82.2119 88.5064 86.6871C86.7779 91.1622 83.3445 92.8907 80.5032 92.6303C77.6618 92.3935 74.1338 90.2388 75.5071 84.6508C75.5071 84.6508 79.6271 75.9609 81.5213 72.7643Z" fill="#F9D2DD"/>
<path d="M3.28895 60.5466C2.5786 60.3335 2.12872 59.7889 2.03401 59.1023C1.93929 58.2972 2.34182 57.4685 3.00481 57.0659C4.21239 56.3556 15.0333 56.6634 15.5068 56.6871C15.5779 56.6871 15.6252 56.7344 15.6252 56.8055C15.6252 56.8765 15.5542 56.9239 15.5068 56.9239C11.6236 56.8055 4.04664 56.7108 3.14688 57.2554C2.55492 57.6105 2.19975 58.3682 2.27079 59.0549C2.31814 59.4101 2.50757 60.0494 3.35998 60.3098C3.43101 60.3335 3.45469 60.4045 3.43101 60.4519C3.40734 60.5229 3.35998 60.5466 3.31262 60.5466H3.28895Z" fill="white"/>
<path d="M5.13578 61.0674C4.6859 60.9253 4.40176 60.5938 4.3544 60.144C4.28337 59.6467 4.54383 59.1258 4.97003 58.8653C5.68038 58.4391 11.7893 58.6049 12.4997 58.6286C12.5707 58.6286 12.6181 58.6759 12.6181 58.747C12.6181 58.818 12.547 58.8653 12.4997 58.8653C9.80037 58.7706 5.60934 58.7706 5.1121 59.0548C4.78061 59.2679 4.5675 59.6941 4.61486 60.0966C4.63854 60.3097 4.75693 60.6649 5.23049 60.807C5.30153 60.8306 5.3252 60.9017 5.30153 60.949C5.25417 61.0437 5.20681 61.0674 5.15946 61.0674H5.13578Z" fill="white"/>
<path d="M10.8659 55.8584C10.7949 55.8584 10.7476 55.7873 10.7476 55.74C10.7476 55.6689 10.7949 55.6216 10.8659 55.6216L15.1043 55.8584C15.1754 55.8584 15.2227 55.9294 15.2227 55.9768C15.2464 56.0241 15.199 56.0951 15.128 56.0951L10.8659 55.8584Z" fill="white"/>
<path d="M105.105 60.4282C105.081 60.3571 105.128 60.3098 105.176 60.2861C106.028 60.0256 106.217 59.3863 106.265 59.0312C106.36 58.3208 106.004 57.5868 105.389 57.2316C104.465 56.687 96.8883 56.7817 93.0288 56.9001C92.9578 56.9001 92.9104 56.8528 92.9104 56.7817C92.9104 56.7107 92.9578 56.6634 93.0288 56.6634C93.4787 56.6397 104.323 56.3082 105.531 57.0422C106.194 57.4447 106.596 58.2735 106.502 59.0785C106.407 59.7889 105.957 60.3098 105.247 60.5229C105.247 60.5229 105.247 60.5229 105.223 60.5229C105.176 60.5229 105.128 60.4992 105.105 60.4282Z" fill="white"/>
<path d="M103.258 60.949C103.234 60.8779 103.282 60.8306 103.329 60.8069C103.803 60.6648 103.921 60.286 103.945 60.0965C103.992 59.694 103.779 59.2678 103.447 59.0547C102.95 58.7469 98.7591 58.7706 96.0598 58.8653C95.9888 58.8653 95.9414 58.8179 95.9414 58.7469C95.9414 58.6759 95.9888 58.6285 96.0598 58.6285C96.7465 58.6048 102.855 58.4154 103.589 58.8653C104.016 59.1257 104.252 59.6467 104.205 60.1439C104.158 60.5938 103.874 60.9253 103.424 61.0673C103.4 61.0437 103.4 61.0437 103.376 61.0437C103.329 61.0437 103.282 61.02 103.258 60.949Z" fill="white"/>
<path d="M93.2896 55.9294C93.2896 55.8584 93.3369 55.811 93.4079 55.811L97.6463 55.5742C97.7174 55.5742 97.7647 55.6216 97.7647 55.6926C97.7647 55.7636 97.7174 55.811 97.6463 55.811L93.4079 56.0478C93.3369 56.0478 93.2896 56.0004 93.2896 55.9294Z" fill="white"/>
<path d="M56.825 49.6782C56.754 49.7019 56.7066 49.7256 56.6356 49.7492C53.5575 50.9332 50.8108 49.6309 50.8108 49.6309C52.5866 51.7382 54.9545 52.7327 56.9908 53.2063L56.5646 49.7966C56.5646 49.7966 56.6593 49.7492 56.825 49.6782Z" fill="#F9ACC0"/>
</svg>
