<svg width="149" height="92" viewBox="0 0 149 92" fill="none" xmlns="http://www.w3.org/2000/svg">
<path fill-rule="evenodd" clip-rule="evenodd" d="M148.849 91.4014V91.6466H0V91.4014H148.849Z" fill="#DADAF7"/>
<path d="M70.8941 91.4989H28.3481V48.3154L70.8941 65.9223V91.4989Z" fill="#EAEAFF"/>
<path d="M28.3481 76.7369L59.3931 81.7148L70.8941 65.9226L31.4134 49.5908L28.3481 57.1192V76.7369Z" fill="#DADAF7"/>
<path d="M59.3931 81.7146L70.894 65.9223L28.25 48.3154L16.5039 62.759L59.3931 81.7146Z" fill="#F4F3FD"/>
<path d="M20.4766 57.83L19.2505 63.2249L19.4957 64.2057C21.5065 64.0096 23.9097 62.808 25.1358 61.9988C28.5444 59.7182 41.0261 60.5274 44.0178 59.7918C45.9796 59.3013 48.628 58.6883 49.192 56.9717L30.5307 49.9829L20.4766 57.83Z" fill="#DADAF7"/>
<path d="M70.894 91.4989H113.464V48.3154L70.894 65.9223V91.4989Z" fill="#DADAF7"/>
<path d="M113.464 76.7369L82.4194 81.7148L70.894 65.9226L110.399 49.5908L113.464 57.1192V76.7369Z" fill="#D0D0EF"/>
<path d="M70.894 35.4414L113.563 48.3155L70.894 65.7018L28.25 48.3155L70.894 35.4414Z" fill="#EAEAFF"/>
<path d="M82.4194 81.7146L70.894 65.9223L113.563 48.3154L125.309 62.759L82.4194 81.7146Z" fill="#F4F3FD"/>
<path d="M91.5902 61.9986C91.5902 61.9986 94.067 65.9957 96.2494 65.6769C99.6825 65.1864 98.5791 62.6116 98.5791 62.6116C98.5791 62.6116 100.541 64.3282 102.135 63.7151C103.729 63.1021 103.606 61.9986 103.606 61.9986C103.606 61.9986 106.181 62.6116 106.794 61.5081C107.407 60.4046 102.405 53.0234 102.405 53.0234L100.761 53.5139L84.1846 60.3556C84.5279 61.1648 85.19 62.0476 86.4406 62.489C89.138 63.4699 91.5902 61.9986 91.5902 61.9986Z" fill="#DADAF7"/>
<path d="M103.189 54.8627L88.5742 60.8707L84.1357 42.8469L96.9363 39.4629L103.189 54.8627Z" fill="#F9D2DD"/>
<path d="M18.8332 63.7396C20.4762 65.9711 23.9092 60.3555 23.9092 60.3555C23.9092 60.3555 41.2955 61.4099 48.8728 55.917C53.7527 52.3858 54.8807 47.8247 54.8807 47.8247L41.5652 44.1709C41.5652 44.1709 41.2955 48.3396 27.4895 49.6638C17.46 50.6202 15.9396 55.1568 15.7189 58.5408C15.5717 60.6743 16.5036 62.7096 16.5036 62.7096C16.5036 62.7096 19.6424 59.0313 20.2309 58.5163C20.2309 58.5163 17.509 61.9004 18.8332 63.7396Z" fill="#F9D2DD"/>
<path d="M84.1357 42.8469L84.9204 50.1545L98.8981 44.1711L96.9363 39.4629L84.1357 42.8469Z" fill="#F9ACC0"/>
<path d="M99.0202 42.0623C99.0202 42.0623 89.7263 24.0386 75.9203 24.0386C62.1144 24.0386 55.7631 24.8233 50.3437 29.7768C44.8998 34.7303 41.0498 44.1467 41.0498 44.1467L54.9539 47.8006L53.4335 58.5903L70.8197 65.8243L88.304 58.5167L85.7046 45.7162L99.0202 42.0623Z" fill="#3D5CFF"/>
<path d="M103.214 54.8628L102.16 52.2635C102.16 52.2635 98.8983 51.8467 94.3372 53.318C92.6452 53.8575 88.0596 57.2415 88.0596 57.2415L88.8443 60.8708L103.214 54.8628Z" fill="#F9ACC0"/>
<path d="M85.6312 45.9369L83.8902 37.2561C83.8656 37.1825 83.9147 37.1089 83.9882 37.1089C84.0618 37.0844 84.1354 37.1334 84.1354 37.207L85.8764 45.8879C85.9009 45.9614 85.8519 46.035 85.7784 46.035H85.7538C85.7048 46.035 85.6312 45.9859 85.6312 45.9369Z" fill="#DADAF7"/>
<path d="M54.8071 48.2173C54.7335 48.1928 54.6845 48.1437 54.709 48.0701L57.0386 36.9126C57.0631 36.839 57.1367 36.79 57.1857 36.8145C57.2593 36.839 57.3084 36.888 57.2838 36.9616L54.9542 48.1192C54.9542 48.1682 54.9052 48.2173 54.8316 48.2173H54.8071Z" fill="#DADAF7"/>
<path d="M54.8807 47.8008L41.5652 44.147C41.5652 44.147 41.5161 44.7846 40.6333 45.6428L52.1833 52.7788C54.3167 50.1549 54.8807 47.8008 54.8807 47.8008Z" fill="#F9ACC0"/>
<path d="M117.951 32.8178C125.087 32.8178 127.834 25.3385 122.12 21.9054C118.515 19.723 115.426 22.4449 115.426 22.4449C115.426 22.4449 115.426 16.0447 107.897 16.1673C100.369 16.2899 101.227 24.3331 101.227 24.3331C101.227 24.3331 97.3282 24.4557 96.8377 27.9379C96.3228 31.7879 101.178 32.8178 103.679 32.8178C108.167 32.8178 114.984 32.8178 117.951 32.8178Z" fill="#EAEAFF"/>
<path d="M79.4512 8.63896C79.2796 4.17593 77.8083 -0.287076 70.5742 0.81642C65.5962 1.57661 61.0106 2.70464 59.1959 7.14314C57.9208 10.2575 59.1714 16.437 62.1386 18.8892C66.8959 22.8128 68.4653 20.4587 68.4653 20.4587L74.5468 16.2654C74.5468 16.2654 79.6719 14.8921 79.4512 8.63896Z" fill="#1F1F39"/>
<path d="M69.2502 12.2927C68.392 12.3908 67.6318 12.4889 66.9697 12.5624C67.5583 14.843 66.1115 17.2707 66.1115 17.2707C66.1115 17.2707 66.1115 16.7558 66.1115 15.1864C66.1115 14.2545 65.8172 13.2981 65.5965 12.7096C63.978 12.8567 63.2423 12.8568 63.2423 12.8568C63.2423 12.8568 60.8882 12.587 60.3732 14.9411C59.8583 17.2953 62.2124 18.0799 63.5121 18.0799C64.2723 18.0799 64.493 17.9819 64.5665 17.9328V25.4121C64.5665 25.4121 64.8363 27.2512 69.52 27.2512C73.4435 27.2512 74.2282 25.4121 74.2282 25.4121V19.9191C74.2282 19.9191 76.8276 18.6195 77.3671 16.5351C77.9066 14.4507 77.6123 9.69336 77.6123 9.69336C77.6123 9.69336 73.4435 11.7778 69.2502 12.2927Z" fill="#F9D2DD"/>
<path d="M74.2038 24.161V19.8696C71.065 21.439 66.6265 20.6543 66.6265 20.6543C68.2204 22.9594 71.5309 23.8177 74.2038 24.161Z" fill="#F9ACC0"/>
<path d="M86.0974 61.0669C88.427 63.8624 93.1352 60.4048 93.1352 60.4048C93.1352 60.4048 94.5575 62.5382 94.7292 63.5681C94.9008 64.5981 96.1515 65.7016 98.1132 64.8433C100.075 63.9851 99.9033 62.9551 99.9033 62.9551C99.9033 62.9551 101.718 64.2302 103.116 63.2003C104.513 62.1704 104.366 61.1405 104.366 61.1405C104.366 61.1405 105.96 62.7344 107.334 61.4347C108.707 60.1351 106.598 55.4759 105.053 54.1517C103.508 52.8275 102.135 52.5332 99.045 53.0482C95.9552 53.5877 91.0753 55.9908 91.0753 55.9908C91.0753 55.9908 83.7923 58.2714 86.0974 61.0669Z" fill="#F9D2DD"/>
<path d="M99.6823 63.0042L97.8432 58.345C97.8187 58.2714 97.8432 58.1978 97.9168 58.1733C97.9903 58.1487 98.0639 58.1733 98.0884 58.2468L99.9276 62.906C99.9521 62.9796 99.9275 63.0532 99.854 63.0777C99.8295 63.0777 99.8049 63.0777 99.8049 63.0777C99.7559 63.0777 99.7069 63.0532 99.6823 63.0042Z" fill="white"/>
<path d="M104.366 61.1892L102.527 56.53C102.503 56.4564 102.527 56.3828 102.601 56.3583C102.674 56.3338 102.748 56.3583 102.772 56.4319L104.612 61.0911C104.636 61.1647 104.612 61.2382 104.538 61.2627C104.538 61.2627 104.514 61.2627 104.489 61.2627C104.44 61.2627 104.391 61.2382 104.366 61.1892Z" fill="white"/>
<path d="M15.9882 61.5332C15.8901 61.5332 15.8411 61.4597 15.8656 61.3861C15.8656 61.288 16.1354 59.2526 17.1899 57.9284C18.2443 56.6042 19.2742 56.0893 19.3233 56.0648C19.3968 56.0403 19.4704 56.0648 19.4949 56.1138C19.5194 56.1874 19.4949 56.261 19.4459 56.2855C19.4459 56.2855 18.4159 56.825 17.4105 58.0756C16.4051 59.3262 16.1354 61.3861 16.1354 61.4106C16.1109 61.4842 16.0373 61.5332 15.9882 61.5332C15.9637 61.5332 15.9637 61.5332 15.9882 61.5332Z" fill="white"/>
<path d="M15.3999 58.4435C15.3263 58.4189 15.2773 58.3453 15.3018 58.2963C15.3263 58.2227 15.8168 56.2119 17.0183 55.0104C18.2199 53.8333 19.2989 53.4164 19.3479 53.4164C19.4215 53.3919 19.4951 53.4164 19.5196 53.49C19.5442 53.5636 19.5196 53.6371 19.4461 53.6616C19.4461 53.6616 18.3671 54.054 17.2145 55.2065C16.062 56.3346 15.5715 58.3454 15.547 58.3699C15.5225 58.3944 15.4734 58.4435 15.4244 58.4435H15.3999Z" fill="white"/>
<g opacity="0.9991">
<path opacity="0.9991" d="M42.6441 8.49164C44.0909 7.92763 45.7094 8.66329 46.2489 10.0856L49.167 17.6629C49.731 19.1097 48.9953 20.7281 47.573 21.2676L43.674 22.7635L45.4396 27.3246C45.5867 27.6925 45.3905 28.0848 45.0472 28.232L44.851 28.3055C44.6549 28.4281 44.4097 28.4771 44.189 28.3791L36.8814 25.3874L30.6773 27.7905C29.2305 28.3546 27.612 27.6189 27.0725 26.1966L24.1544 18.6193C23.5413 17.1725 24.2525 15.5785 25.6993 15.0145L42.6441 8.49164Z" fill="#F4F3FD"/>
</g>
<path d="M30.9473 19.9674C30.9718 20.654 31.5358 21.1935 32.2224 21.1935C32.909 21.169 33.4485 20.6049 33.4485 19.9183C33.424 19.2317 32.86 18.6677 32.1734 18.6922C31.4868 18.7167 30.9473 19.2808 30.9473 19.9674Z" fill="#DADAF7"/>
<path d="M35.5576 18.1531C35.5576 18.8397 36.1461 19.3792 36.8328 19.3792C37.5194 19.3547 38.0589 18.7907 38.0589 18.104C38.0589 17.4174 37.4703 16.8779 36.7837 16.8779C36.0971 16.9025 35.5576 17.4664 35.5576 18.1531Z" fill="#DADAF7"/>
<path d="M40.1919 16.3629C40.2164 17.0495 40.7805 17.589 41.4671 17.589C42.1537 17.5644 42.6932 17.0004 42.6932 16.3138C42.6687 15.6027 42.1046 15.0632 41.418 15.0877C40.7314 15.1122 40.1919 15.6762 40.1919 16.3629Z" fill="#DADAF7"/>
</svg>
