<svg width="131" height="111" viewBox="0 0 131 111" fill="none" xmlns="http://www.w3.org/2000/svg">
<path fill-rule="evenodd" clip-rule="evenodd" d="M86.8153 0.354924L91.8396 8.54281L20.3217 52.4286L15.2974 44.2407L86.8153 0.354924Z" fill="#F4F3FD"/>
<path d="M22.2699 51.2305L22.1333 40.0532L18.7415 42.1248L18.8325 50.024L20.3122 52.437L22.2699 51.2305Z" fill="#DADAF7"/>
<path d="M29.4407 35.5684L26.0488 37.6399L26.1854 48.84L29.5773 46.7456L29.4407 35.5684Z" fill="#DADAF7"/>
<path d="M36.4749 31.2432L33.083 33.3147L33.2424 44.5148L36.6342 42.4205L36.4749 31.2432Z" fill="#DADAF7"/>
<path d="M43.7823 26.7588L40.3904 28.8303L40.527 40.0304L43.9189 37.9361L43.7823 26.7588Z" fill="#DADAF7"/>
<path d="M51.3401 22.1152L47.9482 24.1868L48.1076 35.3868L51.4995 33.3153L51.3401 22.1152Z" fill="#DADAF7"/>
<path d="M58.6475 17.6304L55.2556 19.7247L55.415 30.902L58.8069 28.8304L58.6475 17.6304Z" fill="#DADAF7"/>
<path d="M65.6814 13.3052L62.2896 15.3995L62.4489 26.5768L65.8408 24.5052L65.6814 13.3052Z" fill="#DADAF7"/>
<path d="M73.285 8.66113L69.8931 10.7327L70.0524 21.91L73.4443 19.8384L73.285 8.66113Z" fill="#DADAF7"/>
<path d="M80.5926 4.17676L77.2007 6.24831L77.3373 17.4484L80.7292 15.354L80.5926 4.17676Z" fill="#DADAF7"/>
<path d="M87.649 1.74067L86.8067 0.352051L84.2344 1.92279L84.3937 13.1228L87.7856 11.0285L87.649 1.74067Z" fill="#DADAF7"/>
<path d="M47.2426 53.7801L39.2068 48.8402C39.2068 48.8402 45.4897 39.4841 52.4556 35.5914C59.4215 31.6987 66.5923 31.3572 72.1695 32.3133C77.7468 33.2694 83.3923 36.3881 86.8298 40.7134C90.2672 45.0386 94.6152 52.5508 94.6152 52.5508L83.3013 54.1443L86.8981 65.0939L44.9434 64.8208L47.2426 53.7801Z" fill="#3D5CFF"/>
<path d="M50.8849 15.832C49.815 12.0986 51.8866 8.04659 55.7793 7.47748C60.7646 6.72625 66.2964 6.61243 69.233 9.68562C71.3045 11.8482 71.8281 17.3572 69.6883 20.3393C66.2281 25.0971 64.0882 23.6629 64.0882 23.6629L57.0768 22.1605C57.0768 22.1605 52.3874 21.0905 50.8849 15.832Z" fill="#1F1F39"/>
<path d="M71.1452 16.8792C72.7387 17.2662 72.9436 19.4744 72.2379 20.7492C71.2362 22.5476 68.7549 22.7297 68.7549 22.7297L68.459 18.4727C68.459 18.4727 69.5517 16.4922 71.1452 16.8792Z" fill="#F9ACC0"/>
<path d="M55.1875 19.6567C55.1875 19.6567 55.5517 22.5705 56.9631 25.0518C58.3745 27.5331 60.6737 27.6925 60.6737 27.6925C60.6737 27.6925 60.8558 29.377 60.7648 31.1299C60.6737 32.9055 60.6737 33.7022 60.6737 33.7022C60.6737 33.7022 62.3355 35.0226 65.09 34.499C68.368 33.8844 68.6185 32.473 68.6185 32.473C68.6185 32.473 68.0038 30.6974 67.3892 28.7624C66.8201 26.964 66.8656 26.6453 66.8656 26.6453C66.8656 26.6453 69.5973 25.0518 69.6884 21.7054C69.7794 18.3591 69.0737 16.2192 69.0737 16.2192" fill="#F9D2DD"/>
<path opacity="0.2836" d="M58.3059 23.2533C57.8506 22.5704 56.8945 20.6582 56.8945 20.6582L57.5547 25.9395C58.7612 27.3964 60.2409 27.6696 60.5824 27.7151C60.6506 27.4192 60.6734 27.0095 60.5824 26.4403C60.3547 25.0745 58.7612 23.9363 58.3059 23.2533Z" fill="#F9ACC0"/>
<path d="M55.916 19.7934C56.7127 19.8389 56.8721 20.5446 57.1453 21.3414C57.4184 22.1381 57.6688 23.8227 58.6477 24.8699C59.6266 25.917 60.1501 27.078 59.7859 28.3983C59.4217 29.7187 57.5778 31.039 57.5778 31.039C57.5778 31.039 49.9745 49.387 47.5159 54.6228C45.0346 59.8586 43.3728 63.3643 38.8655 64.6847C36.3159 65.4359 29.7598 64.2521 29.7598 56.9903C29.7598 51.1399 39.9127 40.7366 39.9127 40.7366L51.659 26.2357C51.659 26.2357 50.8623 23.6633 51.2265 22.252C51.5908 20.8406 52.1143 20.6585 52.4558 20.5674C52.82 20.4763 52.9794 20.5674 52.9794 20.5674C52.9794 20.5674 53.2526 19.9528 53.9582 19.9528C54.6639 19.9528 54.8461 20.6357 54.8461 20.6357C54.8461 20.6357 55.1192 19.7706 55.916 19.7934Z" fill="#F9D2DD"/>
<path d="M57.4866 31.1297C57.441 31.0841 57.4638 31.0158 57.5093 30.9703C57.5321 30.9475 59.3305 29.65 59.6719 28.3752C59.9906 27.2142 59.6264 26.1215 58.5565 24.9378C57.7825 24.0727 57.441 22.8662 57.2134 21.9784C57.1451 21.7508 57.0996 21.5231 57.0313 21.3638L56.9857 21.2044C56.7581 20.4987 56.576 19.9296 55.9158 19.9068C55.8475 19.9068 55.802 19.8613 55.802 19.793C55.802 19.7247 55.8475 19.6792 55.9158 19.6792C56.7353 19.7247 56.963 20.4077 57.1906 21.1361L57.2362 21.2955C57.3044 21.4776 57.35 21.6825 57.4183 21.9101C57.6459 22.7751 57.9646 23.9589 58.7158 24.7784C59.8313 26.0077 60.2183 27.1914 59.8996 28.4207C59.5354 29.7638 57.7142 31.0841 57.6459 31.1297C57.6231 31.1752 57.6004 31.1752 57.5776 31.1752C57.5321 31.1752 57.5093 31.1524 57.4866 31.1297Z" fill="white"/>
<path d="M60.6738 27.8061C60.6966 28.1931 60.8332 29.6045 60.8559 30.9476C61.4706 30.72 62.2673 30.3557 62.882 29.8321C64.0202 28.8533 64.7486 27.4419 64.7486 27.4419C64.7486 27.4419 64.1112 27.8061 62.0852 27.8744C61.334 27.8972 60.9242 27.8517 60.6738 27.8061Z" fill="#F9ACC0"/>
<path d="M55.7791 25.985C55.7791 25.9622 55.0734 24.3915 54.8457 22.8663C54.6181 21.3638 54.7092 20.6354 54.7092 20.6126C54.7092 20.5443 54.7774 20.4988 54.8457 20.5215C54.914 20.5215 54.9596 20.5898 54.9368 20.6581C54.9368 20.6581 54.8457 21.3638 55.0734 22.8435C55.301 24.3232 55.9839 25.8712 55.9839 25.8939C56.0067 25.9622 55.984 26.0078 55.9157 26.0533C55.9384 26.0533 55.9157 26.0533 55.8929 26.0533C55.8474 26.0533 55.8018 26.0305 55.7791 25.985Z" fill="white"/>
<path d="M53.5028 26.1901C53.5028 26.1674 52.8882 24.5511 52.7744 23.0259C52.6606 21.5007 52.7744 20.795 52.7972 20.7722C52.8199 20.7039 52.8654 20.6812 52.9337 20.6812C53.002 20.7039 53.0248 20.7494 53.0248 20.8177C53.0248 20.8177 52.8882 21.5234 53.0248 23.0031C53.1386 24.4828 53.7305 26.0991 53.7305 26.0991C53.7533 26.1674 53.7305 26.2129 53.6622 26.2356C53.6394 26.2584 53.6167 26.2584 53.6167 26.2584C53.5711 26.2584 53.5256 26.2356 53.5028 26.1901Z" fill="white"/>
<path d="M83.1418 54.1896L79.9548 45.5392C79.9321 45.4709 79.9548 45.4253 80.0231 45.4026C80.0914 45.3798 80.1369 45.4026 80.1597 45.4709L83.3467 54.1213C83.3695 54.1896 83.3467 54.2351 83.2784 54.2579H83.2557C83.2101 54.2579 83.1646 54.2351 83.1418 54.1896Z" fill="#DADAF7"/>
<path opacity="0.3484" d="M29.7598 57.0354C29.7598 64.2744 36.3159 65.4809 38.8655 64.7297C43.3728 63.4094 45.0346 59.9037 47.5159 54.6679C47.9712 53.689 48.6086 52.2776 49.3371 50.5931L33.3793 48.7036C31.3988 51.5719 29.7598 54.6679 29.7598 57.0354Z" fill="#F9ACC0"/>
<path d="M26.6863 110.919C23.0896 110.919 20.1985 108.005 20.1985 104.431L20.2213 52.6191L104.131 52.6419L104.108 104.454C104.131 108.028 101.217 110.941 97.62 110.941L26.6863 110.919Z" fill="#F4F3FD"/>
<path fill-rule="evenodd" clip-rule="evenodd" d="M104.131 52.5278V62.1344H20.2212V52.5278H104.131Z" fill="#F4F3FD"/>
<path d="M20.2212 59.3116V62.1344H22.5204L28.257 52.5278H24.2732L20.2212 59.3116Z" fill="#DADAF7"/>
<path d="M27.1187 62.1344H31.1024L36.8163 52.5278H32.8325L27.1187 62.1344Z" fill="#DADAF7"/>
<path d="M35.3823 62.1344H39.3661L45.0799 52.5278H41.1189L35.3823 62.1344Z" fill="#DADAF7"/>
<path d="M43.9417 62.1344L47.9254 62.1571L53.662 52.5278H49.6783L43.9417 62.1344Z" fill="#DADAF7"/>
<path d="M52.8198 62.1571H56.8036L62.5402 52.5278H58.5564L52.8198 62.1571Z" fill="#DADAF7"/>
<path d="M61.4019 62.1571H65.3628L71.0995 52.5506L67.1157 52.5278L61.4019 62.1571Z" fill="#DADAF7"/>
<path d="M69.6655 62.1573H73.6265L79.3631 52.5508H75.3794L69.6655 62.1573Z" fill="#DADAF7"/>
<path d="M78.5659 62.1573H82.5497L88.2863 52.5508H84.3025L78.5659 62.1573Z" fill="#DADAF7"/>
<path d="M87.1484 62.1573H91.1094L96.846 52.5508H92.8623L87.1484 62.1573Z" fill="#DADAF7"/>
<path d="M101.125 52.5508L95.4116 62.1573H99.3726L104.13 54.1898V52.5508H101.125Z" fill="#DADAF7"/>
<path d="M55.2556 95.1656L55.5971 72.2646L75.2427 84.011L55.2556 95.1656Z" fill="#DADAF7"/>
<path d="M122.82 89.2471C130.856 89.2471 133.975 80.8243 127.532 76.9316C123.458 74.4731 119.975 77.5463 119.975 77.5463C119.975 77.5463 119.975 70.3072 111.483 70.4438C102.97 70.5804 103.971 79.6406 103.971 79.6406C103.971 79.6406 99.555 79.7772 99.0314 83.7154C98.4167 88.0862 103.857 89.2471 106.703 89.2471C111.779 89.2471 119.451 89.2471 122.82 89.2471Z" fill="#EAEAFF"/>
<path d="M7.33669 30.31C0.1204 30.31 -2.65685 22.7522 3.10253 19.292C6.76759 17.0839 9.86353 19.8384 9.86353 19.8384C9.86353 19.8384 9.84077 13.3505 17.4668 13.4644C25.0929 13.5782 24.2051 21.7051 24.2051 21.7051C24.2051 21.7051 28.1433 21.8416 28.6441 25.3474C29.1905 29.2628 24.2961 30.31 21.7693 30.31C17.2164 30.31 10.3416 30.31 7.33669 30.31Z" fill="#EAEAFF"/>
</svg>
