<svg width="119" height="108" viewBox="0 0 119 108" fill="none" xmlns="http://www.w3.org/2000/svg">
<mask id="mask0_0_8688" style="mask-type:luminance" maskUnits="userSpaceOnUse" x="0" y="0" width="119" height="108">
<rect width="117.989" height="108" transform="matrix(-1 0 0 1 118.241 0)" fill="white"/>
</mask>
<g mask="url(#mask0_0_8688)">
<path d="M100.765 70.3723L99.3768 78.9238L89.4868 83.7572L91.098 74.9579L100.765 70.3723Z" fill="#DADAF7"/>
<path d="M100.642 35.9164C100.642 35.9164 101.633 31.5786 99.1543 30.9589C96.6755 30.3392 94.5686 30.2153 94.5686 30.2153L78.7912 107.689L88.2477 107.677L100.642 35.9164Z" fill="#DADAF7"/>
<path d="M94.5687 30.0914C94.5687 30.0914 96.0559 30.0914 96.5517 30.7111C97.0474 31.3308 96.9235 32.5702 96.9235 32.5702L82.9804 107.677L29.0052 107.677L48.4635 28.976C48.4635 28.976 49.7029 25.6296 54.0408 26.6212L94.5687 30.0914Z" fill="#EAEAFF"/>
<path d="M90.975 37.4037C90.975 37.4037 91.2229 35.7925 89.8596 35.6685C88.4963 35.5446 51.6866 32.1982 51.6866 32.1982L43.8784 69.2559L79.8206 75.081C79.8206 75.081 83.6627 76.0725 84.1584 73.2219L90.975 37.4037Z" fill="white"/>
<path d="M106.962 107.802H111.3L96.0551 51.6575L94.4439 60.4571L106.962 107.802Z" fill="#DADAF7"/>
<path d="M19.4423 65.0822C13.4439 65.0822 11.1387 58.7987 15.9226 55.911C18.959 54.0768 21.5492 56.3696 21.5492 56.3696C21.5492 56.3696 21.5368 50.9784 27.8823 51.0775C34.2278 51.1767 33.4842 57.9311 33.4842 57.9311C33.4842 57.9311 36.7685 58.0303 37.1651 60.9675C37.6112 64.2146 33.5461 65.0822 31.4392 65.0822C27.6592 65.0822 21.9458 65.0822 19.4423 65.0822Z" fill="white"/>
<path d="M94.3324 72.9254L102.426 58.2015C102.426 58.2015 102.165 55.5493 102.426 53.6902C102.686 51.8311 102.426 50.381 101.893 49.7118C101.36 49.0549 99.7733 45.4731 100.827 44.1469C101.893 42.8208 104.012 43.614 105.065 44.6799C106.131 45.7457 109.044 48.7946 109.044 48.7946C109.044 48.7946 116.604 49.1912 117.93 51.8435C119.256 54.4958 107.334 86.8437 103.888 90.6858C100.443 94.5279 90.3663 92.4086 85.7186 89.0994C81.0833 85.7779 88.3709 68.947 88.3709 68.947L94.3324 72.9254Z" fill="#F9D2DD"/>
<path d="M85.7312 89.0988C81.096 85.7898 88.3834 68.947 88.3834 68.947L92.2874 71.5496L90.0937 91.3049C88.4206 90.6976 86.8962 89.9292 85.7312 89.0988Z" fill="#F9ACC0"/>
<path d="M101.384 48.782L105.871 45.4606C106.813 46.4273 108.089 47.7658 108.709 48.3978L102.537 52.1655C102.512 51.05 102.277 50.1825 101.905 49.7115C101.781 49.5504 101.583 49.2158 101.384 48.782Z" fill="#F9ACC0"/>
<path d="M114.497 65.3647C114.497 64.5219 114.497 61.1261 113.171 60.3205C111.808 59.5026 107.867 60.1842 106.008 58.3376C104.149 56.491 103.752 53.4298 103.752 53.4298L102.389 53.9627C102.401 53.8759 102.414 53.7892 102.426 53.7024C102.439 53.5785 102.463 53.4669 102.476 53.343C102.476 53.3306 102.476 53.3058 102.476 53.2934C102.488 53.1943 102.501 53.0951 102.501 52.9836C102.501 52.9712 102.501 52.9712 102.501 52.9588C102.513 52.7357 102.525 52.525 102.525 52.3143L103.48 50.5049L113.333 50.8147C114.906 51.7194 117.373 50.7032 117.943 51.8434C118.451 52.8596 117.001 58.2632 114.832 64.7574C114.696 65.0301 114.584 65.2408 114.497 65.3647Z" fill="#F9ACC0"/>
<path d="M99.4145 56.3781L117.98 37.8126C118.29 37.5027 118.29 36.9946 117.98 36.6848C117.67 36.3749 117.162 36.3749 116.852 36.6848L98.2867 55.2503C97.9769 55.5601 97.9769 56.0682 98.2867 56.3781C98.5966 56.6879 99.1047 56.6879 99.4145 56.3781Z" fill="white"/>
<path d="M99.3767 57.4081C98.9802 58.5979 97.5177 58.9945 97.2575 59.8001C96.9972 60.5933 97.3938 61.1262 97.3938 61.1262C97.3938 61.1262 95.8074 60.4693 95.9314 58.474C96.0677 56.4786 97.2575 54.7559 98.9802 55.6854C98.9802 55.6854 99.7733 56.2184 99.3767 57.4081Z" fill="#E88524"/>
<path d="M114.497 57.9408C111.052 59.4033 109.057 59.4033 108.263 59.0067C107.47 58.6101 107.73 57.284 107.73 57.284C107.73 57.284 106.404 57.1477 106.008 56.3545C105.611 55.5613 106.008 54.892 106.008 54.892C106.008 54.892 104.682 54.6318 104.285 53.5659C103.888 52.5001 104.285 51.9796 104.285 51.9796C104.285 51.9796 103.008 51.9672 102.562 50.5171C101.905 48.3978 108.796 42.9571 113.431 44.5558C116.108 45.4606 117.819 50.2693 118.079 51.174C118.612 53.033 117.943 56.4784 114.497 57.9408Z" fill="#F9D2DD"/>
<path fill-rule="evenodd" clip-rule="evenodd" d="M109.739 49.0538L103.803 51.8547L109.739 49.0538Z" fill="#1F1F39"/>
<path d="M103.863 51.9673L109.8 49.1664C109.862 49.1292 109.899 49.0548 109.862 48.9929C109.837 48.9309 109.75 48.8937 109.688 48.9309L103.752 51.7318C103.69 51.769 103.653 51.8434 103.69 51.9054C103.702 51.9549 103.752 51.9797 103.801 51.9797C103.826 51.9797 103.839 51.9797 103.863 51.9673Z" fill="#1F1F39"/>
<path fill-rule="evenodd" clip-rule="evenodd" d="M111.449 52.2389L106.008 54.8911L111.449 52.2389Z" fill="#1F1F39"/>
<path d="M106.069 55.0037L111.51 52.3515C111.572 52.3143 111.609 52.24 111.572 52.178C111.535 52.116 111.461 52.0789 111.399 52.116L105.958 54.7682C105.896 54.8054 105.859 54.8798 105.896 54.9417C105.921 54.9913 105.958 55.0161 106.007 55.0161C106.032 55.0161 106.045 55.0161 106.069 55.0037Z" fill="#1F1F39"/>
<path fill-rule="evenodd" clip-rule="evenodd" d="M112.776 54.8913L107.731 57.2709L112.776 54.8913Z" fill="#1F1F39"/>
<path d="M107.792 57.3958L112.836 55.0038C112.898 54.9667 112.935 54.8923 112.898 54.8303C112.861 54.7684 112.787 54.7312 112.725 54.7684L107.681 57.1603C107.619 57.1975 107.581 57.2719 107.619 57.3338C107.643 57.3834 107.681 57.4082 107.73 57.4082C107.755 57.4082 107.767 57.4082 107.792 57.3958Z" fill="#1F1F39"/>
<path fill-rule="evenodd" clip-rule="evenodd" d="M91.6935 78.0925L94.3457 72.912L91.6935 78.0925Z" fill="#1F1F39"/>
<path d="M91.8163 78.143L94.4685 72.9749C94.5057 72.9129 94.4809 72.8262 94.4065 72.8014C94.3446 72.7642 94.2578 72.789 94.233 72.8634L91.5808 78.0314C91.5436 78.0934 91.5684 78.1802 91.6428 78.205C91.6552 78.2173 91.6676 78.2173 91.6924 78.2173C91.7419 78.2173 91.7915 78.1926 91.8163 78.143Z" fill="#1F1F39"/>
<path d="M27.6534 67.7571C19.176 76.2469 17.8375 82.6669 15.9784 88.8638C14.1194 95.0607 13.5121 107.653 13.5121 107.653H39.0186L48.8469 57.5446C48.8469 57.5446 36.1308 59.2673 27.6534 67.7571Z" fill="#F9ACC0"/>
<path d="M85.6319 107.665H30.2809L30.975 83.5345L15.9908 83.5345C15.9908 83.5345 20.7625 68.6866 31.9045 61.6593C43.0466 54.632 55.3041 53.8636 63.3353 55.9582C78.0592 59.8002 89.8582 68.823 89.8582 68.823L87.6025 91.0947L81.6162 88.5664L85.6319 107.665Z" fill="#F99A3D"/>
<path d="M41.4355 82.605L35.598 64.572C35.598 64.572 52.5652 67.8811 63.5709 88.8391C68.702 98.5931 68.764 104.331 67.3635 107.665H30.2687L30.8636 86.9181L41.4355 82.605Z" fill="#E88524"/>
<path d="M87.4539 91.0324L81.7776 88.6405L78.9643 79.5312L87.4539 91.0324Z" fill="#E88524"/>
<path d="M69.6571 65.7118C69.6818 66.1456 69.4216 66.5298 69.1241 66.8148C68.8019 67.1123 68.4053 67.2982 68.0707 67.5708C67.7113 67.8559 67.4758 68.2525 67.5006 68.711C67.5254 69.1944 67.8352 69.6157 68.269 69.814C68.5045 69.9256 68.2938 70.2602 68.0707 70.1611C67.2279 69.7769 66.8809 68.773 67.2651 67.9426C67.4634 67.5212 67.8352 67.2362 68.2194 66.9883C68.5788 66.7528 68.963 66.5298 69.1737 66.1332C69.4464 65.6374 69.0993 65.1665 68.7771 64.7947C68.6036 64.6088 68.8887 64.3237 69.0498 64.522C69.3348 64.869 69.6323 65.2532 69.6571 65.7118Z" fill="white"/>
<path d="M70.7973 78.2665C70.4379 78.5391 70.0165 78.725 69.6819 79.0349C69.3101 79.3819 69.2233 79.8528 69.434 80.3238C69.7066 80.9063 70.2891 81.2409 70.8221 81.5507C71.0451 81.6747 70.8468 82.0217 70.6238 81.8978C70.1156 81.6127 69.6075 81.3029 69.2605 80.8195C68.9506 80.3857 68.8019 79.8033 69.0126 79.2951C69.3968 78.3904 70.5494 78.2417 71.0327 77.4237C71.3178 76.9404 71.3798 76.3207 71.1567 75.8125C71.1195 75.7134 71.1319 75.6019 71.231 75.5399C71.3302 75.4779 71.4789 75.5027 71.5161 75.6019C71.9251 76.5562 71.6152 77.6344 70.7973 78.2665Z" fill="white"/>
<path d="M85.0373 74.4121C85.0621 74.0651 85.1117 73.6561 84.9878 73.3215C84.7399 72.6894 83.9343 72.6522 83.3642 72.8009C82.7445 72.9744 82.0877 73.433 81.4308 73.1603C80.8731 72.9373 80.5385 72.3052 80.4145 71.7599C80.2658 71.0906 80.3774 70.3718 80.7492 69.8017C80.8855 69.591 81.2325 69.7893 81.0962 70C80.774 70.4957 80.6748 71.103 80.7987 71.6731C80.9227 72.2184 81.3069 72.9001 81.9513 72.8381C82.286 72.8009 82.6082 72.6398 82.918 72.5159C83.2403 72.3919 83.5749 72.3176 83.9219 72.3176C84.5168 72.3176 85.1365 72.6274 85.3596 73.2099C85.4959 73.5693 85.4587 73.9907 85.4339 74.3749C85.3967 74.7963 85.3348 75.2177 85.2232 75.639C85.1613 75.8869 84.7771 75.7878 84.839 75.5399C84.9382 75.1681 85.0002 74.7963 85.0373 74.4121Z" fill="white"/>
<path d="M77.8864 95.1712C77.6138 95.072 77.3287 95.2455 77.1304 95.4066C76.8826 95.6049 76.6595 95.828 76.4116 96.0263C76.1513 96.2246 75.8787 96.4105 75.5936 96.5592C75.0235 96.8567 74.3791 97.0302 73.7346 96.9682C73.1645 96.9062 72.6192 96.646 72.2226 96.237C71.7764 95.7784 71.541 95.1588 71.6525 94.5143C71.7021 94.2664 72.0863 94.3656 72.0367 94.6258C71.9375 95.1835 72.2102 95.7041 72.6192 96.0759C73.0654 96.4849 73.6479 96.646 74.2551 96.5964C74.8996 96.5344 75.5069 96.237 76.0274 95.8652C76.5231 95.5058 76.9445 94.9109 77.5642 94.787C77.874 94.725 78.1839 94.8241 78.407 95.0472C78.6176 95.2703 78.7044 95.5801 78.5433 95.8528C78.3822 96.0759 78.0475 95.8652 78.1715 95.6421C78.283 95.4438 78.0599 95.2455 77.8864 95.1712Z" fill="white"/>
<path d="M63.7575 81.8606C63.8566 82.443 63.6707 83.0008 63.2618 83.4221C62.8652 83.8311 62.3446 84.079 61.9109 84.4508C61.5267 84.7854 61.0557 85.3555 61.3036 85.8885C61.5267 86.3966 62.2331 86.4833 62.7164 86.4214C62.828 86.409 62.9271 86.4462 62.9643 86.5577C62.9891 86.6445 62.9271 86.7932 62.828 86.8056C62.3075 86.8799 61.725 86.8304 61.2912 86.4957C60.8202 86.1239 60.7459 85.5043 60.9937 84.9837C61.254 84.4012 61.7745 84.0542 62.2827 83.7072C62.7536 83.385 63.2618 83.0255 63.3733 82.4183C63.4972 81.7366 63.0882 81.0426 62.6421 80.5592C62.4686 80.3857 62.7412 80.1007 62.9147 80.2866C63.3237 80.7203 63.6583 81.2657 63.7575 81.8606Z" fill="white"/>
<path d="M66.8183 103.018C66.6696 103.625 66.1615 104.108 66.0623 104.74C65.9756 105.273 66.2358 105.856 66.6944 106.141C67.2397 106.488 67.9957 106.401 68.4543 105.955C68.6402 105.781 68.9252 106.054 68.7393 106.24C68.3056 106.661 67.6735 106.835 67.0786 106.723C66.4837 106.612 66.0128 106.165 65.7897 105.608C65.5418 105 65.6905 104.406 66.0004 103.848C66.1615 103.563 66.3474 103.278 66.4341 102.968C66.5085 102.708 66.4961 102.435 66.4093 102.175C66.2234 101.605 65.6781 101.146 65.0708 101.121C64.8106 101.109 64.8106 100.712 65.0585 100.725C66.1739 100.749 67.091 101.927 66.8183 103.018Z" fill="white"/>
<path d="M45.1043 61.8576C45.0299 62.4277 44.7697 62.9606 44.4226 63.4068C44.2491 63.6422 44.0384 63.8405 43.8401 64.0512C43.6666 64.2371 43.4683 64.4478 43.4064 64.6957C43.332 65.0055 43.5923 65.1666 43.8525 65.2658C44.1996 65.4021 44.559 65.4517 44.9308 65.4269C45.191 65.4145 45.191 65.8111 44.9308 65.8235C44.6085 65.8359 44.2739 65.7987 43.9641 65.712C43.7038 65.6376 43.4064 65.526 43.2205 65.3278C42.7991 64.8816 43.0965 64.3115 43.4312 63.9273C43.6171 63.7166 43.8278 63.5307 44.0013 63.32C44.1872 63.0969 44.3607 62.849 44.4846 62.5764C44.7201 62.093 44.8192 61.5353 44.6705 61.0148C44.5218 60.4943 44.1624 60.0233 43.6295 59.8746C43.3692 59.8002 43.4807 59.416 43.7286 59.4904C44.7201 59.7878 45.2406 60.8785 45.1043 61.8576Z" fill="white"/>
<path d="M57.4988 69.5414C56.8048 69.8141 56.5941 70.5453 56.3958 71.2021C56.1727 71.9334 55.8753 72.6398 55.1193 72.9744C54.45 73.2719 53.5701 73.3338 52.876 73.0488C52.0457 72.7142 51.426 72.0077 51.1162 71.1774C51.0294 70.9419 51.4136 70.8303 51.5004 71.0658C51.773 71.7599 52.3183 72.4043 53.0248 72.677C53.3718 72.8133 53.7312 72.8257 54.103 72.8009C54.4748 72.7761 54.8466 72.6894 55.1689 72.4911C55.8133 72.0821 55.9373 71.2641 56.1603 70.5949C56.3958 69.9256 56.78 69.3431 57.4864 69.12C58.2053 68.8845 59.0604 69.0705 59.5686 69.6406C59.7421 69.8265 59.457 70.1115 59.2835 69.9256C58.8497 69.4299 58.1061 69.3059 57.4988 69.5414Z" fill="white"/>
<path d="M23.5515 69.2567C23.8737 69.6409 23.9109 70.1366 23.8365 70.62C23.7745 71.1281 23.601 71.6239 23.6382 72.132C23.6754 72.5906 23.9728 72.9624 24.419 73.0863C24.9147 73.2226 25.4229 72.9748 25.7079 72.5658C25.8566 72.3551 26.1913 72.5534 26.0549 72.7641C25.522 73.5449 24.3818 73.8051 23.663 73.0863C23.3036 72.7269 23.2168 72.2187 23.254 71.7354C23.3036 71.1901 23.5143 70.6572 23.4771 70.1119C23.4523 69.6781 23.0929 69.0956 22.5724 69.2567C22.3245 69.3435 22.213 68.9593 22.4608 68.8725C22.8698 68.7486 23.2912 68.9345 23.5515 69.2567Z" fill="white"/>
<path d="M59.3827 59.0936C57.8831 59.8001 56.2595 60.1223 54.6112 60.2462C52.2316 60.4198 49.6662 60.0727 47.7824 58.4864C47.0512 57.8667 46.4687 57.0859 46.0473 56.2183C45.9357 55.9953 46.2828 55.7846 46.3943 56.0201C46.7537 56.7389 47.2123 57.4081 47.7948 57.9658C48.4888 58.6227 49.3192 59.0936 50.2239 59.4035C51.4385 59.8125 52.7398 59.924 54.0163 59.8868C55.6151 59.8373 57.2138 59.577 58.7011 58.9821C60.2998 58.3252 61.7499 57.2842 62.8529 55.9457C62.9892 55.735 63.2743 56.0201 63.1131 56.2183C62.1093 57.4453 60.808 58.4244 59.3827 59.0936Z" fill="white"/>
<path d="M87.5532 73.2098C87.3673 74.4988 87.169 75.7753 86.9955 77.0642C86.8468 78.1548 86.7105 79.2455 86.5865 80.3485C86.4502 81.6002 86.3139 82.8396 86.2023 84.0913C86.0412 85.8388 85.8801 87.5863 85.719 89.3338C85.6942 89.6065 85.6694 89.8667 85.6446 90.1394C85.6198 90.3872 85.2232 90.3996 85.248 90.1394C85.4091 88.3051 85.5702 86.4709 85.7438 84.6491C85.8677 83.3477 85.9916 82.0464 86.1403 80.7451C86.2643 79.6421 86.4006 78.5391 86.5493 77.4484C86.7228 76.1843 86.8964 74.9325 87.0823 73.6684C87.3425 71.9333 87.6028 70.1982 87.8631 68.4631C87.9002 68.1905 87.9374 67.9302 87.987 67.6575C87.9994 67.546 88.1357 67.4964 88.2349 67.5212C88.3464 67.546 88.396 67.6575 88.3712 67.7567C88.0985 69.5785 87.8259 71.4004 87.5532 73.2098Z" fill="white"/>
<path d="M80.5755 85.0705C80.3524 84.959 80.5507 84.6119 80.7738 84.7235C82.4593 85.591 84.1325 86.4586 85.818 87.3261C86.0411 87.45 85.8428 87.7847 85.6197 87.6731C83.9342 86.8056 82.261 85.938 80.5755 85.0705Z" fill="white"/>
<path d="M23.18 80.9565C22.1762 80.9565 21.1723 80.9565 20.1808 80.9565C19.2389 80.9565 18.297 80.9565 17.3675 80.9565C17.1072 80.9565 17.1072 80.5599 17.3675 80.5599C18.7803 80.5599 20.2056 80.5599 21.6184 80.5599C22.6223 80.5599 23.6262 80.5599 24.6177 80.5599C25.5596 80.5599 26.5015 80.5599 27.431 80.5599C27.6789 80.5599 27.6913 80.9565 27.431 80.9565C26.0181 80.9565 24.5929 80.9565 23.18 80.9565Z" fill="white"/>
<path d="M16.3008 99.82L21.7416 97.3041C21.8035 97.2793 21.8407 97.1925 21.8035 97.1306C21.7787 97.0686 21.692 97.0314 21.63 97.0686L16.1893 99.5845C16.1273 99.6093 16.0901 99.696 16.1273 99.758C16.1521 99.8076 16.2017 99.8324 16.2512 99.8324C16.276 99.8324 16.2884 99.8324 16.3008 99.82Z" fill="#1F1F39"/>
<path fill-rule="evenodd" clip-rule="evenodd" d="M29.959 75.0571C31.5082 73.198 27.6785 69.5666 29.8598 66.1583C30.368 65.3527 31.6197 64.1877 35.3503 64.1877C39.0808 64.1877 45.9098 68.7486 49.8387 71.9462C53.7675 75.1438 61.9475 85.2944 62.2573 95.3458C62.5672 105.397 53.5569 108.384 44.5589 107.455C39.6386 106.946 29.55 103.402 24.6792 96.486C18.7797 88.1078 21.0106 81.7126 21.9154 80.0146C23.9108 76.2717 28.4097 76.9286 29.959 75.0571ZM38.5479 78.3291C38.5479 76.7055 37.2218 75.3793 35.5982 75.3793C33.9746 75.3793 32.6484 76.7055 32.6484 78.3291C32.6484 79.9527 33.9746 81.2788 35.5982 81.2788C37.2218 81.2788 38.5479 79.9527 38.5479 78.3291Z" fill="white"/>
<path d="M51.7102 82.2083C51.1896 80.5475 49.4297 79.9279 48.5002 81.2788C47.831 82.2579 48.0169 83.7699 49.0827 84.4887C49.4669 84.7613 49.9998 84.9225 50.6691 84.8977C50.6691 84.8977 52.2183 83.8566 51.7102 82.2083Z" fill="#F99A3D"/>
<path d="M53.1478 90.7973C52.0076 90.6981 51.6978 90.7973 51.3879 91.6277C51.0781 92.458 52.1068 93.2884 53.3585 93.3875C54.5979 93.4867 55.5274 92.6687 55.8372 91.6277C56.1471 90.5866 55.8372 89.7686 54.8086 89.9669C54.8086 89.9669 54.288 90.8964 53.1478 90.7973Z" fill="#3C82F5"/>
<path d="M46.1079 97.4154C43.9391 97.8244 40.5185 96.8949 40.3078 95.4449C40.0971 93.9948 40.9274 94.094 42.0677 93.8957C43.2079 93.6974 44.6579 92.9662 45.2776 92.235C45.8973 91.5285 47.967 91.1071 48.6982 93.1769C49.417 95.2466 48.2892 97.0065 46.1079 97.4154Z" fill="#BEE3C5"/>
<path d="M33.5902 90.2767C30.3803 89.7562 30.4794 88.3061 31.1115 87.8971C31.7312 87.4882 33.3919 87.8971 33.8009 87.3766C34.2099 86.8685 36.7877 85.6167 37.4198 87.798C38.0395 89.9669 36.8001 90.7972 33.5902 90.2767Z" fill="#DA5742"/>
<path d="M46.8018 21.8627C42.8605 23.5359 41.8318 26.0642 40.3817 30.6499C38.9317 35.2357 39.2291 37.7392 37.3948 41.2963C35.5481 44.8533 32.8587 45.7209 32.8587 45.7209C32.8587 45.7209 36.3909 50.6412 53.7919 49.8728C70.8334 49.1292 76.5222 38.9786 76.5222 38.9786C76.5222 38.9786 70.6351 37.8136 68.6893 33.7856C66.7311 29.7452 64.401 22.5568 59.4683 21.5405C54.5355 20.5242 53.1474 23.4987 53.1474 23.4987C53.1474 23.4987 50.743 20.1771 46.8018 21.8627Z" fill="#1F1F39"/>
<path d="M64.4262 43.9107C62.9266 48.0997 59.0226 48.9672 59.0226 48.9672C59.0226 48.9672 59.2209 51.7434 59.6423 54.0982C60.0637 56.4529 60.0637 56.4529 60.0637 56.4529C60.0637 56.4529 58.3905 59.1919 54.5114 59.1299C50.6322 59.068 48.8475 57.5435 48.8475 57.5435C48.8475 57.5435 48.8599 54.3336 48.5625 50.7643C48.265 47.195 47.7941 44.4436 47.7941 44.4436C47.7941 44.4436 42.0187 44.2081 41.4858 39.7341C41.0148 35.8797 44.894 35.8549 45.8731 36.2639C46.8522 36.6729 46.877 36.8092 46.877 36.8092C46.877 36.8092 47.3479 38.4947 47.8684 39.4986C48.389 40.5025 48.8227 40.7255 48.8227 40.7255C48.8227 40.7255 47.98 38.1601 48.0172 36.2763C48.0543 34.4049 48.4633 33.2894 48.4633 33.2894L49.5416 35.5574L56.358 34.4668L56.5067 31.2445L57.9692 34.5412L64.5253 33.6117C64.5253 33.6117 65.9258 39.7217 64.4262 43.9107Z" fill="#F9D2DD"/>
<path d="M47.7941 44.4437C47.7941 44.4437 47.3107 44.4189 46.6043 44.2826C46.5176 43.6877 46.3936 42.9565 46.2077 42.2873C45.8111 40.8248 44.7453 38.5692 44.7453 38.5692C44.7453 38.5692 46.0962 39.2509 47.0009 40.9612C47.4595 41.8287 47.571 43.2044 47.7941 44.4066C47.8684 44.7536 47.9056 45.051 47.9304 45.2865C47.8561 44.7536 47.7941 44.4437 47.7941 44.4437Z" fill="#F9ACC0"/>
<path d="M47.5711 42.2005C47.6455 42.1757 47.6703 42.1013 47.6455 42.0269C47.6207 41.9526 47.0258 40.329 46.245 39.4739C45.4642 38.6187 44.8941 38.408 44.8693 38.3956C44.795 38.3709 44.7206 38.408 44.6958 38.47C44.671 38.5444 44.7082 38.6187 44.7702 38.6435C44.7702 38.6435 45.3155 38.8542 46.0467 39.6474C46.7903 40.4654 47.3852 42.0889 47.3852 42.1137C47.41 42.1757 47.4596 42.2128 47.5216 42.2128C47.5339 42.2128 47.5463 42.2128 47.5711 42.2005Z" fill="#1F1F39"/>
<path d="M62.4922 35.8673C62.2815 35.7062 62.0089 35.669 61.761 35.6938C61.5131 35.7186 61.2653 35.793 61.0546 35.9541C60.8563 36.1152 60.7199 36.3631 60.7447 36.611C60.8315 36.3879 60.9926 36.2268 61.1661 36.1276C61.352 36.0285 61.5627 35.9789 61.7734 35.9541C61.9841 35.9417 62.1948 35.9541 62.3807 36.0408C62.5666 36.1276 62.7401 36.2887 62.864 36.487C62.8392 36.2515 62.7029 36.0161 62.4922 35.8673Z" fill="#1F1F39"/>
<path d="M54.313 36.5242C54.0899 36.4003 53.8296 36.3631 53.5818 36.4127C53.4578 36.4251 53.3339 36.4746 53.2223 36.5366C53.1108 36.5986 53.0116 36.6853 52.9373 36.7845C52.7762 36.9828 52.6894 37.2182 52.6894 37.4537C52.801 37.243 52.9249 37.0695 53.086 36.9332C53.1604 36.8588 53.2471 36.8093 53.3339 36.7721C53.3835 36.7597 53.4206 36.7349 53.4702 36.7225C53.5198 36.7101 53.5694 36.6977 53.6189 36.6853C53.8172 36.6481 54.0279 36.6605 54.2262 36.7225C54.4369 36.7721 54.6228 36.896 54.7839 37.0571C54.7096 36.834 54.5361 36.6358 54.313 36.5242Z" fill="#1F1F39"/>
<path d="M58.6014 38.6064C58.7253 38.9038 58.8369 39.2013 58.8741 39.5111C58.8865 39.5855 58.8865 39.6598 58.8865 39.7342C58.8741 39.8086 58.8741 39.8829 58.8493 39.9449C58.8121 40.0812 58.7377 40.1928 58.6262 40.2671C58.5147 40.3415 58.3659 40.3911 58.2048 40.4158C58.0437 40.4406 57.8826 40.453 57.7215 40.4406C57.8702 40.5026 58.0437 40.5398 58.2172 40.5398C58.3907 40.5398 58.5642 40.515 58.7377 40.4282C58.9112 40.3415 59.0352 40.1804 59.0972 39.9945C59.1343 39.9077 59.1343 39.8086 59.1467 39.7218C59.1467 39.635 59.1467 39.5359 59.1343 39.4491C59.0848 39.1021 58.9484 38.7923 58.7873 38.4948C58.6262 38.2222 58.4403 37.9495 58.2048 37.7141C58.3412 38.0115 58.4775 38.3089 58.6014 38.6064Z" fill="#1F1F39"/>
<path fill-rule="evenodd" clip-rule="evenodd" d="M62.4728 38.8812C62.5434 38.2968 62.2149 37.7765 61.7392 37.7191C61.2635 37.6617 60.8208 38.0889 60.7502 38.6733C60.6797 39.2577 61.0082 39.778 61.4839 39.8354C61.9595 39.8928 62.4023 39.4656 62.4728 38.8812Z" fill="#1F1F39"/>
<path fill-rule="evenodd" clip-rule="evenodd" d="M54.655 39.4176C54.7255 38.8332 54.397 38.3129 53.9214 38.2555C53.4457 38.1981 53.0029 38.6253 52.9324 39.2097C52.8619 39.7941 53.1903 40.3144 53.666 40.3718C54.1417 40.4292 54.5844 40.002 54.655 39.4176Z" fill="#1F1F39"/>
<path d="M59.0471 49.1036C59.0471 49.1036 59.2206 51.5823 59.6172 53.8751C58.9851 53.999 57.9317 53.9246 56.209 53.181C52.5033 51.6071 52.1439 49.401 52.1439 49.401C55.7752 50.7023 59.0471 49.1036 59.0471 49.1036Z" fill="#F9ACC0"/>
<path d="M57.2129 42.5599C56.9898 42.5351 56.7791 42.4607 56.5684 42.3739C56.3701 42.2872 56.1718 42.1633 55.9735 42.0269C55.7752 41.8782 55.5645 41.7171 55.329 41.5312C55.3167 41.841 55.4282 42.1261 55.5893 42.3863C55.7628 42.6342 55.9983 42.8573 56.3081 42.9812C56.4569 43.0432 56.618 43.0804 56.7791 43.1052C56.9402 43.1176 57.1013 43.1176 57.2624 43.068C57.5599 42.9936 57.8449 42.8201 57.9937 42.5475C57.6962 42.5846 57.4483 42.5846 57.2129 42.5599Z" fill="#DA5742"/>
<path d="M56.0731 49.8596C58.1676 49.6117 59.1839 49.2275 59.2335 49.2027C59.3078 49.1779 59.3326 49.1036 59.3078 49.0292C59.2831 48.9549 59.2087 48.9301 59.1343 48.9549C59.1219 48.9549 58.1057 49.3391 56.036 49.5869C53.9786 49.8348 52.3303 49.2523 52.3179 49.2523C52.2436 49.2275 52.1692 49.2647 52.1444 49.3267C52.1196 49.401 52.1568 49.4754 52.2188 49.5002C52.2807 49.525 53.4085 49.9216 54.9825 49.9216C55.3295 49.9216 55.6889 49.8968 56.0731 49.8596Z" fill="#1F1F39"/>
<path fill-rule="evenodd" clip-rule="evenodd" d="M53.9675 42.9796C54.0725 42.1098 53.0062 41.2657 51.586 41.0944C50.1657 40.923 48.9293 41.4892 48.8244 42.359C48.7194 43.2288 49.7856 44.0729 51.2059 44.2443C52.6261 44.4156 53.8626 43.8494 53.9675 42.9796Z" fill="#F9ACC0"/>
<path d="M62.9387 39.821C63.7939 39.7218 64.5871 39.8829 65.0952 40.23C65.058 40.986 64.9713 41.742 64.8226 42.4732C64.4136 42.7211 63.893 42.907 63.3105 42.9813C61.8977 43.1424 60.6583 42.5723 60.5592 41.7048C60.46 40.8372 61.5135 39.9821 62.9387 39.821Z" fill="#F9ACC0"/>
<path d="M31.8921 94.3294C33.7512 94.4657 33.8751 96.647 33.8751 96.647C33.8751 96.647 35.2012 96.238 36.2671 96.9197C37.3329 97.6013 37.0602 99.6462 37.0602 99.6462C37.0602 99.6462 38.25 99.7826 38.9193 101.419C39.5761 103.054 36.8124 106.252 31.4955 107.454C26.1911 108.656 22.4731 106.475 21.0106 103.463C19.5482 100.452 20.0811 98.4069 19.0277 95.5316C18.5195 94.1559 17.0447 92.2473 16.5118 91.8383C15.9789 91.4293 15.9789 88.963 18.2345 88.963C20.4901 88.963 22.8697 90.7353 24.3321 92.52C25.7945 94.317 26.0548 96.238 26.0548 96.238C26.0548 96.238 30.0331 94.1931 31.8921 94.3294Z" fill="#F9D2DD"/>
<path d="M31.5575 102.509L37.1222 99.9064C37.1841 99.8693 37.2213 99.7949 37.1841 99.7329C37.147 99.671 37.0726 99.6338 37.0106 99.671L31.4459 102.274C31.384 102.311 31.3468 102.385 31.384 102.447C31.3964 102.484 31.4459 102.521 31.4955 102.521C31.5203 102.521 31.5327 102.521 31.5575 102.509Z" fill="#1F1F39"/>
<path d="M28.2362 99.2249L33.8009 96.6223C33.8629 96.5851 33.9 96.5107 33.8629 96.4487C33.8257 96.3868 33.7513 96.3496 33.6893 96.3868L28.1247 98.9894C28.0627 99.0266 28.0255 99.1009 28.0627 99.1629C28.0751 99.2125 28.1247 99.2373 28.1742 99.2373C28.199 99.2373 28.2114 99.2373 28.2362 99.2249Z" fill="#1F1F39"/>
<path d="M24.9891 91.1815C25.4972 92.1234 26.2284 95.5812 26.3152 95.9654L22.5971 98.4317L20.7381 89.6447C20.7629 89.6447 20.7753 89.6447 20.7877 89.6571L24.9891 91.1815Z" fill="#F9ACC0"/>
<path fill-rule="evenodd" clip-rule="evenodd" d="M78.6923 78.6259L81.6172 88.5654L78.6923 78.6259Z" fill="#1F1F39"/>
<path d="M81.6534 88.7026C81.7278 88.6778 81.7649 88.6034 81.7402 88.5414L78.8277 78.6018C78.8029 78.5275 78.7285 78.4903 78.6666 78.5151C78.5922 78.5399 78.555 78.6142 78.5798 78.6762L81.4923 88.6158C81.5047 88.6654 81.5543 88.7026 81.6162 88.7026C81.6286 88.7026 81.641 88.7026 81.6534 88.7026Z" fill="#1F1F39"/>
<path d="M83.2398 60.6183C83.2026 60.5191 83.277 60.3952 83.3762 60.3704C83.4877 60.3456 83.5868 60.4076 83.624 60.5067C83.7232 60.7918 83.8347 61.0768 83.9339 61.3495C83.971 61.4486 83.8967 61.5726 83.7975 61.5973C83.686 61.6345 83.5868 61.5726 83.5497 61.461C83.4505 61.176 83.339 60.8909 83.2398 60.6183Z" fill="white"/>
<path fill-rule="evenodd" clip-rule="evenodd" d="M29.959 75.4289C31.5082 73.5698 27.6785 69.9384 29.8598 66.5301C30.368 65.7245 31.6197 64.5595 35.3503 64.5595C39.0808 64.5595 45.9098 69.1204 49.8387 72.3181C53.7675 75.5157 61.9475 85.6662 62.2573 95.7176C62.5672 105.769 53.5569 108.756 44.5589 107.826C39.6386 107.318 29.55 103.774 24.6792 96.8579C18.7797 88.4796 21.0106 82.0844 21.9154 80.3864C23.9108 76.6435 28.4097 77.3004 29.959 75.4289ZM38.5479 78.7009C38.5479 77.0773 37.2218 75.7512 35.5982 75.7512C33.9746 75.7512 32.6484 77.0773 32.6484 78.7009C32.6484 80.3245 33.9746 81.6506 35.5982 81.6506C37.2218 81.6506 38.5479 80.3245 38.5479 78.7009Z" fill="white"/>
<path fill-rule="evenodd" clip-rule="evenodd" d="M29.959 75.4289C31.5082 73.5698 27.6785 69.9384 29.8598 66.5301C30.368 65.7245 31.6197 64.5595 35.3503 64.5595C39.0808 64.5595 45.9098 69.1204 49.8387 72.3181C53.7675 75.5157 61.9475 85.6662 62.2573 95.7176C62.5672 105.769 53.5569 108.756 44.5589 107.826C39.6386 107.318 29.55 103.774 24.6792 96.8579C18.7797 88.4796 21.0106 82.0844 21.9154 80.3864C23.9108 76.6435 28.4097 77.3004 29.959 75.4289ZM38.5479 78.7009C38.5479 77.0773 37.2218 75.7512 35.5982 75.7512C33.9746 75.7512 32.6484 77.0773 32.6484 78.7009C32.6484 80.3245 33.9746 81.6506 35.5982 81.6506C37.2218 81.6506 38.5479 80.3245 38.5479 78.7009Z" fill="white"/>
<path d="M51.7106 82.5797C51.1901 80.919 49.4302 80.2993 48.5007 81.6502C47.8315 82.6293 48.0174 84.1413 49.0832 84.8601C49.4674 85.1328 50.0003 85.2939 50.6696 85.2691C50.6696 85.2691 52.2188 84.2281 51.7106 82.5797Z" fill="white"/>
<path d="M53.1478 91.1683C52.0076 91.0692 51.6978 91.1683 51.3879 91.9987C51.0781 92.8291 52.1068 93.6594 53.3585 93.7586C54.5979 93.8577 55.5274 93.0398 55.8372 91.9987C56.1471 90.9576 55.8372 90.1397 54.8086 90.338C54.8086 90.338 54.288 91.2675 53.1478 91.1683Z" fill="white"/>
<path d="M46.1087 97.7865C43.9398 98.1955 40.5192 97.2659 40.3085 95.8159C40.0978 94.3659 40.9282 94.465 42.0684 94.2667C43.2086 94.0684 44.6586 93.3372 45.2783 92.606C45.898 91.8996 47.9677 91.4782 48.6989 93.5479C49.4178 95.6176 48.2899 97.3775 46.1087 97.7865Z" fill="white"/>
<path d="M33.5912 90.6479C30.3813 90.1273 30.4804 88.6773 31.1125 88.2683C31.7322 87.8593 33.3929 88.2683 33.8019 87.7478C34.2109 87.2396 36.7887 85.9879 37.4208 88.1692C38.0405 90.338 36.8011 91.1684 33.5912 90.6479Z" fill="white"/>
</g>
</svg>
