<svg width="20" height="16" viewBox="0 0 20 16" fill="none" xmlns="http://www.w3.org/2000/svg">
<path fill-rule="evenodd" clip-rule="evenodd" d="M2.49992 0.146484H17.4999C18.4204 0.146484 19.1666 0.892684 19.1666 1.81315V13.4798C19.1666 14.4003 18.4204 15.1465 17.4999 15.1465H2.49992C1.57945 15.1465 0.833252 14.4003 0.833252 13.4798V1.81315C0.833252 0.892676 1.57944 0.146484 2.49992 0.146484ZM17.4999 5.14648V3.47982H2.49992V5.14648H17.4999ZM11.2499 10.1465H14.9999C15.4602 10.1465 15.8333 10.5196 15.8333 10.9798C15.8333 11.4401 15.4602 11.8132 14.9999 11.8132H11.2499C10.7897 11.8132 10.4166 11.4401 10.4166 10.9798C10.4166 10.5196 10.7897 10.1465 11.2499 10.1465Z" fill="#FF6905"/>
</svg>
