<svg width="128" height="128" viewBox="0 0 128 128" fill="none" xmlns="http://www.w3.org/2000/svg">
<g clip-path="url(#clip0_0_5649)">
<path d="M128 0L0 128" stroke="#87C0F4" stroke-width="1.26562" stroke-dasharray="3.78 3.78"/>
<path fill-rule="evenodd" clip-rule="evenodd" d="M63.7277 125.44C29.6451 125.44 2.01562 97.8106 2.01562 63.728C2.01562 29.6453 29.6451 2.01587 63.7277 2.01587C97.8104 2.01587 125.44 29.6453 125.44 63.728C125.44 97.8106 97.8104 125.44 63.7277 125.44Z" fill="#1F1F39"/>
<path fill-rule="evenodd" clip-rule="evenodd" d="M63.7277 125.44C29.6451 125.44 2.01562 97.8106 2.01562 63.728C2.01562 29.6453 29.6451 2.01587 63.7277 2.01587C97.8104 2.01587 125.44 29.6453 125.44 63.728C125.44 97.8106 97.8104 125.44 63.7277 125.44Z" fill="#C4C4C4"/>
<mask id="mask0_0_5649" style="mask-type:luminance" maskUnits="userSpaceOnUse" x="2" y="2" width="124" height="124">
<path fill-rule="evenodd" clip-rule="evenodd" d="M63.7277 125.44C29.6451 125.44 2.01562 97.8106 2.01562 63.728C2.01562 29.6453 29.6451 2.01587 63.7277 2.01587C97.8104 2.01587 125.44 29.6453 125.44 63.728C125.44 97.8106 97.8104 125.44 63.7277 125.44Z" fill="white"/>
</mask>
<g mask="url(#mask0_0_5649)">
<path d="M24.1866 30.4044C18.4697 30.4337 16.5911 36.6417 22.1709 42.4989C27.7507 48.356 34.7485 52.946 34.7485 52.946C34.7485 52.946 30.5695 68.958 36.7071 79.7647C42.8447 90.5714 52.1274 97.5858 63.7539 102.235C75.3804 106.884 83.9604 107.681 83.9604 107.681L106.233 122.7L128.978 98.0358C128.978 98.0358 102.806 70.2293 96.9414 60.9389C91.075 51.65 52.2445 32.1508 39.0124 37.0218C39.0124 37.0218 29.9051 30.3751 24.1866 30.4044Z" fill="#F9D2DD"/>
</g>
<path d="M45.9913 60.589L37.0523 36.1926L31.4663 50.6961L45.9913 60.589Z" fill="#F9ACC0"/>
<path d="M91.7914 86.3075C91.0271 85.8991 89.5663 84.9114 88.4429 84.1332C88.4291 66.9716 83.854 53.5283 82.3562 49.585C81.7752 49.2507 81.185 48.9178 80.5856 48.585L73.0195 49.6498L79.5593 106.978C80.809 107.226 81.8245 107.392 82.5627 107.5C83.2576 106.6 84.0204 105.425 84.7585 103.914L84.2038 107.767L92.0072 113.029C92.0072 113.029 89.4461 106.076 90.8961 97.9124C92.0626 91.3449 98.5917 88.8562 98.5917 88.8562C98.5917 88.8562 95.7162 88.4078 91.7914 86.3075Z" fill="#F9ACC0"/>
<path d="M42.538 100.492C39.7011 100.506 37.3696 98.1974 37.3542 95.3605L36.9952 24.7941C36.9813 21.9572 39.2897 19.6258 42.1266 19.6103L78.8937 19.4239C81.7306 19.41 84.0621 21.7184 84.0775 24.5553L84.4365 95.1217C84.4504 97.9586 82.1405 100.292 79.3051 100.305L42.538 100.492Z" fill="#3D5CFF"/>
<path d="M70.4066 21.2021L70.4174 23.4658C70.4235 24.5752 69.519 25.4875 68.4095 25.4936L52.436 25.5753C51.3265 25.5815 50.4142 24.6769 50.4081 23.5675L50.3973 21.3038L44.1364 21.3362C41.5229 21.35 39.3949 23.4981 39.4088 26.1131L39.7524 93.5314C39.7663 96.1448 41.9144 98.2729 44.5293 98.259L77.0619 98.0941C79.6754 98.0802 81.8035 95.9322 81.7896 93.3172L81.446 25.8989C81.4305 23.2839 79.2809 21.1574 76.6675 21.1697L70.4066 21.2021Z" fill="white"/>
<path d="M44.1529 43.0025C43.4436 43.0072 42.8611 42.2322 42.8577 41.2793L42.8325 34.6947C42.8291 33.7417 43.4059 32.9591 44.1152 32.9545L48.5673 32.9238C49.2766 32.9192 49.8591 33.6942 49.8625 34.6471L49.8876 41.2317C49.891 42.1831 49.3143 42.9657 48.605 42.9719L44.1529 43.0025Z" fill="#EAEAFF"/>
<path d="M53.2237 43.0025C52.5144 43.0072 51.9319 42.2322 51.9285 41.2793L51.9033 34.6947C51.8999 33.7417 52.4767 32.9591 53.186 32.9545L57.6381 32.9238C58.3474 32.9192 58.9299 33.6942 58.9333 34.6471L58.9584 41.2317C58.9618 42.1831 58.3851 42.9657 57.6758 42.9719L53.2237 43.0025Z" fill="#EAEAFF"/>
<path d="M62.295 43.0025C61.5857 43.0072 61.0032 42.2322 60.9998 41.2793L60.9746 34.6947C60.9712 33.7417 61.548 32.9591 62.2573 32.9545L66.7094 32.9238C67.4187 32.9192 68.0012 33.6942 68.0046 34.6471L68.0297 41.2317C68.0331 42.1831 67.4563 42.9657 66.7471 42.9719L62.295 43.0025Z" fill="#EAEAFF"/>
<path d="M71.3658 43.0025C70.6565 43.0072 70.074 42.2322 70.0706 41.2793L70.0454 34.6947C70.042 33.7417 70.6188 32.9591 71.3281 32.9545L75.7802 32.9238C76.4895 32.9192 77.072 33.6942 77.0754 34.6471L77.1005 41.2317C77.1039 42.1831 76.5272 42.9657 75.8179 42.9719L71.3658 43.0025Z" fill="#EAEAFF"/>
<path d="M39.7382 91.2925L39.5317 50.6807L39.7182 91.2956C39.7244 91.294 39.7305 91.294 39.7382 91.2925Z" fill="#EAEAFF"/>
<path d="M48.4016 76.0586C48.4016 76.0586 50.9812 73.6239 50.7731 69.9086C50.5651 66.1919 46.3028 63.2887 46.3028 63.2887C46.3028 63.2887 49.9595 60.102 48.7191 55.0585C47.7483 51.1136 42.4088 50.1228 39.5288 49.7668L39.5334 50.6822L39.7399 91.294C42.3102 90.9519 45.2396 88.9548 47.4308 85.3798C49.9842 81.2115 48.4016 76.0586 48.4016 76.0586Z" fill="#EAEAFF"/>
<path d="M83.9451 58.068L81.5874 53.9136L81.6937 74.7658C82.5027 76.6426 83.1176 77.8461 83.1176 77.8461L83.9451 58.068Z" fill="#EAEAFF"/>
<path d="M81.6924 74.7657L81.5861 53.9135L77.2514 46.2734C77.2514 46.2719 76.9601 58.2189 78.3347 64.6924C79.1267 68.4216 80.5922 72.2154 81.6924 74.7657Z" fill="#EAEAFF"/>
<path d="M84.4017 76.9738C83.7344 74.5823 84.7037 70.1921 83.8115 68.6527C81.1996 64.1454 78.5014 58.9647 77.4735 55.2495C75.2469 47.1888 75.8787 39.1142 80.4121 37.9153C84.9456 36.7149 89.362 45.4367 90.8937 48.7913C92.4239 52.146 99.3874 65.731 99.3874 65.731L96.8957 86.1286C96.8957 86.1286 87.9304 89.6127 84.4017 76.9738Z" fill="#F9D2DD"/>
<path d="M46.8524 52.2123C50.2348 55.8951 47.9033 60.4471 45.8924 61.8016C43.8815 63.1561 42.4669 63.2902 42.4669 63.2902C42.4669 63.2902 48.0112 64.828 48.623 69.5233C49.3226 74.9013 44.4485 75.8551 44.4485 75.8551C44.4485 75.8551 47.6583 77.9369 46.8355 81.6399C46.0126 85.3428 41.4806 86.7111 37.4434 86.5647C33.4061 86.4153 24.3175 84.6108 26.0634 64.2564C27.5735 46.6571 43.4716 48.5294 46.8524 52.2123Z" fill="#F9D2DD"/>
<path d="M38.0356 59.686C38.0356 59.686 44.6694 60.6614 45.3228 56.7905C46.3983 50.411 37.9971 52.1276 37.9971 52.1276L38.0356 59.686Z" fill="#F9E1E8"/>
<path d="M38.1962 73.3187C38.1962 73.3187 44.83 74.2941 45.4834 70.4232C46.559 64.0421 38.1577 65.7603 38.1577 65.7603L38.1962 73.3187Z" fill="#F9E1E8"/>
<path d="M38.1466 83.9282C38.1466 83.9282 43.7218 84.748 44.2719 81.4951C45.1764 76.1341 38.1143 77.5764 38.1143 77.5764L38.1466 83.9282Z" fill="#F9E1E8"/>
<path d="M98.5919 88.8562C98.5919 88.8562 92.442 88.4017 87.5525 83.2117C82.6631 78.0218 84.3135 71.0259 84.3135 71.0259" stroke="#1F1F39" stroke-width="0.500521"/>
<path d="M35.0674 75.7382L44.6151 75.8121C45.3995 75.6026 48.6771 74.49 48.6909 70.5652C48.3103 72.5484 46.851 74.0678 44.4318 74.6287C42.014 75.1896 35.0674 75.7382 35.0674 75.7382Z" fill="#F9ACC0"/>
<path d="M37.3034 85.3567C34.7916 85.0747 31.3106 83.7772 29.2442 81.1237C28.05 79.5889 27.2363 78.1589 26.7617 77.2251C28.9514 85.4784 34.522 86.4554 37.4436 86.5633C41.2975 86.7035 45.603 85.4615 46.6986 82.1238C46.4258 82.6662 45.8403 83.2179 45.512 83.4629C43.1082 85.2488 39.8151 85.6387 37.3034 85.3567Z" fill="#F9ACC0"/>
<path d="M45.8928 61.8001C47.6881 60.5905 49.7329 56.8352 47.7497 53.425C48.1812 54.3173 48.4077 55.3512 48.1565 56.4731C47.346 60.0866 44.9143 61.3409 41.5951 62.0051C38.2759 62.6692 34.1924 62.9512 34.1924 62.9512L42.4673 63.2887C42.4673 63.2887 43.8819 63.1562 45.8928 61.8001Z" fill="#F9ACC0"/>
<path d="M34.1138 63.2439L43.5875 63.3333" stroke="#1F1F39" stroke-width="0.500521" stroke-linecap="round"/>
<path d="M35.0767 75.7056L44.5504 75.7934" stroke="#1F1F39" stroke-width="0.500521" stroke-linecap="round"/>
<path d="M89.1948 25.748C89.1948 29.414 91.2108 32.691 94.3787 34.8876C94.4596 36.5595 94.1921 38.8681 91.8098 39.9325C91.8084 39.9332 91.8069 39.9339 91.8054 39.9347C91.699 39.9738 91.6074 40.0434 91.5427 40.1341C91.478 40.2249 91.4433 40.3325 91.4432 40.4428C91.4432 40.5871 91.5024 40.7255 91.6078 40.8276C91.7132 40.9297 91.8562 40.987 92.0052 40.987C92.0187 40.987 92.0314 40.985 92.0448 40.9849C92.0477 40.9849 92.0506 40.9849 92.0535 40.9849C94.7898 40.9679 97.1126 39.5361 98.7151 38.0234C99.2232 37.5434 99.9316 37.3071 100.63 37.4345C101.653 37.6228 102.716 37.7215 103.809 37.7215C111.881 37.7215 118.423 32.3606 118.423 25.748C118.423 19.1353 111.881 13.7744 103.809 13.7744C95.7375 13.7744 89.1948 19.1353 89.1948 25.748Z" fill="#3D5CFF"/>
</g>
<defs>
<clipPath id="clip0_0_5649">
<rect width="128" height="128" fill="white"/>
</clipPath>
</defs>
</svg>
