<svg width="260" height="260" viewBox="0 0 260 260" fill="none" xmlns="http://www.w3.org/2000/svg">
<mask id="mask0_0_5856" style="mask-type:luminance" maskUnits="userSpaceOnUse" x="0" y="0" width="260" height="260">
<rect width="260" height="260" fill="white"/>
</mask>
<g mask="url(#mask0_0_5856)">
<path fill-rule="evenodd" clip-rule="evenodd" d="M200 0C233.137 0 260 26.8629 260 60V200C260 233.137 233.137 260 200 260H60C26.8629 260 0 233.137 0 200V60C0 26.8629 26.8629 0 60 0H200Z" fill="white" fill-opacity="0.01"/>
<path fill-rule="evenodd" clip-rule="evenodd" d="M175.166 25C174.887 25 174.658 25.2285 174.658 25.5078C174.658 25.7871 174.887 26.0156 175.166 26.0156H178.188C178.467 26.0156 178.695 25.7871 178.695 25.5078C178.695 25.2285 178.467 25 178.188 25H175.166ZM169.098 25C168.818 25 168.59 25.2285 168.59 25.5078C168.59 25.7871 168.818 26.0156 169.098 26.0156H172.119C172.398 26.0156 172.627 25.7871 172.627 25.5078C172.627 25.2285 172.398 25 172.119 25H169.098ZM163.029 25C162.75 25 162.521 25.2285 162.521 25.5078C162.521 25.7871 162.75 26.0156 163.029 26.0156H166.051C166.33 26.0156 166.559 25.7871 166.559 25.5078C166.559 25.2285 166.33 25 166.051 25H163.029ZM156.961 25C156.682 25 156.453 25.2285 156.453 25.5078C156.453 25.7871 156.682 26.0156 156.961 26.0156H159.982C160.262 26.0156 160.49 25.7871 160.49 25.5078C160.49 25.2285 160.262 25 159.982 25H156.961ZM150.918 25C150.639 25 150.41 25.2285 150.41 25.5078C150.41 25.7871 150.639 26.0156 150.918 26.0156H153.939C154.219 26.0156 154.447 25.7871 154.447 25.5078C154.422 25.2285 154.219 25 153.939 25H150.918ZM144.824 25C144.545 25 144.316 25.2285 144.316 25.5078C144.316 25.7871 144.545 26.0156 144.824 26.0156H147.871C148.15 26.0156 148.379 25.7871 148.379 25.5078C148.379 25.2285 148.15 25 147.871 25H144.824ZM138.781 25C138.502 25 138.273 25.2285 138.273 25.5078C138.273 25.7871 138.502 26.0156 138.781 26.0156H141.803C142.082 26.0156 142.311 25.7871 142.311 25.5078C142.311 25.2285 142.082 25 141.803 25H138.781ZM132.713 25C132.434 25 132.205 25.2285 132.205 25.5078C132.205 25.7871 132.434 26.0156 132.713 26.0156H135.734C136.014 26.0156 136.242 25.7871 136.242 25.5078C136.242 25.2285 136.014 25 135.734 25H132.713ZM126.67 25C126.391 25 126.162 25.2285 126.162 25.5078C126.162 25.7871 126.391 26.0156 126.67 26.0156H129.691C129.971 26.0156 130.199 25.7871 130.199 25.5078C130.174 25.2285 129.971 25 129.691 25H126.67ZM120.602 25C120.322 25 120.094 25.2285 120.094 25.5078C120.094 25.7871 120.322 26.0156 120.602 26.0156H123.623C123.902 26.0156 124.131 25.7871 124.131 25.5078C124.131 25.2285 123.902 25 123.623 25H120.602ZM114.533 25C114.254 25 114.025 25.2285 114.025 25.5078C114.025 25.7871 114.254 26.0156 114.533 26.0156H117.555C117.834 26.0156 118.062 25.7871 118.062 25.5078C118.062 25.2285 117.834 25 117.555 25H114.533ZM108.465 25C108.186 25 107.957 25.2285 107.957 25.5078C107.957 25.7871 108.186 26.0156 108.465 26.0156H111.486C111.766 26.0156 111.994 25.7871 111.994 25.5078C111.994 25.2285 111.766 25 111.486 25H108.465ZM102.422 25C102.143 25 101.914 25.2285 101.914 25.5078C101.914 25.7871 102.143 26.0156 102.422 26.0156H105.443C105.723 26.0156 105.951 25.7871 105.951 25.5078C105.926 25.2285 105.697 25 105.443 25H102.422ZM96.3281 25C96.0488 25 95.8203 25.2285 95.8203 25.5078C95.8203 25.7871 96.0488 26.0156 96.3281 26.0156H99.375C99.6543 26.0156 99.8828 25.7871 99.8828 25.5078C99.8828 25.2285 99.6543 25 99.375 25H96.3281ZM90.2852 25C90.0059 25 89.7773 25.2285 89.7773 25.5078C89.7773 25.7871 90.0059 26.0156 90.2852 26.0156H93.3066C93.5859 26.0156 93.8145 25.7871 93.8145 25.5078C93.8145 25.2285 93.5859 25 93.3066 25H90.2852ZM85.334 25C85.334 25 85.334 25 85.3086 25C85.2832 25 85.2578 25 85.207 25H85.1816C85.1309 25 85.1055 25 85.0547 25C84.9785 25 84.9023 25.0254 84.8262 25.0254C84.5469 25.0508 84.3437 25.3047 84.3691 25.584C84.3945 25.8379 84.623 26.041 84.877 26.041C84.9023 26.041 84.9023 26.041 84.9277 26.041C85.2578 26.0156 85.6133 25.9902 85.9688 25.9902H87.873C88.1523 25.9902 88.3809 25.7617 88.3809 25.4824C87.7461 25.2285 87.5176 25 87.2383 25H85.334ZM81.2969 25.7871C80.3574 26.168 79.4688 26.6758 78.6816 27.3105C78.4531 27.4883 78.4277 27.793 78.6055 28.0215C78.707 28.1484 78.8594 28.2246 79.0117 28.2246C79.1133 28.2246 79.2402 28.1992 79.3164 28.123C80.0527 27.5645 80.8398 27.082 81.6777 26.752C81.9316 26.6504 82.0586 26.3457 81.957 26.0918C81.8555 25.8633 81.6777 25.7617 81.4746 25.7617C81.4238 25.7617 81.3477 25.7617 81.2969 25.7871ZM76.5742 29.4688C76.2949 29.8496 76.041 30.2559 75.7871 30.6875V30.7129V30.7383V30.7637V30.7891V30.8145V30.8398C75.7871 30.8398 75.7871 30.8398 75.7871 30.8652V30.8906V30.916V30.9414V30.9668C75.6855 31.1699 75.6094 31.3984 75.5332 31.6016C75.4316 31.8555 75.584 32.1602 75.8379 32.2617C75.8887 32.2871 75.9648 32.2871 76.0156 32.2871C76.2188 32.2871 76.4219 32.1602 76.498 31.957C76.8027 31.0937 77.2598 30.2812 77.793 29.5449C77.9453 29.3164 77.9199 29.0117 77.6914 28.834C77.1836 29.3164 77.082 29.2656 76.9805 29.2656C76.8281 29.2656 76.6758 29.3418 76.5742 29.4688ZM74.5176 35.0801C74.5176 35.1055 74.5176 35.1309 74.5176 35.1562V35.1816C74.5176 35.2832 74.5176 35.4102 74.5176 35.5117V35.5371V35.5625V35.5879V35.6133V37.8984C74.5176 38.1777 74.7461 38.4063 75.0254 38.4063C75.3047 38.4063 75.5332 38.1777 75.5332 37.8984V35.6133C75.5332 35.3848 75.5332 35.1563 75.5586 34.9277C75.584 34.6484 75.3555 34.4199 75.1016 34.3945C75.0508 34.623 75.0254 34.623 75.0254 34.623C74.7715 34.623 74.543 34.8262 74.5176 35.0801ZM74.4922 41.1738V44.1953C74.4922 44.4746 74.7207 44.7031 75 44.7031C75.2793 44.7031 75.5078 44.4746 75.5078 44.1953V41.1738C75.5078 40.8945 75.2793 40.666 75 40.666C74.7207 40.666 74.4922 40.8945 74.4922 41.1738ZM74.4922 47.2422V50.2637C74.4922 50.543 74.7207 50.7715 75 50.7715C75.2793 50.7715 75.5078 50.543 75.5078 50.2637V47.2422C75.5078 46.9375 75.2793 46.7344 75 46.7344C74.7207 46.7344 74.4922 46.9629 74.4922 47.2422ZM74.4922 53.2852V56.3066C74.4922 56.5859 74.7207 56.8144 75 56.8144C75.2793 56.8144 75.5078 56.5859 75.5078 56.3066V53.2852C75.5078 53.0059 75.2793 52.7773 75 52.7773C74.7207 52.7773 74.4922 53.0059 74.4922 53.2852ZM74.4922 59.3535V62.375C74.4922 62.6543 74.7207 62.8828 75 62.8828C75.2793 62.8828 75.5078 62.6543 75.5078 62.375V59.3535C75.5078 59.0742 75.2793 58.8457 75 58.8457C74.7207 58.8457 74.4922 59.0742 74.4922 59.3535ZM74.4922 65.4219V68.4434C74.4922 68.7227 74.7207 68.9512 75 68.9512C75.2793 68.9512 75.5078 68.7227 75.5078 68.4434V65.4219C75.5078 65.1426 75.2793 64.9141 75 64.9141C74.7207 64.9141 74.4922 65.1426 74.4922 65.4219ZM74.4922 71.4902V74.5117C74.4922 74.791 74.7207 75.0195 75 75.0195C75.2793 75.0195 75.5078 74.791 75.5078 74.5117V71.4648C75.5078 71.2109 75.2793 70.9824 75 70.9824C74.7207 70.9824 74.4922 71.2109 74.4922 71.4902ZM74.4922 77.5332V80.5547C74.4922 80.834 74.7207 81.0625 75 81.0625C75.2793 81.0625 75.5078 80.834 75.5078 80.5547V77.5332C75.5078 77.2539 75.2793 77.0254 75 77.0254C74.7207 77.0254 74.4922 77.2539 74.4922 77.5332ZM74.4922 83.6016V86.6231C74.4922 86.9023 74.7207 87.1309 75 87.1309C75.2793 87.1309 75.5078 86.9023 75.5078 86.6231V83.6016C75.5078 83.3223 75.2793 83.0937 75 83.0937C74.7207 83.0937 74.4922 83.3223 74.4922 83.6016ZM74.4922 89.6699V91.8535C74.4922 91.8535 74.4922 91.8535 74.4922 91.8789C74.4922 91.8789 74.4922 91.8789 74.4922 91.9043C74.4922 91.9805 74.4922 92.0566 74.5176 92.1328C74.543 92.3867 74.7715 92.5898 75.0254 92.5898C75.0508 92.5898 75.0508 92.5898 75.0762 92.5898C75.3555 92.5645 75.5586 92.3359 75.5332 92.0566C75.5078 91.8027 75.5078 91.5488 75.5078 91.2695V89.0859C75.5078 89.3906 75.2793 89.1621 75 89.1621C74.7207 89.1621 74.4922 89.3906 74.4922 89.6699ZM75.4824 94.9766C75.2285 95.0781 75.1016 95.3574 75.1777 95.6367C75.2285 95.7891 75.3047 95.9668 75.3809 96.1191V96.1445V96.1699V96.1953C75.3809 96.1953 75.3809 96.1953 75.4063 96.2207C75.4063 96.2207 75.4063 96.2207 75.4316 96.2461C75.4316 96.2461 75.4316 96.2715 75.457 96.2715C75.5586 96.3984 75.7109 96.4746 75.8633 96.4746C75.9648 96.4746 76.0664 96.4492 76.168 96.373C76.3965 96.1953 76.4473 95.8906 76.2695 95.6621C75.7109 94.9258 75.2793 94.1133 74.9492 93.25C76.041 95.0781 75.8633 94.9512 75.6602 94.9512C75.6094 94.9512 75.5332 94.9512 75.4824 94.9766ZM78.6562 99.75C78.4785 99.9785 78.5293 100.283 78.7578 100.461C78.834 100.512 78.9102 100.562 78.9863 100.639C78.9863 100.639 78.9863 100.639 79.0117 100.664C79.0117 100.664 79.0117 100.664 79.0371 100.689C79.0371 100.689 79.0371 100.689 79.0625 100.689H79.0879H79.1133H79.1387C79.5195 100.893 79.9258 101.096 80.3574 101.248C80.4082 101.273 80.4844 101.273 80.5352 101.273C80.7383 101.273 80.916 101.146 81.0176 100.943C81.1191 100.689 80.9922 100.385 80.7383 100.283C79.875 99.9531 79.0879 99.4961 78.3516 98.9375C79.2656 99.5723 79.1641 99.5469 79.0625 99.5469C78.9102 99.5469 78.7578 99.623 78.6562 99.75ZM83.8613 102.086C83.8359 102.365 84.0391 102.619 84.3184 102.645H84.3437C84.5977 102.67 84.877 102.67 85.1309 102.695C85.1309 102.695 85.1309 102.695 85.1562 102.695C85.1562 102.695 85.1563 102.695 85.1816 102.695H85.207H87.2129C87.4922 102.695 87.7207 102.467 87.7207 102.188C87.7207 101.908 87.4922 101.68 87.2129 101.68H85.207C84.9023 101.68 84.5723 101.654 84.2676 101.629C84.3945 101.629 84.3691 101.629 84.3691 101.629C84.1152 101.629 83.8867 101.832 83.8613 102.086ZM90.3867 101.68C90.1074 101.68 89.8789 101.908 89.8789 102.188C89.8789 102.467 90.1074 102.695 90.3867 102.695H93.4082C93.6875 102.695 93.916 102.467 93.916 102.188C93.916 101.908 93.6875 101.68 93.4082 101.68H90.3867ZM96.4551 101.68C96.1758 101.68 95.9473 101.908 95.9473 102.188C95.9473 102.467 96.1758 102.695 96.4551 102.695H99.4766C99.7559 102.695 99.9844 102.467 99.9844 102.188C99.9844 101.908 99.7559 101.68 99.4766 101.68H96.4551ZM102.523 101.68C102.244 101.68 102.016 101.908 102.016 102.188C102.016 102.467 102.244 102.695 102.523 102.695H105.545C105.824 102.695 106.053 102.467 106.053 102.188C106.027 101.908 105.824 101.68 105.545 101.68H102.523ZM108.566 101.68C108.287 101.68 108.059 101.908 108.059 102.188C108.059 102.467 108.287 102.695 108.566 102.695H111.588C111.867 102.695 112.096 102.467 112.096 102.188C112.096 101.908 111.867 101.68 111.588 101.68H108.566ZM114.635 101.68C114.355 101.68 114.127 101.908 114.127 102.188C114.127 102.467 114.355 102.695 114.635 102.695H117.656C117.936 102.695 118.164 102.467 118.164 102.188C118.164 101.908 117.936 101.68 117.656 101.68H114.635ZM120.703 101.68C120.424 101.68 120.195 101.908 120.195 102.188C120.195 102.467 120.424 102.695 120.703 102.695H123.725C124.004 102.695 124.232 102.467 124.232 102.188C124.232 101.908 124.004 101.68 123.725 101.68H120.703ZM126.771 101.68C126.492 101.68 126.264 101.908 126.264 102.188C126.264 102.467 126.492 102.695 126.771 102.695H129.793C130.072 102.695 130.301 102.467 130.301 102.188C130.301 101.908 130.072 101.68 129.793 101.68H126.771ZM132.814 101.68C132.535 101.68 132.307 101.908 132.307 102.188C132.307 102.467 132.535 102.695 132.814 102.695H135.836C136.115 102.695 136.344 102.467 136.344 102.188C136.344 101.908 136.115 101.68 135.836 101.68H132.814ZM138.883 101.68C138.604 101.68 138.375 101.908 138.375 102.188C138.375 102.467 138.604 102.695 138.883 102.695H141.904C142.184 102.695 142.412 102.467 142.412 102.188C142.412 101.908 142.184 101.68 141.904 101.68H138.883ZM144.951 101.68C144.672 101.68 144.443 101.908 144.443 102.188C144.443 102.467 144.672 102.695 144.951 102.695H147.973C148.252 102.695 148.48 102.467 148.48 102.188C148.48 101.908 148.252 101.68 147.973 101.68H144.951ZM151.02 101.68C150.74 101.68 150.512 101.908 150.512 102.188C150.512 102.467 150.74 102.695 151.02 102.695H154.041C154.32 102.695 154.549 102.467 154.549 102.188C154.549 101.908 154.32 101.68 154.041 101.68H151.02ZM157.062 101.68C156.783 101.68 156.555 101.908 156.555 102.188C156.555 102.467 156.783 102.695 157.062 102.695H160.084C160.363 102.695 160.592 102.467 160.592 102.188C160.592 101.908 160.363 101.68 160.084 101.68H157.062ZM163.131 101.68C162.852 101.68 162.623 101.908 162.623 102.188C162.623 102.467 162.852 102.695 163.131 102.695H166.152C166.432 102.695 166.66 102.467 166.66 102.188C166.66 101.908 166.432 101.68 166.152 101.68H163.131ZM169.199 101.68C168.92 101.68 168.691 101.908 168.691 102.188C168.691 102.467 168.92 102.695 169.199 102.695H172.221C172.5 102.695 172.729 102.467 172.729 102.188C172.729 101.908 172.5 101.68 172.221 101.68H169.199ZM175.268 101.68C174.988 101.68 174.76 101.908 174.76 102.188C174.76 102.467 174.988 102.695 175.268 102.695H178.289C178.568 102.695 178.797 102.467 178.797 102.188C178.797 101.908 178.568 101.68 178.289 101.68H175.268ZM184.23 101.68H181.311C181.031 101.68 180.803 101.908 180.803 102.188C180.803 102.467 181.031 102.695 181.311 102.695H184.23H184.256C184.256 102.695 184.256 102.695 184.281 102.695C184.561 102.695 184.789 102.467 184.764 102.188C184.84 101.908 184.611 101.68 184.332 101.68H184.23ZM189.512 100.131C188.725 100.639 187.912 101.02 187.023 101.273C186.744 101.35 186.592 101.629 186.693 101.908C186.77 102.137 186.947 102.264 187.176 102.264C187.227 102.264 187.277 102.264 187.328 102.238C188.014 102.035 188.674 101.756 189.283 101.426H189.309H189.334H189.359H189.385C189.537 101.324 189.715 101.223 189.867 101.121C190.096 100.969 190.172 100.664 190.02 100.436C190.121 100.131 189.969 100.055 189.791 100.055C189.689 100.055 189.613 100.08 189.512 100.131ZM193.117 96.043C192.711 96.8809 192.203 97.6426 191.594 98.3281C191.416 98.5312 191.416 98.8613 191.645 99.0391C191.746 99.1152 191.848 99.166 191.975 99.166C192.127 99.166 192.254 99.1152 192.355 98.9883C193.016 98.2266 193.574 97.3887 194.031 96.4746C194.158 96.2207 194.057 95.916 193.803 95.7891C193.727 95.7891 193.65 95.7637 193.574 95.7637C193.396 95.7637 193.193 95.8652 193.117 96.043ZM194.082 90.584V91.8281C194.082 92.3613 194.031 92.9199 193.955 93.4531C193.904 93.7324 194.107 93.9863 194.361 94.0371C194.387 94.0371 194.412 94.0371 194.438 94.0371C194.691 94.0371 194.895 93.8594 194.945 93.6055C195.021 93.1484 195.072 92.6914 195.072 92.2344V92.209V92.1836V92.1582C195.072 92.1582 195.072 92.1582 195.072 92.1328V90.8887C195.098 90.3047 194.869 90.0762 194.59 90.0762C194.311 90.0762 194.082 90.3047 194.082 90.584ZM194.082 84.541V87.5625C194.082 87.8418 194.311 88.0703 194.59 88.0703C194.869 88.0703 195.098 87.8418 195.098 87.5625V84.541C195.098 84.2617 194.869 84.0332 194.59 84.0332C194.311 84.0332 194.082 84.2617 194.082 84.541ZM194.082 78.4727V81.4941C194.082 81.7734 194.311 82.002 194.59 82.002C194.869 82.002 195.098 81.7734 195.098 81.4941V78.4727C195.098 78.1934 194.869 77.9648 194.59 77.9648C194.311 77.9648 194.082 78.1934 194.082 78.4727ZM194.082 72.4043V75.4258C194.082 75.7051 194.311 75.9336 194.59 75.9336C194.869 75.9336 195.098 75.7051 195.098 75.4258V72.4043C195.098 72.125 194.869 71.8965 194.59 71.8965C194.311 71.8965 194.082 72.125 194.082 72.4043ZM194.082 66.3359V69.3574C194.082 69.6367 194.311 69.8652 194.59 69.8652C194.869 69.8652 195.098 69.6367 195.098 69.3574V66.3359C195.098 66.0566 194.869 65.8281 194.59 65.8281C194.311 65.8281 194.082 66.0566 194.082 66.3359ZM194.082 60.293V63.3145C194.082 63.5938 194.311 63.8223 194.59 63.8223C194.869 63.8223 195.098 63.5938 195.098 63.3145V60.293C195.098 60.0137 194.869 59.7852 194.59 59.7852C194.311 59.7852 194.082 60.0137 194.082 60.293ZM194.082 54.2246V57.2461C194.082 57.5254 194.311 57.7539 194.59 57.7539C194.869 57.7539 195.098 57.5254 195.098 57.2461V54.2246C195.098 53.9453 194.869 53.7168 194.59 53.7168C194.311 53.7168 194.082 53.9453 194.082 54.2246ZM194.082 48.1562V51.1777C194.082 51.457 194.311 51.6855 194.59 51.6855C194.869 51.6855 195.098 51.457 195.098 51.1777V48.1562C195.098 47.877 194.869 47.6484 194.59 47.6484C194.311 47.6484 194.082 47.877 194.082 48.1562ZM194.082 42.0879V45.1094C194.082 45.3887 194.311 45.6172 194.59 45.6172C194.869 45.6172 195.098 45.3887 195.098 45.1094V42.0879C195.098 41.8086 194.869 41.5801 194.59 41.5801C194.311 41.5801 194.082 41.8086 194.082 42.0879ZM194.082 36.0449V39.0664C194.082 39.3457 194.311 39.5742 194.59 39.5742C194.869 39.5742 195.098 39.3457 195.098 39.0664V36.0449C195.098 35.7656 194.869 35.5371 194.59 35.5371C194.311 35.5371 194.082 35.7656 194.082 36.0449ZM192.838 30.1035C192.609 30.2559 192.533 30.5605 192.66 30.7891C193.143 31.5762 193.498 32.4141 193.752 33.3027C193.803 33.5312 194.006 33.6836 194.234 33.6836C194.285 33.6836 194.311 33.6836 194.361 33.6582C194.641 33.582 194.793 33.3027 194.717 33.0488C194.666 32.8711 194.615 32.668 194.539 32.4902V32.4648C194.539 32.4648 194.539 32.4648 194.539 32.4395C194.539 32.4395 194.539 32.4395 194.539 32.4141V32.3887V32.3633C194.539 32.3379 194.539 32.3379 194.514 32.3125C194.285 31.7031 194.006 31.0938 193.676 30.5352V30.5098C193.676 30.5098 193.676 30.5098 193.676 30.4844C193.447 30.1035 193.27 30.0273 193.092 30.0273C192.99 30.0273 192.914 30.0527 192.838 30.1035ZM188.471 26.3965C188.344 26.6504 188.445 26.9551 188.699 27.082C189.512 27.4883 190.273 28.0215 190.934 28.6562C191.035 28.7578 191.162 28.7832 191.289 28.7832C191.416 28.7832 191.568 28.7324 191.67 28.6309C191.848 28.4277 191.848 28.0977 191.645 27.9199C191.314 27.6152 190.984 27.3359 190.629 27.082C190.629 27.082 190.629 27.082 190.604 27.0566C190.604 27.0566 190.604 27.0566 190.578 27.0312C190.578 27.0312 190.578 27.0312 190.553 27.0059C190.553 27.0059 190.553 27.0059 190.527 26.9805C190.527 26.9805 190.527 26.9805 190.502 26.9551C190.502 26.9551 190.502 26.9551 190.477 26.9551H190.451H190.426H190.4H190.375C190.324 26.9297 190.273 26.9043 190.223 26.8789C189.08 26.1426 189.004 26.1172 188.928 26.1172C188.75 26.1172 188.572 26.2188 188.471 26.3965ZM181.209 25C180.93 25 180.701 25.2285 180.701 25.5078C180.701 25.7871 180.93 26.0156 181.209 26.0156H184.23C184.865 26.0156 185.475 26.0664 186.084 26.1934C186.109 26.1934 186.16 26.1934 186.186 26.1934C186.414 26.1934 186.643 26.0156 186.693 25.7871C186.744 25.5078 186.566 25.2539 186.287 25.2031C185.779 25.1016 185.246 25.0508 184.713 25.0254C184.713 25.0254 184.713 25.0254 184.688 25.0254C184.662 25.0254 184.611 25.0254 184.586 25.0254H184.561C184.561 25.0254 184.561 25.0254 184.535 25.0254C184.256 25 184.256 25 184.23 25C184.256 25 184.256 25 184.23 25C184.256 25 184.256 25 184.23 25C184.256 25 184.256 25 184.23 25C184.256 25 184.256 25 184.23 25H181.209Z" fill="#EAEAFF"/>
<path fill-rule="evenodd" clip-rule="evenodd" d="M195.098 36.9844V37.416H74.4922V36.9844H195.098Z" fill="white"/>
<path d="M86.0449 91.7773C84.623 91.7773 83.4551 90.6094 83.4551 89.1875V51.127C83.4551 49.7051 84.623 48.5371 86.0449 48.5371H87.416C88.8379 48.5371 90.0059 49.7051 90.0059 51.127V89.1621C90.0059 90.6094 88.8379 91.7773 87.416 91.7773H86.0449Z" fill="#EAEAFF"/>
<path d="M98.0547 91.7773C96.8867 91.7773 95.9219 90.8125 95.9219 89.6445V64.7871C95.9219 63.6191 96.8867 62.6543 98.0547 62.6543H100.34C101.508 62.6543 102.473 63.6191 102.473 64.7871V89.6445C102.447 90.8125 101.508 91.7773 100.34 91.7773H98.0547Z" fill="#EAEAFF"/>
<path d="M110.953 91.7773C109.531 91.7773 108.363 90.6094 108.363 89.1875V51.127C108.363 49.7051 109.531 48.5371 110.953 48.5371H112.324C113.746 48.5371 114.914 49.7051 114.914 51.127V89.1621C114.914 90.6094 113.746 91.7773 112.324 91.7773H110.953Z" fill="#EAEAFF"/>
<path d="M123.928 91.7773C122.684 91.7773 121.693 90.7617 121.693 89.543V61.7148C121.693 60.4707 122.709 59.4805 123.928 59.4805H125.984C127.229 59.4805 128.219 60.4961 128.219 61.7148V89.543C128.244 90.7617 127.229 91.7773 125.984 91.7773H123.928Z" fill="#EAEAFF"/>
<path d="M135.988 91.7774C134.973 91.7774 134.135 90.9395 134.135 89.9238V71.8457C134.135 70.8301 134.973 69.9922 135.988 69.9922H138.857C139.873 69.9922 140.711 70.8301 140.711 71.8457V89.9238C140.686 90.9395 139.873 91.7774 138.857 91.7774H135.988Z" fill="#EAEAFF"/>
<path d="M148.836 91.7773C147.592 91.7773 146.602 90.7617 146.602 89.543V61.7148C146.602 60.4707 147.617 59.4805 148.836 59.4805H150.893C152.137 59.4805 153.127 60.4961 153.127 61.7148V89.543C153.152 90.7617 152.137 91.7773 150.893 91.7773H148.836Z" fill="#EAEAFF"/>
<path d="M85.4609 25C79.418 25 74.4922 29.8242 74.4922 35.7402V37.1875H195.098V35.7402C195.098 29.8242 190.172 25 184.129 25H85.4609Z" fill="#EAEAFF"/>
<path fill-rule="evenodd" clip-rule="evenodd" d="M168.539 32.6934C167.628 32.6934 166.889 31.9772 166.889 31.0938C166.889 30.2103 167.628 29.4941 168.539 29.4941C169.451 29.4941 170.189 30.2103 170.189 31.0938C170.189 31.9772 169.451 32.6934 168.539 32.6934Z" fill="#FF8870"/>
<path fill-rule="evenodd" clip-rule="evenodd" d="M175.979 32.6934C175.067 32.6934 174.328 31.9772 174.328 31.0938C174.328 30.2103 175.067 29.4941 175.979 29.4941C176.89 29.4941 177.629 30.2103 177.629 31.0938C177.629 31.9772 176.89 32.6934 175.979 32.6934Z" fill="#FFD301"/>
<path fill-rule="evenodd" clip-rule="evenodd" d="M183.418 32.6934C182.506 32.6934 181.768 31.9772 181.768 31.0938C181.768 30.2103 182.506 29.4941 183.418 29.4941C184.329 29.4941 185.068 30.2103 185.068 31.0938C185.068 31.9772 184.329 32.6934 183.418 32.6934Z" fill="#54CDA2"/>
<path d="M190.883 118.691C187.328 118.691 184.434 115.797 184.434 112.242V73.5977C184.434 70.043 187.328 67.1484 190.883 67.1484H242.223C245.777 67.1484 248.672 70.043 248.672 73.5977V112.242C248.672 115.797 245.777 118.691 242.223 118.691H190.883Z" fill="#EAEAFF"/>
<path fill-rule="evenodd" clip-rule="evenodd" d="M248.672 80.123V80.5801H184.434V80.123H248.672Z" fill="white"/>
<path fill-rule="evenodd" clip-rule="evenodd" d="M223.662 75.7812C222.61 75.7812 221.758 74.9287 221.758 73.877C221.758 72.8252 222.61 71.9727 223.662 71.9727C224.714 71.9727 225.566 72.8252 225.566 73.877C225.566 74.9287 224.714 75.7812 223.662 75.7812Z" fill="#FF8870"/>
<path fill-rule="evenodd" clip-rule="evenodd" d="M232.295 75.7812C231.243 75.7812 230.391 74.9287 230.391 73.877C230.391 72.8252 231.243 71.9727 232.295 71.9727C233.347 71.9727 234.199 72.8252 234.199 73.877C234.199 74.9287 233.347 75.7812 232.295 75.7812Z" fill="#FFD301"/>
<path fill-rule="evenodd" clip-rule="evenodd" d="M240.928 75.7812C239.876 75.7812 239.023 74.9287 239.023 73.877C239.023 72.8252 239.876 71.9727 240.928 71.9727C241.979 71.9727 242.832 72.8252 242.832 73.877C242.832 74.9287 241.979 75.7812 240.928 75.7812Z" fill="#54CDA2"/>
<path d="M220.26 98.3789C219.6 98.3789 219.193 97.6425 219.549 97.0839L224.754 88.9335C224.881 88.7304 224.83 88.4511 224.627 88.3496C222.596 87.1562 220.158 86.5722 217.594 86.8007C212.16 87.3085 207.768 91.5996 207.133 97.0078C206.32 104.066 211.83 110.059 218.736 110.059C225.033 110.059 230.188 105.082 230.416 98.8359C230.391 98.582 230.213 98.3789 229.959 98.3789H220.26Z" fill="white"/>
<path d="M73.7051 175.643C83.4043 158.631 93.9414 147.586 100.416 142.711C106.891 137.862 113.594 134.561 113.594 134.561L107.982 184.276L92.3418 233.737L60.7559 233.94C60.7559 233.94 64.0059 192.655 73.7051 175.643Z" fill="#F9D2DD"/>
<path d="M104.199 196.209L107.982 184.275L111.588 152.461L107.246 138.141C107.145 138.191 107.043 138.268 106.967 138.318C107.018 142.533 106.535 156.625 98.8418 168.635C92.0879 179.172 77.9961 181.076 71.0645 181.33C70.8613 181.787 70.6582 182.27 70.4805 182.727L104.199 196.209Z" fill="#F9ACC0"/>
<path d="M94.7793 188.871C94.7793 188.871 102.6 184.275 106.916 164.039C109.404 152.359 106.916 137.861 106.916 137.861C106.916 137.861 123.369 128.137 140.381 128.949C157.393 129.762 170.062 133.799 170.062 133.799C170.062 133.799 168.971 142.152 168.971 159.443C168.971 176.734 176.537 195.346 176.537 195.346L175.318 233.94H89.3457L94.7793 188.871Z" fill="#3D5CFF"/>
<path d="M132.941 178.359L129.311 214.795L175.623 202.531L149.826 198.596L132.941 178.359Z" fill="#224BF4"/>
<path fill-rule="evenodd" clip-rule="evenodd" d="M113.924 134.611V231.781H113.391V134.611H113.924Z" fill="white"/>
<path fill-rule="evenodd" clip-rule="evenodd" d="M125.654 130.549V231.781H125.121V130.549H125.654Z" fill="white"/>
<path fill-rule="evenodd" clip-rule="evenodd" d="M137.41 134.611V231.781H136.877V134.611H137.41Z" fill="white"/>
<path fill-rule="evenodd" clip-rule="evenodd" d="M149.141 134.611V231.781H148.607V134.611H149.141Z" fill="white"/>
<path fill-rule="evenodd" clip-rule="evenodd" d="M160.871 131.641V231.781H160.338V131.641H160.871Z" fill="white"/>
<path d="M169.047 31.1193C167.193 32.5665 166.965 34.8771 167.016 36.2736C163.842 35.1564 159.881 35.4611 156.58 37.9494C152.721 40.8693 153.178 45.3888 153.66 47.5216C148.531 47.1154 143.123 49.0197 141.066 53.1076C139.645 55.9513 139.365 59.1759 139.416 61.6642C126.264 60.6993 115.219 69.0021 113.568 80.9611C111.918 92.9201 118.037 99.7755 118.037 99.7755L142.945 107.113C142.945 107.113 153.762 107.85 159.398 102.721C165.035 97.5919 168.565 85.6076 164.324 75.8322C163.131 73.0646 161.049 70.7286 158.637 68.672C159.982 67.3263 161.557 65.549 162.928 63.6193C164.705 61.0548 165.213 57.5255 164.121 54.4279C165.416 54.2501 167.143 53.7931 169.275 52.6251C172.932 50.6447 173.871 46.506 172.982 42.9259C173.947 42.9513 175.166 42.9005 176.563 42.6212C180.092 41.8595 181.514 37.4669 179.152 33.0744C176.791 28.6818 171.865 28.9103 169.047 31.1193Z" fill="#1F1F39"/>
<path d="M115.549 93.3517C111.232 95.2306 111.512 103.609 117.707 106.301C123.902 108.992 127.432 106.834 127.432 106.834L122.557 93.3517C122.557 93.3517 119.865 91.4728 115.549 93.3517Z" fill="#F9ACC0"/>
<path d="M122.887 105.869L120.805 101.553C118.799 97.3888 116.082 96.0178 116.057 96.0178C115.93 95.967 115.879 95.8146 115.93 95.6877C115.98 95.5607 116.133 95.5099 116.26 95.5607C116.387 95.6115 119.18 96.9826 121.262 101.35L123.344 105.666C123.394 105.793 123.344 105.945 123.217 105.996C123.191 105.996 123.141 106.022 123.115 106.022C123.014 106.022 122.937 105.971 122.887 105.869Z" fill="#1F1F39"/>
<path d="M118.545 91.0665C118.672 93.7325 119.307 103.356 122.303 108.434C125.172 113.309 129.158 115.264 130.478 115.822C130.758 115.949 130.935 116.203 130.91 116.508C130.834 118.412 130.529 125.115 129.844 127.857C129.234 130.32 128.625 132.301 128.346 133.113C128.269 133.367 128.32 133.647 128.523 133.85C129.615 134.941 133.805 137.023 140.635 137.023C147.389 137.023 151.045 135.348 152.34 134.586C152.594 134.434 152.746 134.129 152.695 133.824C152.314 131.844 150.892 124.277 150.892 120.545C150.892 116.99 151.248 111.988 151.375 110.313C151.4 109.982 151.629 109.729 151.959 109.652C154.168 109.246 162.42 107.24 161.937 99.75C161.48 92.2344 154.676 92.8946 152.924 93.1993C152.67 93.25 152.441 93.4278 152.365 93.6817C152.06 94.545 151.299 96.7286 150.892 98.4297C150.689 99.1915 149.598 99.1407 149.496 98.3536C149.369 97.4649 149.293 96.5508 149.293 95.7383C149.293 94.5196 149.42 93.7071 149.572 93.1993C149.674 92.8184 149.42 92.4122 149.039 92.336C147.109 91.879 142.158 90.3047 139.594 86.0137C138.096 83.5254 137.283 81.6465 136.851 80.377C136.648 79.7676 135.81 79.7168 135.531 80.3008C134.566 82.2559 132.586 85.125 128.803 87.1055C124.055 89.5938 120.576 90.2032 119.18 90.3301C118.799 90.3809 118.519 90.6856 118.545 91.0665Z" fill="#F9D2DD"/>
<path d="M193.041 156.752C199.236 170.514 201.979 199.51 201.395 209.92C200.836 219.645 197.332 230.689 185.729 233.127C174.15 235.564 132.307 233.127 132.307 233.127V205.35L173.059 202.658L169.834 184.047C169.834 184.047 165.797 165.689 167.143 151.674C168.463 137.607 169.555 133.824 169.555 133.824C169.555 133.824 184.459 137.709 193.041 156.752Z" fill="#F9D2DD"/>
<path d="M138.426 90.6349C138.883 90.4064 139.441 90.3048 139.949 90.3556C140.203 90.381 140.457 90.4318 140.711 90.5333C140.965 90.6095 141.193 90.7365 141.396 90.9142C141.803 91.2443 142.082 91.7775 142.006 92.2599C141.879 91.7775 141.549 91.422 141.193 91.2189C140.813 91.0157 140.381 90.9142 139.924 90.8634C139.467 90.838 139.035 90.8634 138.604 91.0157C138.172 91.1681 137.766 91.3966 137.41 91.7267C137.588 91.2696 137.969 90.8888 138.426 90.6349Z" fill="#1F1F39"/>
<path d="M123.928 90.762C124.309 90.4319 124.816 90.178 125.35 90.1526C125.604 90.1272 125.883 90.1526 126.137 90.2288C126.391 90.3303 126.645 90.4573 126.848 90.635C127.254 91.0159 127.432 91.5237 127.432 92.0061C127.229 91.5745 126.949 91.1682 126.594 90.9397C126.416 90.8127 126.213 90.7366 126.01 90.6858C125.908 90.6858 125.807 90.635 125.705 90.635H125.553H125.4C124.969 90.6604 124.563 90.8127 124.182 91.0666C123.775 91.3206 123.42 91.6252 123.115 92.0061C123.268 91.5237 123.547 91.092 123.928 90.762Z" fill="#1F1F39"/>
<path d="M131.799 95.1543C131.672 95.5098 131.545 95.8398 131.443 96.1953C131.342 96.5508 131.24 96.8809 131.164 97.2363C131.088 97.5664 131.037 97.9473 131.088 98.2266C131.113 98.3789 131.164 98.5059 131.266 98.6328C131.316 98.709 131.342 98.7598 131.418 98.8105L131.494 98.8867L131.596 98.9629C131.85 99.166 132.18 99.293 132.535 99.3691C132.891 99.4453 133.246 99.4961 133.627 99.5215C133.272 99.623 132.891 99.6484 132.51 99.623C132.129 99.5977 131.748 99.4961 131.393 99.293C131.037 99.0898 130.758 98.7344 130.656 98.3027C130.58 97.8711 130.631 97.4902 130.707 97.1094C130.859 96.3477 131.139 95.6621 131.469 94.9766C131.748 94.3418 132.129 93.6816 132.561 93.0723L131.799 95.1543Z" fill="#1F1F39"/>
<path fill-rule="evenodd" clip-rule="evenodd" d="M125.807 98.5315C124.769 98.5315 123.928 97.5539 123.928 96.3479C123.928 95.1419 124.769 94.1643 125.807 94.1643C126.844 94.1643 127.686 95.1419 127.686 96.3479C127.686 97.5539 126.844 98.5315 125.807 98.5315Z" fill="#1F1F39"/>
<path fill-rule="evenodd" clip-rule="evenodd" d="M139.289 98.5315C138.251 98.5315 137.41 97.5539 137.41 96.3479C137.41 95.1419 138.251 94.1643 139.289 94.1643C140.327 94.1643 141.168 95.1419 141.168 96.3479C141.168 97.5539 140.327 98.5315 139.289 98.5315Z" fill="#1F1F39"/>
<path d="M142.184 204.563V233.127C142.184 233.127 151.223 233.66 162.064 233.965L152.314 203.902L142.184 204.563Z" fill="#F9ACC0"/>
<path fill-rule="evenodd" clip-rule="evenodd" d="M136.064 106.606C135.027 106.606 134.186 105.628 134.186 104.422C134.186 103.216 135.027 102.239 136.064 102.239C137.102 102.239 137.943 103.216 137.943 104.422C137.943 105.628 137.102 106.606 136.064 106.606Z" fill="#F95368"/>
<path d="M60.2227 233.686C58.2422 233.686 56.0078 232.061 55.2969 230.055L45.0137 173.662C44.2773 171.682 45.3184 170.031 47.3242 170.031H138.07C140.051 170.031 142.285 171.656 142.996 173.662L153.279 230.055C154.016 232.061 152.975 233.686 150.969 233.686H60.2227Z" fill="#EAEAFF"/>
<path fill-rule="evenodd" clip-rule="evenodd" d="M98 206C94.6863 206 92 203.314 92 200C92 196.686 94.6863 194 98 194C101.314 194 104 196.686 104 200C104 203.314 101.314 206 98 206Z" fill="white"/>
<g opacity="0.635">
<path opacity="0.635" fill-rule="evenodd" clip-rule="evenodd" d="M143.986 106.377C140.873 106.377 138.35 104.831 138.35 102.924C138.35 101.017 140.873 99.4709 143.986 99.4709C147.099 99.4709 149.623 101.017 149.623 102.924C149.623 104.831 147.099 106.377 143.986 106.377Z" fill="#F9ACC0"/>
<path opacity="0.635" fill-rule="evenodd" clip-rule="evenodd" d="M124.004 106.378C120.891 106.378 118.367 104.832 118.367 102.925C118.367 101.018 120.891 99.4717 124.004 99.4717C127.117 99.4717 129.641 101.018 129.641 102.925C129.641 104.832 127.117 106.378 124.004 106.378Z" fill="#F9ACC0"/>
</g>
<path d="M137.359 117.143C134.414 116.889 131.773 116.356 130.783 116.127C130.859 116.254 130.91 116.406 130.91 116.559C130.859 118.158 130.631 123.084 130.148 126.258C132.586 125.75 137.156 124.531 139.822 122.246C143.605 118.996 145.23 116.559 145.23 116.559C145.23 116.559 141.092 117.448 137.359 117.143Z" fill="#F9ACC0"/>
<path d="M130.834 116.254C130.707 116.203 130.631 116.051 130.707 115.924C130.758 115.797 130.91 115.721 131.037 115.797C131.063 115.822 134.287 117.117 138.756 116.863C143.25 116.609 145.967 115.797 145.992 115.797C146.119 115.746 146.272 115.822 146.297 115.975C146.348 116.102 146.272 116.254 146.119 116.279C146.094 116.279 143.352 117.092 138.781 117.371C138.35 117.371 137.943 117.397 137.537 117.397C133.627 117.397 130.961 116.305 130.834 116.254Z" fill="#1F1F39"/>
<path d="M151.527 104.905C150.689 107.494 150.943 109.348 151.4 110.541C151.4 110.49 151.4 110.44 151.4 110.389C151.426 110.059 151.654 109.805 151.984 109.729C152.492 109.627 153.355 109.449 154.346 109.119C153.99 107.672 153.533 105.184 153.889 103.051C154.422 99.8264 155.539 97.8459 155.539 97.8459C155.539 97.8459 153.203 99.6995 151.527 104.905Z" fill="#F9ACC0"/>
<path d="M150.918 107.113C150.918 107.012 150.943 104.574 152.568 101.324C154.193 98.049 156.631 96.6779 156.732 96.6271C156.859 96.5509 157.012 96.6017 157.088 96.7287C157.164 96.8556 157.113 97.008 156.986 97.0841C156.961 97.1095 154.6 98.4298 153.051 101.553C151.477 104.701 151.451 107.088 151.451 107.113C151.426 107.24 151.299 107.367 151.172 107.367C151.02 107.367 150.918 107.24 150.918 107.113Z" fill="#1F1F39"/>
<path d="M177.096 137.506C172.779 134.688 169.529 133.824 169.529 133.824C169.529 133.824 168.438 137.607 167.092 151.623C166.203 160.789 167.625 171.809 168.717 178.334C168.768 172.494 169.225 164.826 170.875 156.777C172.957 146.469 175.445 140.578 177.096 137.506Z" fill="#F9ACC0"/>
<path d="M184.916 201.566L171.688 194.559L173.008 202.43L184.916 201.566Z" fill="#F9ACC0"/>
<path d="M172.805 202.557C172.779 202.43 172.906 202.303 173.033 202.278L185.068 201.135C185.221 201.11 185.322 201.237 185.348 201.364C185.373 201.491 185.246 201.618 185.119 201.643L173.059 202.785C173.084 202.76 173.059 202.785 173.059 202.785C172.932 202.785 172.83 202.684 172.805 202.557Z" fill="#1F1F39"/>
<path d="M34.2366 234.691C34.1051 234.691 34 234.469 34 234.191C34 233.914 34.1051 233.691 34.2366 233.691H223.763C223.895 233.691 224 233.914 224 234.191C224 234.469 223.895 234.691 223.763 234.691H34.2366Z" fill="#1F1F39"/>
</g>
</svg>
