<svg width="260" height="260" viewBox="0 0 260 260" fill="none" xmlns="http://www.w3.org/2000/svg">
<path fill-rule="evenodd" clip-rule="evenodd" d="M200 0C233.137 0 260 26.8629 260 60V200C260 233.137 233.137 260 200 260H60C26.8629 260 0 233.137 0 200V60C0 26.8629 26.8629 0 60 0H200Z" fill="#CDECFE" fill-opacity="0.01"/>
<path d="M30.0879 29.0215C30.3164 28.082 30.4941 27.5234 30.4941 27.498L31.459 27.8281C31.459 27.8535 31.2813 28.3613 31.0781 29.25L30.0879 29.0215Z" fill="#87C0F4"/>
<path fill-rule="evenodd" clip-rule="evenodd" d="M16.5547 220.467C17.4687 220.441 18.459 220.314 19.5 220.136L19.6777 221.127C18.5859 221.355 17.5449 221.457 16.5801 221.482L16.5547 220.467ZM10.4609 220.238L10.9434 219.349C11.7559 219.781 12.6699 220.086 13.6602 220.289L13.457 221.279C12.3652 221.076 11.375 220.72 10.4609 220.238ZM22.3691 219.426L22.4453 219.4C23.4102 219.095 24.3242 218.765 25.1875 218.435L25.5684 219.375C24.6797 219.73 23.7402 220.086 22.75 220.39H22.6484L22.3691 219.426ZM6.14453 215.668L7.05859 215.211C7.49023 216.099 8.04883 216.912 8.68359 217.597L7.92188 218.283C7.21094 217.521 6.62695 216.658 6.14453 215.668ZM27.8535 217.14C28.7168 216.658 29.5293 216.125 30.3418 215.541L30.9512 216.353C30.1133 216.963 29.25 217.521 28.3359 218.029L27.8535 217.14ZM32.6016 213.636C33.2871 212.976 33.9727 212.265 34.6582 211.478L35.4199 212.138C34.7344 212.951 34.0234 213.687 33.3125 214.373L32.6016 213.636ZM36.5371 209.142C37.0957 208.381 37.6797 207.568 38.2637 206.679L39.1016 207.238C38.5176 208.127 37.9336 208.99 37.3496 209.752L36.5371 209.142ZM39.9141 204.14C40.4219 203.328 40.9297 202.49 41.4883 201.551L42.3516 202.058C41.793 203.023 41.2852 203.861 40.7773 204.674L39.9141 204.14ZM42.9863 198.935C43.4687 198.097 43.9512 197.209 44.459 196.295L45.3477 196.777C44.8398 197.717 44.3574 198.605 43.875 199.443L42.9863 198.935ZM45.9316 193.654C46.3887 192.791 46.8711 191.902 47.3789 190.988L48.2676 191.47C47.7598 192.385 47.2773 193.273 46.8203 194.136L45.9316 193.654ZM48.8008 188.322C49.2578 187.459 49.7402 186.57 50.2227 185.656L51.1113 186.138C50.6289 187.027 50.1719 187.916 49.6895 188.804L48.8008 188.322ZM51.7207 182.939C52.2285 182.127 52.8633 181.34 53.6504 180.476L54.3867 181.162C53.6758 181.974 53.041 182.761 52.584 183.498L51.7207 182.939ZM55.8848 178.344C56.5957 177.734 57.3574 177.074 58.2461 176.388L58.8809 177.176C57.9668 177.886 57.2305 178.496 56.5449 179.105L55.8848 178.344ZM60.6582 174.56C61.3691 174.052 62.1563 173.468 63.1211 172.783L63.7051 173.621C62.7402 174.306 61.9531 174.865 61.2676 175.373L60.6582 174.56ZM65.6094 171.031C66.4219 170.447 67.2598 169.863 68.0723 169.279L68.6562 170.117C67.8437 170.701 67.0059 171.285 66.1934 171.869L65.6094 171.031ZM70.5351 167.502C71.3984 166.867 72.1855 166.258 72.9473 165.674L73.582 166.486C72.7949 167.07 72.0078 167.654 71.1445 168.314L70.5351 167.502ZM75.2832 163.744C76.0703 163.084 76.832 162.398 77.543 161.763L78.2285 162.5C77.5176 163.185 76.7559 163.871 75.9434 164.531L75.2832 163.744ZM79.7012 159.681C80.4121 158.945 81.0976 158.209 81.7324 157.472L82.4941 158.133C81.8594 158.869 81.1738 159.631 80.4375 160.392L79.7012 159.681ZM83.5859 155.136C84.1699 154.324 84.7285 153.461 85.2109 152.648L86.0742 153.156C85.5918 153.994 85.0332 154.857 84.3984 155.72L83.5859 155.136ZM203.023 151.074V150.058C204.039 150.058 205.055 150.058 206.02 150.008L206.07 151.023C205.309 151.049 204.521 151.074 203.709 151.074C203.48 151.074 203.252 151.074 203.023 151.074ZM196.93 150.693L197.031 149.677C198.047 149.779 199.062 149.855 200.027 149.931L199.977 150.947C198.986 150.896 197.971 150.795 196.93 150.693ZM209.041 149.779C210.057 149.677 211.047 149.525 212.012 149.347L212.189 150.338C211.199 150.541 210.184 150.693 209.143 150.795L209.041 149.779ZM86.582 149.982C86.9883 149.094 87.3438 148.154 87.6484 147.215L88.6133 147.519C88.2832 148.51 87.9277 149.474 87.5215 150.388L86.582 149.982ZM190.861 149.855L191.039 148.865C192.055 149.043 193.045 149.195 194.01 149.322L193.883 150.338C192.893 150.211 191.877 150.033 190.861 149.855ZM214.932 148.713C215.922 148.459 216.861 148.129 217.775 147.799L218.131 148.738C217.191 149.093 216.201 149.424 215.186 149.703L214.932 148.713ZM184.895 148.662L185.123 147.672C186.113 147.9 187.104 148.129 188.068 148.306L187.865 149.322C186.875 149.119 185.885 148.89 184.895 148.662ZM178.979 147.113L179.258 146.148C180.248 146.427 181.213 146.707 182.178 146.935L181.924 147.926C180.959 147.672 179.969 147.418 178.979 147.113ZM220.492 146.58C221.381 146.123 222.244 145.59 223.031 145.031L223.615 145.869C222.752 146.453 221.863 146.986 220.949 147.468L220.492 146.58ZM173.164 145.31L173.494 144.345C174.459 144.676 175.424 144.98 176.389 145.26L176.059 146.25C175.094 145.945 174.129 145.64 173.164 145.31ZM88.4355 144.32C88.6387 143.381 88.8164 142.416 88.9941 141.375L90.0098 141.527C89.832 142.594 89.6543 143.584 89.4258 144.549L88.4355 144.32ZM167.426 143.304L167.781 142.365C168.721 142.72 169.686 143.076 170.625 143.406L170.295 144.345C169.355 144.015 168.391 143.66 167.426 143.304ZM225.316 143.177C226.027 142.517 226.713 141.781 227.322 140.994L228.109 141.629C227.449 142.441 226.764 143.203 226.002 143.914L225.316 143.177ZM161.764 141.07L162.145 140.131C163.084 140.511 164.023 140.892 164.937 141.273L164.582 142.213C163.643 141.832 162.703 141.451 161.764 141.07ZM156.152 138.607L156.584 137.693C157.498 138.099 158.437 138.531 159.352 138.937L158.945 139.851C158.006 139.445 157.092 139.039 156.152 138.607ZM228.998 138.582C229.48 137.744 229.938 136.855 230.344 135.941L231.283 136.347C230.852 137.287 230.369 138.201 229.861 139.09L228.998 138.582ZM89.375 138.404C89.4766 137.363 89.5781 136.322 89.6543 135.383L90.6699 135.484C90.5938 136.398 90.4922 137.439 90.3906 138.506L89.375 138.404ZM150.668 135.992L151.125 135.078C152.014 135.535 152.928 135.967 153.842 136.398L153.41 137.338C152.496 136.906 151.582 136.449 150.668 135.992ZM145.26 133.199L145.742 132.31C146.631 132.793 147.52 133.275 148.408 133.732L147.951 134.621C147.037 134.138 146.148 133.656 145.26 133.199ZM231.385 133.123C231.689 132.158 231.943 131.193 232.146 130.254L233.137 130.457C232.934 131.447 232.654 132.437 232.35 133.427L231.385 133.123ZM89.9336 132.361C90.0605 131.193 90.1875 130.203 90.3398 129.314L91.3301 129.492C91.2031 130.355 91.0762 131.295 90.9492 132.463L89.9336 132.361ZM139.979 130.177L140.486 129.314C141.324 129.822 142.213 130.33 143.102 130.838L142.619 131.701C141.73 131.193 140.842 130.685 139.979 130.177ZM134.799 126.927L135.357 126.09C136.195 126.623 137.033 127.181 137.896 127.715L137.363 128.578C136.5 128.045 135.637 127.486 134.799 126.927ZM232.604 127.308C232.68 126.496 232.73 125.683 232.73 124.871C232.73 124.693 232.73 124.515 232.73 124.338L233.746 124.312C233.746 124.49 233.746 124.693 233.746 124.871C233.746 125.709 233.695 126.547 233.619 127.41L232.604 127.308ZM91.0508 126.293C91.3809 125.226 91.7363 124.287 92.1934 123.398L93.1074 123.855C92.6758 124.693 92.3203 125.582 92.0156 126.572L91.0508 126.293ZM129.771 123.449L130.381 122.636C131.168 123.22 132.006 123.804 132.844 124.388L132.26 125.226C131.396 124.642 130.559 124.033 129.771 123.449ZM124.998 119.64L125.658 118.879C126.369 119.513 127.156 120.148 127.969 120.808L127.359 121.595C126.521 120.935 125.734 120.275 124.998 119.64ZM93.9707 120.808C94.5547 120.148 95.2148 119.513 95.9512 118.955L96.2812 118.701L96.8906 119.513L96.5605 119.767C95.875 120.25 95.2656 120.834 94.7324 121.469L93.9707 120.808ZM231.842 118.498L232.807 118.219C233.086 119.209 233.314 120.224 233.492 121.24L232.477 121.392C232.324 120.427 232.121 119.437 231.842 118.498ZM98.7441 116.873C99.5566 116.289 100.42 115.705 101.258 115.146L101.816 115.984C100.979 116.568 100.141 117.127 99.3281 117.711L98.7441 116.873ZM120.631 115.299L121.418 114.638C122.002 115.349 122.688 116.06 123.449 116.822L122.738 117.558C121.951 116.771 121.24 116.035 120.631 115.299ZM229.404 113.09L230.268 112.556C230.801 113.445 231.309 114.359 231.715 115.299L230.801 115.705C230.395 114.816 229.937 113.927 229.404 113.09ZM103.822 113.521C104.686 112.988 105.574 112.48 106.463 111.972L106.971 112.861C106.082 113.369 105.219 113.877 104.355 114.385L103.822 113.521ZM118.092 111.414C117.889 110.931 117.711 110.449 117.533 109.941L118.498 109.611C118.676 110.094 118.854 110.576 119.031 111.033C119.209 111.439 119.412 111.845 119.666 112.277L118.803 112.785C118.523 112.302 118.27 111.845 118.092 111.414ZM109.154 110.551C110.043 110.094 110.957 109.636 111.871 109.179L112.303 110.094C111.414 110.525 110.5 110.982 109.611 111.439L109.154 110.551ZM225.723 108.443L226.434 107.732C227.17 108.468 227.855 109.23 228.49 110.043L227.703 110.652C227.094 109.89 226.434 109.154 225.723 108.443ZM114.639 107.885C115.426 107.529 116.213 107.199 117 106.869L116.695 106.945C116.492 105.98 116.289 104.965 116.162 103.924L117.178 103.797C117.33 104.812 117.508 105.802 117.711 106.742L117.482 106.793L117.838 107.656C116.898 108.037 115.959 108.418 115.045 108.824L114.639 107.885ZM120.301 105.599C121.24 105.244 122.205 104.914 123.17 104.584L123.5 105.549C122.535 105.879 121.57 106.209 120.656 106.564L120.301 105.599ZM221.076 104.711L221.635 103.873C222.498 104.457 223.336 105.066 224.123 105.701L223.488 106.463C222.727 105.853 221.914 105.269 221.076 104.711ZM126.064 103.67C127.029 103.365 128.02 103.086 128.984 102.806L129.264 103.797C128.299 104.051 127.309 104.33 126.369 104.635L126.064 103.67ZM215.846 101.842L216.252 100.927C217.191 101.359 218.131 101.816 218.994 102.299L218.537 103.162C217.674 102.705 216.785 102.248 215.846 101.842ZM131.93 102.019C132.895 101.765 133.91 101.537 134.9 101.308L135.129 102.299C134.139 102.527 133.148 102.756 132.184 103.01L131.93 102.019ZM137.871 100.699C138.861 100.496 139.852 100.318 140.867 100.14L141.045 101.131C140.055 101.283 139.064 101.486 138.074 101.689L137.871 100.699ZM115.68 97.8298L116.695 97.8044C116.721 98.8455 116.771 99.8611 116.848 100.801L115.832 100.877C115.756 99.9119 115.705 98.8962 115.68 97.8298ZM210.234 99.7595L210.514 98.7947C211.504 99.0994 212.494 99.4041 213.434 99.7595L213.078 100.699C212.164 100.369 211.199 100.039 210.234 99.7595ZM143.889 99.6072C144.879 99.4548 145.895 99.3025 146.91 99.1501L147.062 100.166C146.021 100.318 145.006 100.445 144.041 100.623L143.889 99.6072ZM149.906 98.7693C150.896 98.6423 151.912 98.5408 152.928 98.4138L153.029 99.4294C152.014 99.531 151.023 99.658 150.033 99.7849L149.906 98.7693ZM155.949 98.1091C156.939 98.0076 157.955 97.9314 158.971 97.8552L159.047 98.8708C158.031 98.9724 157.016 99.0486 156.051 99.1248L155.949 98.1091ZM204.369 98.3884L204.547 97.3982C205.562 97.5759 206.578 97.7791 207.543 98.0076L207.314 98.9978C206.35 98.7693 205.359 98.5662 204.369 98.3884ZM162.018 97.6521C163.033 97.5759 164.049 97.5251 165.064 97.4744L165.115 98.49C164.125 98.5408 163.109 98.5916 162.094 98.6677L162.018 97.6521ZM168.086 97.2966C169.102 97.2458 170.117 97.1951 171.133 97.1697L171.184 98.1853C170.168 98.2361 169.152 98.2615 168.137 98.3123L168.086 97.2966ZM174.154 97.0427C175.17 96.9919 176.186 96.9666 177.201 96.9412L177.227 97.9568C176.236 97.9822 175.221 98.033 174.205 98.0583L174.154 97.0427ZM198.402 97.6267L198.479 96.6111C199.494 96.6873 200.535 96.8142 201.525 96.9158L201.398 97.9314C200.434 97.8044 199.418 97.7029 198.402 97.6267ZM180.248 96.8142C181.264 96.7888 182.279 96.738 183.27 96.6873L183.32 97.7029C182.305 97.7537 181.289 97.8044 180.273 97.8298L180.248 96.8142ZM186.291 96.5857C186.9 96.5603 187.51 96.5349 188.119 96.4841C188.525 96.4587 188.932 96.4333 189.338 96.4333L189.389 97.449C188.982 97.4744 188.602 97.4744 188.195 97.4998C187.561 97.5251 186.951 97.5505 186.342 97.6013L186.291 96.5857ZM192.486 97.3982H192.385V96.3826H192.486C193.477 96.3826 194.467 96.408 195.432 96.4333L195.406 97.449C194.441 97.4236 193.477 97.3982 192.486 97.3982ZM115.654 94.783C115.654 93.8435 115.68 92.8533 115.705 91.7361L116.721 91.7615C116.695 92.8533 116.695 93.8435 116.67 94.783H115.654ZM115.832 88.6638C115.857 87.9275 115.883 87.1912 115.934 86.4548L115.959 85.6423L116.975 85.6931L116.949 86.5056C116.898 87.2419 116.873 87.9783 116.848 88.7146L115.832 88.6638ZM116.086 82.6208C116.137 81.5037 116.162 80.5134 116.162 79.5994L117.178 79.6248C117.178 80.5388 117.127 81.5291 117.102 82.6462L116.086 82.6208ZM116.035 73.5818L117.051 73.5056C117.102 74.4705 117.152 75.4607 117.178 76.5525L116.162 76.5779C116.137 75.4861 116.111 74.5212 116.035 73.5818ZM115.197 67.6658L116.187 67.4119C116.416 68.3513 116.619 69.3669 116.771 70.4333L115.756 70.5857C115.604 69.5447 115.426 68.5544 115.197 67.6658ZM112.912 62.2576L113.75 61.699C114.309 62.5369 114.791 63.4509 115.223 64.4665L114.283 64.8474C113.902 63.908 113.42 63.0447 112.912 62.2576ZM54.9707 60.8357L55.0215 59.8201C55.8848 59.8708 56.7734 59.8962 57.7129 59.8962H58.043V60.9119H57.7129C56.7734 60.9119 55.8594 60.8865 54.9707 60.8357ZM61.0645 59.7947C62.0293 59.7439 63.0195 59.6423 64.0605 59.5408L64.1621 60.5564C63.0957 60.658 62.0801 60.7595 61.1152 60.8103L61.0645 59.7947ZM48.9023 59.8962L49.1562 58.906C50.0957 59.1345 51.0859 59.3376 52.0762 59.49L51.9238 60.5056C50.8828 60.3533 49.8672 60.1501 48.9023 59.8962ZM67.0566 59.1599C67.9961 59.033 68.9863 58.8806 70.0527 58.7029L70.2051 59.6931C69.1133 59.8962 68.123 60.0486 67.1836 60.1755L67.0566 59.1599ZM108.672 58.3982L109.154 57.5095C110.094 58.0173 110.957 58.6267 111.719 59.3123L111.033 60.074C110.322 59.4392 109.535 58.8806 108.672 58.3982ZM72.998 58.2205C73.9883 58.0427 74.9785 57.865 75.9688 57.6873L76.1465 58.6775C75.1816 58.8552 74.1914 59.033 73.1758 59.2107L72.998 58.2205ZM43.1133 57.7126L43.5957 56.824C44.459 57.281 45.373 57.6873 46.2871 58.0427L45.9316 58.9822C44.9668 58.6013 44.002 58.1951 43.1133 57.7126ZM78.9902 57.1287C79.9805 56.9509 80.9961 56.7732 81.9863 56.5955L82.1641 57.5857C81.1484 57.7634 80.1582 57.9412 79.168 58.1189L78.9902 57.1287ZM103.061 56.5701L103.238 55.5798C104.279 55.783 105.295 56.0369 106.234 56.3416L105.955 57.281C105.041 57.0017 104.076 56.7478 103.061 56.5701ZM84.9824 56.0623C86.0488 55.8845 87.0391 55.7576 88.0039 55.6052L88.1309 56.6208C87.166 56.7478 86.2012 56.9001 85.1348 57.0779L84.9824 56.0623ZM91.0254 55.2751C92.0918 55.1736 93.1074 55.0974 94.0723 55.0466L94.123 56.0623C93.1582 56.113 92.168 56.1892 91.1269 56.2908L91.0254 55.2751ZM97.1191 55.9861V54.9705C98.1855 54.9705 99.2012 55.0212 100.191 55.1228L100.115 56.1384C99.1504 56.0623 98.1601 56.0115 97.1191 55.9861ZM38.0098 54.2595L38.6699 53.4724C39.4062 54.1072 40.2188 54.6912 41.0566 55.2751L40.4727 56.113C39.6094 55.5291 38.7715 54.8943 38.0098 54.2595ZM33.8203 49.74L34.6582 49.156C35.2168 49.9431 35.8516 50.7302 36.5371 51.4412L35.7754 52.1267C35.0645 51.365 34.4043 50.5525 33.8203 49.74ZM30.9004 44.281L31.8652 43.9255C32.1953 44.865 32.6016 45.7537 33.084 46.6423L32.1699 47.0994C31.6875 46.1853 31.2559 45.2458 30.9004 44.281ZM29.5293 38.2634L30.5449 38.1619C30.6465 39.1521 30.7988 40.1423 31.0273 41.0818L30.0371 41.3103C29.8086 40.3201 29.6309 39.3044 29.5293 38.2634ZM29.377 35.1658C29.377 34.1501 29.4531 33.1091 29.5547 32.0935L30.5703 32.2205C30.4687 33.1853 30.418 34.1755 30.3926 35.1658H29.377Z" fill="#87C0F4"/>
<path d="M4.82422 211.047L5.83984 210.996C5.83984 210.996 5.86523 211.58 6.06836 212.418L5.07812 212.621C4.875 211.682 4.84961 211.072 4.82422 211.047Z" fill="#87C0F4"/>
<path d="M118.574 67.2852C106.894 73.125 105.371 85.8203 104.355 93.4375C103.34 101.055 99.0234 111.465 92.4218 117.051C85.8203 122.637 80.2343 128.73 77.6953 142.188C75.1562 155.645 78.7109 165.039 74.9023 177.227C71.0937 189.414 59.1601 206.172 59.9218 219.883C60.6835 233.594 72.3632 232.07 72.3632 232.07H227.246C227.246 232.07 234.686 214.068 228.262 192.207C222.676 173.164 205.918 170.371 201.348 145.488C198.986 132.641 199.316 128.984 189.922 117.051C180.248 104.762 173.672 104.609 169.355 93.4375C165.039 82.2656 162.5 61.1914 136.855 67.5391C136.855 67.5391 130.254 61.4453 118.574 67.2852Z" fill="#1F1F39"/>
<path d="M208.939 231.943H169.102L159.199 193.477L201.424 186.799L208.939 231.943Z" fill="#F9D2DD"/>
<path d="M34.2773 206.934C26.1523 205.41 12.9492 197.032 14.4727 179.258C15.9961 161.485 49.2578 109.18 49.2578 109.18C49.2578 109.18 43.9258 103.086 46.2109 95.723C48.4961 88.3597 56.6211 86.3284 61.9531 86.0745C67.2852 85.8206 71.0937 87.0902 71.0937 87.0902L82.7734 70.5863C82.7734 70.5863 85.3125 67.2855 88.3594 68.8089C91.4062 70.3324 85.3125 80.2347 85.3125 80.2347L79.7266 91.6605C79.7266 91.6605 78.7109 101.563 76.4258 107.149C74.1406 112.735 72.8711 114.004 72.8711 114.004L60.6836 154.121L74.6484 150.313L61.9531 202.871C61.9531 202.871 42.4023 208.457 34.2773 206.934Z" fill="#FFEBF0"/>
<path d="M61.9531 202.871L74.6484 150.312L62.1563 153.715L49.7656 205.664C58.3223 204.547 61.9531 202.871 61.9531 202.871Z" fill="#F9ACC0"/>
<path d="M159.199 193.477L162.703 207.137L205.994 214.322L201.424 186.799L159.199 193.477Z" fill="#F9ACC0"/>
<path d="M205.918 206.172C205.918 206.172 200.078 148.535 171.133 139.649C142.188 130.762 122.129 133.555 112.988 136.348C103.848 139.141 64.7461 151.582 64.7461 151.582L56.3672 207.188L78.9648 204.902L75.1562 232.07H175.246C175.246 232.07 173.164 216.074 170.625 206.172H205.918Z" fill="#3D5CFF"/>
<path d="M205.918 206.172C205.918 206.172 200.078 148.535 171.133 139.649C142.188 130.762 122.129 133.555 112.988 136.348C103.848 139.141 64.7461 151.582 64.7461 151.582L56.3672 207.188L78.9648 204.902L75.1562 232.07H175.246C175.246 232.07 173.164 216.074 170.625 206.172H205.918Z" fill="#3D5CFF"/>
<path d="M200.357 181.949C196.473 177.582 186.139 167.401 173.723 166.817C163.465 166.334 160.926 160.037 158.666 154.502C157.219 150.947 155.873 147.571 152.75 145.666C147.088 142.213 141.273 144.067 133.961 146.403C130.711 147.444 127.359 148.51 123.602 149.246C117.025 150.541 113.014 147.571 110.779 144.854C108.393 141.934 107.555 138.76 107.504 138.608C107.428 138.328 107.605 138.049 107.859 137.998C108.139 137.922 108.418 138.1 108.469 138.354C108.469 138.379 109.307 141.477 111.566 144.219C114.562 147.85 118.523 149.196 123.398 148.256C127.08 147.52 130.432 146.453 133.656 145.438C140.943 143.102 147.24 141.096 153.283 144.803C156.686 146.885 158.184 150.567 159.631 154.121C161.865 159.656 164.176 165.369 173.799 165.801C186.596 166.385 197.184 176.821 201.145 181.264C201.322 181.467 201.322 181.797 201.094 181.975C200.967 182.076 200.84 182.127 200.738 182.127C200.586 182.127 200.459 182.076 200.357 181.949Z" fill="#EAEAFF"/>
<path d="M124.871 227.525C124.414 215.846 118.371 214.145 111.389 212.189C108.139 211.275 104.762 210.336 101.842 208.279C95.4179 203.785 96.1796 199.037 97.0683 193.527C97.4745 191.014 97.9062 188.17 97.7538 185.021C97.3222 176.896 90.7714 174.713 81.7324 171.717C80.0312 171.158 78.2538 170.549 76.4257 169.889C71.5761 168.137 68.9863 164.074 68.9355 158.184C68.8847 153.816 70.2304 150.033 70.2812 149.855L71.246 150.186C71.2206 150.211 69.9003 153.994 69.9511 158.184C70.0273 163.668 72.3124 167.299 76.7812 168.924C78.5839 169.584 80.3613 170.168 82.0624 170.727C91.1523 173.748 98.3124 176.135 98.7949 184.945C98.9726 188.195 98.5156 191.09 98.1093 193.654C97.2206 199.24 96.5859 203.303 102.477 207.416C105.269 209.371 108.545 210.285 111.719 211.174C118.777 213.154 125.455 215.008 125.937 227.449C125.988 229.023 126.141 230.521 126.344 231.867L125.277 232.045C125.074 230.674 124.922 229.15 124.871 227.525Z" fill="#EAEAFF"/>
<path d="M148.281 182.381C147.088 182.203 145.869 182 144.523 181.771C137.414 180.502 136.449 175.881 135.434 171.006C134.824 168.061 134.164 165.014 132.285 162.094C129.264 157.447 124.16 158.615 117.102 160.24C112.557 161.281 107.428 162.449 101.715 162.297C97.4238 162.17 91.584 160.545 88.0039 153.41C85.8965 149.195 85.5918 145.082 85.5918 144.904L86.6074 144.828C86.6074 144.879 86.9121 148.941 88.9434 152.979C91.6348 158.336 95.9512 161.129 101.766 161.281C107.352 161.434 112.404 160.266 116.898 159.25C124.084 157.6 129.746 156.305 133.174 161.535C135.18 164.607 135.865 167.883 136.475 170.777C137.516 175.703 138.328 179.613 144.752 180.756C146.072 180.984 147.291 181.187 148.484 181.365C155.416 182.457 160.012 183.168 166.436 190.074L165.648 190.785C159.453 184.133 155.01 183.447 148.281 182.381Z" fill="#EAEAFF"/>
<path d="M109.18 94.9606C105.625 98.0074 107.656 104.355 112.481 106.132C117.305 107.91 118.574 106.64 118.574 106.64L116.289 94.4528C116.289 94.4528 112.734 91.9137 109.18 94.9606Z" fill="#F9ACC0"/>
<path d="M117.812 111.465C120.605 117.813 126.445 119.59 126.445 119.59C126.445 119.59 126.953 124.16 125.937 128.73C124.922 133.301 123.652 135.84 123.652 135.84C123.652 135.84 125.176 139.141 135.84 139.648C146.504 140.156 148.027 135.84 148.027 135.84C148.027 135.84 146.758 128.73 147.012 123.652C147.266 118.574 148.789 110.703 148.789 110.703C148.789 110.703 155.644 112.988 159.961 108.672C164.277 104.355 163.262 96.2305 157.93 95.7227C152.598 95.2148 149.805 99.7852 149.805 99.7852C149.805 99.7852 142.187 96.2305 139.141 90.3906C136.094 84.5508 135.84 80.4883 135.84 80.4883C135.84 80.4883 121.113 82.5195 116.035 94.4531C116.035 94.4531 115.019 105.117 117.812 111.465Z" fill="#F9D2DD"/>
<path fill-rule="evenodd" clip-rule="evenodd" d="M123.779 101.055C122.868 101.055 122.129 100.145 122.129 99.0234C122.129 97.9016 122.868 96.9922 123.779 96.9922C124.691 96.9922 125.43 97.9016 125.43 99.0234C125.43 100.145 124.691 101.055 123.779 101.055Z" fill="#1F1F39"/>
<path fill-rule="evenodd" clip-rule="evenodd" d="M136.729 101.816C135.817 101.816 135.078 100.907 135.078 99.7852C135.078 98.6633 135.817 97.7539 136.729 97.7539C137.64 97.7539 138.379 98.6633 138.379 99.7852C138.379 100.907 137.64 101.816 136.729 101.816Z" fill="#1F1F39"/>
<path d="M134.063 107.148C135.078 106.894 137.109 105.371 137.109 105.371C137.109 105.371 137.617 105.117 137.871 105.371C138.125 105.625 136.5 108.519 135.078 108.925C133.301 109.433 132.031 108.671 131.27 107.656C130.508 106.64 131.524 106.894 131.524 106.894C131.524 106.894 133.047 107.402 134.063 107.148Z" fill="#F95368"/>
<path d="M129.01 99.0996C128.705 99.6328 128.426 100.191 128.248 100.75C128.172 101.029 128.121 101.309 128.147 101.562C128.147 101.639 128.172 101.689 128.172 101.74L128.248 101.943C128.299 102.07 128.375 102.197 128.451 102.324C128.756 102.781 129.365 103.061 129.975 103.086C129.67 103.188 129.34 103.188 129.01 103.111C128.68 103.035 128.375 102.857 128.147 102.578C128.02 102.451 127.943 102.299 127.842 102.146L127.74 101.918C127.715 101.842 127.69 101.74 127.664 101.639C127.588 101.283 127.664 100.928 127.74 100.598C127.943 99.9629 128.274 99.4043 128.654 98.8711C129.061 98.3633 129.492 97.9062 130 97.5C129.67 98.0332 129.34 98.5664 129.01 99.0996Z" fill="#1F1F39"/>
<path d="M180.984 206.172C179.791 202.389 175.373 188.906 170.371 180.02C164.531 169.609 157.168 162.246 157.168 162.246C157.168 162.246 163.465 180.477 165.293 186.621C167.096 192.639 171.717 210.945 171.717 210.945C171.361 209.27 171.006 207.645 170.625 206.172H180.984Z" fill="#224BF4"/>
<path d="M136.449 92.8792C136.957 92.7014 137.465 92.5745 137.998 92.5491C138.531 92.5237 139.09 92.5745 139.598 92.7522C140.105 92.93 140.613 93.2093 140.893 93.6917C140.41 93.4886 139.928 93.4124 139.445 93.3362C138.963 93.2854 138.48 93.2854 138.023 93.3108C137.541 93.3362 137.059 93.387 136.576 93.4632L135.078 93.6917C135.484 93.3362 135.941 93.0823 136.449 92.8792Z" fill="#1F1F39"/>
<path d="M121.189 91.2789C121.85 91.2027 122.51 91.2281 123.17 91.3805C123.83 91.5328 124.439 91.7867 124.998 92.1422C125.277 92.3199 125.531 92.5484 125.76 92.8023C125.963 93.0562 126.166 93.3609 126.191 93.691C126.014 93.4371 125.76 93.234 125.506 93.0816C125.252 92.9293 124.973 92.8023 124.693 92.6754C124.135 92.4469 123.551 92.2691 122.992 92.1168C122.408 91.9898 121.824 91.8883 121.215 91.8629C120.605 91.8629 119.971 91.8629 119.336 91.9137C119.895 91.5582 120.529 91.3805 121.189 91.2789Z" fill="#1F1F39"/>
<path fill-rule="evenodd" clip-rule="evenodd" d="M234.102 231.816V232.656H25.8984V231.816H234.102Z" fill="#1F1F39"/>
<path d="M67.1327 110.652C66.9803 110.525 63.5018 107.479 62.7401 102.375C62.3592 99.8867 62.5116 96.3574 64.0858 94.5039C64.5428 93.9961 65.0253 93.7168 65.5331 93.7168C66.8534 93.7168 67.3358 94.707 68.1483 96.3574C68.4022 96.8906 68.7069 97.4746 69.0624 98.1602C70.5604 100.877 74.826 105.168 74.8514 105.219C74.953 105.32 74.953 105.473 74.8514 105.574C74.7499 105.676 74.5975 105.676 74.496 105.574C74.3182 105.396 70.1288 101.207 68.6053 98.4141C68.2245 97.7285 67.9452 97.1191 67.6659 96.5859C66.8534 94.9102 66.4725 94.2246 65.5077 94.2246C65.1776 94.2246 64.7967 94.4531 64.4413 94.834C63.5272 95.9004 62.6385 98.5156 63.1971 102.299C63.9335 107.225 67.3866 110.246 67.4374 110.271C67.5389 110.373 67.5643 110.525 67.4628 110.627C67.4374 110.678 67.3612 110.703 67.285 110.703C67.2342 110.703 67.1581 110.678 67.1327 110.652Z" fill="#1F1F39"/>
<path d="M55.9102 101.436C51.9746 100.115 51.9238 98.2363 51.9238 98.1602C51.9238 98.0078 52.0254 97.9062 52.1777 97.9062C52.3047 97.9062 52.4316 98.0078 52.4316 98.1602C52.4316 98.1855 52.5332 99.7852 56.0625 100.979C59.6934 102.197 62.6133 100.242 62.6387 100.242C62.7656 100.166 62.918 100.191 62.9941 100.318C63.0703 100.445 63.0449 100.598 62.918 100.674C62.8418 100.674 61.0645 101.842 58.5508 101.867C57.7383 101.867 56.8496 101.74 55.9102 101.436Z" fill="#1F1F39"/>
<path d="M139.648 120.098C139.648 120.098 133.352 121.977 126.496 120.047C126.598 121.316 126.775 125.023 125.937 128.73C125.861 129.086 125.785 129.416 125.709 129.721C127.994 129.746 131.574 129.416 135.332 127.461C141.68 124.16 142.695 119.336 142.695 119.336C142.695 119.336 142.441 119.336 139.648 120.098Z" fill="#F9ACC0"/>
<path d="M47.6074 156.584C47.582 156.457 47.6581 156.305 47.8105 156.279L64.5175 152.877C64.6445 152.851 64.7968 152.928 64.8222 153.08C64.8476 153.207 64.7714 153.359 64.6191 153.385L47.912 156.787C47.8866 156.787 47.8866 156.787 47.8613 156.787C47.7343 156.787 47.6327 156.711 47.6074 156.584Z" fill="#1F1F39"/>
<path d="M131.904 121.241C130.584 121.19 129.264 120.961 127.943 120.606C127.41 120.453 126.877 120.301 126.369 120.098C126.242 120.047 126.166 119.895 126.217 119.768C126.268 119.641 126.42 119.565 126.547 119.616C127.055 119.793 127.563 119.971 128.096 120.098C129.365 120.453 130.66 120.657 131.955 120.707C137.414 120.961 141.451 119.463 141.502 119.463C141.629 119.412 141.781 119.489 141.832 119.616C141.883 119.742 141.807 119.895 141.68 119.946C141.604 119.971 138.074 121.266 133.148 121.266C132.742 121.266 132.311 121.266 131.904 121.241Z" fill="#1F1F39"/>
<path d="M115.654 105.244C115.654 105.219 115.629 103.746 114.156 101.055C112.709 98.4143 111.49 97.8811 111.49 97.8557C111.363 97.805 111.287 97.6526 111.363 97.5257C111.44 97.3987 111.567 97.3225 111.693 97.3733C111.744 97.3987 113.065 97.9573 114.613 100.776C116.162 103.594 116.162 105.143 116.162 105.219C116.162 105.397 116.061 105.498 115.908 105.498C115.756 105.498 115.654 105.397 115.654 105.244Z" fill="#1F1F39"/>
<path d="M170.168 205.944C169.229 202.744 167.857 197.793 166.537 192.283C164.023 181.746 156.965 162.551 156.889 162.348C156.838 162.221 156.914 162.069 157.041 162.018C157.168 161.967 157.32 162.043 157.371 162.17C157.447 162.373 164.506 181.594 167.02 192.157C168.34 197.666 169.711 202.617 170.625 205.791C170.676 205.918 170.574 206.071 170.447 206.096C170.473 206.096 170.447 206.121 170.422 206.121C170.32 206.121 170.219 206.045 170.168 205.944Z" fill="#1F1F39"/>
<path d="M96.7383 43.6719C96.7129 44.002 96.7383 44.1797 96.7383 44.1797C96.7383 44.1797 96.7383 44.002 96.7383 43.6719Z" fill="#EAEAFF"/>
<path fill-rule="evenodd" clip-rule="evenodd" d="M80.2598 19.373C77.3652 19.373 75.0293 21.709 75.0293 24.6035V39.8125C75.0293 42.707 77.3652 45.043 80.2598 45.043H88.1055V54.209C88.1055 54.9453 88.6895 55.5293 89.4258 55.5293H89.832C90.2383 55.6055 90.6953 55.5293 91.0254 55.1992L101.791 45.0684H114.258C117.152 45.0684 119.488 42.7324 119.488 39.8379V24.6035C119.463 21.709 117.127 19.373 114.232 19.373H80.2598ZM88.8672 32.2461C86.3281 27.4219 87.5977 24.6289 87.5977 24.6289C87.5977 24.6289 92.1934 24.0195 94.707 27.6758C96.916 30.875 97.2207 34.0742 97.2461 35.293C97.3477 34.3789 97.957 32.3477 101.309 29.9609C104.863 27.4219 108.164 28.4375 108.164 28.4375C108.164 28.4375 110.449 37.0703 96.4844 39.1016C96.4844 39.1016 91.4062 37.0703 88.8672 32.2461Z" fill="white"/>
<path d="M101.562 34.5312C104.609 31.9922 106.895 29.707 106.895 29.707C106.895 29.707 105.117 30.4688 102.832 32.2461C100.547 34.0234 96.4844 38.5938 96.4844 38.5938C96.4844 38.5938 98.5156 37.0703 101.562 34.5312Z" fill="white"/>
<path d="M92.168 32.2461C94.4531 36.5625 96.4844 38.5938 96.4844 38.5938C96.4844 38.5938 95.2148 35.8008 93.6914 32.7539C92.168 29.707 89.6289 26.6602 89.6289 26.6602C89.6289 26.6602 89.8828 27.9297 92.168 32.2461Z" fill="white"/>
<path fill-rule="evenodd" clip-rule="evenodd" d="M178.902 60.7598C176.008 60.7598 173.672 63.0957 173.672 65.9902V81.1992C173.672 84.0937 176.008 86.4297 178.902 86.4297H191.369L202.135 96.5605C202.465 96.8906 202.922 96.9668 203.328 96.8906H203.734C204.471 96.8906 205.055 96.3066 205.055 95.5703V86.4043H212.9C215.795 86.4043 218.131 84.0684 218.131 81.1738V65.9648C218.105 63.0957 215.77 60.7598 212.875 60.7598H178.902ZM194.822 80.2852C194.771 80.2852 194.746 80.2852 194.695 80.2598L189.287 78.4062C188.906 78.2793 188.652 77.9238 188.652 77.5176V67.6914C188.652 67.1582 189.059 66.7519 189.592 66.7266C189.693 66.7266 189.795 66.752 189.896 66.7773L194.67 68.4023C195.025 68.5293 195.279 68.8848 195.279 69.2656V79.8535V79.8535C195.279 80.1074 195.076 80.2852 194.822 80.2852ZM197.082 80.2852C196.854 80.3613 196.6 80.2344 196.523 80.0059C196.498 79.9551 196.498 79.9043 196.498 79.8535V69.2656C196.498 68.8848 196.752 68.5293 197.107 68.4023L201.881 66.7773C202.389 66.5996 202.922 66.8789 203.074 67.3613C203.1 67.4629 203.125 67.5645 203.125 67.666V77.4922C203.125 77.9492 202.871 78.3047 202.49 78.4316L197.082 80.2852Z" fill="white"/>
<path fill-rule="evenodd" clip-rule="evenodd" d="M143.33 107.91C140.596 107.91 138.379 106.546 138.379 104.863C138.379 103.181 140.596 101.816 143.33 101.816C146.065 101.816 148.281 103.181 148.281 104.863C148.281 106.546 146.065 107.91 143.33 107.91Z" fill="#F9ACC0"/>
<path d="M115.984 102.705C116.086 104.229 116.264 105.803 116.568 107.326C117.381 107.682 118.371 107.91 119.463 107.91C122.205 107.91 124.414 106.539 124.414 104.863C124.414 103.188 122.205 101.816 119.463 101.816C118.092 101.816 116.873 102.146 115.984 102.705Z" fill="#F9ACC0"/>
<path d="M148.764 110.906C148.789 110.779 148.789 110.703 148.789 110.703C148.789 110.703 150.236 111.186 152.217 111.287C152.191 111.109 152.141 110.932 152.09 110.703C151.074 107.656 154.375 101.816 154.375 101.816C154.375 101.816 150.82 102.578 149.297 107.656C148.916 108.926 148.764 110.094 148.764 110.906Z" fill="#F9ACC0"/>
<path d="M148.84 108.52C148.713 108.469 148.637 108.342 148.688 108.19C148.713 108.114 149.221 106.59 150.998 104.051C152.801 101.487 154.807 100.446 154.908 100.42C155.035 100.37 155.188 100.42 155.238 100.522C155.289 100.649 155.238 100.801 155.137 100.852C155.111 100.852 153.131 101.868 151.43 104.33C149.703 106.819 149.17 108.317 149.17 108.317C149.119 108.469 149.018 108.545 148.916 108.545C148.891 108.545 148.865 108.545 148.84 108.52Z" fill="#1F1F39"/>
<path d="M85.5918 174.18C85.5918 174.18 82.5195 185.885 75.4102 195.279C70.4844 201.805 61.7754 205.512 56.875 207.162L78.7871 204.928L85.5918 174.18Z" fill="#224BF4"/>
<path d="M78.9395 205.156C78.8125 205.131 78.7109 205.004 78.7109 204.877C78.7109 204.801 79.752 196.65 81.5039 188.855C83.2559 181.061 87.3184 167.146 87.3438 166.994C87.3945 166.867 87.5215 166.791 87.6484 166.816C87.7754 166.867 87.8516 166.994 87.8262 167.121C87.7754 167.248 83.7383 181.162 81.9863 188.932C80.2344 196.701 79.2187 204.826 79.1934 204.902C79.1934 205.055 79.0918 205.156 78.9648 205.156H78.9395Z" fill="#1F1F39"/>
</svg>
