<svg width="260" height="260" viewBox="0 0 260 260" fill="none" xmlns="http://www.w3.org/2000/svg">
<mask id="mask0_0_5991" style="mask-type:luminance" maskUnits="userSpaceOnUse" x="0" y="0" width="260" height="260">
<rect width="260" height="260" fill="white"/>
</mask>
<g mask="url(#mask0_0_5991)">
<path fill-rule="evenodd" clip-rule="evenodd" d="M200 0C233.137 0 260 26.8629 260 60V200C260 233.137 233.137 260 200 260H60C26.8629 260 0 233.137 0 200V60C0 26.8629 26.8629 0 60 0H200Z" fill="#D9F4F1" fill-opacity="0.01"/>
<path d="M71.3477 32.449L24.6289 36.0037L73.8867 49.4607L71.3477 32.449Z" fill="#DADAF7"/>
<path fill-rule="evenodd" clip-rule="evenodd" d="M226.002 208.101C225.748 207.974 225.646 207.67 225.773 207.416C225.773 207.416 226.129 206.705 226.764 204.826C226.865 204.572 227.145 204.42 227.398 204.521C227.652 204.623 227.805 204.902 227.703 205.156C227.018 207.111 226.662 207.822 226.662 207.847C226.586 208.05 226.408 208.152 226.23 208.152C226.154 208.152 226.078 208.127 226.002 208.101ZM228.059 202.592C227.779 202.515 227.652 202.236 227.729 201.957C228.008 201.043 228.287 200.078 228.592 199.037C228.668 198.758 228.947 198.605 229.227 198.681C229.506 198.758 229.658 199.037 229.582 199.316C229.277 200.357 228.998 201.322 228.719 202.236C228.617 202.49 228.414 202.617 228.211 202.617C228.16 202.617 228.109 202.617 228.059 202.592ZM229.734 196.726C229.455 196.65 229.303 196.371 229.379 196.117C229.582 195.304 229.811 194.467 230.039 193.552L230.141 193.172C230.217 192.892 230.496 192.74 230.75 192.791C231.029 192.867 231.182 193.146 231.131 193.4L231.029 193.781C230.801 194.695 230.572 195.558 230.344 196.371C230.293 196.599 230.09 196.752 229.861 196.752C229.811 196.752 229.785 196.752 229.734 196.726ZM231.232 190.836C230.953 190.785 230.775 190.506 230.852 190.226C231.055 189.261 231.258 188.246 231.461 187.256C231.512 186.976 231.766 186.799 232.045 186.849C232.324 186.9 232.502 187.179 232.451 187.433C232.248 188.449 232.045 189.465 231.842 190.429C231.791 190.683 231.562 190.836 231.334 190.836C231.309 190.836 231.258 190.836 231.232 190.836ZM232.4 184.869C232.121 184.818 231.943 184.564 231.969 184.285C232.121 183.295 232.273 182.279 232.426 181.289C232.477 181.009 232.73 180.806 233.01 180.857C233.289 180.908 233.492 181.162 233.441 181.441C233.289 182.457 233.137 183.472 232.984 184.463C232.934 184.691 232.73 184.869 232.477 184.869C232.451 184.869 232.426 184.869 232.4 184.869ZM233.264 178.826C232.984 178.8 232.781 178.547 232.807 178.267C232.908 177.252 233.035 176.236 233.111 175.246C233.137 174.967 233.365 174.763 233.67 174.789C233.949 174.814 234.152 175.068 234.127 175.347C234.051 176.363 233.924 177.379 233.822 178.394C233.797 178.623 233.568 178.826 233.314 178.826C233.289 178.826 233.264 178.826 233.264 178.826ZM233.822 172.758C233.543 172.732 233.34 172.504 233.34 172.224C233.391 171.209 233.441 170.193 233.467 169.203C233.467 168.924 233.695 168.72 233.975 168.72C233.975 168.72 233.975 168.72 234 168.72C234.279 168.72 234.508 168.974 234.482 169.254C234.457 170.269 234.406 171.285 234.33 172.326C234.33 172.529 234.102 172.758 233.848 172.758H233.822ZM233.518 166.156C233.518 165.14 233.492 164.125 233.467 163.134C233.467 162.855 233.67 162.627 233.949 162.601C234.229 162.601 234.457 162.804 234.482 163.084C234.508 164.074 234.533 165.115 234.533 166.156C234.533 166.435 234.305 166.664 234.025 166.664C233.746 166.664 233.518 166.435 233.518 166.156ZM55.5547 162.957C55.2754 162.931 55.0723 162.677 55.123 162.398C55.1484 162.119 55.4023 161.916 55.6816 161.967C56.6211 162.093 57.6113 162.144 58.6523 162.144C58.9316 162.144 59.1602 162.373 59.1602 162.652C59.1602 162.931 58.9316 163.16 58.6523 163.16C57.5605 163.16 56.5195 163.084 55.5547 162.957ZM61.1914 162.576C61.166 162.297 61.3691 162.043 61.6484 162.017C62.5879 161.941 63.6035 161.814 64.6445 161.636C64.9238 161.586 65.1777 161.789 65.2285 162.068C65.2793 162.347 65.0762 162.601 64.7969 162.652C63.7305 162.83 62.7148 162.957 61.75 163.033C61.7246 163.033 61.7246 163.033 61.6992 163.033C61.4453 163.033 61.2168 162.83 61.1914 162.576ZM52.5078 162.347C51.4668 162.043 50.4766 161.636 49.5879 161.154C49.334 161.027 49.2578 160.722 49.3848 160.468C49.5117 160.215 49.8164 160.138 50.0703 160.265C50.8828 160.722 51.7969 161.078 52.7871 161.383C53.0664 161.459 53.2188 161.738 53.1172 162.017C53.0664 162.22 52.8633 162.373 52.6602 162.373C52.6094 162.373 52.5586 162.373 52.5078 162.347ZM67.209 161.687C67.1582 161.408 67.3359 161.154 67.5898 161.078C68.5293 160.875 69.5195 160.646 70.5352 160.367C70.8145 160.291 71.0938 160.468 71.1445 160.722C71.2207 161.002 71.043 161.281 70.7891 161.332C69.7734 161.611 68.7578 161.84 67.793 162.043C67.793 162.093 67.7676 162.093 67.7168 162.093C67.4883 162.093 67.2598 161.941 67.209 161.687ZM73.125 160.215C73.0488 159.935 73.2012 159.656 73.4551 159.58C74.3945 159.3 75.3594 158.996 76.3496 158.666C76.6035 158.59 76.9082 158.717 76.9844 158.996C77.0606 159.25 76.9336 159.554 76.6543 159.631C75.6641 159.961 74.6738 160.265 73.7344 160.545C73.709 160.57 73.6582 160.57 73.6074 160.57C73.3789 160.57 73.1758 160.418 73.125 160.215ZM233.289 160.088C233.213 159.072 233.111 158.056 233.01 157.066C232.984 156.787 233.188 156.533 233.441 156.508C233.721 156.482 233.975 156.66 234 156.939C234.127 157.929 234.229 158.945 234.305 159.986C234.33 160.265 234.127 160.519 233.848 160.519C233.822 160.57 233.822 160.57 233.797 160.57C233.543 160.57 233.314 160.367 233.289 160.088ZM47.0234 159.326C46.2617 158.615 45.5762 157.802 44.9922 156.914C44.8398 156.685 44.8906 156.355 45.1445 156.203C45.373 156.051 45.7031 156.101 45.8555 156.355C46.4141 157.193 47.0488 157.929 47.7344 158.59C47.9375 158.767 47.9629 159.097 47.7598 159.301C47.6328 159.377 47.5059 159.453 47.3789 159.453C47.252 159.453 47.125 159.402 47.0234 159.326ZM78.9141 158.31C78.8125 158.056 78.9648 157.752 79.2188 157.65C80.1582 157.32 81.0977 156.939 82.0625 156.584C82.3164 156.482 82.6211 156.609 82.7227 156.863C82.8242 157.117 82.6973 157.422 82.4434 157.523C81.4785 157.904 80.5137 158.259 79.5742 158.615C79.5234 158.64 79.4473 158.64 79.3965 158.64C79.1934 158.64 78.9902 158.513 78.9141 158.31ZM84.6269 156.127C84.5254 155.873 84.6523 155.568 84.9062 155.467C85.8203 155.086 86.7598 154.679 87.6992 154.248C87.9531 154.146 88.2578 154.248 88.3594 154.502C88.4609 154.756 88.3594 155.06 88.1055 155.162C87.166 155.568 86.2266 156 85.2871 156.381C85.2109 156.406 85.1348 156.431 85.084 156.431C84.8809 156.431 84.7031 156.304 84.6269 156.127ZM232.553 154.095C232.4 153.258 232.248 152.42 232.07 151.633L231.969 151.125C231.918 150.845 232.07 150.592 232.35 150.515C232.629 150.465 232.883 150.617 232.959 150.896L233.061 151.404C233.238 152.217 233.416 153.054 233.568 153.918C233.619 154.197 233.441 154.451 233.162 154.502C233.137 154.527 233.111 154.527 233.061 154.527C232.807 154.527 232.604 154.349 232.553 154.095ZM43.5195 154.095C43.1387 153.181 42.834 152.191 42.5801 151.125C42.5039 150.845 42.6816 150.566 42.9609 150.515C43.2402 150.439 43.5195 150.617 43.5703 150.896C43.7988 151.912 44.1035 152.851 44.459 153.715C44.5605 153.968 44.4336 154.273 44.1797 154.375C44.1289 154.426 44.0527 154.426 44.002 154.426C43.7988 154.426 43.6211 154.299 43.5195 154.095ZM90.1875 153.664C90.0606 153.41 90.1875 153.105 90.4414 152.978C91.3555 152.547 92.2695 152.115 93.1836 151.658C93.4375 151.531 93.7422 151.633 93.8691 151.886C93.9961 152.14 93.8945 152.445 93.6406 152.572C92.7266 153.029 91.7871 153.461 90.873 153.892C90.7969 153.918 90.7207 153.943 90.6445 153.943C90.4414 153.943 90.2637 153.842 90.1875 153.664ZM95.6719 150.972C95.5449 150.718 95.6465 150.414 95.9004 150.287C96.7891 149.83 97.7031 149.347 98.5918 148.865C98.8457 148.738 99.1504 148.814 99.2773 149.068C99.4043 149.322 99.3281 149.627 99.0742 149.754C98.1856 150.236 97.2715 150.718 96.3828 151.176C96.2813 151.226 96.2051 151.252 96.1289 151.252C95.9512 151.252 95.7734 151.15 95.6719 150.972ZM231.283 148.179C231.029 147.138 230.801 146.174 230.547 145.234C230.471 144.955 230.648 144.675 230.902 144.625C231.182 144.549 231.461 144.726 231.512 144.98C231.766 145.945 232.02 146.91 232.248 147.951C232.324 148.23 232.146 148.509 231.867 148.56C231.842 148.56 231.816 148.56 231.766 148.56C231.537 148.56 231.334 148.408 231.283 148.179ZM42.0469 148.078C41.9199 147.113 41.8438 146.072 41.8184 145.006C41.8184 144.726 42.0215 144.498 42.3008 144.472C42.5801 144.447 42.8086 144.676 42.834 144.955C42.8594 145.996 42.9355 147.011 43.0625 147.951C43.0879 148.23 42.8848 148.484 42.6309 148.509C42.6055 148.535 42.5801 148.535 42.5547 148.535C42.3008 148.535 42.0723 148.357 42.0469 148.078ZM101.055 148.078C100.928 147.824 101.004 147.519 101.258 147.392C102.146 146.884 103.01 146.377 103.898 145.869C104.152 145.717 104.457 145.818 104.584 146.047C104.736 146.301 104.635 146.605 104.406 146.732C103.543 147.24 102.654 147.773 101.766 148.256C101.639 148.306 101.563 148.332 101.486 148.332C101.309 148.332 101.131 148.23 101.055 148.078ZM106.285 145.006C106.133 144.777 106.209 144.447 106.463 144.295C107.326 143.761 108.189 143.228 109.027 142.67C109.256 142.517 109.586 142.593 109.738 142.822C109.891 143.051 109.814 143.381 109.586 143.533C108.748 144.092 107.859 144.625 106.996 145.158C106.92 145.209 106.818 145.234 106.717 145.234C106.539 145.234 106.387 145.158 106.285 145.006ZM229.734 142.314C229.455 141.349 229.15 140.359 228.846 139.42C228.77 139.14 228.896 138.861 229.176 138.785C229.455 138.709 229.734 138.836 229.811 139.115C230.115 140.08 230.42 141.07 230.699 142.035C230.775 142.314 230.623 142.593 230.344 142.67C230.318 142.644 230.268 142.67 230.217 142.67C229.988 142.67 229.785 142.517 229.734 142.314ZM41.8184 141.908C41.8438 141.4 41.8691 140.867 41.8945 140.308C41.9199 139.826 41.9707 139.318 42.0723 138.81C42.123 138.531 42.377 138.353 42.6563 138.379C42.9355 138.429 43.1133 138.683 43.0879 138.963C43.0117 139.445 42.9609 139.927 42.9355 140.359C42.9102 140.892 42.8848 141.426 42.8594 141.933C42.834 142.238 42.6055 142.441 42.3262 142.441C42.0215 142.441 41.8184 142.187 41.8184 141.908ZM111.414 141.705C111.262 141.476 111.312 141.146 111.541 140.994C112.379 140.435 113.217 139.851 114.055 139.267C114.283 139.115 114.613 139.166 114.766 139.394C114.918 139.623 114.867 139.953 114.639 140.105C113.801 140.689 112.963 141.273 112.125 141.832C112.049 141.908 111.947 141.933 111.846 141.933C111.693 141.933 111.516 141.857 111.414 141.705ZM116.441 138.201C116.264 137.972 116.314 137.668 116.543 137.49C117.355 136.881 118.168 136.271 118.98 135.662C119.209 135.484 119.514 135.535 119.691 135.763C119.869 135.992 119.818 136.297 119.59 136.474C118.803 137.084 117.965 137.718 117.152 138.328C117.051 138.379 116.949 138.404 116.848 138.404C116.695 138.404 116.543 138.328 116.441 138.201ZM227.881 136.525C227.551 135.56 227.195 134.621 226.84 133.681C226.738 133.427 226.865 133.123 227.145 133.021C227.398 132.92 227.703 133.047 227.805 133.326C228.16 134.265 228.516 135.23 228.846 136.195C228.947 136.449 228.795 136.754 228.541 136.83C228.465 136.83 228.414 136.855 228.363 136.855C228.16 136.855 227.957 136.728 227.881 136.525ZM43.1387 136.424C42.8594 136.347 42.7324 136.043 42.8086 135.789C43.1133 134.849 43.4687 133.884 43.9004 132.894C44.002 132.64 44.3066 132.513 44.5605 132.64C44.8145 132.742 44.9414 133.047 44.8145 133.301C44.3828 134.265 44.0273 135.205 43.748 136.093C43.6973 136.322 43.4941 136.449 43.291 136.449C43.2402 136.449 43.1895 136.449 43.1387 136.424ZM121.266 134.519C121.088 134.291 121.113 133.986 121.342 133.808C122.129 133.174 122.916 132.513 123.678 131.879C123.881 131.701 124.211 131.726 124.389 131.929C124.566 132.133 124.541 132.463 124.338 132.64C123.576 133.301 122.789 133.961 121.977 134.595C121.9 134.646 121.773 134.697 121.672 134.697C121.52 134.697 121.367 134.621 121.266 134.519ZM225.723 130.838C225.342 129.898 224.936 128.959 224.504 128.045C224.377 127.791 224.504 127.486 224.758 127.384C225.012 127.258 225.316 127.384 225.418 127.638C225.824 128.552 226.256 129.517 226.637 130.457C226.738 130.711 226.611 131.015 226.357 131.117C226.307 131.142 226.256 131.142 226.18 131.142C225.977 131.142 225.799 131.015 225.723 130.838ZM45.4492 130.812C45.1953 130.685 45.1191 130.381 45.2461 130.127C45.7031 129.263 46.2109 128.349 46.7695 127.461C46.9219 127.232 47.2266 127.156 47.4551 127.283C47.6836 127.435 47.7598 127.74 47.6328 127.968C47.0996 128.857 46.5918 129.746 46.1348 130.584C46.0332 130.761 45.8555 130.863 45.6777 130.863C45.6016 130.863 45.5254 130.838 45.4492 130.812ZM125.938 130.558C125.76 130.355 125.76 130.025 125.988 129.847C126.75 129.162 127.486 128.476 128.223 127.791C128.426 127.588 128.756 127.613 128.934 127.816C129.137 128.019 129.111 128.349 128.908 128.527C128.172 129.213 127.436 129.924 126.648 130.609C126.547 130.711 126.42 130.736 126.318 130.736C126.191 130.736 126.039 130.685 125.938 130.558ZM130.355 126.394C130.152 126.191 130.152 125.886 130.355 125.683C131.066 124.972 131.777 124.236 132.463 123.5C132.666 123.297 132.971 123.297 133.174 123.474C133.377 123.677 133.377 123.982 133.199 124.185C132.514 124.922 131.803 125.658 131.066 126.394C130.99 126.496 130.863 126.547 130.711 126.547C130.584 126.547 130.457 126.496 130.355 126.394ZM48.5723 125.582C48.3438 125.429 48.293 125.099 48.4453 124.871C49.0039 124.058 49.6133 123.195 50.2227 122.383C50.4004 122.154 50.7051 122.103 50.9336 122.281C51.1621 122.459 51.2129 122.763 51.0352 122.992C50.4258 123.804 49.8164 124.642 49.2832 125.455C49.1816 125.582 49.0039 125.658 48.8516 125.658C48.75 125.658 48.6484 125.633 48.5723 125.582ZM223.209 125.302C222.777 124.388 222.295 123.5 221.838 122.611C221.711 122.357 221.812 122.052 222.041 121.926C222.295 121.799 222.6 121.9 222.727 122.129C223.209 123.017 223.666 123.957 224.123 124.871C224.25 125.125 224.148 125.429 223.895 125.556C223.818 125.582 223.742 125.582 223.666 125.582C223.488 125.582 223.285 125.48 223.209 125.302ZM134.545 121.976C134.342 121.799 134.316 121.468 134.494 121.265C135.154 120.504 135.814 119.717 136.449 118.955C136.627 118.726 136.957 118.701 137.16 118.879C137.389 119.056 137.414 119.386 137.236 119.59C136.602 120.377 135.941 121.164 135.256 121.926C135.154 122.052 135.027 122.103 134.875 122.103C134.748 122.103 134.646 122.052 134.545 121.976ZM52.1523 120.656C51.9238 120.478 51.8984 120.148 52.0762 119.945C52.7109 119.158 53.3711 118.371 54.0313 117.584C54.209 117.381 54.5391 117.355 54.7422 117.533C54.9453 117.711 54.9707 118.041 54.793 118.244C54.1328 119.006 53.4727 119.793 52.8633 120.58C52.7871 120.707 52.6348 120.758 52.4824 120.758C52.3809 120.758 52.2539 120.732 52.1523 120.656ZM220.391 119.945C219.883 119.082 219.375 118.193 218.842 117.33C218.689 117.101 218.766 116.771 219.02 116.619C219.248 116.467 219.578 116.543 219.73 116.797C220.264 117.66 220.797 118.549 221.305 119.437C221.432 119.691 221.355 119.996 221.127 120.123C221 120.174 220.898 120.199 220.822 120.199C220.645 120.199 220.467 120.097 220.391 119.945ZM138.43 117.279C138.201 117.101 138.15 116.797 138.328 116.568C138.937 115.756 139.521 114.918 140.105 114.105C140.258 113.877 140.588 113.826 140.816 113.978C141.045 114.131 141.096 114.461 140.943 114.689C140.385 115.527 139.775 116.365 139.141 117.177C139.039 117.304 138.887 117.381 138.734 117.381C138.633 117.381 138.531 117.355 138.43 117.279ZM56.1133 116.009C55.9102 115.832 55.8848 115.502 56.0879 115.299C56.7734 114.562 57.4844 113.801 58.1953 113.064C58.3984 112.861 58.7031 112.861 58.9062 113.064C59.1094 113.267 59.1094 113.572 58.9062 113.775C58.1953 114.511 57.4844 115.248 56.8242 115.984C56.748 116.086 56.6211 116.136 56.4687 116.136C56.3418 116.136 56.2148 116.086 56.1133 116.009ZM217.191 114.791C216.633 113.953 216.049 113.115 215.465 112.302C215.312 112.074 215.363 111.769 215.592 111.592C215.82 111.439 216.125 111.49 216.303 111.718C216.887 112.531 217.471 113.394 218.055 114.232C218.207 114.461 218.156 114.791 217.902 114.943C217.826 114.994 217.725 115.019 217.623 115.019C217.471 115.019 217.293 114.943 217.191 114.791ZM141.908 112.277C141.68 112.125 141.604 111.82 141.756 111.566C142.289 110.703 142.822 109.84 143.305 108.976C143.432 108.722 143.762 108.646 143.99 108.773C144.244 108.9 144.32 109.23 144.193 109.459C143.711 110.347 143.178 111.236 142.619 112.099C142.518 112.277 142.34 112.353 142.188 112.353C142.086 112.353 142.01 112.328 141.908 112.277ZM60.3535 111.617C60.1504 111.414 60.1504 111.084 60.3535 110.906C61.0645 110.195 61.8262 109.484 62.5625 108.799C62.7656 108.595 63.0957 108.621 63.2734 108.824C63.4766 109.027 63.4512 109.357 63.248 109.535C62.5117 110.22 61.7754 110.931 61.0391 111.617C60.9629 111.718 60.8359 111.769 60.709 111.769C60.582 111.769 60.4551 111.718 60.3535 111.617ZM213.662 109.865C213.053 109.078 212.418 108.265 211.783 107.504C211.605 107.275 211.631 106.97 211.859 106.793C212.062 106.615 212.393 106.64 212.57 106.869C213.23 107.656 213.865 108.443 214.475 109.256C214.652 109.484 214.602 109.789 214.373 109.967C214.297 110.043 214.195 110.068 214.068 110.068C213.916 110.068 213.764 109.992 213.662 109.865ZM64.7969 107.453C64.6191 107.25 64.6191 106.92 64.8477 106.742C65.6094 106.082 66.3965 105.396 67.1582 104.736C67.3613 104.558 67.6914 104.584 67.8691 104.787C68.0469 104.99 68.0215 105.32 67.8184 105.498C67.0566 106.158 66.2695 106.818 65.5078 107.478C65.4316 107.58 65.3047 107.631 65.1777 107.631C65.0254 107.631 64.8984 107.58 64.7969 107.453ZM144.904 106.996C144.65 106.869 144.549 106.564 144.676 106.31C145.133 105.396 145.539 104.482 145.945 103.568C146.047 103.314 146.352 103.187 146.605 103.289C146.859 103.39 146.986 103.695 146.885 103.949C146.479 104.888 146.047 105.828 145.615 106.742C145.514 106.92 145.336 107.047 145.133 107.047C145.057 107.047 144.98 107.021 144.904 106.996ZM209.803 105.193C209.143 104.431 208.432 103.695 207.746 102.959C207.543 102.756 207.568 102.426 207.771 102.248C207.975 102.045 208.305 102.07 208.482 102.273C209.193 103.009 209.879 103.771 210.564 104.533C210.742 104.736 210.742 105.066 210.514 105.244C210.437 105.345 210.311 105.371 210.184 105.371C210.031 105.371 209.904 105.32 209.803 105.193ZM69.4434 103.517C69.2656 103.289 69.291 102.984 69.5195 102.806C70.3066 102.172 71.1191 101.537 71.9316 100.927C72.1602 100.75 72.4648 100.801 72.6426 101.029C72.8203 101.258 72.7695 101.562 72.541 101.74C71.7285 102.349 70.9414 102.984 70.1543 103.619C70.0781 103.644 69.9512 103.695 69.8496 103.695C69.6973 103.695 69.5449 103.619 69.4434 103.517ZM147.367 101.41C147.113 101.308 146.986 101.004 147.088 100.75C147.443 99.8103 147.799 98.8454 148.129 97.906C148.23 97.6521 148.51 97.4997 148.764 97.6013C149.018 97.7029 149.17 97.9821 149.068 98.2361C148.738 99.2009 148.383 100.166 148.027 101.105C147.951 101.308 147.748 101.435 147.545 101.435C147.494 101.435 147.418 101.435 147.367 101.41ZM205.613 100.826C204.902 100.14 204.141 99.4294 203.404 98.7693C203.201 98.5915 203.176 98.2615 203.354 98.0583C203.531 97.8552 203.861 97.8298 204.064 98.0075C204.826 98.6931 205.588 99.404 206.299 100.09C206.502 100.293 206.502 100.597 206.299 100.801C206.223 100.927 206.096 100.978 205.969 100.978C205.842 100.978 205.715 100.927 205.613 100.826ZM74.2676 99.7595C74.0898 99.531 74.1406 99.2263 74.3691 99.0486C75.1816 98.4392 76.0195 97.8552 76.8574 97.2712C77.0859 97.1189 77.416 97.1697 77.5684 97.3982C77.7207 97.6267 77.6699 97.9568 77.4414 98.1091C76.6035 98.6931 75.791 99.2771 74.9785 99.8864C74.9023 99.9372 74.7754 99.9626 74.6738 99.9626C74.5215 99.9626 74.3691 99.8864 74.2676 99.7595ZM201.119 96.7888C200.357 96.154 199.545 95.5193 198.758 94.8845C198.529 94.7068 198.504 94.4021 198.656 94.1736C198.834 93.945 199.139 93.9197 199.367 94.072C200.18 94.6814 200.967 95.3415 201.754 96.0017C201.957 96.1794 202.008 96.5095 201.83 96.7126C201.729 96.8396 201.576 96.9157 201.449 96.9157C201.322 96.9157 201.221 96.865 201.119 96.7888ZM79.2441 96.2556C79.0918 96.0271 79.1426 95.697 79.3965 95.5446C80.2344 94.9861 81.0977 94.4275 81.9609 93.8689C82.1894 93.7165 82.5195 93.7927 82.6719 94.0212C82.8242 94.2497 82.748 94.5798 82.5195 94.7322C81.6562 95.2654 80.8184 95.824 79.9805 96.3825C79.8789 96.4587 79.7773 96.4841 79.6758 96.4841C79.5234 96.4841 79.3457 96.4079 79.2441 96.2556ZM149.398 95.6716C149.119 95.5954 148.992 95.3161 149.068 95.0368C149.373 94.072 149.652 93.1071 149.932 92.1423C150.008 91.863 150.287 91.7107 150.566 91.7868C150.846 91.863 150.998 92.1423 150.922 92.4216C150.643 93.4118 150.363 94.3767 150.059 95.3669C149.957 95.5447 149.779 95.697 149.551 95.697C149.5 95.697 149.449 95.697 149.398 95.6716ZM84.3984 92.9548C84.2461 92.7263 84.3223 92.3962 84.5762 92.2693C85.4395 91.7361 86.3281 91.2282 87.2168 90.7204C87.4707 90.5681 87.7754 90.6696 87.9023 90.8982C88.0547 91.1521 87.9531 91.4568 87.7246 91.5837C86.8613 92.0915 85.9727 92.5993 85.1094 93.1325C85.0078 93.1833 84.9063 93.2087 84.8301 93.2087C84.6523 93.2087 84.5 93.1325 84.3984 92.9548ZM196.32 93.0818C195.508 92.4978 194.67 91.9138 193.832 91.3552C193.604 91.2028 193.527 90.8728 193.68 90.6443C193.832 90.4157 194.137 90.3396 194.391 90.4919C195.229 91.0505 196.092 91.6345 196.904 92.2439C197.133 92.3962 197.184 92.7263 197.031 92.9548C196.93 93.1072 196.777 93.1833 196.625 93.1833C196.523 93.1833 196.422 93.1579 196.32 93.0818ZM89.6543 89.9079C89.5273 89.654 89.6035 89.3493 89.8574 89.2224C90.7461 88.74 91.6602 88.2575 92.5488 87.7751C92.8027 87.6482 93.1074 87.7497 93.2344 88.0036C93.3613 88.2575 93.2598 88.5622 93.0059 88.6892C92.1172 89.1462 91.2031 89.6286 90.3145 90.1111C90.2637 90.1364 90.1875 90.1618 90.1113 90.1618C89.9336 90.1618 89.7559 90.0603 89.6543 89.9079ZM191.293 89.7302C190.43 89.197 189.566 88.6892 188.678 88.1814C188.424 88.0544 188.348 87.7243 188.475 87.4958C188.602 87.2419 188.932 87.1657 189.16 87.2927C190.049 87.8005 190.938 88.3083 191.801 88.8415C192.029 88.9939 192.105 89.2986 191.979 89.5525C191.902 89.7302 191.725 89.8064 191.547 89.8064C191.445 89.8064 191.369 89.781 191.293 89.7302ZM151.049 89.781C150.77 89.7048 150.617 89.4509 150.668 89.1716C150.896 88.1814 151.125 87.1911 151.328 86.2263C151.379 85.947 151.658 85.7693 151.938 85.82C152.217 85.8708 152.395 86.1501 152.344 86.4294C152.141 87.4196 151.912 88.4353 151.684 89.4255C151.607 89.654 151.404 89.8064 151.176 89.8064C151.125 89.8064 151.1 89.8064 151.049 89.781ZM95.0625 87.0896C94.9355 86.8357 95.0371 86.531 95.291 86.404C96.2051 85.947 97.1445 85.5154 98.0586 85.0837C98.3125 84.9568 98.6172 85.0837 98.7441 85.3376C98.8711 85.5915 98.7441 85.8962 98.4902 86.0232C97.5762 86.4294 96.6621 86.8864 95.7481 87.3181C95.6719 87.3435 95.5957 87.3689 95.5195 87.3689C95.3418 87.3689 95.1387 87.2673 95.0625 87.0896ZM186.037 86.7595C185.148 86.3025 184.234 85.8454 183.32 85.4138C183.066 85.2868 182.965 84.9822 183.092 84.7282C183.219 84.4743 183.523 84.3728 183.777 84.4997C184.691 84.9314 185.605 85.4138 186.52 85.8708C186.773 85.9978 186.875 86.3025 186.723 86.5564C186.621 86.7087 186.443 86.8103 186.266 86.8103C186.189 86.8103 186.113 86.7849 186.037 86.7595ZM100.598 84.5251C100.496 84.2712 100.598 83.9665 100.852 83.865C101.791 83.4587 102.73 83.0779 103.67 82.697C103.924 82.5954 104.229 82.7224 104.33 82.9763C104.432 83.2302 104.305 83.5349 104.051 83.6364C103.111 84.0173 102.172 84.3982 101.258 84.8044C101.182 84.8044 101.131 84.8298 101.055 84.8298C100.852 84.8298 100.674 84.7029 100.598 84.5251ZM180.553 84.1189C179.639 83.7126 178.699 83.3318 177.76 82.9509C177.506 82.8493 177.379 82.5447 177.48 82.2907C177.582 82.0368 177.887 81.9099 178.141 82.0114C179.08 82.3923 180.045 82.7986 180.959 83.2048C181.213 83.3064 181.34 83.6111 181.213 83.865C181.137 84.0681 180.959 84.1696 180.756 84.1696C180.68 84.1696 180.629 84.1443 180.553 84.1189ZM152.293 83.8396C152.014 83.7888 151.836 83.5349 151.887 83.2556C152.064 82.2654 152.191 81.2497 152.318 80.2595C152.344 79.9802 152.598 79.7771 152.877 79.8279C153.156 79.8532 153.359 80.1072 153.309 80.3864C153.182 81.3767 153.029 82.4177 152.852 83.4079C152.826 83.6618 152.623 83.8396 152.369 83.8396C152.344 83.8396 152.318 83.8396 152.293 83.8396ZM106.234 82.24C106.133 81.9861 106.26 81.6814 106.539 81.5798C107.504 81.2243 108.469 80.8689 109.408 80.5642C109.662 80.4626 109.967 80.615 110.043 80.8689C110.145 81.1228 109.992 81.4275 109.738 81.5036C108.799 81.8337 107.834 82.1638 106.895 82.5193C106.818 82.5446 106.768 82.57 106.717 82.57C106.514 82.57 106.311 82.4431 106.234 82.24ZM174.941 81.8845C174.002 81.529 173.037 81.1989 172.072 80.8943C171.818 80.8181 171.666 80.5134 171.742 80.2595C171.818 80.0056 172.123 79.8532 172.377 79.9294C173.342 80.2595 174.307 80.5896 175.271 80.945C175.525 81.0466 175.678 81.3259 175.576 81.6052C175.525 81.7829 175.322 81.9099 175.119 81.9099C175.068 81.9099 174.992 81.9099 174.941 81.8845ZM111.973 80.2341C111.896 79.9548 112.049 79.6755 112.303 79.5993C113.268 79.2946 114.258 78.99 115.223 78.7361C115.502 78.6599 115.781 78.8122 115.857 79.0915C115.934 79.3708 115.781 79.6501 115.502 79.7263C114.537 80.0056 113.572 80.2849 112.607 80.5896C112.557 80.5896 112.506 80.5896 112.455 80.5896C112.227 80.5896 112.049 80.4626 111.973 80.2341ZM169.203 79.9548C168.238 79.6755 167.273 79.3962 166.283 79.1169C166.004 79.0407 165.852 78.7614 165.928 78.4822C166.004 78.2029 166.283 78.0505 166.562 78.1267C167.553 78.406 168.543 78.6853 169.508 78.9646C169.787 79.0407 169.939 79.32 169.838 79.5993C169.762 79.8279 169.559 79.9802 169.355 79.9802C169.305 79.9802 169.254 79.9802 169.203 79.9548ZM117.812 78.5583C117.736 78.279 117.914 77.9997 118.168 77.9489C119.158 77.695 120.148 77.4665 121.139 77.238C121.418 77.1872 121.672 77.3396 121.748 77.6189C121.799 77.8982 121.646 78.1521 121.367 78.2282C120.402 78.4568 119.412 78.6853 118.422 78.9392C118.396 78.9138 118.346 78.9392 118.295 78.9392C118.066 78.9392 117.863 78.7868 117.812 78.5583ZM163.338 78.3552C162.373 78.1267 161.383 77.8982 160.393 77.6696C160.113 77.6189 159.936 77.3396 160.012 77.0603C160.062 76.781 160.342 76.6032 160.621 76.6794C161.611 76.8825 162.627 77.1111 163.592 77.365C163.871 77.4411 164.023 77.695 163.973 77.9743C163.896 78.2282 163.693 78.3806 163.465 78.3806C163.414 78.3806 163.389 78.3806 163.338 78.3552ZM153.105 77.7966C152.826 77.7712 152.623 77.5173 152.648 77.238C152.75 76.2224 152.801 75.2068 152.852 74.2165C152.877 73.9372 153.105 73.7341 153.385 73.7341C153.664 73.7595 153.893 73.988 153.867 74.2673C153.816 75.2829 153.74 76.2986 153.664 77.3142C153.639 77.5935 153.41 77.7966 153.156 77.7966C153.131 77.7966 153.131 77.7966 153.105 77.7966ZM123.729 77.1872C123.678 76.9079 123.855 76.654 124.135 76.6032C125.125 76.4001 126.141 76.2224 127.131 76.07C127.41 76.0193 127.664 76.2224 127.715 76.5017C127.766 76.781 127.562 77.0349 127.283 77.0857C126.293 77.238 125.303 77.4157 124.313 77.6189C124.287 77.5935 124.262 77.5935 124.236 77.5935C124.008 77.5935 123.779 77.4157 123.729 77.1872ZM157.396 77.1111C156.406 76.9333 155.391 76.781 154.4 76.6286C154.121 76.5779 153.918 76.3239 153.969 76.0447C154.02 75.7654 154.273 75.5622 154.553 75.613C155.568 75.7654 156.584 75.9177 157.574 76.0954C157.854 76.1462 158.031 76.4001 157.98 76.6794C157.955 76.9333 157.752 77.1111 157.498 77.1111C157.473 77.1111 157.447 77.1111 157.396 77.1111ZM129.721 76.1716C129.695 75.8923 129.873 75.6384 130.152 75.613C131.168 75.4861 132.184 75.3591 133.174 75.2575C133.453 75.2321 133.707 75.4353 133.732 75.7146C133.758 75.9939 133.555 76.2478 133.275 76.2732C132.285 76.3747 131.27 76.5017 130.279 76.6286C130.279 76.6032 130.254 76.6032 130.229 76.6032C129.975 76.6032 129.771 76.4255 129.721 76.1716ZM151.43 76.2732C150.439 76.1716 149.424 76.07 148.408 76.0193C148.129 75.9939 147.926 75.7654 147.926 75.4861C147.951 75.2068 148.18 75.0036 148.459 75.0036C149.475 75.0798 150.516 75.156 151.506 75.2575C151.785 75.2829 151.988 75.5368 151.963 75.8161C151.963 76.07 151.734 76.2732 151.48 76.2732C151.455 76.2732 151.455 76.2732 151.43 76.2732ZM135.764 75.5368C135.738 75.2575 135.967 75.0036 136.246 75.0036C137.262 74.9275 138.277 74.8767 139.293 74.8513C139.572 74.8513 139.801 75.0544 139.826 75.3337C139.826 75.613 139.623 75.8415 139.344 75.8669C138.354 75.8923 137.338 75.9431 136.322 76.0193C136.297 76.0193 136.271 76.0193 136.271 76.0193C136.018 76.0193 135.789 75.8161 135.764 75.5368ZM145.412 75.8415C144.422 75.8161 143.432 75.7907 142.441 75.7907H142.365C142.086 75.7907 141.857 75.5622 141.857 75.2829C141.857 75.0036 142.086 74.7751 142.365 74.7751H142.441C143.432 74.7751 144.422 74.8005 145.412 74.8259C145.691 74.8259 145.92 75.0798 145.895 75.3591C145.895 75.6384 145.666 75.8415 145.412 75.8415C145.387 75.8415 145.387 75.8415 145.412 75.8415ZM152.928 71.2204V70.865C152.928 69.9763 152.902 69.0876 152.877 68.1989C152.877 67.9197 153.08 67.6911 153.359 67.6657C153.639 67.6657 153.867 67.8689 153.893 68.1482C153.918 69.0368 153.943 69.9509 153.943 70.8396V71.195C153.943 71.4997 153.715 71.7282 153.436 71.7282C153.156 71.7282 152.928 71.4997 152.928 71.2204ZM152.674 65.1775C152.572 64.1618 152.471 63.1462 152.344 62.1814C152.293 61.9021 152.496 61.6482 152.775 61.5974C153.055 61.5466 153.309 61.7497 153.359 62.029C153.512 63.0193 153.613 64.0603 153.715 65.0759C153.74 65.3552 153.537 65.6091 153.258 65.6345C153.207 65.6345 153.207 65.6345 153.182 65.6345C152.928 65.6345 152.699 65.4314 152.674 65.1775ZM151.836 59.2107C151.633 58.2204 151.404 57.2302 151.176 56.2654C151.1 55.9861 151.277 55.7068 151.531 55.656C151.811 55.5798 152.09 55.7575 152.141 56.0115C152.395 56.9763 152.623 57.9919 152.826 59.0075C152.877 59.2868 152.699 59.5407 152.42 59.5915C152.395 59.5915 152.369 59.6169 152.344 59.6169C152.115 59.6169 151.887 59.4392 151.836 59.2107ZM150.312 53.3454C150.008 52.3806 149.652 51.4411 149.271 50.5271C149.17 50.2732 149.297 49.9685 149.551 49.8669C149.805 49.7654 150.109 49.8923 150.211 50.1462C150.592 51.0857 150.947 52.0505 151.277 53.0407C151.354 53.2947 151.227 53.5993 150.947 53.6755C150.896 53.7009 150.846 53.7009 150.795 53.7009C150.592 53.7009 150.389 53.574 150.312 53.3454ZM148.053 47.8103C147.596 46.9216 147.113 46.0329 146.605 45.1697C146.453 44.9411 146.529 44.6111 146.783 44.4841C147.012 44.3318 147.342 44.4079 147.469 44.6618C148.002 45.5251 148.484 46.4392 148.941 47.3786C149.068 47.6325 148.967 47.9372 148.713 48.0642C148.662 48.0642 148.586 48.0896 148.51 48.0896C148.332 48.0896 148.154 47.988 148.053 47.8103ZM144.98 42.656C144.396 41.8435 143.762 41.0564 143.127 40.2947C142.949 40.0915 142.975 39.7614 143.178 39.5837C143.381 39.406 143.711 39.4314 143.889 39.6345C144.549 40.3962 145.184 41.2341 145.793 42.072C145.945 42.3005 145.895 42.6052 145.666 42.7829C145.59 42.8337 145.488 42.8591 145.387 42.8591C145.234 42.8591 145.082 42.7829 144.98 42.656ZM141.07 38.0857C140.359 37.4001 139.598 36.7146 138.836 36.0798C138.607 35.9021 138.582 35.572 138.76 35.3689C138.938 35.1404 139.268 35.115 139.471 35.2927C140.258 35.9529 141.045 36.6384 141.781 37.3493C141.984 37.5525 141.984 37.8572 141.781 38.0603C141.68 38.1872 141.553 38.238 141.426 38.238C141.299 38.238 141.172 38.1872 141.07 38.0857ZM80.793 36.4861C80.666 36.2322 80.7676 35.9275 81.0215 35.8005C81.0723 35.7751 82.0625 35.2673 83.8145 34.5056C84.0684 34.404 84.3731 34.5056 84.4746 34.7595C84.5762 35.0134 84.4746 35.3181 84.2207 35.4197C82.4941 36.1814 81.4785 36.6892 81.4785 36.6892C81.4023 36.74 81.3262 36.7654 81.25 36.7654C81.0723 36.7654 80.8945 36.6638 80.793 36.4861ZM136.424 34.3279C135.814 33.9216 135.205 33.5407 134.57 33.1599C134.342 33.0329 134.088 32.8806 133.859 32.7536C133.605 32.6267 133.529 32.2966 133.656 32.0681C133.783 31.8142 134.113 31.738 134.342 31.865C134.596 31.9919 134.824 32.1443 135.078 32.2712C135.713 32.6521 136.373 33.0583 136.982 33.4646C137.211 33.6169 137.287 33.947 137.109 34.1755C137.033 34.3279 136.855 34.404 136.703 34.404C136.602 34.404 136.5 34.3786 136.424 34.3279ZM86.3535 33.9978C86.252 33.7439 86.3789 33.4392 86.6328 33.3376C87.5723 32.9568 88.5371 32.6013 89.502 32.2712C89.7559 32.1697 90.0606 32.322 90.1621 32.5759C90.2637 32.8298 90.1113 33.1345 89.8574 33.2361C88.8926 33.5661 87.9531 33.947 87.0137 34.3025C86.9629 34.3025 86.9121 34.3279 86.8359 34.3279C86.6328 34.3279 86.4297 34.2009 86.3535 33.9978ZM92.1172 31.9157C92.041 31.6364 92.168 31.3572 92.4473 31.281C93.4121 30.9763 94.4023 30.6716 95.3672 30.3923C95.6465 30.3161 95.9258 30.4685 96.002 30.7478C96.0781 31.0271 95.9258 31.3064 95.6465 31.3825C94.6816 31.6618 93.7168 31.9665 92.7519 32.2712C92.7012 32.2712 92.6504 32.2712 92.5996 32.2712C92.3965 32.2712 92.1934 32.1443 92.1172 31.9157ZM131.168 31.4079C130.254 31.0271 129.314 30.6462 128.375 30.3415C128.121 30.2654 127.969 29.9607 128.045 29.7068C128.121 29.4529 128.426 29.3005 128.68 29.3767C129.67 29.7068 130.635 30.0622 131.574 30.4685C131.828 30.57 131.955 30.8747 131.828 31.1286C131.752 31.3318 131.574 31.4587 131.371 31.4587C131.295 31.4587 131.244 31.4333 131.168 31.4079ZM97.957 30.2146C97.8809 29.9353 98.0586 29.656 98.3379 29.6052C99.3281 29.3513 100.344 29.1228 101.334 28.9197C101.613 28.8689 101.867 29.0466 101.943 29.3005C101.994 29.5798 101.816 29.8337 101.562 29.9099C100.598 30.113 99.6074 30.3415 98.6172 30.5954C98.541 30.57 98.4902 30.5954 98.4395 30.5954C98.2109 30.5954 98.0078 30.4431 97.957 30.2146ZM125.48 29.5036C124.516 29.2751 123.525 29.072 122.535 28.9197C122.256 28.8689 122.078 28.615 122.104 28.3357C122.154 28.0564 122.408 27.8786 122.688 27.904C123.703 28.0818 124.744 28.2849 125.709 28.5134C125.988 28.5896 126.141 28.8435 126.09 29.1228C126.039 29.3767 125.836 29.529 125.607 29.529C125.557 29.529 125.531 29.529 125.48 29.5036ZM103.898 28.8943C103.848 28.615 104.025 28.3611 104.305 28.3103C105.32 28.1325 106.336 27.9802 107.352 27.8532C107.631 27.8279 107.885 28.0056 107.91 28.2849C107.936 28.5642 107.758 28.8181 107.479 28.8435C106.488 28.9704 105.498 29.1228 104.482 29.3005C104.482 29.3259 104.432 29.3259 104.406 29.3259C104.152 29.3259 103.949 29.1482 103.898 28.8943ZM119.539 28.5642C118.549 28.488 117.559 28.4118 116.518 28.3865C116.238 28.3865 116.01 28.1325 116.035 27.8532C116.035 27.574 116.264 27.3454 116.568 27.3708C117.609 27.3962 118.65 27.4724 119.641 27.5486C119.92 27.574 120.123 27.8279 120.098 28.1072C120.072 28.3611 119.844 28.5642 119.59 28.5642C119.564 28.5642 119.564 28.5642 119.539 28.5642ZM109.941 28.1072C109.916 27.8279 110.119 27.574 110.398 27.5486C111.439 27.4724 112.455 27.3962 113.471 27.3708C113.471 27.3708 113.471 27.3708 113.496 27.3708C113.775 27.3708 114.004 27.5993 114.004 27.8532C114.004 28.1325 113.801 28.3611 113.521 28.3865C112.531 28.4118 111.516 28.4626 110.5 28.5642C110.5 28.5642 110.475 28.5642 110.449 28.5642C110.195 28.5642 109.967 28.3611 109.941 28.1072Z" fill="#EAEAFF"/>
<path d="M73.8867 49.4607L52.3047 43.5701L67.2852 39.8123L73.8867 49.4607Z" fill="#EAE9FF"/>
<path d="M67.2852 39.8123L54.5898 51.4919L24.6289 36.0037L67.2852 39.8123Z" fill="#F4F3FD"/>
<path d="M79.9805 24.832L24.6289 36.0039L71.3477 32.4492L79.9805 24.832Z" fill="#F4F3FD"/>
<path d="M36.0801 216.023C34.9629 224.707 34.5059 234.66 34.5059 234.66H68.3769L74.8262 203.43L40.8535 195.584C40.8535 195.584 37.2227 207.34 36.0801 216.023Z" fill="#F9D2DD"/>
<path d="M36.0801 216.023C34.9629 224.707 34.5059 234.66 34.5059 234.66H68.3769L74.8262 203.43L40.8535 195.584C40.8535 195.584 37.2227 207.34 36.0801 216.023Z" fill="#DA5742"/>
<path d="M38.2637 205.004L71.9824 217.141L74.8008 203.43L40.8535 195.584C40.8535 195.584 39.5586 199.773 38.2637 205.004Z" fill="#C43D28"/>
<path d="M71.1699 209.574L38.4668 201.729C38.4668 201.729 39.0254 199.291 40.1426 195.356C43.5195 183.523 52.1777 158.26 66.7773 146.936C92.6758 126.877 117.889 127.563 138.125 130.432C163.262 133.986 180.832 157.6 185.859 164.709C192.562 174.205 200.078 189.668 200.078 189.668L165.623 204.242L170.676 234.762H68.3769V234.787L71.1699 209.574Z" fill="#3D5CFF"/>
<path d="M157.422 125.861C154.223 125.379 152.014 122.408 152.496 119.209L158.92 76.2226C159.402 73.0234 162.373 70.8144 165.572 71.2968L183.625 73.9883C186.824 74.4707 189.033 77.4414 188.551 80.6406L182.127 123.627C181.67 126.826 178.674 129.035 175.475 128.553L157.422 125.861Z" fill="#B7B8D1"/>
<path fill-rule="evenodd" clip-rule="evenodd" d="M248.752 234.229V235.066H11.248V234.229H248.752Z" fill="#1F1F39"/>
<path d="M157.422 125.861C154.223 125.379 152.014 122.408 152.496 119.209L158.92 76.2226C159.402 73.0234 162.373 70.8144 165.572 71.2968L183.625 73.9883C186.824 74.4707 189.033 77.4414 188.551 80.6406L182.127 123.627C181.67 126.826 178.674 129.035 175.475 128.553L157.422 125.861Z" fill="white"/>
<path d="M165.648 204.268C165.648 204.268 169.914 222.244 188.678 231.766C207.441 241.287 230.064 229.48 231.766 212.951C233.187 199.088 228.973 167.857 220.01 146.859C211.047 125.861 197.615 102.883 187.789 93.082C177.963 83.2813 163.973 84.3985 160.621 84.957C157.269 85.5156 154.451 88.0293 156.432 90.2891C158.387 92.5235 169.863 93.6406 169.863 93.6406C169.863 93.6406 161.078 92.4473 155.67 95.4434C151.836 97.5762 152.064 100.141 152.623 101.537C153.182 102.934 155.416 103.568 155.416 103.568C155.416 103.568 153.105 105.117 153.639 107.631C154.4 111.186 157.828 111.008 157.828 111.008C157.828 111.008 156.99 112.125 157.828 114.08C158.666 116.035 161.459 116.873 164.836 117.432C168.187 117.99 171.564 116.873 174.078 120.225C176.592 123.576 192.359 192.969 192.359 192.969L165.648 204.268Z" fill="#DA5742"/>
<path d="M153.639 96.8908C153.486 96.7385 153.512 96.4845 153.664 96.3576C154.172 95.9006 154.756 95.4943 155.467 95.0881C157.752 93.8185 160.875 93.133 164.76 93.0314C167.629 92.9553 169.813 93.2346 169.889 93.2599C170.092 93.2853 170.244 93.4885 170.219 93.6916C170.193 93.8947 169.99 94.0471 169.787 94.0217C169.711 94.0217 161.053 92.8791 155.822 95.7736C155.162 96.1291 154.604 96.5353 154.172 96.9416C154.096 96.967 153.994 97.0178 153.918 97.0178C153.816 97.0178 153.715 96.967 153.639 96.8908Z" fill="#1F1F39"/>
<path d="M165.369 204.801L156.965 172.021C156.914 171.793 157.041 171.564 157.269 171.514C157.498 171.463 157.726 171.59 157.777 171.818L166.182 204.598C166.232 204.826 166.105 205.055 165.877 205.105C165.851 205.105 165.801 205.105 165.775 205.105C165.598 205.105 165.42 204.978 165.369 204.801Z" fill="#1F1F39"/>
<path d="M71.2461 209.854C71.0176 209.803 70.8653 209.6 70.916 209.371L76.5274 177.43C76.5781 177.201 76.7813 177.049 77.0098 177.1C77.2383 177.15 77.3906 177.354 77.3399 177.582L71.7285 209.523C71.7031 209.727 71.5254 209.854 71.3223 209.854C71.2969 209.854 71.2715 209.854 71.2461 209.854Z" fill="#1F1F39"/>
<path fill-rule="evenodd" clip-rule="evenodd" d="M248.752 234.229V235.066H11.248V234.229H248.752Z" fill="#1F1F39"/>
<path d="M154.324 103.517C154.223 103.34 154.299 103.111 154.477 103.009C154.654 102.908 159.149 100.623 164.227 100.115C169.33 99.6071 170.93 100.115 170.981 100.14C171.184 100.216 171.285 100.42 171.209 100.623C171.133 100.826 170.93 100.927 170.727 100.851C170.727 100.851 169.152 100.369 164.277 100.877C159.326 101.359 154.832 103.67 154.781 103.67C154.781 103.72 154.705 103.72 154.654 103.72C154.527 103.72 154.375 103.644 154.324 103.517Z" fill="#1F1F39"/>
<path d="M155.848 111.388C155.746 111.211 155.822 110.982 156 110.881C156.178 110.779 160.672 108.494 165.75 107.986C170.854 107.478 172.453 107.986 172.504 108.011C172.707 108.088 172.809 108.291 172.732 108.494C172.656 108.697 172.453 108.799 172.25 108.722C172.25 108.722 170.676 108.24 165.801 108.748C160.85 109.23 156.356 111.541 156.305 111.541C156.305 111.591 156.229 111.591 156.178 111.591C156.051 111.591 155.899 111.515 155.848 111.388Z" fill="#1F1F39"/>
<path d="M155.315 95.5954C155.213 95.4177 155.289 95.1892 155.467 95.0876C157.803 93.7927 160.748 93.2595 163.363 93.0818C160.316 92.4978 157.117 91.6599 156.127 90.5173C156 90.365 156 90.1111 156.152 89.9841C156.305 89.8571 156.559 89.8572 156.686 90.0095C158.082 91.6091 165.242 92.7263 168.899 93.1325C169.457 93.1833 169.813 93.2341 169.889 93.2341L169.813 93.9958C169.736 93.9958 169.483 93.9704 169.051 93.9196C166.842 93.7165 160.164 93.3611 155.848 95.7478C155.772 95.7732 155.695 95.7985 155.645 95.7985C155.518 95.7985 155.391 95.7224 155.315 95.5954Z" fill="#1F1F39"/>
<path d="M192.334 192.969L165.623 204.268C165.623 204.268 166.842 209.447 170.879 215.719L193.146 196.6L192.334 192.969Z" fill="#C43D28"/>
<path d="M194.721 205.334L191.928 193.147C191.877 192.918 192.029 192.69 192.232 192.639C192.461 192.588 192.69 192.74 192.74 192.943L195.533 205.131C195.584 205.359 195.432 205.588 195.229 205.639C195.178 205.639 195.152 205.664 195.127 205.664C194.924 205.664 194.772 205.537 194.721 205.334Z" fill="#1F1F39"/>
<path d="M61.1914 207.187L71.1699 209.574L70.5098 215.617L76.375 180.629L61.1914 207.187Z" fill="#224BF4"/>
<path d="M165.826 205.385L165.623 204.268L174.688 200.434L157.371 173.697L165.826 205.385Z" fill="#224BF4"/>
<path fill-rule="evenodd" clip-rule="evenodd" d="M40.739 193.193L72.9987 200.06L72.7873 201.053L40.5276 194.186L40.739 193.193Z" fill="#EAEAFF"/>
<path fill-rule="evenodd" clip-rule="evenodd" d="M190.261 184.157L190.64 185.099L163.403 196.038L163.024 195.096L190.261 184.157Z" fill="#EAEAFF"/>
<path d="M54.1074 196.6C54.1582 196.346 59.5918 171.945 70.2051 158.311C80.8184 144.65 99.1758 136.906 99.3535 136.83L99.7344 137.77C99.5566 137.846 81.4531 145.488 70.9922 158.945C60.5059 172.402 55.1484 196.6 55.0977 196.828L54.1074 196.6Z" fill="#EAEAFF"/>
<path fill-rule="evenodd" clip-rule="evenodd" d="M51.0352 195.406C51.0352 195.406 51.2891 194.264 51.7461 192.41L52.2285 192.537C51.7715 194.391 51.543 195.508 51.543 195.508L51.0352 195.406ZM52.5586 189.465C52.8379 188.5 53.1172 187.51 53.3965 186.52L53.8789 186.672C53.5742 187.637 53.2949 188.627 53.041 189.592L52.5586 189.465ZM54.3105 183.6C54.6152 182.609 54.9453 181.645 55.2754 180.705L55.7578 180.883C55.4277 181.822 55.0977 182.787 54.793 183.752L54.3105 183.6ZM56.291 177.836C56.6465 176.871 57.0273 175.906 57.3828 174.992L57.8652 175.17C57.5098 176.084 57.1289 177.049 56.7734 178.014L56.291 177.836ZM58.5762 172.148C58.9824 171.209 59.4141 170.27 59.8203 169.355L60.2773 169.584C59.8711 170.473 59.4395 171.412 59.0332 172.352L58.5762 172.148ZM61.166 166.639C61.6484 165.699 62.1309 164.811 62.6133 163.947L63.0449 164.201C62.5879 165.039 62.1055 165.928 61.623 166.867L61.166 166.639ZM64.2129 161.307C64.7715 160.418 65.3555 159.555 65.9141 158.768L66.3203 159.072C65.7617 159.859 65.1777 160.697 64.6445 161.586L64.2129 161.307ZM67.7676 156.33C68.4023 155.543 69.0625 154.756 69.748 153.994L70.1289 154.324C69.4688 155.111 68.8086 155.873 68.1738 156.66L67.7676 156.33ZM71.8301 151.76C72.541 151.023 73.252 150.287 73.9883 149.602L74.3437 149.957C73.6074 150.668 72.8965 151.379 72.1855 152.115L71.8301 151.76ZM76.248 147.52C77.0098 146.834 77.7969 146.174 78.584 145.539L78.9141 145.945C78.1016 146.555 77.3145 147.215 76.5781 147.9L76.248 147.52ZM80.9707 143.66C81.7832 143.051 82.6211 142.467 83.459 141.883L83.7383 142.314C82.9258 142.873 82.0879 143.457 81.2754 144.066L80.9707 143.66ZM86.0234 140.207C86.8867 139.674 87.7754 139.141 88.6641 138.658L88.918 139.09C88.0293 139.572 87.166 140.105 86.3027 140.639L86.0234 140.207ZM91.3555 137.211C92.2949 136.754 93.209 136.297 94.1231 135.916L94.3262 136.373C93.4375 136.779 92.4981 137.211 91.584 137.668L91.3555 137.211ZM96.9668 134.773C97.9062 134.443 98.4141 134.291 98.4395 134.291L98.5664 134.773C98.5918 134.773 98.0586 134.926 97.1445 135.256L96.9668 134.773Z" fill="#EAEAFF"/>
<path fill-rule="evenodd" clip-rule="evenodd" d="M186.596 179.943L187.053 179.715C187.535 180.629 188.018 181.543 188.449 182.432L187.992 182.66C187.561 181.771 187.078 180.857 186.596 179.943ZM183.65 174.637L184.082 174.383C184.59 175.271 185.098 176.16 185.605 177.049L185.148 177.277C184.666 176.389 184.158 175.5 183.65 174.637ZM180.451 169.432L180.883 169.152C181.416 169.99 181.975 170.879 182.508 171.742L182.076 172.021C181.543 171.158 181.01 170.27 180.451 169.432ZM177.074 164.354L177.48 164.049C178.064 164.861 178.648 165.725 179.207 166.562L178.801 166.867C178.242 166.029 177.658 165.166 177.074 164.354ZM173.443 159.479L173.85 159.174C174.459 159.961 175.094 160.773 175.703 161.611L175.297 161.891C174.688 161.078 174.078 160.266 173.443 159.479ZM169.559 154.807L169.939 154.477C170.6 155.213 171.285 156 171.945 156.787L171.539 157.117C170.879 156.33 170.219 155.543 169.559 154.807ZM165.369 150.414L165.725 150.059C166.436 150.744 167.172 151.48 167.883 152.217L167.502 152.572C166.791 151.836 166.08 151.1 165.369 150.414ZM160.799 146.402L161.104 145.996C161.891 146.605 162.678 147.266 163.439 147.951L163.135 148.357C162.373 147.672 161.586 147.012 160.799 146.402ZM155.848 142.873L156.127 142.441C156.99 143 157.854 143.559 158.666 144.143L158.361 144.574C157.549 143.99 156.686 143.432 155.848 142.873ZM150.592 139.877L150.82 139.42C151.734 139.877 152.623 140.359 153.512 140.867L153.258 141.324C152.395 140.816 151.48 140.334 150.592 139.877ZM145.057 137.363L145.234 136.881C146.174 137.262 147.139 137.668 148.053 138.074L147.85 138.557C146.936 138.15 145.996 137.744 145.057 137.363ZM139.318 135.383L139.471 134.9C140.436 135.205 141.426 135.51 142.391 135.84L142.213 136.322C141.273 135.992 140.283 135.687 139.318 135.383ZM133.428 133.885L133.529 133.377C134.52 133.58 135.535 133.809 136.5 134.062L136.398 134.57C135.408 134.316 134.418 134.088 133.428 133.885ZM127.461 132.895L127.512 132.387C128.502 132.514 129.518 132.641 130.533 132.818L130.457 133.326C129.441 133.174 128.451 133.021 127.461 132.895ZM121.723 132.514C121.494 132.514 121.393 132.514 121.393 132.514L121.367 132.006C121.367 132.006 121.494 132.006 121.723 132.006C122.18 132.006 123.119 132.031 124.439 132.107L124.414 132.615C123.094 132.539 122.18 132.514 121.723 132.514Z" fill="#EAEAFF"/>
<path d="M155.086 146.605C137.414 133.91 118.016 134.291 117.838 134.291L117.812 133.275C118.016 133.275 137.719 132.869 155.695 145.768C173.621 158.641 186.215 186.062 186.342 186.342L185.402 186.773C185.275 186.494 172.783 159.326 155.086 146.605Z" fill="#EAEAFF"/>
<path d="M71.2461 209.854C71.0176 209.803 70.8653 209.6 70.916 209.371L76.5274 177.43C76.5781 177.201 76.7813 177.049 77.0098 177.1C77.2383 177.15 77.3906 177.354 77.3399 177.582L71.7285 209.523C71.7031 209.727 71.5254 209.854 71.3223 209.854C71.2969 209.854 71.2715 209.854 71.2461 209.854Z" fill="#1F1F39"/>
<path d="M165.369 204.801L156.965 172.021C156.914 171.793 157.041 171.564 157.269 171.514C157.498 171.463 157.726 171.59 157.777 171.818L166.182 204.598C166.232 204.826 166.105 205.055 165.877 205.105C165.851 205.105 165.801 205.105 165.775 205.105C165.598 205.105 165.42 204.978 165.369 204.801Z" fill="#1F1F39"/>
<path d="M113.09 142.873C123.728 142.086 132.057 137.719 131.726 133.098C131.625 131.701 130.762 130.457 129.289 129.416C118.65 128.477 106.92 128.731 94.6815 132.361C93.6659 133.504 93.1581 134.697 93.2343 135.916C93.5644 140.537 102.451 143.635 113.09 142.873Z" fill="#224BF4"/>
<path d="M132.006 75.9942C132.006 75.9942 140.689 68.1485 134.52 58.9063C128.35 49.6641 116.873 53.295 116.873 53.295C116.873 53.295 113.496 41.8184 100.064 42.6563C86.6328 43.4942 87.4707 59.1856 87.4707 59.1856C87.4707 59.1856 84.8555 55.377 79.0664 58.0684C74.8769 60.0235 77.1113 67.0313 77.1113 67.0313C77.1113 67.0313 67.0312 67.8692 64.5176 77.67C61.75 88.4102 68.1484 93.6407 70.9668 95.0372C73.7598 96.4336 76.2988 95.875 76.2988 95.875C76.2988 95.875 70.9668 98.9473 72.9473 104.838C74.9023 110.729 83.3066 110.17 83.3066 110.17L100.242 124.516L134.52 88.0293L132.006 75.9942Z" fill="#FF7F2D"/>
<path d="M134.57 87.5725C138.455 88.3089 139.648 93.1331 137.973 97.9827C136.271 102.832 129.264 104.28 129.264 104.28L127.791 89.9846C127.791 89.9846 130.686 86.8362 134.57 87.5725Z" fill="#F9ACC0"/>
<path d="M90.5176 98.668C86.0488 99.2266 84.6269 105.396 87.7246 109.865C90.8222 114.334 98.3633 113.775 98.3633 113.775C98.3633 113.775 100.039 120.504 100.598 129.187C101.156 137.871 101.156 136.475 101.156 136.475C101.156 136.475 105.93 140.664 115.451 138.709C124.973 136.754 124.414 132.26 124.414 132.26C124.414 132.26 124.135 130.863 123.018 127.207C121.9 123.551 121.342 119.641 121.342 119.641C121.342 119.641 133.098 115.172 131.98 101.156C130.863 87.1406 126.09 77.6191 126.09 77.6191H123.018C123.018 77.6191 122.738 81.8086 119.387 82.9512C116.035 84.0937 111.541 80.9961 111.541 80.9961C111.541 80.9961 110.982 86.0488 105.93 88.0039C100.877 89.959 96.6875 89.1211 96.6875 89.1211C96.6875 89.1211 98.668 98.3887 96.1289 101.182C96.1289 101.182 95.0117 98.1094 90.5176 98.668Z" fill="#F9D2DD"/>
<path d="M131.066 98.592C131.066 98.4905 131.066 96.0784 131.803 93.8694C132.539 91.635 134.012 90.1624 134.062 90.0862C134.215 89.9338 134.443 89.9338 134.57 90.0862C134.723 90.2385 134.723 90.467 134.57 90.594C134.545 90.6194 133.174 92.0159 132.488 94.0979C131.777 96.2053 131.777 98.5667 131.777 98.592C131.777 98.7952 131.625 98.9475 131.422 98.9475C131.219 98.9475 131.066 98.7952 131.066 98.592Z" fill="#1F1F39"/>
<path d="M97.1954 109.815C97.17 109.789 95.3926 106.945 93.2598 105.6C91.127 104.254 88.2579 103.848 88.2325 103.848C88.004 103.822 87.8516 103.594 87.877 103.365C87.9024 103.137 88.1309 102.984 88.3594 103.01C88.4864 103.035 91.4063 103.467 93.6915 104.889C95.9766 106.336 97.8048 109.231 97.8809 109.357C98.0079 109.561 97.9317 109.815 97.754 109.941C97.7032 109.992 97.627 110.018 97.5509 110.018C97.3985 110.018 97.2716 109.941 97.1954 109.815Z" fill="#1F1F39"/>
<path d="M104.686 95.7991C105.143 95.2151 105.777 94.7073 106.514 94.4534C106.895 94.3264 107.25 94.2502 107.656 94.2502C108.037 94.2249 108.443 94.2756 108.799 94.4026C109.535 94.6311 110.195 95.1643 110.424 95.8499C109.764 95.5706 109.18 95.469 108.596 95.469C108.469 95.469 108.316 95.4944 108.189 95.4944C108.063 95.5198 107.91 95.5198 107.783 95.5706C107.707 95.5959 107.656 95.5959 107.58 95.5959L107.377 95.6467C107.225 95.6721 107.123 95.7229 106.971 95.7737C106.463 95.9514 105.955 96.2053 105.473 96.5608C104.99 96.9163 104.508 97.3225 103.975 97.8303C103.975 97.094 104.254 96.4084 104.686 95.7991Z" fill="#1F1F39"/>
<path d="M121.164 90.848C121.596 90.2894 122.256 89.8323 122.992 89.6546C123.17 89.6292 123.373 89.5784 123.551 89.553C123.729 89.553 123.906 89.5276 124.084 89.553C124.439 89.553 124.795 89.6292 125.125 89.7308C125.455 89.8323 125.785 90.0101 126.064 90.2386C126.191 90.3655 126.318 90.4925 126.42 90.6194C126.522 90.7718 126.623 90.9241 126.648 91.1019C126.344 90.9749 126.039 90.8987 125.76 90.8733C125.481 90.8226 125.201 90.8226 124.922 90.8226C124.643 90.848 124.389 90.848 124.109 90.8987C123.982 90.8987 123.83 90.9495 123.703 90.9495C123.576 90.9749 123.449 91.0003 123.322 91.0257C122.84 91.1526 122.383 91.3558 121.926 91.6605C121.469 91.9398 121.012 92.3206 120.504 92.7776C120.479 92.0921 120.732 91.4065 121.164 90.848Z" fill="#1F1F39"/>
<path d="M117.152 95.2402C117.457 95.5449 117.711 95.9004 117.965 96.2559C118.219 96.6113 118.422 97.0176 118.574 97.4492C118.6 97.5762 118.65 97.6523 118.676 97.7793C118.701 97.9063 118.727 98.0332 118.727 98.1855C118.727 98.4648 118.676 98.7187 118.549 98.9727C118.32 99.4551 117.965 99.7852 117.609 100.039C116.848 100.547 116.035 100.826 115.172 100.928C115.908 100.496 116.619 100.064 117.178 99.5312C117.457 99.2773 117.686 98.9727 117.812 98.668C117.863 98.5156 117.889 98.3633 117.889 98.2363C117.889 98.1602 117.889 98.084 117.863 98.0078C117.863 97.9316 117.812 97.8301 117.787 97.7539C117.66 97.3984 117.482 97.043 117.279 96.7129C117.076 96.3574 116.873 96.0273 116.619 95.6973C116.187 94.9863 115.68 94.3262 115.172 93.6152C115.908 94.0469 116.568 94.6055 117.152 95.2402Z" fill="#1F1F39"/>
<path d="M123.017 103.162C123.017 103.162 125.252 110.449 122.738 112.963C120.224 115.477 113.75 115.883 112.099 111.287C110.449 106.692 110.982 105.676 110.982 105.676L123.017 103.162Z" fill="#F95368"/>
<path d="M117.711 109.027C115.223 109.713 113.598 111.084 112.582 112.252C114.766 115.781 120.428 115.274 122.738 112.938C123.551 112.151 123.855 110.856 123.932 109.485C122.383 108.824 120.225 108.342 117.711 109.027Z" fill="#F9ACC0"/>
<path fill-rule="evenodd" clip-rule="evenodd" d="M129.153 100.635C126.204 101.263 123.501 100.304 123.116 98.4936C122.73 96.6832 124.808 94.7065 127.757 94.0785C130.706 93.4505 133.409 94.4091 133.794 96.2195C134.18 98.0299 132.102 100.007 129.153 100.635Z" fill="#F9ACC0"/>
<path fill-rule="evenodd" clip-rule="evenodd" d="M106.246 106.349C103.297 106.977 100.594 106.018 100.209 104.208C99.823 102.398 101.901 100.421 104.85 99.7929C107.799 99.1649 110.502 100.123 110.887 101.934C111.273 103.744 109.195 105.721 106.246 106.349Z" fill="#F9ACC0"/>
<path d="M109.941 120.885C109.738 120.758 109.662 120.505 109.789 120.301C109.916 120.098 110.17 120.022 110.348 120.149C110.373 120.174 112.328 121.19 117.254 120.784C121.088 120.479 123.475 118.905 123.5 118.905C123.703 118.778 123.957 118.829 124.084 119.032C124.211 119.235 124.16 119.489 123.957 119.616C123.856 119.692 121.367 121.317 117.305 121.647C116.492 121.698 115.731 121.723 115.07 121.723C111.465 121.723 110.018 120.911 109.941 120.885Z" fill="#1F1F39"/>
<path fill-rule="evenodd" clip-rule="evenodd" d="M106.704 91.818C105.258 92.6524 103.672 92.6101 103.16 91.7236C102.648 90.8371 103.405 89.442 104.85 88.6076C106.295 87.7733 107.882 87.8155 108.393 88.702C108.905 89.5886 108.149 90.9836 106.704 91.818Z" fill="#1F1F39"/>
<path fill-rule="evenodd" clip-rule="evenodd" d="M125.033 85.336C124.977 86.3582 123.582 87.1137 121.915 87.0235C120.249 86.9332 118.943 86.0315 118.999 85.0093C119.054 83.9871 120.45 83.2316 122.116 83.3218C123.782 83.4121 125.088 84.3138 125.033 85.336Z" fill="#1F1F39"/>
<path d="M132.006 75.9942C132.006 75.9942 140.689 68.1485 134.52 58.9063C128.35 49.6641 116.873 53.295 116.873 53.295C116.873 53.295 113.496 41.8184 100.064 42.6563C86.6328 43.4942 87.4707 59.1856 87.4707 59.1856C87.4707 59.1856 84.8555 55.377 79.0664 58.0684C74.8769 60.0235 77.1113 67.0313 77.1113 67.0313C77.1113 67.0313 67.0312 67.8692 64.5176 77.67C61.75 88.4102 68.1484 93.6407 70.9668 95.0372C73.7598 96.4336 76.2988 95.875 76.2988 95.875C76.2988 95.875 70.9668 98.9473 72.9473 104.838C74.9023 110.729 83.3066 110.17 83.3066 110.17L100.242 124.516L134.52 88.0293L132.006 75.9942Z" fill="#F99A3D"/>
<path d="M134.57 87.5725C138.455 88.3089 139.572 92.6253 137.871 97.4749C136.17 102.324 129.238 104.305 129.238 104.305L127.791 89.9846C127.791 89.9846 130.686 86.8362 134.57 87.5725Z" fill="#C43D28"/>
<path d="M90.5176 98.668C86.0488 99.2266 84.6269 105.396 87.7246 109.865C90.8222 114.334 98.3633 113.775 98.3633 113.775C98.3633 113.775 100.039 120.504 100.598 129.187C101.156 137.871 101.156 136.475 101.156 136.475C101.156 136.475 105.93 140.664 115.451 138.709C124.973 136.754 124.414 132.26 124.414 132.26C124.414 132.26 124.135 130.863 123.018 127.207C121.9 123.551 121.342 119.641 121.342 119.641C121.342 119.641 133.098 115.172 131.98 101.156C130.863 87.1406 125.582 75.334 125.582 75.334H122.51C122.51 75.334 122.23 79.5234 118.879 80.666C115.527 81.8086 111.033 78.7109 111.033 78.7109C111.033 78.7109 110.475 83.7637 105.422 85.7187C100.369 87.6738 96.1797 86.8359 96.1797 86.8359C96.1797 86.8359 98.668 98.3887 96.1289 101.182C96.1289 101.182 95.0117 98.1094 90.5176 98.668Z" fill="#DA5742"/>
<path d="M121.113 119.793C112.734 123.094 110.195 120.555 110.195 120.555C113.268 128.934 118.396 130.533 124.211 131.371C124.008 130.584 123.652 129.264 123.018 127.258C121.9 123.627 121.342 119.692 121.342 119.692" fill="#C43D28"/>
<path d="M96.1543 101.207C96.1543 101.207 95.0371 98.1348 90.543 98.6934C86.0742 99.252 84.6523 105.422 87.75 109.891C90.6191 114.08 98.414 118.092 99.3027 118.041C99.5312 116.441 97.373 103.137 96.459 100.775C96.3574 100.928 96.2558 101.08 96.1543 101.207Z" fill="#C43D28"/>
<path d="M131.066 98.592C131.066 98.4905 131.066 96.0784 131.803 93.8694C132.539 91.635 134.012 90.1624 134.062 90.0862C134.215 89.9338 134.443 89.9338 134.57 90.0862C134.723 90.2385 134.723 90.467 134.57 90.594C134.545 90.6194 133.174 92.0159 132.488 94.0979C131.777 96.2053 131.777 98.5667 131.777 98.592C131.777 98.7952 131.625 98.9475 131.422 98.9475C131.219 98.9475 131.066 98.7952 131.066 98.592Z" fill="#1F1F39"/>
<path d="M97.1954 109.815C97.17 109.789 95.3926 106.945 93.2598 105.6C91.127 104.254 88.2579 103.848 88.2325 103.848C88.004 103.822 87.8516 103.594 87.877 103.365C87.9024 103.137 88.1309 102.984 88.3594 103.01C88.4864 103.035 91.4063 103.467 93.6915 104.889C95.9766 106.336 97.8048 109.231 97.8809 109.357C98.0079 109.561 97.9317 109.815 97.754 109.941C97.7032 109.992 97.627 110.018 97.5509 110.018C97.3985 110.018 97.2716 109.941 97.1954 109.815Z" fill="#1F1F39"/>
<path d="M104.686 95.7991C105.143 95.2151 105.777 94.7073 106.514 94.4534C106.895 94.3264 107.25 94.2502 107.656 94.2502C108.037 94.2249 108.443 94.2756 108.799 94.4026C109.535 94.6311 110.195 95.1643 110.424 95.8499C109.764 95.5706 109.18 95.469 108.596 95.469C108.469 95.469 108.316 95.4944 108.189 95.4944C108.063 95.5198 107.91 95.5198 107.783 95.5706C107.707 95.5959 107.656 95.5959 107.58 95.5959L107.377 95.6467C107.225 95.6721 107.123 95.7229 106.971 95.7737C106.463 95.9514 105.955 96.2053 105.473 96.5608C104.99 96.9163 104.508 97.3225 103.975 97.8303C103.975 97.094 104.254 96.4084 104.686 95.7991Z" fill="#1F1F39"/>
<path d="M121.164 90.848C121.596 90.2894 122.256 89.8323 122.992 89.6546C123.17 89.6292 123.373 89.5784 123.551 89.553C123.729 89.553 123.906 89.5276 124.084 89.553C124.439 89.553 124.795 89.6292 125.125 89.7308C125.455 89.8323 125.785 90.0101 126.064 90.2386C126.191 90.3655 126.318 90.4925 126.42 90.6194C126.522 90.7718 126.623 90.9241 126.648 91.1019C126.344 90.9749 126.039 90.8987 125.76 90.8733C125.481 90.8226 125.201 90.8226 124.922 90.8226C124.643 90.848 124.389 90.848 124.109 90.8987C123.982 90.8987 123.83 90.9495 123.703 90.9495C123.576 90.9749 123.449 91.0003 123.322 91.0257C122.84 91.1526 122.383 91.3558 121.926 91.6605C121.469 91.9398 121.012 92.3206 120.504 92.7776C120.479 92.0921 120.732 91.4065 121.164 90.848Z" fill="#1F1F39"/>
<path d="M117.152 95.2402C117.457 95.5449 117.711 95.9004 117.965 96.2559C118.219 96.6113 118.422 97.0176 118.574 97.4492C118.6 97.5762 118.65 97.6523 118.676 97.7793C118.701 97.9063 118.727 98.0332 118.727 98.1855C118.727 98.4648 118.676 98.7187 118.549 98.9727C118.32 99.4551 117.965 99.7852 117.609 100.039C116.848 100.547 116.035 100.826 115.172 100.928C115.908 100.496 116.619 100.064 117.178 99.5312C117.457 99.2773 117.686 98.9727 117.812 98.668C117.863 98.5156 117.889 98.3633 117.889 98.2363C117.889 98.1602 117.889 98.084 117.863 98.0078C117.863 97.9316 117.812 97.8301 117.787 97.7539C117.66 97.3984 117.482 97.043 117.279 96.7129C117.076 96.3574 116.873 96.0273 116.619 95.6973C116.187 94.9863 115.68 94.3262 115.172 93.6152C115.908 94.0469 116.568 94.6055 117.152 95.2402Z" fill="#1F1F39"/>
<path d="M123.017 103.162C123.017 103.162 125.252 110.449 122.738 112.963C120.224 115.477 113.75 115.883 112.099 111.287C110.449 106.692 110.982 105.676 110.982 105.676L123.017 103.162Z" fill="white"/>
<path d="M117.711 109.027C115.223 109.713 113.598 111.084 112.582 112.252C114.766 115.781 120.428 115.274 122.738 112.938C123.551 112.151 123.855 110.856 123.932 109.485C122.383 108.824 120.225 108.342 117.711 109.027Z" fill="#F9D2DD"/>
<path fill-rule="evenodd" clip-rule="evenodd" d="M129.153 100.635C126.204 101.263 123.501 100.304 123.116 98.4936C122.73 96.6832 124.808 94.7065 127.757 94.0785C130.706 93.4505 133.409 94.4091 133.794 96.2195C134.18 98.0299 132.102 100.007 129.153 100.635Z" fill="#C43D28"/>
<path fill-rule="evenodd" clip-rule="evenodd" d="M106.246 106.349C103.297 106.977 100.594 106.018 100.209 104.208C99.823 102.398 101.901 100.421 104.85 99.7929C107.799 99.1649 110.502 100.123 110.887 101.934C111.273 103.744 109.195 105.721 106.246 106.349Z" fill="#C43D28"/>
<path d="M109.941 120.987C109.738 120.885 109.662 120.631 109.789 120.428C109.891 120.225 110.145 120.149 110.348 120.25C110.373 120.276 112.328 121.266 117.254 120.809C118.6 120.682 119.92 120.301 121.19 119.717C121.393 119.616 121.647 119.717 121.748 119.92C121.85 120.123 121.748 120.377 121.545 120.479C120.199 121.114 118.777 121.52 117.33 121.647C116.365 121.723 115.502 121.774 114.766 121.774C111.414 121.774 110.018 121.037 109.941 120.987Z" fill="#1F1F39"/>
<path fill-rule="evenodd" clip-rule="evenodd" d="M106.704 91.818C105.258 92.6524 103.672 92.6101 103.16 91.7236C102.648 90.8371 103.405 89.442 104.85 88.6076C106.295 87.7733 107.882 87.8155 108.393 88.702C108.905 89.5886 108.149 90.9836 106.704 91.818Z" fill="white"/>
<path fill-rule="evenodd" clip-rule="evenodd" d="M125.033 85.336C124.977 86.3582 123.582 87.1137 121.915 87.0235C120.249 86.9332 118.943 86.0315 118.999 85.0093C119.054 83.9871 120.45 83.2316 122.116 83.3218C123.782 83.4121 125.088 84.3138 125.033 85.336Z" fill="white"/>
<path fill-rule="evenodd" clip-rule="evenodd" d="M114.385 196.219V195.711C115.426 195.736 116.416 195.736 117.432 195.711V196.219C116.949 196.219 116.441 196.219 115.934 196.219C115.426 196.219 114.918 196.219 114.385 196.219ZM120.479 195.635C121.469 195.609 122.484 195.584 123.525 195.533L123.551 196.041C122.51 196.092 121.469 196.117 120.504 196.143L120.479 195.635ZM108.291 195.965L108.316 195.457C109.357 195.508 110.398 195.559 111.363 195.609L111.338 196.117C110.373 196.092 109.332 196.041 108.291 195.965ZM126.572 195.381C127.562 195.33 128.578 195.254 129.619 195.203L129.645 195.711C128.604 195.787 127.588 195.838 126.598 195.889L126.572 195.381ZM102.197 195.559L102.248 195.051C103.238 195.127 104.254 195.203 105.295 195.279L105.244 195.787C104.203 195.711 103.188 195.635 102.197 195.559ZM132.641 195C133.707 194.924 134.723 194.848 135.688 194.746L135.738 195.254C134.773 195.33 133.758 195.432 132.691 195.508L132.641 195ZM96.1035 195.051L96.1543 194.543C97.0938 194.619 98.1094 194.721 99.2012 194.822L99.1504 195.33C98.084 195.229 97.043 195.152 96.1035 195.051ZM138.709 194.467C139.902 194.365 140.918 194.238 141.73 194.162L141.781 194.67C140.994 194.771 139.953 194.873 138.76 194.975L138.709 194.467ZM90.1621 194.441H90.0605V193.934H90.2129C90.2129 193.934 91.3301 194.061 93.1328 194.238L93.0566 194.746C91.3809 194.568 90.2891 194.441 90.1621 194.441ZM144.777 193.857C145.742 193.73 146.682 193.35 147.469 192.791L147.773 193.197C146.91 193.832 145.895 194.238 144.854 194.365L144.777 193.857ZM84.6777 191.521L85.1094 191.242C85.668 192.055 86.4043 192.715 87.2676 193.197L87.0137 193.629C86.0742 193.121 85.2871 192.41 84.6777 191.521ZM149.373 190.633C149.83 189.77 150.059 188.805 150.059 187.814H150.566C150.566 188.855 150.312 189.922 149.83 190.861L149.373 190.633ZM83.5352 187.814V187.789L83.8652 185.529L84.373 185.605L84.043 187.84C84.043 188.068 84.0684 188.322 84.0938 188.551L83.5859 188.602C83.5605 188.348 83.5352 188.068 83.5352 187.814ZM149.5 183.904L150.008 183.828L150.439 186.85L149.932 186.926L149.5 183.904ZM84.2969 182.482L84.7285 179.461L85.2363 179.537L84.8047 182.559L84.2969 182.482ZM148.611 177.887L149.119 177.811L149.551 180.832L149.043 180.908L148.611 177.887ZM85.1855 176.465L85.6172 173.443L86.125 173.52L85.6934 176.541L85.1855 176.465ZM147.723 171.844L148.23 171.768L148.662 174.789L148.154 174.865L147.723 171.844ZM86.0742 170.447L86.5059 167.426L87.0137 167.502L86.582 170.523L86.0742 170.447ZM146.834 165.826L147.342 165.75L147.773 168.771L147.266 168.848L146.834 165.826ZM86.8867 164.404C87.0137 163.363 87.4199 162.348 88.0293 161.484L88.4355 161.764C87.877 162.576 87.5215 163.516 87.3945 164.48L86.8867 164.404ZM144.549 160.57L144.879 160.189C145.691 160.875 146.326 161.738 146.732 162.703L146.275 162.906C145.895 162.018 145.311 161.205 144.549 160.57ZM114.689 160.9V160.393C115.73 160.418 116.746 160.418 117.736 160.418V160.926C117.482 160.926 117.254 160.926 117 160.926C116.238 160.926 115.477 160.926 114.689 160.9ZM120.809 160.367C121.824 160.342 122.84 160.316 123.855 160.266L123.881 160.773C122.84 160.824 121.799 160.85 120.809 160.875V160.367ZM108.596 160.646L108.621 160.139C109.662 160.189 110.678 160.266 111.668 160.291L111.643 160.799C110.652 160.748 109.637 160.697 108.596 160.646ZM126.877 160.113C127.893 160.062 128.908 159.986 129.924 159.91L129.975 160.418C128.934 160.494 127.918 160.57 126.902 160.621L126.877 160.113ZM102.502 160.189L102.553 159.682C103.568 159.783 104.584 159.859 105.6 159.936L105.549 160.443C104.533 160.367 103.518 160.291 102.502 160.189ZM132.92 159.631C133.961 159.529 134.977 159.428 135.941 159.301L135.992 159.809C135.053 159.936 134.012 160.037 132.971 160.139L132.92 159.631ZM96.4082 159.529L96.459 159.021C97.4492 159.148 98.4648 159.25 99.4805 159.377L99.4551 159.885C98.4395 159.783 97.3984 159.656 96.4082 159.529ZM90.3906 159.402C91.3301 158.92 92.3711 158.641 93.4375 158.641V159.148C92.4473 159.148 91.4824 159.402 90.6191 159.859L90.3906 159.402ZM138.963 158.895C140.004 158.742 140.562 158.641 140.562 158.641H140.613C141.096 158.641 141.604 158.691 142.061 158.793L141.959 159.301C141.527 159.199 141.07 159.148 140.639 159.148C140.537 159.174 139.979 159.275 139.039 159.402L138.963 158.895Z" fill="#EAEAFF"/>
<path fill-rule="evenodd" clip-rule="evenodd" d="M93.9707 192.309C90.6953 192.283 88.0293 189.617 88.0293 186.316V186.24L90.8477 166.969C90.873 163.693 93.5391 161.027 96.8398 161.027H96.916C97.0176 161.053 107.402 162.551 117 162.551C128.629 162.551 137.084 161.053 137.16 161.027H137.262C140.537 161.027 143.229 163.693 143.254 166.969L146.072 186.266V186.291C146.072 189.592 143.406 192.258 140.131 192.283C139.42 192.385 126.928 193.832 116.086 193.832C107.529 193.832 94.6816 192.385 93.9707 192.309ZM94.0215 191.293H94.0723C94.1992 191.318 107.377 192.816 116.086 192.816C127.105 192.816 139.902 191.318 140.029 191.293H140.08C142.797 191.293 145.031 189.084 145.057 186.367L142.238 167.07V167.045C142.238 164.328 140.029 162.094 137.312 162.068C136.602 162.195 128.273 163.592 117 163.592C107.631 163.592 97.5254 162.17 96.8144 162.068C94.0977 162.094 91.8887 164.303 91.8887 167.045V167.121L89.0449 186.367C89.0703 189.084 91.2793 191.293 94.0215 191.293Z" fill="#EAEAFF"/>
</g>
</svg>
