<svg width="36" height="37" viewBox="0 0 36 37" fill="none" xmlns="http://www.w3.org/2000/svg">
<path fill-rule="evenodd" clip-rule="evenodd" d="M18 36.4277C8.05888 36.4277 0 28.3689 0 18.4277C0 8.48661 8.05888 0.427734 18 0.427734C27.9411 0.427734 36 8.48661 36 18.4277C36 28.3689 27.9411 36.4277 18 36.4277Z" fill="#FFEBF0"/>
<path d="M20.2002 14.4373C20.2002 14.4373 20.593 14.1963 21.2267 14.2766C21.8605 14.357 22.1461 14.598 22.1461 14.598" fill="white"/>
<path d="M17.0761 14.4373C17.0761 14.4373 16.6833 14.1963 16.0495 14.2766C15.4158 14.357 15.1301 14.598 15.1301 14.598" fill="white"/>
<path d="M8.84657 29.7101C5.31175 31.3168 1.43773 36.2798 0.00952148 42.0998H6.32935L5.28497 47.3842C9.0608 49.3122 13.3365 50.4013 17.8621 50.4013C22.4146 50.4013 26.6992 49.3033 30.4839 47.3574L29.3771 42.7782L35.7683 42.2069C35.7594 42.2069 34.2866 33.9947 27.5472 30.1117C22.1468 27.0054 13.8275 27.4696 8.84657 29.7101Z" fill="#3D5CFF"/>
<path d="M8.05192 36.1104L4.29395 42.0999L6.42733 42.091L8.05192 36.1104Z" fill="#224BF4"/>
<path d="M29.3765 42.7781L31.2778 42.6174L27.0378 35.3604L29.3765 42.7781Z" fill="#224BF4"/>
<path d="M6.40916 42.1892C6.36453 42.1802 6.33775 42.1267 6.34668 42.082L8.13194 35.4587C8.14087 35.4141 8.19443 35.3873 8.23906 35.3962C8.28369 35.4052 8.31047 35.4587 8.30154 35.5034L6.51628 42.1267C6.50735 42.1624 6.47165 42.1892 6.43594 42.1892C6.42702 42.1892 6.41809 42.1892 6.40916 42.1892Z" fill="#1F1F39"/>
<path d="M29.2067 42.7785L26.9216 35.3608C26.9038 35.3161 26.9305 35.2715 26.9752 35.2536C27.0198 35.2358 27.0644 35.2626 27.0823 35.3072L29.3763 42.725C29.3942 42.7696 29.3674 42.8142 29.3228 42.8321C29.3049 42.8321 29.296 42.841 29.2871 42.841C29.2514 42.841 29.2157 42.8142 29.2067 42.7785Z" fill="#1F1F39"/>
<path d="M11.6089 15.1427C11.6089 15.1427 9.52013 15.1427 8.95777 14.2322C8.39541 13.3307 9.21663 12.6701 9.21663 12.6701C9.21663 12.6701 8.08299 11.1705 8.68105 9.79587C9.38623 8.18021 11.0376 8.51941 11.0376 8.51941C11.0376 8.51941 9.83255 6.38602 11.3054 4.78821C13.1085 2.82442 16.1256 4.78821 16.1256 4.78821C16.1256 4.78821 16.322 3.51175 17.6341 3.51175C18.9374 3.51175 18.9374 4.29726 18.9374 4.29726C18.9374 4.29726 20.1067 2.71731 22.1509 3.31537C25.159 4.19907 24.6413 7.53752 24.6413 7.53752C24.6413 7.53752 25.8463 7.24295 26.248 8.6176C26.6497 9.99225 25.3465 10.4832 25.3465 10.4832C25.3465 10.4832 26.5605 10.2868 26.8639 11.2687C27.3192 12.7416 26.0606 13.5271 26.0606 13.5271L25.3554 16.9637L11.8945 17.5171L11.6089 15.1427Z" fill="#1F1F39"/>
<path d="M9.27905 14.8386C7.82406 15.5081 7.67232 17.5254 8.77025 18.7929C9.86819 20.0605 12.6353 19.7659 12.6353 19.7659L12.2337 15.2314C12.2337 15.2314 10.734 14.1691 9.27905 14.8386Z" fill="#C43D28"/>
<path d="M26.7213 14.8387C28.1763 15.5082 28.328 17.5256 27.2301 18.7931C26.1321 20.0606 23.365 19.7661 23.365 19.7661L24.1059 15.169C24.1059 15.169 25.2574 14.1693 26.7213 14.8387Z" fill="#C43D28"/>
<path d="M24.1504 18.8285C24.1504 18.8018 24.1593 18.2662 24.7485 17.3557C25.3465 16.4363 26.4445 16.1328 26.4891 16.1149C26.5516 16.0971 26.6051 16.1328 26.623 16.1953C26.6408 16.2578 26.6051 16.3113 26.5426 16.3292C26.5337 16.3292 25.4804 16.6327 24.927 17.4717C24.3735 18.3197 24.3646 18.8196 24.3646 18.8285C24.3646 18.8821 24.32 18.9357 24.2575 18.9357C24.195 18.9357 24.1504 18.8821 24.1504 18.8285Z" fill="#1F1F39"/>
<path d="M12.1267 18.8287C12.1267 18.8287 12.1178 18.3199 11.5644 17.4719C11.0109 16.6239 9.95764 16.3294 9.94871 16.3294C9.88623 16.3115 9.85945 16.249 9.86837 16.1955C9.8773 16.1419 9.94871 16.1062 10.0023 16.1151C10.0469 16.1241 11.1448 16.4365 11.7429 17.3559C12.341 18.2664 12.341 18.8109 12.341 18.8287C12.341 18.8823 12.2963 18.9359 12.2338 18.9359C12.1714 18.9359 12.1267 18.8823 12.1267 18.8287Z" fill="#1F1F39"/>
<path d="M14.9653 23.8542L14.5993 28.9243C14.5993 28.9243 15.1081 30.0401 17.8038 30.0401C20.7227 30.0401 21.5261 28.9243 21.5261 28.9243L21.3833 23.9345C21.3833 23.9345 23.2042 23.6399 24.079 20.3551C24.9538 17.0791 24.5164 14.1691 24.5164 14.1691C24.5164 14.1691 20.2139 14.8386 18.7589 13.0533C17.304 11.2681 15.84 9.47389 13.7245 10.3665C11.609 11.2592 11.8768 17.0166 12.4302 19.757C12.9658 22.4081 14.9653 23.8542 14.9653 23.8542Z" fill="#DA5742"/>
<path fill-rule="evenodd" clip-rule="evenodd" d="M15.9115 17.0168C15.5467 17.0168 15.251 16.6651 15.251 16.2313C15.251 15.7975 15.5467 15.4458 15.9115 15.4458C16.2763 15.4458 16.5721 15.7975 16.5721 16.2313C16.5721 16.6651 16.2763 17.0168 15.9115 17.0168Z" fill="#1F1F39"/>
<path fill-rule="evenodd" clip-rule="evenodd" d="M20.7228 17.0168C20.358 17.0168 20.0623 16.6651 20.0623 16.2313C20.0623 15.7975 20.358 15.4458 20.7228 15.4458C21.0876 15.4458 21.3833 15.7975 21.3833 16.2313C21.3833 16.6651 21.0876 17.0168 20.7228 17.0168Z" fill="#1F1F39"/>
<path d="M17.8126 17.3115C18.0358 17.7578 18.616 17.5346 18.616 17.5346C18.616 17.5346 18.0358 17.3829 18.0358 16.9366C18.0268 16.4903 17.9911 14.9639 17.9911 14.9639C17.9911 14.9639 17.5895 16.8652 17.8126 17.3115Z" fill="#1F1F39"/>
<path d="M14.76 27.55C14.8046 27.5411 19.5891 25.6844 20.4907 24.8364C20.4907 24.3187 20.5086 23.9348 20.5086 23.9348C20.5086 23.9348 19.6338 24.4526 17.5182 24.3811C16.5363 24.3454 15.4741 24.158 14.9653 23.8545C14.9742 24.3097 14.8046 27.3715 14.76 27.55Z" fill="#C43D28"/>
<path fill-rule="evenodd" clip-rule="evenodd" d="M21.9273 18.9537C21.1435 18.9537 20.5081 18.5541 20.5081 18.0611C20.5081 17.5681 21.1435 17.1685 21.9273 17.1685C22.7112 17.1685 23.3466 17.5681 23.3466 18.0611C23.3466 18.5541 22.7112 18.9537 21.9273 18.9537Z" fill="#C43D28"/>
<path fill-rule="evenodd" clip-rule="evenodd" d="M14.4207 18.9537C13.6369 18.9537 13.0015 18.5541 13.0015 18.0611C13.0015 17.5681 13.6369 17.1685 14.4207 17.1685C15.2046 17.1685 15.84 17.5681 15.84 18.0611C15.84 18.5541 15.2046 18.9537 14.4207 18.9537Z" fill="#C43D28"/>
<path d="M18.3032 19.1591C18.6602 19.0699 19.3743 18.5343 19.3743 18.5343C19.3743 18.5343 19.5528 18.445 19.6421 18.5343C19.7314 18.6236 19.1601 19.6412 18.6602 19.784C18.0354 19.9625 17.5891 19.6947 17.3213 19.3377C17.0535 18.9806 17.4105 19.0699 17.4105 19.0699C17.4105 19.0699 17.9461 19.2484 18.3032 19.1591Z" fill="white"/>
<path d="M14.9114 22.0156C16.2503 22.3726 16.0004 22.9975 16.5806 22.7297C17.1697 22.4619 17.3304 21.9263 18.5087 22.1048C19.678 22.2834 19.4281 22.9082 20.1779 22.8189C20.9277 22.7297 22.1863 21.837 22.7665 21.3015C23.3557 20.7659 24.1858 19.8733 24.1858 19.8733C24.1858 19.8733 23.6502 23.6223 20.6689 24.5149C18.4284 25.1844 15.2506 24.872 13.8313 22.8189C12.412 20.7659 12.3228 19.6055 12.3228 19.6055C12.3228 19.6055 13.5724 21.6585 14.9114 22.0156Z" fill="#1F1F39"/>
<path d="M16.277 21.569C16.2234 21.5333 16.2145 21.4708 16.2502 21.4173L16.6072 20.8817C16.6429 20.8281 16.7054 20.8192 16.759 20.8549C16.8125 20.8906 16.8215 20.9531 16.7858 21.0067L16.4287 21.5422C16.4109 21.569 16.3752 21.5869 16.3394 21.5869C16.3216 21.5869 16.2948 21.578 16.277 21.569Z" fill="#1F1F39"/>
<path d="M14.3762 21.1943C14.3405 21.1407 14.3583 21.0783 14.403 21.0426L14.9385 20.6855C14.9921 20.6498 15.0546 20.6676 15.0903 20.7123C15.126 20.7658 15.1081 20.8283 15.0635 20.864L14.5279 21.2211C14.5101 21.23 14.4922 21.2389 14.4654 21.2389C14.4297 21.2389 14.394 21.2211 14.3762 21.1943Z" fill="#1F1F39"/>
<path d="M18.1963 21.6584V21.2121C18.1963 21.1496 18.2498 21.105 18.3034 21.105C18.357 21.105 18.4105 21.1585 18.4105 21.2121V21.6584C18.4105 21.7209 18.3659 21.7655 18.3034 21.7655C18.2409 21.7655 18.1963 21.712 18.1963 21.6584Z" fill="#1F1F39"/>
<path d="M19.8925 21.4264L19.7139 20.9801C19.6872 20.9265 19.7229 20.8551 19.7764 20.8372C19.83 20.8105 19.9014 20.8462 19.9192 20.8997L20.0978 21.346C20.1246 21.3996 20.0888 21.471 20.0353 21.4889C20.0264 21.4978 20.0174 21.4978 19.9996 21.4978C19.955 21.4978 19.9103 21.471 19.8925 21.4264Z" fill="#1F1F39"/>
<path d="M21.9096 21.3011L21.2847 20.944C21.2312 20.9173 21.2133 20.8458 21.2401 20.7923C21.2669 20.7387 21.3383 20.7209 21.3918 20.7477L22.0167 21.1047C22.0702 21.1315 22.0881 21.2029 22.0613 21.2565C22.0345 21.3011 21.9988 21.3189 21.9631 21.3189C21.9453 21.3189 21.9274 21.31 21.9096 21.3011Z" fill="#1F1F39"/>
<g opacity="0.5919">
<g opacity="0.5919">
<path opacity="0.5919" d="M12.9879 34.3163C13.1485 34.4234 13.3628 34.4055 13.5502 34.3609C13.7823 34.2984 14.0233 34.1824 14.2554 34.3074C14.4607 34.4145 14.5589 34.6555 14.5053 34.8786C14.4875 34.959 14.6125 34.9947 14.6303 34.9143C14.7374 34.477 14.3804 34.0753 13.9341 34.1288C13.702 34.1556 13.4788 34.2895 13.2378 34.2717C12.9789 34.2538 12.9165 34.0217 12.8718 33.7986C12.854 33.7004 12.729 33.7361 12.7469 33.8253C12.7826 34.0039 12.8272 34.2002 12.9879 34.3163Z" fill="#BFE3C6"/>
<path opacity="0.5919" d="M4.74896 36.4228C4.74003 36.2443 4.75788 36.0836 4.92748 35.9854C5.26668 35.7712 5.60588 36.0836 5.93616 36.1104C6.23965 36.1372 6.43603 35.8694 6.51637 35.6016C6.58778 35.3338 6.55207 35.0392 6.40032 34.8071C6.35569 34.7357 6.23965 34.7982 6.28428 34.8786C6.45388 35.1374 6.46281 35.4855 6.30213 35.7533C6.19502 35.9319 6.04327 36.0122 5.84689 35.9497C5.68622 35.9051 5.53447 35.8158 5.36487 35.789C5.10601 35.7444 4.79359 35.8069 4.66862 36.0747C4.60614 36.2086 4.61506 36.3603 4.62399 36.5031C4.63291 36.6817 4.65969 36.8602 4.70433 37.0298C4.72218 37.1101 4.84715 37.0744 4.82929 36.9941C4.78466 36.8066 4.74896 36.6103 4.74896 36.4228Z" fill="#BFE3C6"/>
<path opacity="0.5919" d="M21.8874 33.0844C21.9856 33.3433 22.173 33.5129 22.3515 33.7182C22.4587 33.8342 22.5479 34.0038 22.3783 34.1109C22.2355 34.2002 22.048 34.2181 21.8874 34.2091C21.7981 34.2091 21.7981 34.343 21.8874 34.343C22.1105 34.352 22.5033 34.3073 22.5926 34.0663C22.6818 33.8342 22.4497 33.6289 22.3069 33.4772C22.1016 33.2629 21.9409 32.9773 21.9499 32.6738C21.9588 32.406 22.1195 32.1472 22.3783 32.0668C22.4676 32.0311 22.4319 31.9062 22.3426 31.9329C21.8606 32.0847 21.7178 32.647 21.8874 33.0844Z" fill="#BFE3C6"/>
<path opacity="0.5919" d="M30.0017 35.7625C29.8945 35.9857 29.9659 36.2356 30.0106 36.4588C30.0552 36.6908 30.0641 36.9586 29.8321 37.0925C29.6178 37.2086 29.3679 37.1193 29.234 36.9318C29.1894 36.8604 29.0733 36.9318 29.1179 37.0033C29.2429 37.1818 29.4393 37.3068 29.6625 37.2889C29.8767 37.271 30.0731 37.1282 30.1445 36.9229C30.2248 36.673 30.1266 36.4141 30.0909 36.1642C30.0731 36.0392 30.0731 35.8964 30.1534 35.7804C30.2159 35.6911 30.323 35.6286 30.439 35.6643C30.5194 35.6732 30.5551 35.5483 30.4747 35.5215C30.2784 35.459 30.0909 35.5929 30.0017 35.7625Z" fill="#BFE3C6"/>
</g>
</g>
</svg>
